<svg width="24" height="24" viewBox="0 0 24 24" fill="none" xmlns="http://www.w3.org/2000/svg">
<path d="M23 3.87922V9.63765C23 10.7698 22.8549 11.8383 22.5646 12.843C22.2743 13.8478 21.8733 14.7963 21.3615 15.6885C20.8497 16.5808 20.2462 17.4168 19.551 18.1966C18.8559 18.9764 18.0997 19.7074 17.2823 20.3897C16.4649 21.072 15.6094 21.7131 14.7156 22.313C13.8219 22.9128 12.9167 23.4751 12 24C11.091 23.4751 10.1896 22.9165 9.29583 22.3242C8.40208 21.7319 7.54653 21.0908 6.72917 20.401C5.91181 19.7112 5.15556 18.9764 4.46042 18.1966C3.76528 17.4168 3.15799 16.5808 2.63854 15.6885C2.1191 14.7963 1.71806 13.8478 1.43542 12.843C1.15278 11.8383 1.00764 10.7698 1 9.63765V3.87922C1.63403 3.87922 2.24896 3.85672 2.84479 3.81174C3.44063 3.76675 4.02118 3.68427 4.58646 3.5643C5.15174 3.44434 5.70938 3.27563 6.25938 3.05819C6.80938 2.84075 7.35938 2.55958 7.90938 2.21467C8.55868 1.80228 9.20799 1.49861 9.85729 1.30367C10.5066 1.10872 11.2208 1.0075 12 1C12.3896 1 12.7601 1.02249 13.1115 1.06748C13.4628 1.11247 13.8028 1.18745 14.1313 1.29242C14.4597 1.39739 14.7882 1.52486 15.1167 1.67482C15.4451 1.82478 15.7698 2.00473 16.0906 2.21467C16.6406 2.55958 17.1906 2.84075 17.7406 3.05819C18.2906 3.27563 18.8483 3.44434 19.4135 3.5643C19.9788 3.68427 20.5594 3.76675 21.1552 3.81174C21.751 3.85672 22.366 3.87922 23 3.87922ZM21.5333 9.63765V5.29633C20.3951 5.23635 19.3066 5.0564 18.2677 4.75648C17.2288 4.45656 16.2243 4.00293 15.2542 3.3956C14.7347 3.06569 14.2191 2.82575 13.7073 2.67579C13.1955 2.52584 12.6264 2.44711 12 2.43961C11.3813 2.43961 10.816 2.51459 10.3042 2.66455C9.79236 2.81451 9.27292 3.05819 8.74583 3.3956C7.78333 4.00293 6.78264 4.45656 5.74375 4.75648C4.70486 5.0564 3.6125 5.23635 2.46667 5.29633V9.63765C2.46667 10.5899 2.59271 11.5046 2.84479 12.3819C3.09688 13.2592 3.44826 14.0914 3.89896 14.8787C4.34965 15.666 4.87674 16.4158 5.48021 17.1281C6.08368 17.8404 6.74063 18.5077 7.45104 19.1301C8.16146 19.7524 8.89861 20.3335 9.6625 20.8733C10.4264 21.4132 11.2056 21.9006 12 22.3355C12.7792 21.8931 13.5545 21.4057 14.326 20.8733C15.0976 20.341 15.8385 19.7637 16.549 19.1413C17.2594 18.519 17.9163 17.8517 18.5198 17.1394C19.1233 16.4271 19.6503 15.6773 20.101 14.89C20.5517 14.1027 20.8993 13.2667 21.1438 12.3819C21.3882 11.4971 21.5181 10.5824 21.5333 9.63765ZM12 4.59902C12.5042 4.59902 12.9778 4.69275 13.4208 4.8802C13.8639 5.06764 14.2497 5.32632 14.5781 5.65623C14.9066 5.98615 15.1701 6.36854 15.3688 6.80342C15.5674 7.2383 15.6667 7.70318 15.6667 8.19804V9.63765H17.1333V16.8357H6.86667V9.63765H8.33333V8.19804C8.33333 7.70318 8.42882 7.2383 8.61979 6.80342C8.81076 6.36854 9.07049 5.98989 9.39896 5.66748C9.72743 5.34507 10.117 5.08639 10.5677 4.89144C11.0184 4.6965 11.4958 4.59902 12 4.59902ZM15.6667 15.3961V11.0773H8.33333V15.3961H15.6667ZM9.8 9.63765H14.2V8.19804C14.2 7.89813 14.1427 7.61695 14.0281 7.35452C13.9135 7.09209 13.7569 6.86341 13.5583 6.66846C13.3597 6.47351 13.1267 6.3198 12.8594 6.20734C12.592 6.09487 12.3056 6.03863 12 6.03863C11.6944 6.03863 11.408 6.09487 11.1406 6.20734C10.8733 6.3198 10.6403 6.47351 10.4417 6.66846C10.2431 6.86341 10.0865 7.09209 9.97188 7.35452C9.85729 7.61695 9.8 7.89813 9.8 8.19804V9.63765Z" fill="#424244"/>
</svg>
