<svg width="50" height="50" viewBox="0 0 50 50" fill="none" xmlns="http://www.w3.org/2000/svg">
<rect width="50" height="50" rx="25" fill="#FAFAFA"/>
<path d="M30.6289 20.1387L30.6289 28.0936C30.6289 28.2595 30.563 28.4185 30.4457 28.5358C30.3284 28.6531 30.1694 28.719 30.0035 28.719C29.8377 28.719 29.6786 28.6531 29.5613 28.5358C29.4441 28.4185 29.3782 28.2595 29.3782 28.0936L29.3787 21.6473L20.7227 30.3033C20.6055 30.4205 20.4466 30.4864 20.2808 30.4864C20.115 30.4864 19.9561 30.4205 19.8389 30.3033C19.7216 30.1861 19.6558 30.0271 19.6558 29.8614C19.6558 29.6956 19.7216 29.5367 19.8389 29.4194L28.4948 20.7635L22.0486 20.764C21.8827 20.764 21.7236 20.6981 21.6064 20.5809C21.4891 20.4636 21.4232 20.3045 21.4232 20.1387C21.4232 19.9728 21.4891 19.8138 21.6064 19.6965C21.7236 19.5792 21.8827 19.5133 22.0486 19.5133L30.0035 19.5133C30.0856 19.5133 30.167 19.5294 30.2429 19.5608C30.3188 19.5922 30.3877 19.6383 30.4458 19.6964C30.5039 19.7545 30.5499 19.8234 30.5814 19.8993C30.6128 19.9752 30.6289 20.0565 30.6289 20.1387Z" fill="#204041"/>
</svg>
