<svg width="24" height="20" viewBox="0 0 24 20" fill="none" xmlns="http://www.w3.org/2000/svg">
<path d="M23.7075 10.7076L14.7075 19.7076C14.5199 19.8952 14.2654 20.0006 14 20.0006C13.7346 20.0006 13.4801 19.8952 13.2925 19.7076C13.1049 19.5199 12.9994 19.2654 12.9994 19.0001C12.9994 18.7347 13.1049 18.4802 13.2925 18.2926L20.5863 11.0001H1C0.734784 11.0001 0.48043 10.8947 0.292893 10.7072C0.105357 10.5196 0 10.2653 0 10.0001C0 9.73485 0.105357 9.4805 0.292893 9.29296C0.48043 9.10542 0.734784 9.00007 1 9.00007H20.5863L13.2925 1.70757C13.1049 1.51993 12.9994 1.26543 12.9994 1.00007C12.9994 0.734704 13.1049 0.480208 13.2925 0.292568C13.4801 0.104927 13.7346 -0.000488281 14 -0.000488281C14.2654 -0.000488281 14.5199 0.104927 14.7075 0.292568L23.7075 9.29257C23.8005 9.38544 23.8742 9.49573 23.9246 9.61713C23.9749 9.73853 24.0008 9.86865 24.0008 10.0001C24.0008 10.1315 23.9749 10.2616 23.9246 10.383C23.8742 10.5044 23.8005 10.6147 23.7075 10.7076Z" fill="#404040"/>
</svg>
