<svg width="48" height="48" viewBox="0 0 48 48" fill="none" xmlns="http://www.w3.org/2000/svg">
<path d="M24 33C26.3862 32.9975 28.6739 32.0485 30.3612 30.3612C32.0485 28.6739 32.9975 26.3862 33 24V12C33 9.61305 32.0518 7.32387 30.364 5.63604C28.6761 3.94821 26.3869 3 24 3C21.6131 3 19.3239 3.94821 17.636 5.63604C15.9482 7.32387 15 9.61305 15 12V24C15.0025 26.3862 15.9515 28.6739 17.6388 30.3612C19.3261 32.0485 21.6138 32.9975 24 33ZM18 12C18 10.4087 18.6321 8.88258 19.7574 7.75736C20.8826 6.63214 22.4087 6 24 6C25.5913 6 27.1174 6.63214 28.2426 7.75736C29.3679 8.88258 30 10.4087 30 12V24C30 25.5913 29.3679 27.1174 28.2426 28.2426C27.1174 29.3679 25.5913 30 24 30C22.4087 30 20.8826 29.3679 19.7574 28.2426C18.6321 27.1174 18 25.5913 18 24V12ZM25.5 38.925V45C25.5 45.3978 25.342 45.7794 25.0607 46.0607C24.7794 46.342 24.3978 46.5 24 46.5C23.6022 46.5 23.2206 46.342 22.9393 46.0607C22.658 45.7794 22.5 45.3978 22.5 45V38.925C18.8018 38.5487 15.3746 36.8144 12.881 34.0576C10.3874 31.3008 9.00457 27.7173 9 24C9 23.6022 9.15804 23.2206 9.43934 22.9393C9.72064 22.658 10.1022 22.5 10.5 22.5C10.8978 22.5 11.2794 22.658 11.5607 22.9393C11.842 23.2206 12 23.6022 12 24C12 27.1826 13.2643 30.2348 15.5147 32.4853C17.7652 34.7357 20.8174 36 24 36C27.1826 36 30.2348 34.7357 32.4853 32.4853C34.7357 30.2348 36 27.1826 36 24C36 23.6022 36.158 23.2206 36.4393 22.9393C36.7206 22.658 37.1022 22.5 37.5 22.5C37.8978 22.5 38.2794 22.658 38.5607 22.9393C38.842 23.2206 39 23.6022 39 24C38.9954 27.7173 37.6126 31.3008 35.119 34.0576C32.6254 36.8144 29.1982 38.5487 25.5 38.925Z" fill="#0F0F0F"/>
</svg>
