<svg width="518" height="518" viewBox="0 0 518 518" fill="none" xmlns="http://www.w3.org/2000/svg">
<g clip-path="url(#clip0_226_3293)">
<rect width="518" height="518" rx="32" fill="#F5F5F5"/>
<rect x="389.076" y="115.278" width="229.038" height="264.445" rx="17.7034" fill="#FF7438"/>
<mask id="mask0_226_3293" style="mask-type:alpha" maskUnits="userSpaceOnUse" x="389" y="115" width="230" height="265">
<rect x="389.076" y="115.278" width="229.038" height="264.445" rx="17.7034" fill="#2C7B7B"/>
</mask>
<g mask="url(#mask0_226_3293)">
<circle cx="454.911" cy="337.124" r="153.245" fill="url(#paint0_linear_226_3293)" fill-opacity="0.2"/>
<circle cx="454.911" cy="337.123" r="84.6445" fill="url(#paint1_linear_226_3293)" fill-opacity="0.2"/>
</g>
<path d="M419.566 340.979L419.686 338.326L417.448 339.766L416.762 338.571L419.139 337.358L416.762 336.145L417.448 334.95L419.686 336.39L419.566 333.737H420.931L420.811 336.39L423.049 334.95L423.734 336.145L421.358 337.358L423.734 338.571L423.049 339.766L420.811 338.326L420.931 340.979H419.566ZM428.887 340.979L429.006 338.326L426.768 339.766L426.083 338.571L428.459 337.358L426.083 336.145L426.768 334.95L429.006 336.39L428.887 333.737H430.251L430.132 336.39L432.37 334.95L433.055 336.145L430.679 337.358L433.055 338.571L432.37 339.766L430.132 338.326L430.251 340.979H428.887ZM438.208 340.979L438.327 338.326L436.089 339.766L435.404 338.571L437.78 337.358L435.404 336.145L436.089 334.95L438.327 336.39L438.208 333.737H439.572L439.452 336.39L441.69 334.95L442.376 336.145L439.999 337.358L442.376 338.571L441.69 339.766L439.452 338.326L439.572 340.979H438.208ZM447.528 340.979L447.648 338.326L445.409 339.766L444.724 338.571L447.101 337.358L444.724 336.145L445.409 334.95L447.648 336.39L447.528 333.737H448.892L448.773 336.39L451.011 334.95L451.696 336.145L449.32 337.358L451.696 338.571L451.011 339.766L448.773 338.326L448.892 340.979H447.528ZM464.133 346.612L469.753 335.497V335.403H463.253V333.737H471.765V335.459L466.163 346.612H464.133ZM478.131 346.788C477.23 346.788 476.433 346.633 475.742 346.323C475.054 346.013 474.516 345.585 474.126 345.04C473.736 344.496 473.544 343.875 473.548 343.18C473.544 342.635 473.655 342.134 473.881 341.677C474.111 341.216 474.424 340.832 474.818 340.527C475.212 340.216 475.652 340.019 476.138 339.936V339.86C475.497 339.705 474.983 339.361 474.598 338.829C474.212 338.297 474.021 337.685 474.025 336.993C474.021 336.335 474.195 335.749 474.547 335.233C474.904 334.713 475.392 334.305 476.012 334.007C476.632 333.71 477.339 333.561 478.131 333.561C478.914 333.561 479.614 333.712 480.23 334.013C480.851 334.311 481.339 334.72 481.695 335.239C482.052 335.755 482.232 336.34 482.236 336.993C482.232 337.685 482.035 338.297 481.645 338.829C481.255 339.361 480.748 339.705 480.124 339.86V339.936C480.606 340.019 481.039 340.216 481.425 340.527C481.815 340.832 482.125 341.216 482.355 341.677C482.59 342.134 482.71 342.635 482.714 343.18C482.71 343.875 482.513 344.496 482.123 345.04C481.733 345.585 481.192 346.013 480.501 346.323C479.813 346.633 479.023 346.788 478.131 346.788ZM478.131 345.198C478.663 345.198 479.124 345.11 479.514 344.934C479.904 344.753 480.205 344.504 480.419 344.185C480.633 343.863 480.742 343.485 480.746 343.054C480.742 342.605 480.624 342.209 480.394 341.866C480.168 341.522 479.86 341.252 479.47 341.055C479.08 340.858 478.634 340.759 478.131 340.759C477.624 340.759 477.173 340.858 476.779 341.055C476.385 341.252 476.075 341.522 475.849 341.866C475.622 342.209 475.511 342.605 475.515 343.054C475.511 343.485 475.614 343.863 475.824 344.185C476.037 344.504 476.341 344.753 476.735 344.934C477.129 345.11 477.594 345.198 478.131 345.198ZM478.131 339.206C478.558 339.206 478.938 339.12 479.269 338.949C479.6 338.777 479.86 338.538 480.048 338.232C480.241 337.926 480.339 337.568 480.344 337.157C480.339 336.754 480.243 336.402 480.054 336.101C479.87 335.799 479.612 335.566 479.281 335.403C478.95 335.235 478.567 335.151 478.131 335.151C477.686 335.151 477.297 335.235 476.961 335.403C476.63 335.566 476.373 335.799 476.188 336.101C476.004 336.402 475.914 336.754 475.918 337.157C475.914 337.568 476.006 337.926 476.194 338.232C476.383 338.538 476.643 338.777 476.974 338.949C477.309 339.12 477.695 339.206 478.131 339.206ZM489.336 333.561C489.91 333.565 490.476 333.67 491.033 333.875C491.591 334.081 492.094 334.416 492.542 334.881C492.995 335.346 493.355 335.975 493.623 336.767C493.896 337.555 494.034 338.536 494.038 339.709C494.038 340.837 493.925 341.84 493.699 342.721C493.472 343.597 493.148 344.336 492.724 344.94C492.305 345.543 491.796 346.002 491.197 346.317C490.597 346.631 489.923 346.788 489.172 346.788C488.405 346.788 487.724 346.637 487.129 346.335C486.534 346.034 486.05 345.617 485.677 345.084C485.304 344.548 485.071 343.932 484.979 343.236H486.897C487.022 343.789 487.278 344.238 487.663 344.581C488.053 344.921 488.556 345.091 489.172 345.091C490.115 345.091 490.851 344.68 491.379 343.858C491.907 343.033 492.173 341.88 492.177 340.401H492.077C491.859 340.761 491.586 341.071 491.259 341.331C490.937 341.591 490.574 341.792 490.172 341.935C489.77 342.077 489.34 342.148 488.883 342.148C488.141 342.148 487.467 341.966 486.859 341.602C486.251 341.237 485.767 340.736 485.407 340.099C485.046 339.462 484.866 338.735 484.866 337.918C484.866 337.104 485.05 336.367 485.419 335.705C485.792 335.042 486.312 334.518 486.978 334.133C487.649 333.743 488.435 333.552 489.336 333.561ZM489.342 335.195C488.852 335.195 488.41 335.317 488.016 335.56C487.626 335.799 487.318 336.124 487.091 336.534C486.865 336.941 486.752 337.394 486.752 337.892C486.752 338.391 486.861 338.844 487.079 339.25C487.301 339.653 487.603 339.973 487.984 340.212C488.37 340.447 488.81 340.564 489.304 340.564C489.673 340.564 490.017 340.493 490.335 340.35C490.654 340.208 490.933 340.011 491.171 339.76C491.41 339.504 491.597 339.215 491.731 338.892C491.865 338.569 491.932 338.23 491.932 337.874C491.932 337.4 491.819 336.96 491.593 336.553C491.371 336.147 491.065 335.82 490.675 335.573C490.285 335.321 489.841 335.195 489.342 335.195ZM496.486 346.612L502.106 335.497V335.403H495.606V333.737H504.118V335.459L498.516 346.612H496.486Z" fill="#FFC4AB"/>
<path d="M423.571 267.935V243.794H425.118V267.935H423.571ZM428.031 251.517C427.943 250.694 427.572 250.053 426.919 249.594C426.271 249.135 425.429 248.905 424.391 248.905C423.662 248.905 423.037 249.015 422.515 249.235C421.993 249.455 421.594 249.754 421.317 250.131C421.041 250.508 420.899 250.939 420.893 251.423C420.893 251.825 420.984 252.174 421.166 252.47C421.355 252.765 421.61 253.017 421.93 253.224C422.251 253.425 422.606 253.595 422.996 253.733C423.386 253.872 423.778 253.988 424.175 254.082L425.985 254.535C426.714 254.705 427.415 254.934 428.088 255.223C428.767 255.513 429.374 255.877 429.908 256.317C430.449 256.757 430.876 257.289 431.191 257.911C431.505 258.533 431.662 259.263 431.662 260.099C431.662 261.23 431.373 262.227 430.794 263.088C430.216 263.943 429.38 264.613 428.286 265.097C427.198 265.574 425.881 265.813 424.335 265.813C422.832 265.813 421.528 265.581 420.421 265.116C419.321 264.65 418.46 263.971 417.838 263.079C417.221 262.186 416.888 261.098 416.838 259.816H420.28C420.33 260.488 420.538 261.048 420.902 261.494C421.267 261.941 421.742 262.274 422.326 262.494C422.917 262.714 423.577 262.824 424.307 262.824C425.067 262.824 425.734 262.711 426.306 262.485C426.884 262.252 427.337 261.931 427.664 261.523C427.991 261.108 428.157 260.624 428.163 260.07C428.157 259.567 428.009 259.153 427.72 258.826C427.431 258.492 427.026 258.216 426.504 257.996C425.988 257.769 425.385 257.568 424.693 257.392L422.496 256.826C420.905 256.418 419.648 255.799 418.724 254.969C417.806 254.133 417.347 253.023 417.347 251.64C417.347 250.502 417.655 249.506 418.271 248.651C418.894 247.796 419.739 247.132 420.808 246.661C421.877 246.183 423.087 245.944 424.439 245.944C425.809 245.944 427.01 246.183 428.041 246.661C429.078 247.132 429.892 247.789 430.483 248.632C431.074 249.468 431.379 250.43 431.398 251.517H428.031ZM434.725 265.521V262.994L441.43 256.421C442.071 255.773 442.606 255.198 443.033 254.695C443.461 254.192 443.781 253.705 443.995 253.234C444.209 252.762 444.316 252.259 444.316 251.725C444.316 251.115 444.177 250.593 443.901 250.159C443.624 249.719 443.244 249.38 442.76 249.141C442.276 248.902 441.725 248.783 441.109 248.783C440.474 248.783 439.918 248.915 439.44 249.179C438.962 249.436 438.592 249.804 438.327 250.282C438.07 250.76 437.941 251.329 437.941 251.989H434.612C434.612 250.763 434.892 249.697 435.451 248.792C436.011 247.887 436.781 247.186 437.762 246.689C438.749 246.192 439.88 245.944 441.157 245.944C442.452 245.944 443.589 246.186 444.57 246.67C445.551 247.154 446.312 247.818 446.852 248.66C447.399 249.502 447.673 250.464 447.673 251.546C447.673 252.269 447.534 252.979 447.258 253.677C446.981 254.375 446.494 255.148 445.796 255.997C445.105 256.845 444.133 257.873 442.882 259.08L439.553 262.466V262.598H447.965V265.521H434.725ZM453.492 265.728C452.92 265.728 452.429 265.527 452.021 265.125C451.612 264.723 451.411 264.232 451.417 263.654C451.411 263.088 451.612 262.604 452.021 262.202C452.429 261.799 452.92 261.598 453.492 261.598C454.045 261.598 454.526 261.799 454.935 262.202C455.35 262.604 455.56 263.088 455.566 263.654C455.56 264.037 455.46 264.386 455.265 264.701C455.076 265.015 454.825 265.266 454.51 265.455C454.202 265.637 453.863 265.728 453.492 265.728ZM465.507 265.785C464.582 265.779 463.68 265.618 462.8 265.304C461.92 264.983 461.128 264.465 460.424 263.748C459.72 263.025 459.16 262.066 458.745 260.872C458.33 259.671 458.126 258.184 458.132 256.412C458.132 254.758 458.308 253.284 458.66 251.989C459.012 250.694 459.518 249.6 460.179 248.707C460.839 247.808 461.634 247.123 462.564 246.651C463.501 246.18 464.548 245.944 465.705 245.944C466.918 245.944 467.993 246.183 468.93 246.661C469.873 247.139 470.633 247.792 471.212 248.622C471.79 249.446 472.148 250.376 472.287 251.414H468.845C468.669 250.672 468.307 250.081 467.76 249.641C467.22 249.194 466.534 248.971 465.705 248.971C464.365 248.971 463.334 249.553 462.611 250.716C461.895 251.879 461.533 253.476 461.527 255.506H461.659C461.967 254.953 462.366 254.478 462.857 254.082C463.347 253.686 463.9 253.381 464.516 253.168C465.139 252.948 465.796 252.838 466.487 252.838C467.619 252.838 468.634 253.108 469.533 253.649C470.438 254.189 471.155 254.934 471.683 255.883C472.211 256.826 472.472 257.908 472.466 259.127C472.472 260.397 472.183 261.538 471.598 262.551C471.014 263.556 470.2 264.349 469.156 264.927C468.112 265.505 466.896 265.791 465.507 265.785ZM465.488 262.956C466.173 262.956 466.786 262.789 467.327 262.456C467.867 262.123 468.295 261.674 468.609 261.108C468.923 260.542 469.077 259.907 469.071 259.203C469.077 258.511 468.926 257.886 468.618 257.326C468.317 256.767 467.899 256.324 467.364 255.997C466.83 255.67 466.22 255.506 465.535 255.506C465.026 255.506 464.551 255.604 464.111 255.799C463.671 255.993 463.287 256.264 462.96 256.61C462.633 256.949 462.376 257.345 462.187 257.798C462.005 258.244 461.911 258.722 461.904 259.231C461.911 259.904 462.068 260.523 462.376 261.089C462.684 261.655 463.108 262.107 463.649 262.447C464.189 262.786 464.802 262.956 465.488 262.956ZM482.859 265.785C481.934 265.779 481.032 265.618 480.152 265.304C479.272 264.983 478.48 264.465 477.776 263.748C477.072 263.025 476.512 262.066 476.097 260.872C475.682 259.671 475.478 258.184 475.484 256.412C475.484 254.758 475.66 253.284 476.012 251.989C476.364 250.694 476.871 249.6 477.531 248.707C478.191 247.808 478.986 247.123 479.916 246.651C480.853 246.18 481.9 245.944 483.057 245.944C484.27 245.944 485.345 246.183 486.282 246.661C487.225 247.139 487.985 247.792 488.564 248.622C489.142 249.446 489.501 250.376 489.639 251.414H486.197C486.021 250.672 485.659 250.081 485.112 249.641C484.572 249.194 483.887 248.971 483.057 248.971C481.718 248.971 480.687 249.553 479.964 250.716C479.247 251.879 478.885 253.476 478.879 255.506H479.011C479.319 254.953 479.718 254.478 480.209 254.082C480.699 253.686 481.252 253.381 481.868 253.168C482.491 252.948 483.148 252.838 483.839 252.838C484.971 252.838 485.986 253.108 486.885 253.649C487.791 254.189 488.507 254.934 489.035 255.883C489.563 256.826 489.824 257.908 489.818 259.127C489.824 260.397 489.535 261.538 488.95 262.551C488.366 263.556 487.552 264.349 486.508 264.927C485.464 265.505 484.248 265.791 482.859 265.785ZM482.84 262.956C483.525 262.956 484.138 262.789 484.679 262.456C485.219 262.123 485.647 261.674 485.961 261.108C486.275 260.542 486.429 259.907 486.423 259.203C486.429 258.511 486.279 257.886 485.971 257.326C485.669 256.767 485.251 256.324 484.716 255.997C484.182 255.67 483.572 255.506 482.887 255.506C482.378 255.506 481.903 255.604 481.463 255.799C481.023 255.993 480.639 256.264 480.313 256.61C479.986 256.949 479.728 257.345 479.539 257.798C479.357 258.244 479.263 258.722 479.256 259.231C479.263 259.904 479.42 260.523 479.728 261.089C480.036 261.655 480.46 262.107 481.001 262.447C481.542 262.786 482.155 262.956 482.84 262.956ZM492.789 261.938V259.156L500.984 246.208H503.304V250.169H501.889L496.373 258.911V259.061H507.811V261.938H492.789ZM502.002 265.521V261.089L502.04 259.844V246.208H505.341V265.521H502.002ZM514.458 262.881L514.335 263.918C514.247 264.71 514.09 265.515 513.864 266.332C513.644 267.156 513.411 267.913 513.166 268.605C512.921 269.296 512.723 269.84 512.572 270.236H510.271C510.359 269.853 510.479 269.331 510.629 268.671C510.787 268.011 510.937 267.269 511.082 266.445C511.227 265.622 511.324 264.785 511.374 263.937L511.44 262.881H514.458ZM524.697 265.785C523.773 265.779 522.871 265.618 521.991 265.304C521.111 264.983 520.319 264.465 519.615 263.748C518.911 263.025 518.351 262.066 517.936 260.872C517.521 259.671 517.317 258.184 517.323 256.412C517.323 254.758 517.499 253.284 517.851 251.989C518.203 250.694 518.709 249.6 519.369 248.707C520.03 247.808 520.825 247.123 521.755 246.651C522.692 246.18 523.739 245.944 524.896 245.944C526.109 245.944 527.184 246.183 528.121 246.661C529.064 247.139 529.824 247.792 530.403 248.622C530.981 249.446 531.339 250.376 531.478 251.414H528.036C527.86 250.672 527.498 250.081 526.951 249.641C526.411 249.194 525.725 248.971 524.896 248.971C523.556 248.971 522.525 249.553 521.802 250.716C521.086 251.879 520.724 253.476 520.718 255.506H520.85C521.158 254.953 521.557 254.478 522.048 254.082C522.538 253.686 523.091 253.381 523.707 253.168C524.33 252.948 524.987 252.838 525.678 252.838C526.81 252.838 527.825 253.108 528.724 253.649C529.629 254.189 530.346 254.934 530.874 255.883C531.402 256.826 531.663 257.908 531.657 259.127C531.663 260.397 531.374 261.538 530.789 262.551C530.205 263.556 529.391 264.349 528.347 264.927C527.303 265.505 526.087 265.791 524.697 265.785ZM524.679 262.956C525.364 262.956 525.977 262.789 526.517 262.456C527.058 262.123 527.486 261.674 527.8 261.108C528.114 260.542 528.268 259.907 528.262 259.203C528.268 258.511 528.117 257.886 527.809 257.326C527.508 256.767 527.09 256.324 526.555 255.997C526.021 255.67 525.411 255.506 524.726 255.506C524.217 255.506 523.742 255.604 523.302 255.799C522.862 255.993 522.478 256.264 522.151 256.61C521.824 256.949 521.567 257.345 521.378 257.798C521.196 258.244 521.101 258.722 521.095 259.231C521.101 259.904 521.259 260.523 521.567 261.089C521.875 261.655 522.299 262.107 522.84 262.447C523.38 262.786 523.993 262.956 524.679 262.956ZM541.908 265.785C540.55 265.785 539.343 265.552 538.287 265.087C537.237 264.622 536.407 263.974 535.797 263.145C535.188 262.315 534.864 261.356 534.826 260.268H538.372C538.403 260.79 538.576 261.246 538.891 261.636C539.205 262.019 539.623 262.318 540.145 262.532C540.667 262.745 541.251 262.852 541.899 262.852C542.59 262.852 543.203 262.733 543.738 262.494C544.272 262.249 544.69 261.909 544.992 261.475C545.294 261.042 545.441 260.542 545.435 259.976C545.441 259.391 545.29 258.876 544.982 258.43C544.674 257.983 544.228 257.634 543.643 257.383C543.065 257.131 542.367 257.006 541.55 257.006H539.843V254.309H541.55C542.222 254.309 542.81 254.192 543.313 253.96C543.822 253.727 544.222 253.4 544.511 252.979C544.8 252.551 544.942 252.058 544.935 251.498C544.942 250.952 544.819 250.477 544.567 250.075C544.322 249.666 543.973 249.348 543.521 249.122C543.074 248.896 542.549 248.783 541.946 248.783C541.355 248.783 540.808 248.889 540.305 249.103C539.802 249.317 539.397 249.622 539.089 250.018C538.781 250.408 538.617 250.873 538.598 251.414H535.232C535.257 250.332 535.568 249.383 536.165 248.566C536.769 247.742 537.573 247.101 538.579 246.642C539.585 246.177 540.714 245.944 541.965 245.944C543.254 245.944 544.373 246.186 545.322 246.67C546.277 247.148 547.016 247.792 547.538 248.603C548.06 249.414 548.321 250.31 548.321 251.291C548.327 252.379 548.006 253.29 547.359 254.026C546.718 254.761 545.875 255.242 544.831 255.469V255.619C546.189 255.808 547.23 256.311 547.953 257.128C548.682 257.939 549.044 258.948 549.037 260.155C549.037 261.237 548.729 262.205 548.113 263.06C547.503 263.908 546.661 264.575 545.586 265.059C544.517 265.543 543.291 265.785 541.908 265.785Z" fill="#FDFDFD"/>
<path d="M416.869 227.327V216.061H420.994C421.794 216.061 422.456 216.193 422.98 216.457C423.504 216.718 423.897 217.071 424.157 217.519C424.418 217.963 424.548 218.463 424.548 219.021C424.548 219.49 424.462 219.886 424.289 220.209C424.117 220.528 423.886 220.785 423.596 220.979C423.31 221.17 422.995 221.309 422.65 221.397V221.507C423.024 221.525 423.389 221.646 423.745 221.87C424.104 222.09 424.401 222.404 424.636 222.811C424.871 223.218 424.988 223.713 424.988 224.296C424.988 224.872 424.852 225.389 424.581 225.847C424.313 226.302 423.899 226.663 423.338 226.931C422.777 227.195 422.06 227.327 421.187 227.327H416.869ZM418.568 225.869H421.022C421.836 225.869 422.419 225.711 422.771 225.396C423.123 225.081 423.299 224.686 423.299 224.213C423.299 223.858 423.209 223.531 423.03 223.234C422.85 222.937 422.593 222.701 422.259 222.525C421.929 222.349 421.537 222.261 421.082 222.261H418.568V225.869ZM418.568 220.935H420.846C421.227 220.935 421.57 220.862 421.874 220.715C422.182 220.568 422.426 220.363 422.606 220.099C422.789 219.831 422.881 219.516 422.881 219.153C422.881 218.687 422.718 218.296 422.391 217.981C422.065 217.666 421.564 217.508 420.89 217.508H418.568V220.935ZM429.884 227.514C429.349 227.514 428.865 227.415 428.432 227.217C427.999 227.015 427.656 226.724 427.403 226.342C427.154 225.961 427.029 225.493 427.029 224.94C427.029 224.463 427.121 224.07 427.304 223.762C427.487 223.454 427.735 223.21 428.047 223.031C428.358 222.851 428.707 222.715 429.092 222.624C429.477 222.532 429.869 222.462 430.269 222.415C430.775 222.356 431.186 222.308 431.501 222.272C431.817 222.231 432.046 222.167 432.189 222.079C432.332 221.991 432.403 221.848 432.403 221.65V221.611C432.403 221.131 432.268 220.759 431.996 220.495C431.729 220.231 431.329 220.099 430.797 220.099C430.243 220.099 429.807 220.222 429.488 220.467C429.173 220.709 428.954 220.979 428.833 221.276L427.288 220.924C427.471 220.41 427.739 219.996 428.091 219.681C428.446 219.362 428.855 219.131 429.317 218.988C429.78 218.841 430.265 218.768 430.775 218.768C431.113 218.768 431.47 218.808 431.848 218.889C432.229 218.966 432.585 219.109 432.915 219.318C433.249 219.527 433.522 219.826 433.735 220.214C433.947 220.599 434.054 221.1 434.054 221.716V227.327H432.447V226.172H432.381C432.275 226.384 432.116 226.593 431.903 226.799C431.69 227.004 431.417 227.175 431.083 227.31C430.75 227.446 430.35 227.514 429.884 227.514ZM430.242 226.194C430.696 226.194 431.085 226.104 431.408 225.924C431.734 225.744 431.982 225.51 432.15 225.22C432.323 224.927 432.409 224.613 432.409 224.279V223.19C432.35 223.249 432.237 223.304 432.068 223.355C431.903 223.403 431.714 223.445 431.501 223.482C431.289 223.515 431.081 223.546 430.88 223.575C430.678 223.601 430.509 223.623 430.374 223.641C430.055 223.682 429.763 223.749 429.499 223.845C429.239 223.94 429.03 224.078 428.872 224.257C428.718 224.433 428.641 224.668 428.641 224.962C428.641 225.369 428.791 225.677 429.092 225.886C429.393 226.091 429.776 226.194 430.242 226.194ZM438.442 216.061V227.327H436.798V216.061H438.442ZM443.667 227.514C443.132 227.514 442.648 227.415 442.215 227.217C441.782 227.015 441.439 226.724 441.186 226.342C440.937 225.961 440.812 225.493 440.812 224.94C440.812 224.463 440.904 224.07 441.087 223.762C441.271 223.454 441.518 223.21 441.83 223.031C442.142 222.851 442.49 222.715 442.875 222.624C443.26 222.532 443.653 222.462 444.052 222.415C444.558 222.356 444.969 222.308 445.285 222.272C445.6 222.231 445.829 222.167 445.972 222.079C446.115 221.991 446.187 221.848 446.187 221.65V221.611C446.187 221.131 446.051 220.759 445.78 220.495C445.512 220.231 445.112 220.099 444.58 220.099C444.027 220.099 443.59 220.222 443.271 220.467C442.956 220.709 442.738 220.979 442.617 221.276L441.071 220.924C441.254 220.41 441.522 219.996 441.874 219.681C442.23 219.362 442.639 219.131 443.101 218.988C443.563 218.841 444.049 218.768 444.558 218.768C444.896 218.768 445.253 218.808 445.631 218.889C446.013 218.966 446.368 219.109 446.698 219.318C447.032 219.527 447.305 219.826 447.518 220.214C447.731 220.599 447.837 221.1 447.837 221.716V227.327H446.231V226.172H446.165C446.058 226.384 445.899 226.593 445.686 226.799C445.473 227.004 445.2 227.175 444.866 227.31C444.533 227.446 444.133 227.514 443.667 227.514ZM444.025 226.194C444.48 226.194 444.868 226.104 445.191 225.924C445.517 225.744 445.765 225.51 445.934 225.22C446.106 224.927 446.192 224.613 446.192 224.279V223.19C446.134 223.249 446.02 223.304 445.851 223.355C445.686 223.403 445.497 223.445 445.285 223.482C445.072 223.515 444.865 223.546 444.663 223.575C444.461 223.601 444.293 223.623 444.157 223.641C443.838 223.682 443.546 223.749 443.282 223.845C443.022 223.94 442.813 224.078 442.655 224.257C442.501 224.433 442.424 224.668 442.424 224.962C442.424 225.369 442.574 225.677 442.875 225.886C443.176 226.091 443.559 226.194 444.025 226.194ZM452.226 222.31V227.327H450.581V218.878H452.16V220.253H452.264C452.459 219.805 452.763 219.446 453.177 219.175C453.595 218.903 454.122 218.768 454.756 218.768C455.332 218.768 455.836 218.889 456.269 219.131C456.702 219.369 457.037 219.725 457.276 220.198C457.514 220.671 457.633 221.256 457.633 221.953V227.327H455.988V222.151C455.988 221.538 455.829 221.06 455.51 220.715C455.191 220.366 454.752 220.192 454.195 220.192C453.814 220.192 453.474 220.275 453.177 220.44C452.884 220.605 452.651 220.847 452.479 221.166C452.31 221.481 452.226 221.863 452.226 222.31ZM463.951 227.497C463.133 227.497 462.429 227.312 461.839 226.942C461.252 226.568 460.801 226.053 460.486 225.396C460.17 224.74 460.013 223.988 460.013 223.141C460.013 222.283 460.174 221.525 460.497 220.869C460.819 220.209 461.274 219.694 461.861 219.323C462.448 218.953 463.139 218.768 463.935 218.768C464.576 218.768 465.149 218.887 465.651 219.125C466.153 219.36 466.559 219.69 466.867 220.115C467.178 220.541 467.364 221.038 467.422 221.606H465.822C465.734 221.21 465.532 220.869 465.216 220.583C464.905 220.297 464.487 220.154 463.962 220.154C463.504 220.154 463.102 220.275 462.758 220.517C462.416 220.755 462.151 221.096 461.96 221.54C461.769 221.98 461.674 222.501 461.674 223.102C461.674 223.718 461.767 224.25 461.954 224.697C462.141 225.145 462.405 225.491 462.747 225.737C463.091 225.983 463.496 226.106 463.962 226.106C464.274 226.106 464.556 226.049 464.809 225.935C465.066 225.818 465.281 225.651 465.453 225.435C465.629 225.218 465.752 224.958 465.822 224.653H467.422C467.364 225.2 467.186 225.688 466.889 226.117C466.592 226.546 466.194 226.883 465.695 227.129C465.2 227.375 464.619 227.497 463.951 227.497ZM473.376 227.497C472.544 227.497 471.827 227.32 471.225 226.964C470.627 226.604 470.165 226.1 469.839 225.451C469.516 224.798 469.355 224.034 469.355 223.157C469.355 222.292 469.516 221.529 469.839 220.869C470.165 220.209 470.62 219.694 471.203 219.323C471.79 218.953 472.476 218.768 473.26 218.768C473.737 218.768 474.199 218.846 474.647 219.004C475.094 219.162 475.496 219.409 475.851 219.747C476.207 220.084 476.488 220.522 476.693 221.061C476.898 221.597 477.001 222.248 477.001 223.014V223.597H470.285V222.365H475.389C475.389 221.932 475.301 221.549 475.125 221.215C474.949 220.878 474.702 220.612 474.383 220.418C474.067 220.223 473.697 220.126 473.271 220.126C472.809 220.126 472.406 220.24 472.061 220.467C471.72 220.691 471.456 220.984 471.269 221.347C471.086 221.707 470.994 222.097 470.994 222.519V223.482C470.994 224.047 471.093 224.527 471.291 224.923C471.493 225.319 471.773 225.622 472.133 225.831C472.492 226.036 472.912 226.139 473.393 226.139C473.704 226.139 473.988 226.095 474.245 226.007C474.502 225.915 474.724 225.779 474.911 225.6C475.098 225.42 475.241 225.198 475.34 224.934L476.897 225.215C476.772 225.673 476.548 226.075 476.225 226.419C475.906 226.76 475.505 227.026 475.021 227.217C474.54 227.404 473.992 227.497 473.376 227.497Z" fill="#FFC4AB"/>
<path d="M416.47 148.176H418.988L421.647 154.664H421.76L424.42 148.176H426.938V157.833H424.957V151.548H424.877L422.378 157.786H421.03L418.531 151.524H418.45V157.833H416.47V148.176ZM433.647 152.208V153.801H429.244V152.208H433.647ZM444.47 151.557H442.405C442.367 151.29 442.29 151.053 442.174 150.845C442.058 150.634 441.908 150.455 441.726 150.308C441.544 150.16 441.333 150.047 441.094 149.968C440.858 149.889 440.602 149.85 440.326 149.85C439.826 149.85 439.39 149.974 439.019 150.223C438.649 150.468 438.361 150.826 438.157 151.298C437.952 151.766 437.85 152.335 437.85 153.005C437.85 153.693 437.952 154.271 438.157 154.74C438.364 155.208 438.653 155.562 439.024 155.801C439.395 156.039 439.824 156.159 440.311 156.159C440.585 156.159 440.838 156.123 441.07 156.05C441.306 155.978 441.515 155.873 441.698 155.735C441.88 155.593 442.031 155.422 442.15 155.221C442.273 155.019 442.358 154.79 442.405 154.532L444.47 154.542C444.417 154.985 444.283 155.412 444.069 155.824C443.859 156.233 443.574 156.599 443.216 156.923C442.861 157.243 442.436 157.498 441.943 157.687C441.452 157.872 440.898 157.965 440.278 157.965C439.417 157.965 438.647 157.77 437.968 157.38C437.292 156.99 436.758 156.426 436.365 155.687C435.975 154.949 435.78 154.054 435.78 153.005C435.78 151.952 435.978 151.056 436.374 150.317C436.77 149.578 437.308 149.016 437.987 148.629C438.666 148.239 439.43 148.044 440.278 148.044C440.838 148.044 441.357 148.123 441.834 148.28C442.315 148.437 442.741 148.667 443.112 148.968C443.483 149.267 443.785 149.633 444.017 150.067C444.253 150.501 444.404 150.998 444.47 151.557ZM448.515 157.969C448.053 157.969 447.641 157.889 447.279 157.729C446.918 157.566 446.632 157.325 446.421 157.008C446.214 156.687 446.11 156.288 446.11 155.81C446.11 155.408 446.184 155.07 446.332 154.796C446.479 154.523 446.681 154.303 446.935 154.136C447.19 153.97 447.479 153.844 447.803 153.759C448.13 153.674 448.472 153.614 448.831 153.58C449.252 153.536 449.591 153.495 449.849 153.457C450.107 153.416 450.294 153.357 450.41 153.278C450.527 153.199 450.585 153.083 450.585 152.929V152.901C450.585 152.602 450.49 152.371 450.302 152.208C450.116 152.044 449.852 151.963 449.51 151.963C449.148 151.963 448.861 152.043 448.647 152.203C448.433 152.36 448.292 152.558 448.222 152.797L446.365 152.646C446.459 152.206 446.644 151.826 446.921 151.505C447.198 151.181 447.554 150.933 447.991 150.76C448.431 150.584 448.941 150.496 449.519 150.496C449.921 150.496 450.306 150.543 450.674 150.638C451.045 150.732 451.374 150.878 451.66 151.076C451.949 151.274 452.177 151.529 452.343 151.84C452.51 152.148 452.593 152.517 452.593 152.948V157.833H450.688V156.828H450.632C450.516 157.055 450.36 157.254 450.165 157.427C449.97 157.597 449.736 157.731 449.462 157.828C449.189 157.922 448.873 157.969 448.515 157.969ZM449.09 156.583C449.385 156.583 449.646 156.525 449.873 156.409C450.099 156.289 450.277 156.129 450.405 155.928C450.534 155.727 450.599 155.499 450.599 155.244V154.476C450.536 154.517 450.45 154.554 450.339 154.589C450.233 154.62 450.112 154.65 449.976 154.678C449.841 154.704 449.706 154.727 449.571 154.749C449.436 154.768 449.313 154.785 449.203 154.801C448.967 154.836 448.762 154.891 448.585 154.966C448.409 155.041 448.273 155.144 448.175 155.272C448.078 155.398 448.029 155.555 448.029 155.744C448.029 156.017 448.128 156.227 448.326 156.371C448.527 156.513 448.782 156.583 449.09 156.583ZM454.705 157.833V150.59H456.652V151.854H456.728C456.86 151.405 457.081 151.065 457.392 150.836C457.704 150.603 458.062 150.487 458.467 150.487C458.568 150.487 458.676 150.493 458.793 150.506C458.909 150.518 459.011 150.535 459.099 150.557V152.34C459.005 152.311 458.875 152.286 458.708 152.264C458.541 152.242 458.389 152.231 458.251 152.231C457.955 152.231 457.691 152.296 457.458 152.425C457.229 152.55 457.047 152.726 456.911 152.953C456.779 153.179 456.713 153.44 456.713 153.735V157.833H454.705ZM463.023 157.951C462.472 157.951 461.974 157.809 461.528 157.526C461.085 157.24 460.733 156.821 460.472 156.267C460.214 155.711 460.085 155.029 460.085 154.221C460.085 153.391 460.219 152.701 460.486 152.151C460.753 151.598 461.108 151.185 461.551 150.911C461.998 150.634 462.487 150.496 463.018 150.496C463.423 150.496 463.761 150.565 464.032 150.704C464.305 150.839 464.525 151.009 464.692 151.213C464.861 151.414 464.99 151.612 465.078 151.807H465.14V148.176H467.144V157.833H465.163V156.673H465.078C464.984 156.874 464.85 157.074 464.678 157.272C464.508 157.467 464.286 157.628 464.013 157.757C463.742 157.886 463.412 157.951 463.023 157.951ZM463.659 156.352C463.983 156.352 464.256 156.264 464.48 156.088C464.706 155.909 464.879 155.659 464.998 155.339C465.121 155.018 465.182 154.642 465.182 154.212C465.182 153.781 465.122 153.407 465.003 153.089C464.883 152.772 464.711 152.527 464.484 152.354C464.258 152.181 463.983 152.095 463.659 152.095C463.329 152.095 463.051 152.184 462.825 152.363C462.598 152.542 462.427 152.791 462.311 153.108C462.194 153.426 462.136 153.794 462.136 154.212C462.136 154.633 462.194 155.005 462.311 155.329C462.43 155.65 462.601 155.901 462.825 156.083C463.051 156.263 463.329 156.352 463.659 156.352Z" fill="#FDFDFD"/>
<g filter="url(#filter0_d_226_3293)">
<rect x="144.038" y="102" width="229.038" height="291" rx="17.7034" fill="#2B7979"/>
</g>
<mask id="mask1_226_3293" style="mask-type:alpha" maskUnits="userSpaceOnUse" x="144" y="102" width="230" height="291">
<rect x="144.038" y="102" width="229.038" height="291" rx="17.7034" fill="#2C7B7B"/>
</mask>
<g mask="url(#mask1_226_3293)">
<circle cx="209.873" cy="323.846" r="153.245" fill="url(#paint2_linear_226_3293)" fill-opacity="0.1"/>
<circle cx="209.873" cy="323.846" r="84.6445" fill="url(#paint3_linear_226_3293)" fill-opacity="0.1"/>
</g>
<path d="M315.418 348.446V358.103H313.956V349.908H313.9L311.589 351.417V350.021L313.999 348.446H315.418ZM318.096 358.103V357.046L321.364 353.661C321.713 353.293 322 352.971 322.227 352.694C322.456 352.415 322.628 352.149 322.741 351.898C322.854 351.646 322.91 351.379 322.91 351.096C322.91 350.775 322.835 350.499 322.684 350.266C322.533 350.03 322.327 349.85 322.066 349.724C321.806 349.595 321.512 349.531 321.185 349.531C320.839 349.531 320.537 349.601 320.279 349.743C320.022 349.884 319.824 350.084 319.685 350.342C319.547 350.599 319.478 350.901 319.478 351.247H318.087C318.087 350.659 318.222 350.145 318.492 349.705C318.763 349.265 319.134 348.924 319.605 348.682C320.077 348.437 320.613 348.314 321.213 348.314C321.82 348.314 322.354 348.435 322.816 348.677C323.281 348.916 323.644 349.243 323.905 349.658C324.166 350.07 324.297 350.535 324.297 351.054C324.297 351.412 324.229 351.762 324.094 352.105C323.962 352.448 323.731 352.83 323.401 353.251C323.071 353.669 322.612 354.176 322.024 354.774L320.105 356.782V356.853H324.452V358.103H318.096ZM330.002 347.993L326.89 359.555H325.631L328.743 347.993H330.002ZM331.247 358.103V357.046L334.515 353.661C334.864 353.293 335.151 352.971 335.378 352.694C335.607 352.415 335.779 352.149 335.892 351.898C336.005 351.646 336.061 351.379 336.061 351.096C336.061 350.775 335.986 350.499 335.835 350.266C335.684 350.03 335.478 349.85 335.217 349.724C334.957 349.595 334.663 349.531 334.336 349.531C333.99 349.531 333.688 349.601 333.43 349.743C333.173 349.884 332.975 350.084 332.836 350.342C332.698 350.599 332.629 350.901 332.629 351.247H331.238C331.238 350.659 331.373 350.145 331.643 349.705C331.914 349.265 332.285 348.924 332.756 348.682C333.228 348.437 333.764 348.314 334.364 348.314C334.971 348.314 335.505 348.435 335.967 348.677C336.432 348.916 336.795 349.243 337.056 349.658C337.317 350.07 337.448 350.535 337.448 351.054C337.448 351.412 337.38 351.762 337.245 352.105C337.113 352.448 336.882 352.83 336.552 353.251C336.222 353.669 335.763 354.176 335.175 354.774L333.256 356.782V356.853H337.603V358.103H331.247ZM339.046 356.217V355.038L343.219 348.446H344.148V350.181H343.559L340.574 354.906V354.981H346.293V356.217H339.046ZM343.625 358.103V355.858L343.634 355.321V348.446H345.016V358.103H343.625Z" fill="#FDFDFD"/>
<path opacity="0.56" d="M174.529 354.257L174.648 351.604L172.41 353.043L171.725 351.849L174.101 350.636L171.725 349.422L172.41 348.228L174.648 349.667L174.529 347.014H175.893L175.774 349.667L178.012 348.228L178.697 349.422L176.32 350.636L178.697 351.849L178.012 353.043L175.774 351.604L175.893 354.257H174.529ZM183.849 354.257L183.969 351.604L181.731 353.043L181.045 351.849L183.422 350.636L181.045 349.422L181.731 348.228L183.969 349.667L183.849 347.014H185.214L185.094 349.667L187.332 348.228L188.017 349.422L185.641 350.636L188.017 351.849L187.332 353.043L185.094 351.604L185.214 354.257H183.849ZM193.17 354.257L193.289 351.604L191.051 353.043L190.366 351.849L192.742 350.636L190.366 349.422L191.051 348.228L193.289 349.667L193.17 347.014H194.534L194.415 349.667L196.653 348.228L197.338 349.422L194.962 350.636L197.338 351.849L196.653 353.043L194.415 351.604L194.534 354.257H193.17ZM202.49 354.257L202.61 351.604L200.372 353.043L199.687 351.849L202.063 350.636L199.687 349.422L200.372 348.228L202.61 349.667L202.49 347.014H203.855L203.735 349.667L205.973 348.228L206.659 349.422L204.282 350.636L206.659 351.849L205.973 353.043L203.735 351.604L203.855 354.257H202.49ZM218.661 359.89V358.481L223.018 353.968C223.483 353.477 223.867 353.048 224.169 352.679C224.475 352.306 224.703 351.952 224.854 351.616C225.005 351.281 225.08 350.925 225.08 350.548C225.08 350.12 224.98 349.751 224.778 349.441C224.577 349.127 224.303 348.886 223.955 348.718C223.607 348.546 223.215 348.46 222.779 348.46C222.318 348.46 221.916 348.555 221.572 348.743C221.229 348.932 220.964 349.198 220.78 349.542C220.596 349.885 220.503 350.288 220.503 350.749H218.649C218.649 349.965 218.829 349.28 219.19 348.693C219.55 348.106 220.045 347.651 220.673 347.329C221.302 347.002 222.016 346.838 222.817 346.838C223.626 346.838 224.338 347 224.954 347.322C225.575 347.641 226.059 348.077 226.407 348.63C226.755 349.179 226.928 349.799 226.928 350.491C226.928 350.969 226.838 351.436 226.658 351.893C226.482 352.35 226.174 352.859 225.734 353.421C225.294 353.978 224.682 354.655 223.898 355.451L221.34 358.129V358.224H227.136V359.89H218.661ZM229.06 357.375V355.803L234.624 347.014H235.862V349.328H235.077L231.097 355.627V355.728H238.723V357.375H229.06ZM235.165 359.89V356.897L235.177 356.18V347.014H237.019V359.89H235.165ZM245.497 360.066C244.923 360.057 244.357 359.953 243.8 359.751C243.247 359.55 242.744 359.215 242.291 358.745C241.838 358.276 241.476 357.645 241.204 356.853C240.935 356.061 240.801 355.072 240.801 353.886C240.801 352.763 240.912 351.765 241.134 350.893C241.361 350.022 241.685 349.286 242.109 348.687C242.532 348.083 243.043 347.624 243.643 347.31C244.242 346.996 244.915 346.838 245.661 346.838C246.428 346.838 247.109 346.989 247.704 347.291C248.299 347.593 248.781 348.01 249.15 348.542C249.523 349.074 249.76 349.68 249.86 350.359H247.943C247.813 349.823 247.555 349.385 247.17 349.045C246.784 348.706 246.281 348.536 245.661 348.536C244.718 348.536 243.982 348.947 243.454 349.768C242.93 350.589 242.666 351.732 242.662 353.194H242.756C242.978 352.83 243.251 352.52 243.574 352.264C243.901 352.004 244.265 351.805 244.668 351.667C245.074 351.524 245.502 351.453 245.95 351.453C246.696 351.453 247.371 351.635 247.974 352C248.582 352.36 249.066 352.859 249.427 353.496C249.787 354.133 249.967 354.862 249.967 355.684C249.967 356.505 249.781 357.249 249.408 357.916C249.039 358.582 248.519 359.11 247.849 359.5C247.178 359.885 246.394 360.074 245.497 360.066ZM245.491 358.431C245.986 358.431 246.428 358.31 246.818 358.066C247.207 357.823 247.515 357.497 247.742 357.086C247.968 356.675 248.081 356.216 248.081 355.709C248.081 355.214 247.97 354.764 247.748 354.357C247.53 353.951 247.228 353.628 246.843 353.389C246.461 353.15 246.025 353.031 245.535 353.031C245.162 353.031 244.816 353.102 244.498 353.245C244.183 353.387 243.907 353.584 243.668 353.836C243.429 354.087 243.24 354.376 243.102 354.703C242.968 355.026 242.901 355.367 242.901 355.728C242.901 356.21 243.012 356.656 243.234 357.067C243.46 357.478 243.769 357.809 244.158 358.06C244.552 358.307 244.997 358.431 245.491 358.431ZM256.696 360.066C255.795 360.066 254.999 359.911 254.307 359.6C253.62 359.29 253.081 358.863 252.691 358.318C252.302 357.773 252.109 357.153 252.113 356.457C252.109 355.912 252.22 355.411 252.446 354.955C252.677 354.494 252.989 354.11 253.383 353.804C253.777 353.494 254.217 353.297 254.703 353.213V353.138C254.062 352.983 253.549 352.639 253.163 352.107C252.777 351.574 252.587 350.962 252.591 350.271C252.587 349.613 252.761 349.026 253.113 348.511C253.469 347.991 253.957 347.582 254.577 347.285C255.198 346.987 255.904 346.838 256.696 346.838C257.48 346.838 258.18 346.989 258.796 347.291C259.416 347.589 259.904 347.997 260.261 348.517C260.617 349.032 260.797 349.617 260.801 350.271C260.797 350.962 260.6 351.574 260.21 352.107C259.821 352.639 259.313 352.983 258.689 353.138V353.213C259.171 353.297 259.605 353.494 259.99 353.804C260.38 354.11 260.69 354.494 260.921 354.955C261.155 355.411 261.275 355.912 261.279 356.457C261.275 357.153 261.078 357.773 260.688 358.318C260.298 358.863 259.758 359.29 259.066 359.6C258.379 359.911 257.589 360.066 256.696 360.066ZM256.696 358.475C257.228 358.475 257.689 358.387 258.079 358.211C258.469 358.031 258.771 357.781 258.984 357.463C259.198 357.14 259.307 356.763 259.311 356.331C259.307 355.883 259.19 355.487 258.959 355.143C258.733 354.799 258.425 354.529 258.035 354.332C257.645 354.135 257.199 354.037 256.696 354.037C256.189 354.037 255.738 354.135 255.344 354.332C254.95 354.529 254.64 354.799 254.414 355.143C254.188 355.487 254.077 355.883 254.081 356.331C254.077 356.763 254.179 357.14 254.389 357.463C254.603 357.781 254.906 358.031 255.3 358.211C255.694 358.387 256.16 358.475 256.696 358.475ZM256.696 352.484C257.124 352.484 257.503 352.398 257.834 352.226C258.165 352.054 258.425 351.815 258.614 351.509C258.806 351.203 258.905 350.845 258.909 350.434C258.905 350.032 258.808 349.68 258.62 349.378C258.435 349.076 258.178 348.844 257.847 348.68C257.515 348.513 257.132 348.429 256.696 348.429C256.252 348.429 255.862 348.513 255.527 348.68C255.196 348.844 254.938 349.076 254.753 349.378C254.569 349.68 254.479 350.032 254.483 350.434C254.479 350.845 254.571 351.203 254.76 351.509C254.948 351.815 255.208 352.054 255.539 352.226C255.875 352.398 256.26 352.484 256.696 352.484Z" fill="#FDFDFD"/>
<path d="M178.533 272.361V248.22H180.08V272.361H178.533ZM182.994 255.943C182.906 255.12 182.535 254.478 181.881 254.019C181.234 253.56 180.391 253.331 179.354 253.331C178.625 253.331 177.999 253.441 177.477 253.661C176.955 253.881 176.556 254.18 176.28 254.557C176.003 254.934 175.862 255.365 175.855 255.849C175.855 256.251 175.946 256.6 176.129 256.896C176.317 257.191 176.572 257.442 176.893 257.65C177.213 257.851 177.568 258.021 177.958 258.159C178.348 258.297 178.741 258.414 179.137 258.508L180.948 258.961C181.677 259.13 182.378 259.36 183.05 259.649C183.729 259.938 184.336 260.303 184.87 260.743C185.411 261.183 185.839 261.714 186.153 262.337C186.467 262.959 186.624 263.688 186.624 264.524C186.624 265.656 186.335 266.653 185.757 267.514C185.178 268.369 184.342 269.038 183.248 269.522C182.161 270 180.844 270.239 179.297 270.239C177.795 270.239 176.49 270.007 175.384 269.541C174.284 269.076 173.422 268.397 172.8 267.504C172.184 266.612 171.851 265.524 171.8 264.242H175.242C175.293 264.914 175.5 265.474 175.865 265.92C176.229 266.366 176.704 266.7 177.289 266.92C177.88 267.14 178.54 267.25 179.269 267.25C180.03 267.25 180.696 267.137 181.268 266.91C181.847 266.678 182.299 266.357 182.626 265.948C182.953 265.533 183.12 265.049 183.126 264.496C183.12 263.993 182.972 263.578 182.683 263.251C182.393 262.918 181.988 262.642 181.466 262.422C180.951 262.195 180.347 261.994 179.656 261.818L177.458 261.252C175.868 260.844 174.61 260.224 173.686 259.395C172.768 258.558 172.31 257.449 172.31 256.066C172.31 254.928 172.618 253.931 173.234 253.076C173.856 252.221 174.702 251.558 175.77 251.087C176.839 250.609 178.049 250.37 179.401 250.37C180.771 250.37 181.972 250.609 183.003 251.087C184.041 251.558 184.855 252.215 185.446 253.057C186.037 253.894 186.342 254.855 186.36 255.943H182.994ZM189.339 266.363V263.581L197.533 250.634H199.853V254.595H198.439L192.922 263.336V263.487H204.361V266.363H189.339ZM198.552 269.947V265.515L198.59 264.27V250.634H201.89V269.947H198.552ZM209.103 270.154C208.53 270.154 208.04 269.953 207.631 269.551C207.223 269.148 207.022 268.658 207.028 268.08C207.022 267.514 207.223 267.03 207.631 266.627C208.04 266.225 208.53 266.024 209.103 266.024C209.656 266.024 210.137 266.225 210.545 266.627C210.96 267.03 211.171 267.514 211.177 268.08C211.171 268.463 211.07 268.812 210.875 269.126C210.687 269.441 210.435 269.692 210.121 269.881C209.813 270.063 209.473 270.154 209.103 270.154ZM221.117 270.211C220.193 270.205 219.291 270.044 218.411 269.73C217.531 269.409 216.739 268.891 216.034 268.174C215.33 267.451 214.771 266.492 214.356 265.298C213.941 264.097 213.737 262.61 213.743 260.837C213.743 259.184 213.919 257.71 214.271 256.415C214.623 255.12 215.129 254.026 215.789 253.133C216.449 252.234 217.245 251.549 218.175 251.077C219.112 250.606 220.159 250.37 221.315 250.37C222.529 250.37 223.604 250.609 224.54 251.087C225.483 251.564 226.244 252.218 226.822 253.048C227.401 253.872 227.759 254.802 227.897 255.839H224.455C224.279 255.098 223.918 254.507 223.371 254.067C222.83 253.62 222.145 253.397 221.315 253.397C219.976 253.397 218.945 253.978 218.222 255.142C217.506 256.305 217.144 257.901 217.138 259.932H217.27C217.578 259.379 217.977 258.904 218.467 258.508C218.958 258.112 219.511 257.807 220.127 257.593C220.749 257.373 221.406 257.263 222.098 257.263C223.23 257.263 224.245 257.534 225.144 258.074C226.049 258.615 226.766 259.36 227.294 260.309C227.822 261.252 228.083 262.334 228.077 263.553C228.083 264.823 227.794 265.964 227.209 266.976C226.624 267.982 225.81 268.774 224.767 269.353C223.723 269.931 222.507 270.217 221.117 270.211ZM221.098 267.382C221.784 267.382 222.397 267.215 222.937 266.882C223.478 266.549 223.905 266.099 224.22 265.533C224.534 264.968 224.688 264.333 224.682 263.629C224.688 262.937 224.537 262.312 224.229 261.752C223.927 261.193 223.509 260.749 222.975 260.422C222.441 260.095 221.831 259.932 221.146 259.932C220.636 259.932 220.162 260.029 219.722 260.224C219.282 260.419 218.898 260.69 218.571 261.035C218.244 261.375 217.986 261.771 217.798 262.224C217.616 262.67 217.521 263.148 217.515 263.657C217.521 264.33 217.678 264.949 217.986 265.515C218.294 266.08 218.719 266.533 219.26 266.873C219.8 267.212 220.413 267.382 221.098 267.382ZM238.469 270.211C237.545 270.205 236.643 270.044 235.763 269.73C234.883 269.409 234.091 268.891 233.387 268.174C232.682 267.451 232.123 266.492 231.708 265.298C231.293 264.097 231.089 262.61 231.095 260.837C231.095 259.184 231.271 257.71 231.623 256.415C231.975 255.12 232.481 254.026 233.141 253.133C233.801 252.234 234.597 251.549 235.527 251.077C236.464 250.606 237.511 250.37 238.667 250.37C239.881 250.37 240.956 250.609 241.892 251.087C242.835 251.564 243.596 252.218 244.175 253.048C244.753 253.872 245.111 254.802 245.25 255.839H241.808C241.632 255.098 241.27 254.507 240.723 254.067C240.182 253.62 239.497 253.397 238.667 253.397C237.328 253.397 236.297 253.978 235.574 255.142C234.858 256.305 234.496 257.901 234.49 259.932H234.622C234.93 259.379 235.329 258.904 235.82 258.508C236.31 258.112 236.863 257.807 237.479 257.593C238.102 257.373 238.759 257.263 239.45 257.263C240.582 257.263 241.597 257.534 242.496 258.074C243.401 258.615 244.118 259.36 244.646 260.309C245.174 261.252 245.435 262.334 245.429 263.553C245.435 264.823 245.146 265.964 244.561 266.976C243.977 267.982 243.162 268.774 242.119 269.353C241.075 269.931 239.859 270.217 238.469 270.211ZM238.45 267.382C239.136 267.382 239.749 267.215 240.289 266.882C240.83 266.549 241.258 266.099 241.572 265.533C241.886 264.968 242.04 264.333 242.034 263.629C242.04 262.937 241.889 262.312 241.581 261.752C241.28 261.193 240.861 260.749 240.327 260.422C239.793 260.095 239.183 259.932 238.498 259.932C237.988 259.932 237.514 260.029 237.074 260.224C236.634 260.419 236.25 260.69 235.923 261.035C235.596 261.375 235.339 261.771 235.15 262.224C234.968 262.67 234.873 263.148 234.867 263.657C234.873 264.33 235.031 264.949 235.339 265.515C235.647 266.08 236.071 266.533 236.612 266.873C237.152 267.212 237.765 267.382 238.45 267.382ZM248.4 266.363V263.581L256.595 250.634H258.915V254.595H257.5L251.983 263.336V263.487H263.422V266.363H248.4ZM257.613 269.947V265.515L257.651 264.27V250.634H260.951V269.947H257.613ZM270.069 267.306L269.946 268.344C269.858 269.136 269.701 269.94 269.475 270.758C269.255 271.581 269.022 272.339 268.777 273.03C268.532 273.722 268.334 274.266 268.183 274.662H265.882C265.97 274.278 266.089 273.757 266.24 273.096C266.397 272.436 266.548 271.694 266.693 270.871C266.837 270.047 266.935 269.211 266.985 268.363L267.051 267.306H270.069ZM280.308 270.211C279.384 270.205 278.482 270.044 277.602 269.73C276.722 269.409 275.93 268.891 275.225 268.174C274.521 267.451 273.962 266.492 273.547 265.298C273.132 264.097 272.928 262.61 272.934 260.837C272.934 259.184 273.11 257.71 273.462 256.415C273.814 255.12 274.32 254.026 274.98 253.133C275.64 252.234 276.436 251.549 277.366 251.077C278.303 250.606 279.349 250.37 280.506 250.37C281.72 250.37 282.795 250.609 283.731 251.087C284.674 251.564 285.435 252.218 286.013 253.048C286.592 253.872 286.95 254.802 287.088 255.839H283.646C283.47 255.098 283.109 254.507 282.562 254.067C282.021 253.62 281.336 253.397 280.506 253.397C279.167 253.397 278.136 253.978 277.413 255.142C276.696 256.305 276.335 257.901 276.329 259.932H276.461C276.769 259.379 277.168 258.904 277.658 258.508C278.149 258.112 278.702 257.807 279.318 257.593C279.94 257.373 280.597 257.263 281.289 257.263C282.421 257.263 283.436 257.534 284.335 258.074C285.24 258.615 285.957 259.36 286.485 260.309C287.013 261.252 287.274 262.334 287.268 263.553C287.274 264.823 286.985 265.964 286.4 266.976C285.815 267.982 285.001 268.774 283.958 269.353C282.914 269.931 281.698 270.217 280.308 270.211ZM280.289 267.382C280.975 267.382 281.588 267.215 282.128 266.882C282.669 266.549 283.096 266.099 283.411 265.533C283.725 264.968 283.879 264.333 283.873 263.629C283.879 262.937 283.728 262.312 283.42 261.752C283.118 261.193 282.7 260.749 282.166 260.422C281.632 260.095 281.022 259.932 280.337 259.932C279.827 259.932 279.353 260.029 278.913 260.224C278.472 260.419 278.089 260.69 277.762 261.035C277.435 261.375 277.177 261.771 276.989 262.224C276.807 262.67 276.712 263.148 276.706 263.657C276.712 264.33 276.869 264.949 277.177 265.515C277.485 266.08 277.91 266.533 278.45 266.873C278.991 267.212 279.604 267.382 280.289 267.382ZM297.519 270.211C296.161 270.211 294.954 269.978 293.898 269.513C292.848 269.048 292.018 268.4 291.408 267.57C290.798 266.741 290.475 265.782 290.437 264.694H293.983C294.014 265.216 294.187 265.672 294.501 266.062C294.816 266.445 295.234 266.744 295.755 266.957C296.277 267.171 296.862 267.278 297.509 267.278C298.201 267.278 298.814 267.159 299.348 266.92C299.883 266.675 300.301 266.335 300.603 265.901C300.904 265.467 301.052 264.968 301.046 264.402C301.052 263.817 300.901 263.302 300.593 262.855C300.285 262.409 299.839 262.06 299.254 261.809C298.676 261.557 297.978 261.431 297.161 261.431H295.454V258.734H297.161C297.833 258.734 298.421 258.618 298.924 258.385C299.433 258.153 299.832 257.826 300.122 257.405C300.411 256.977 300.552 256.484 300.546 255.924C300.552 255.377 300.43 254.903 300.178 254.5C299.933 254.092 299.584 253.774 299.131 253.548C298.685 253.322 298.16 253.208 297.557 253.208C296.966 253.208 296.419 253.315 295.916 253.529C295.413 253.743 295.007 254.048 294.699 254.444C294.391 254.833 294.228 255.299 294.209 255.839H290.842C290.868 254.758 291.179 253.809 291.776 252.991C292.379 252.168 293.184 251.527 294.19 251.068C295.196 250.603 296.324 250.37 297.575 250.37C298.864 250.37 299.983 250.612 300.933 251.096C301.888 251.574 302.627 252.218 303.149 253.029C303.67 253.84 303.931 254.736 303.931 255.717C303.938 256.804 303.617 257.716 302.969 258.451C302.328 259.187 301.486 259.668 300.442 259.894V260.045C301.8 260.234 302.841 260.737 303.564 261.554C304.293 262.365 304.654 263.374 304.648 264.581C304.648 265.662 304.34 266.631 303.724 267.486C303.114 268.334 302.272 269.001 301.197 269.485C300.128 269.969 298.902 270.211 297.519 270.211Z" fill="#FDFDFD"/>
<path opacity="0.48" d="M171.831 231.753V220.487H175.957C176.756 220.487 177.418 220.619 177.942 220.883C178.467 221.144 178.859 221.497 179.12 221.945C179.38 222.389 179.51 222.889 179.51 223.447C179.51 223.916 179.424 224.312 179.252 224.635C179.079 224.954 178.848 225.211 178.559 225.405C178.272 225.596 177.957 225.735 177.612 225.823V225.933C177.986 225.951 178.351 226.072 178.707 226.296C179.066 226.516 179.364 226.83 179.598 227.237C179.833 227.644 179.95 228.139 179.95 228.722C179.95 229.298 179.815 229.815 179.543 230.273C179.275 230.728 178.861 231.089 178.3 231.357C177.739 231.621 177.022 231.753 176.149 231.753H171.831ZM173.531 230.295H175.984C176.798 230.295 177.381 230.138 177.733 229.822C178.085 229.507 178.261 229.113 178.261 228.639C178.261 228.284 178.172 227.957 177.992 227.66C177.812 227.363 177.556 227.127 177.222 226.951C176.892 226.775 176.499 226.687 176.045 226.687H173.531V230.295ZM173.531 225.361H175.808C176.189 225.361 176.532 225.288 176.837 225.141C177.145 224.994 177.389 224.789 177.568 224.525C177.752 224.257 177.843 223.942 177.843 223.579C177.843 223.113 177.68 222.722 177.354 222.407C177.027 222.092 176.527 221.934 175.852 221.934H173.531V225.361ZM184.846 231.94C184.311 231.94 183.827 231.841 183.394 231.643C182.961 231.441 182.619 231.15 182.366 230.768C182.116 230.387 181.991 229.919 181.991 229.366C181.991 228.889 182.083 228.496 182.267 228.188C182.45 227.88 182.697 227.636 183.009 227.457C183.321 227.277 183.669 227.141 184.054 227.05C184.439 226.958 184.832 226.888 185.232 226.841C185.738 226.782 186.148 226.734 186.464 226.698C186.779 226.657 187.008 226.593 187.151 226.505C187.294 226.417 187.366 226.274 187.366 226.076V226.038C187.366 225.557 187.23 225.185 186.959 224.921C186.691 224.657 186.291 224.525 185.76 224.525C185.206 224.525 184.769 224.648 184.45 224.893C184.135 225.135 183.917 225.405 183.796 225.702L182.25 225.35C182.433 224.836 182.701 224.422 183.053 224.107C183.409 223.788 183.818 223.557 184.28 223.414C184.742 223.267 185.228 223.194 185.738 223.194C186.075 223.194 186.433 223.234 186.81 223.315C187.192 223.392 187.547 223.535 187.877 223.744C188.211 223.953 188.484 224.252 188.697 224.64C188.91 225.025 189.016 225.526 189.016 226.142V231.753H187.41V230.598H187.344C187.238 230.81 187.078 231.019 186.865 231.225C186.653 231.43 186.379 231.601 186.046 231.736C185.712 231.872 185.312 231.94 184.846 231.94ZM185.204 230.62C185.659 230.62 186.047 230.53 186.37 230.35C186.697 230.171 186.944 229.936 187.113 229.646C187.285 229.353 187.371 229.039 187.371 228.705V227.616C187.313 227.675 187.199 227.73 187.03 227.781C186.865 227.829 186.676 227.871 186.464 227.908C186.251 227.941 186.044 227.972 185.842 228.001C185.64 228.027 185.472 228.049 185.336 228.067C185.017 228.108 184.725 228.176 184.461 228.271C184.201 228.366 183.992 228.504 183.834 228.683C183.68 228.859 183.603 229.094 183.603 229.388C183.603 229.795 183.754 230.103 184.054 230.312C184.355 230.517 184.738 230.62 185.204 230.62ZM193.405 220.487V231.753H191.76V220.487H193.405ZM198.63 231.94C198.094 231.94 197.61 231.841 197.177 231.643C196.745 231.441 196.402 231.15 196.149 230.768C195.899 230.387 195.775 229.919 195.775 229.366C195.775 228.889 195.866 228.496 196.05 228.188C196.233 227.88 196.481 227.636 196.792 227.457C197.104 227.277 197.453 227.141 197.838 227.05C198.223 226.958 198.615 226.888 199.015 226.841C199.521 226.782 199.932 226.734 200.247 226.698C200.562 226.657 200.792 226.593 200.935 226.505C201.078 226.417 201.149 226.274 201.149 226.076V226.038C201.149 225.557 201.013 225.185 200.742 224.921C200.474 224.657 200.075 224.525 199.543 224.525C198.989 224.525 198.553 224.648 198.234 224.893C197.918 225.135 197.7 225.405 197.579 225.702L196.033 225.35C196.217 224.836 196.484 224.422 196.836 224.107C197.192 223.788 197.601 223.557 198.063 223.414C198.525 223.267 199.011 223.194 199.521 223.194C199.858 223.194 200.216 223.234 200.594 223.315C200.975 223.392 201.331 223.535 201.661 223.744C201.994 223.953 202.268 224.252 202.48 224.64C202.693 225.025 202.799 225.526 202.799 226.142V231.753H201.193V230.598H201.127C201.021 230.81 200.861 231.019 200.649 231.225C200.436 231.43 200.163 231.601 199.829 231.736C199.495 231.872 199.095 231.94 198.63 231.94ZM198.987 230.62C199.442 230.62 199.831 230.53 200.153 230.35C200.48 230.171 200.727 229.936 200.896 229.646C201.068 229.353 201.155 229.039 201.155 228.705V227.616C201.096 227.675 200.982 227.73 200.814 227.781C200.649 227.829 200.46 227.871 200.247 227.908C200.034 227.941 199.827 227.972 199.625 228.001C199.424 228.027 199.255 228.049 199.119 228.067C198.8 228.108 198.509 228.176 198.245 228.271C197.984 228.366 197.775 228.504 197.618 228.683C197.464 228.859 197.387 229.094 197.387 229.388C197.387 229.795 197.537 230.103 197.838 230.312C198.138 230.517 198.522 230.62 198.987 230.62ZM207.188 226.736V231.753H205.543V223.304H207.122V224.679H207.227C207.421 224.231 207.725 223.872 208.14 223.601C208.558 223.329 209.084 223.194 209.719 223.194C210.294 223.194 210.799 223.315 211.231 223.557C211.664 223.795 212 224.151 212.238 224.624C212.476 225.097 212.595 225.682 212.595 226.379V231.753H210.951V226.577C210.951 225.964 210.791 225.486 210.472 225.141C210.153 224.792 209.715 224.618 209.157 224.618C208.776 224.618 208.437 224.701 208.14 224.866C207.846 225.031 207.614 225.273 207.441 225.592C207.272 225.907 207.188 226.289 207.188 226.736ZM218.914 231.923C218.096 231.923 217.392 231.738 216.801 231.368C216.215 230.994 215.763 230.479 215.448 229.822C215.133 229.166 214.975 228.414 214.975 227.567C214.975 226.709 215.136 225.951 215.459 225.295C215.782 224.635 216.237 224.12 216.823 223.749C217.41 223.379 218.101 223.194 218.897 223.194C219.539 223.194 220.111 223.313 220.613 223.551C221.116 223.786 221.521 224.116 221.829 224.541C222.141 224.967 222.326 225.464 222.385 226.032H220.784C220.696 225.636 220.494 225.295 220.179 225.009C219.867 224.723 219.449 224.58 218.925 224.58C218.466 224.58 218.065 224.701 217.72 224.943C217.379 225.181 217.113 225.522 216.922 225.966C216.732 226.406 216.636 226.927 216.636 227.528C216.636 228.144 216.73 228.676 216.917 229.124C217.104 229.571 217.368 229.917 217.709 230.163C218.054 230.409 218.459 230.532 218.925 230.532C219.236 230.532 219.519 230.475 219.772 230.361C220.028 230.244 220.243 230.077 220.415 229.861C220.591 229.644 220.714 229.384 220.784 229.079H222.385C222.326 229.626 222.148 230.114 221.851 230.543C221.554 230.972 221.156 231.309 220.657 231.555C220.162 231.801 219.581 231.923 218.914 231.923ZM228.338 231.923C227.506 231.923 226.789 231.746 226.188 231.39C225.59 231.03 225.128 230.526 224.801 229.877C224.479 229.224 224.317 228.46 224.317 227.583C224.317 226.718 224.479 225.955 224.801 225.295C225.128 224.635 225.582 224.12 226.166 223.749C226.752 223.379 227.438 223.194 228.223 223.194C228.7 223.194 229.162 223.272 229.609 223.43C230.057 223.588 230.458 223.835 230.814 224.173C231.17 224.51 231.45 224.948 231.655 225.487C231.861 226.023 231.964 226.674 231.964 227.44V228.023H225.247V226.791H230.352C230.352 226.358 230.264 225.975 230.088 225.641C229.912 225.304 229.664 225.038 229.345 224.844C229.03 224.649 228.659 224.552 228.234 224.552C227.772 224.552 227.368 224.666 227.024 224.893C226.683 225.117 226.419 225.41 226.232 225.773C226.048 226.133 225.957 226.523 225.957 226.945V227.908C225.957 228.473 226.056 228.953 226.254 229.349C226.455 229.745 226.736 230.048 227.095 230.257C227.455 230.462 227.875 230.565 228.355 230.565C228.667 230.565 228.951 230.521 229.208 230.433C229.464 230.341 229.686 230.205 229.873 230.026C230.06 229.846 230.203 229.624 230.302 229.36L231.859 229.641C231.734 230.099 231.511 230.501 231.188 230.845C230.869 231.186 230.467 231.452 229.983 231.643C229.503 231.83 228.955 231.923 228.338 231.923Z" fill="#FDFDFD"/>
<path d="M173.347 134.899L175.294 138.19H175.37L177.326 134.899H179.632L176.685 139.727L179.698 144.555H177.35L175.37 141.259H175.294L173.314 144.555H170.975L173.998 139.727L171.032 134.899H173.347ZM185.226 138.93V140.524H180.822V138.93H185.226ZM196.048 138.279H193.983C193.945 138.012 193.868 137.775 193.752 137.567C193.636 137.357 193.486 137.178 193.304 137.03C193.122 136.882 192.911 136.769 192.672 136.69C192.436 136.612 192.18 136.573 191.904 136.573C191.404 136.573 190.969 136.697 190.598 136.945C190.227 137.19 189.939 137.549 189.735 138.02C189.53 138.488 189.428 139.057 189.428 139.727C189.428 140.415 189.53 140.994 189.735 141.462C189.942 141.93 190.231 142.284 190.602 142.523C190.973 142.762 191.402 142.881 191.89 142.881C192.163 142.881 192.416 142.845 192.649 142.773C192.884 142.701 193.093 142.595 193.276 142.457C193.458 142.316 193.609 142.144 193.728 141.943C193.851 141.742 193.936 141.512 193.983 141.255L196.048 141.264C195.995 141.707 195.861 142.135 195.647 142.547C195.437 142.955 195.152 143.321 194.794 143.645C194.439 143.966 194.014 144.22 193.521 144.409C193.031 144.594 192.476 144.687 191.857 144.687C190.995 144.687 190.225 144.492 189.546 144.103C188.87 143.713 188.336 143.149 187.943 142.41C187.553 141.671 187.358 140.777 187.358 139.727C187.358 138.674 187.556 137.778 187.952 137.039C188.349 136.301 188.886 135.738 189.565 135.351C190.244 134.962 191.008 134.767 191.857 134.767C192.416 134.767 192.935 134.845 193.413 135.002C193.893 135.16 194.319 135.389 194.69 135.691C195.061 135.99 195.363 136.356 195.596 136.789C195.831 137.223 195.982 137.72 196.048 138.279ZM200.093 144.692C199.631 144.692 199.219 144.612 198.858 144.451C198.496 144.288 198.21 144.048 197.999 143.73C197.792 143.409 197.688 143.01 197.688 142.532C197.688 142.13 197.762 141.792 197.91 141.519C198.058 141.245 198.259 141.025 198.513 140.859C198.768 140.692 199.057 140.566 199.381 140.481C199.708 140.397 200.051 140.337 200.409 140.302C200.83 140.258 201.17 140.217 201.427 140.18C201.685 140.139 201.872 140.079 201.988 140C202.105 139.922 202.163 139.806 202.163 139.652V139.623C202.163 139.325 202.069 139.094 201.88 138.93C201.694 138.767 201.43 138.685 201.088 138.685C200.726 138.685 200.439 138.765 200.225 138.925C200.011 139.083 199.87 139.281 199.801 139.52L197.943 139.369C198.037 138.929 198.223 138.548 198.499 138.228C198.776 137.904 199.133 137.655 199.57 137.483C200.01 137.307 200.519 137.219 201.097 137.219C201.5 137.219 201.885 137.266 202.252 137.36C202.623 137.454 202.952 137.6 203.238 137.799C203.527 137.997 203.755 138.251 203.922 138.562C204.088 138.87 204.171 139.24 204.171 139.67V144.555H202.267V143.551H202.21C202.094 143.777 201.938 143.977 201.743 144.15C201.548 144.319 201.314 144.453 201.041 144.55C200.767 144.645 200.451 144.692 200.093 144.692ZM200.668 143.306C200.964 143.306 201.225 143.248 201.451 143.131C201.677 143.012 201.855 142.851 201.984 142.65C202.113 142.449 202.177 142.221 202.177 141.967V141.198C202.114 141.239 202.028 141.277 201.918 141.311C201.811 141.343 201.69 141.373 201.555 141.401C201.419 141.426 201.284 141.45 201.149 141.472C201.014 141.49 200.891 141.508 200.781 141.523C200.546 141.558 200.34 141.613 200.164 141.688C199.988 141.764 199.851 141.866 199.753 141.995C199.656 142.121 199.607 142.278 199.607 142.466C199.607 142.74 199.706 142.949 199.904 143.094C200.106 143.235 200.36 143.306 200.668 143.306ZM206.283 144.555V137.313H208.23V138.576H208.306C208.438 138.127 208.659 137.788 208.971 137.558C209.282 137.325 209.64 137.209 210.046 137.209C210.146 137.209 210.255 137.215 210.371 137.228C210.487 137.241 210.589 137.258 210.677 137.28V139.062C210.583 139.034 210.453 139.009 210.286 138.987C210.119 138.965 209.967 138.954 209.829 138.954C209.533 138.954 209.269 139.018 209.037 139.147C208.807 139.273 208.625 139.449 208.49 139.675C208.358 139.901 208.292 140.162 208.292 140.458V144.555H206.283ZM214.601 144.673C214.051 144.673 213.552 144.532 213.106 144.249C212.663 143.963 212.311 143.543 212.05 142.99C211.792 142.433 211.663 141.751 211.663 140.943C211.663 140.114 211.797 139.424 212.064 138.874C212.331 138.32 212.686 137.907 213.13 137.633C213.576 137.357 214.065 137.219 214.596 137.219C215.002 137.219 215.339 137.288 215.61 137.426C215.883 137.561 216.103 137.731 216.27 137.935C216.44 138.136 216.568 138.334 216.656 138.529H216.718V134.899H218.722V144.555H216.741V143.395H216.656C216.562 143.596 216.429 143.796 216.256 143.994C216.086 144.189 215.864 144.351 215.591 144.48C215.321 144.609 214.991 144.673 214.601 144.673ZM215.237 143.075C215.561 143.075 215.835 142.987 216.058 142.811C216.284 142.631 216.457 142.382 216.576 142.061C216.699 141.74 216.76 141.365 216.76 140.934C216.76 140.503 216.701 140.129 216.581 139.812C216.462 139.494 216.289 139.249 216.062 139.076C215.836 138.903 215.561 138.817 215.237 138.817C214.907 138.817 214.629 138.907 214.403 139.086C214.176 139.265 214.005 139.513 213.889 139.831C213.772 140.148 213.714 140.516 213.714 140.934C213.714 141.355 213.772 141.728 213.889 142.051C214.008 142.372 214.18 142.624 214.403 142.806C214.629 142.985 214.907 143.075 215.237 143.075Z" fill="#FDFDFD"/>
<path d="M312.023 131.063L309.099 148.214H313.775L316.702 131.063H312.023Z" fill="#FDFDFD"/>
<path d="M305.177 131.082L300.597 142.779L300.108 141.013C299.205 138.885 296.641 135.829 293.63 133.902L297.818 148.206L302.767 148.197L310.131 131.078L305.177 131.082Z" fill="#FDFDFD"/>
<path d="M298.333 132.309C298.061 131.265 297.274 130.953 296.296 130.916H289.045L288.985 131.257C294.627 132.626 298.361 135.922 299.91 139.886L298.333 132.309Z" fill="#FDFDFD"/>
<path d="M326.18 134.351C327.71 134.327 328.819 134.661 329.68 135.007L330.102 135.206L330.735 131.488C329.809 131.141 328.357 130.768 326.546 130.768C321.924 130.768 318.667 133.094 318.642 136.428C318.612 138.892 320.962 140.267 322.737 141.088C324.56 141.93 325.171 142.465 325.162 143.216C325.148 144.365 323.709 144.891 322.366 144.891C320.493 144.891 319.498 144.633 317.962 143.993L317.36 143.719L316.702 147.558C317.796 148.037 319.816 148.45 321.912 148.471C326.828 148.471 330.023 146.173 330.057 142.61C330.077 140.662 328.83 139.174 326.127 137.954C324.491 137.158 323.49 136.629 323.5 135.826C323.5 135.113 324.349 134.351 326.18 134.351Z" fill="#FDFDFD"/>
<path d="M342.737 131.082H339.124C338.001 131.082 337.167 131.387 336.673 132.505L329.729 148.224H334.641C334.641 148.224 335.442 146.11 335.623 145.647C336.161 145.647 340.933 145.655 341.612 145.655C341.752 146.253 342.182 148.224 342.182 148.224H346.521L342.737 131.082ZM336.969 142.137C337.354 141.152 338.832 137.343 338.832 137.343C338.807 137.39 339.214 136.351 339.456 135.706L339.771 137.185C339.771 137.185 340.667 141.279 340.854 142.137H336.969Z" fill="#FDFDFD"/>
<rect x="-101" y="115.278" width="229.038" height="264.445" rx="17.7034" fill="#F0F0F0"/>
<mask id="mask2_226_3293" style="mask-type:alpha" maskUnits="userSpaceOnUse" x="-101" y="115" width="230" height="265">
<rect x="-101" y="115.278" width="229.038" height="264.445" rx="17.7034" fill="#2C7B7B"/>
</mask>
<g mask="url(#mask2_226_3293)">
<circle cx="-35.1654" cy="337.124" r="153.245" fill="url(#paint4_linear_226_3293)" fill-opacity="0.2"/>
<circle cx="-35.1653" cy="337.123" r="84.6445" fill="url(#paint5_linear_226_3293)" fill-opacity="0.2"/>
</g>
<path d="M70.3798 335.169V344.825H68.9181V336.63H68.8615L66.5512 338.139V336.744L68.9605 335.169H70.3798ZM73.0583 344.825V343.769L76.3258 340.384C76.6747 340.016 76.9624 339.694 77.1887 339.417C77.4181 339.137 77.5895 338.872 77.7026 338.62C77.8158 338.369 77.8724 338.102 77.8724 337.819C77.8724 337.498 77.7969 337.221 77.646 336.989C77.4952 336.753 77.2893 336.572 77.0284 336.447C76.7675 336.318 76.4736 336.253 76.1467 336.253C75.8009 336.253 75.4991 336.324 75.2414 336.465C74.9836 336.607 74.7856 336.806 74.6473 337.064C74.509 337.322 74.4398 337.624 74.4398 337.97H73.0489C73.0489 337.382 73.184 336.868 73.4544 336.428C73.7247 335.988 74.0956 335.647 74.5671 335.405C75.0386 335.159 75.5746 335.037 76.1749 335.037C76.7816 335.037 77.316 335.158 77.7781 335.4C78.2433 335.639 78.6063 335.966 78.8672 336.381C79.1281 336.792 79.2586 337.258 79.2586 337.776C79.2586 338.135 79.191 338.485 79.0558 338.828C78.9238 339.17 78.6928 339.552 78.3627 339.973C78.0327 340.391 77.5737 340.899 76.9859 341.496L75.0669 343.505V343.576H79.4142V344.825H73.0583ZM84.9642 334.716L81.8522 346.277H80.5933L83.7052 334.716H84.9642ZM86.2093 344.825V343.769L89.4768 340.384C89.8258 340.016 90.1134 339.694 90.3397 339.417C90.5692 339.137 90.7405 338.872 90.8536 338.62C90.9668 338.369 91.0234 338.102 91.0234 337.819C91.0234 337.498 90.9479 337.221 90.797 336.989C90.6462 336.753 90.4403 336.572 90.1794 336.447C89.9185 336.318 89.6246 336.253 89.2977 336.253C88.9519 336.253 88.6501 336.324 88.3924 336.465C88.1346 336.607 87.9366 336.806 87.7983 337.064C87.66 337.322 87.5908 337.624 87.5908 337.97H86.1999C86.1999 337.382 86.335 336.868 86.6054 336.428C86.8757 335.988 87.2466 335.647 87.7181 335.405C88.1896 335.159 88.7256 335.037 89.326 335.037C89.9326 335.037 90.467 335.158 90.9291 335.4C91.3943 335.639 91.7573 335.966 92.0182 336.381C92.2791 336.792 92.4096 337.258 92.4096 337.776C92.4096 338.135 92.342 338.485 92.2068 338.828C92.0748 339.17 91.8438 339.552 91.5137 339.973C91.1837 340.391 90.7248 340.899 90.1369 341.496L88.2179 343.505V343.576H92.5652V344.825H86.2093ZM94.0084 342.939V341.76L98.1812 335.169H99.1101V336.904H98.5207L95.536 341.628V341.704H101.255V342.939H94.0084ZM98.5867 344.825V342.581L98.5961 342.043V335.169H99.9776V344.825H98.5867Z" fill="#0F0F0F"/>
<path d="M-70.5093 340.979L-70.3899 338.326L-72.628 339.766L-73.3132 338.571L-70.9368 337.358L-73.3132 336.145L-72.628 334.95L-70.3899 336.39L-70.5093 333.737H-69.1451L-69.2646 336.39L-67.0265 334.95L-66.3412 336.145L-68.7176 337.358L-66.3412 338.571L-67.0265 339.766L-69.2646 338.326L-69.1451 340.979H-70.5093ZM-61.1888 340.979L-61.0693 338.326L-63.3074 339.766L-63.9926 338.571L-61.6163 337.358L-63.9926 336.145L-63.3074 334.95L-61.0693 336.39L-61.1888 333.737H-59.8245L-59.944 336.39L-57.7059 334.95L-57.0207 336.145L-59.397 337.358L-57.0207 338.571L-57.7059 339.766L-59.944 338.326L-59.8245 340.979H-61.1888ZM-51.8682 340.979L-51.7487 338.326L-53.9868 339.766L-54.6721 338.571L-52.2957 337.358L-54.6721 336.145L-53.9868 334.95L-51.7487 336.39L-51.8682 333.737H-50.504L-50.6234 336.39L-48.3853 334.95L-47.7001 336.145L-50.0765 337.358L-47.7001 338.571L-48.3853 339.766L-50.6234 338.326L-50.504 340.979H-51.8682ZM-42.5476 340.979L-42.4282 338.326L-44.6662 339.766L-45.3515 338.571L-42.9751 337.358L-45.3515 336.145L-44.6662 334.95L-42.4282 336.39L-42.5476 333.737H-41.1834L-41.3028 336.39L-39.0648 334.95L-38.3795 336.145L-40.7559 337.358L-38.3795 338.571L-39.0648 339.766L-41.3028 338.326L-41.1834 340.979H-42.5476ZM-25.9429 346.612L-20.3225 335.497V335.403H-26.823V333.737H-18.3108V335.459L-23.9122 346.612H-25.9429ZM-11.945 346.788C-12.846 346.788 -13.6424 346.633 -14.3339 346.323C-15.0213 346.013 -15.5598 345.585 -15.9496 345.04C-16.3394 344.496 -16.5322 343.875 -16.528 343.18C-16.5322 342.635 -16.4211 342.134 -16.1948 341.677C-15.9643 341.216 -15.652 340.832 -15.2581 340.527C-14.8641 340.216 -14.424 340.019 -13.9378 339.936V339.86C-14.5791 339.705 -15.0925 339.361 -15.4781 338.829C-15.8637 338.297 -16.0544 337.685 -16.0502 336.993C-16.0544 336.335 -15.8804 335.749 -15.5284 335.233C-15.1721 334.713 -14.6839 334.305 -14.0636 334.007C-13.4433 333.71 -12.7371 333.561 -11.945 333.561C-11.1612 333.561 -10.4613 333.712 -9.84518 334.013C-9.22489 334.311 -8.73662 334.72 -8.38038 335.239C-8.02413 335.755 -7.84391 336.34 -7.83972 336.993C-7.84391 337.685 -8.04089 338.297 -8.43067 338.829C-8.82045 339.361 -9.32758 339.705 -9.95206 339.86V339.936C-9.47008 340.019 -9.03629 340.216 -8.65071 340.527C-8.26093 340.832 -7.95078 341.216 -7.72027 341.677C-7.48557 342.134 -7.36612 342.635 -7.36193 343.18C-7.36612 343.875 -7.5631 344.496 -7.95288 345.04C-8.34266 345.585 -8.88332 346.013 -9.57486 346.323C-10.2622 346.633 -11.0522 346.788 -11.945 346.788ZM-11.945 345.198C-11.4127 345.198 -10.9516 345.11 -10.5619 344.934C-10.1721 344.753 -9.87033 344.504 -9.65658 344.185C-9.44283 343.863 -9.33386 343.485 -9.32967 343.054C-9.33386 342.605 -9.45122 342.209 -9.68173 341.866C-9.90805 341.522 -10.2161 341.252 -10.6059 341.055C-10.9957 340.858 -11.442 340.759 -11.945 340.759C-12.4521 340.759 -12.9026 340.858 -13.2966 341.055C-13.6906 341.252 -14.0007 341.522 -14.227 341.866C-14.4534 342.209 -14.5644 342.605 -14.5602 343.054C-14.5644 343.485 -14.4617 343.863 -14.2522 344.185C-14.0384 344.504 -13.7346 344.753 -13.3406 344.934C-12.9466 345.11 -12.4814 345.198 -11.945 345.198ZM-11.945 339.206C-11.5175 339.206 -11.1382 339.12 -10.8071 338.949C-10.476 338.777 -10.2161 338.538 -10.0275 338.232C-9.83471 337.926 -9.73621 337.568 -9.73202 337.157C-9.73621 336.754 -9.83261 336.402 -10.0212 336.101C-10.2056 335.799 -10.4634 335.566 -10.7945 335.403C-11.1256 335.235 -11.5091 335.151 -11.945 335.151C-12.3892 335.151 -12.779 335.235 -13.1143 335.403C-13.4454 335.566 -13.7031 335.799 -13.8875 336.101C-14.072 336.402 -14.1621 336.754 -14.1579 337.157C-14.1621 337.568 -14.0699 337.926 -13.8813 338.232C-13.6927 338.538 -13.4328 338.777 -13.1017 338.949C-12.7664 339.12 -12.3808 339.206 -11.945 339.206ZM-0.739928 333.561C-0.16574 333.565 0.400065 333.67 0.957488 333.875C1.51491 334.081 2.01785 334.416 2.4663 334.881C2.91895 335.346 3.27939 335.975 3.54762 336.767C3.82005 337.555 3.95835 338.536 3.96254 339.709C3.96254 340.837 3.84938 341.84 3.62306 342.721C3.39674 343.597 3.07192 344.336 2.64862 344.94C2.2295 345.543 1.72028 346.002 1.12094 346.317C0.521609 346.631 -0.153167 346.788 -0.903383 346.788C-1.67036 346.788 -2.35143 346.637 -2.94657 346.335C-3.54171 346.034 -4.02579 345.617 -4.3988 345.084C-4.77182 344.548 -5.00442 343.932 -5.09663 343.236H-3.17918C-3.05344 343.789 -2.79778 344.238 -2.4122 344.581C-2.02242 344.921 -1.51948 345.091 -0.903383 345.091C0.0396263 345.091 0.775173 344.68 1.30326 343.858C1.83134 343.033 2.09748 341.88 2.10167 340.401H2.00109C1.78315 340.761 1.51072 341.071 1.18381 341.331C0.861092 341.591 0.498557 341.792 0.096207 341.935C-0.306143 342.077 -0.735737 342.148 -1.19257 342.148C-1.93441 342.148 -2.60918 341.966 -3.2169 341.602C-3.82462 341.237 -4.30869 340.736 -4.66913 340.099C-5.02957 339.462 -5.20979 338.735 -5.20979 337.918C-5.20979 337.104 -5.02538 336.367 -4.65656 335.705C-4.28355 335.042 -3.76384 334.518 -3.09745 334.133C-2.42687 333.743 -1.64103 333.552 -0.739928 333.561ZM-0.733641 335.195C-1.22401 335.195 -1.66617 335.317 -2.06014 335.56C-2.44992 335.799 -2.75797 336.124 -2.98429 336.534C-3.21061 336.941 -3.32377 337.394 -3.32377 337.892C-3.32377 338.391 -3.2148 338.844 -2.99686 339.25C-2.77473 339.653 -2.47297 339.973 -2.09157 340.212C-1.70599 340.447 -1.26592 340.564 -0.771361 340.564C-0.40254 340.564 -0.0588657 340.493 0.259662 340.35C0.578189 340.208 0.856901 340.011 1.0958 339.76C1.33469 339.504 1.5212 339.215 1.65532 338.892C1.78943 338.569 1.85649 338.23 1.85649 337.874C1.85649 337.4 1.74333 336.96 1.51701 336.553C1.29488 336.147 0.988922 335.82 0.599145 335.573C0.209368 335.321 -0.234894 335.195 -0.733641 335.195ZM6.41015 346.612L12.0305 335.497V335.403H5.53001V333.737H14.0422V335.459L8.44077 346.612H6.41015Z" fill="#525252"/>
<path d="M-66.5047 267.935V243.794H-64.9582V267.935H-66.5047ZM-62.0443 251.517C-62.1323 250.694 -62.5032 250.053 -63.157 249.594C-63.8045 249.135 -64.647 248.905 -65.6843 248.905C-66.4135 248.905 -67.0391 249.015 -67.5609 249.235C-68.0827 249.455 -68.4819 249.754 -68.7585 250.131C-69.0351 250.508 -69.1765 250.939 -69.1828 251.423C-69.1828 251.825 -69.0917 252.174 -68.9094 252.47C-68.7208 252.765 -68.4661 253.017 -68.1455 253.224C-67.8249 253.425 -67.4697 253.595 -67.0799 253.733C-66.6901 253.872 -66.2972 253.988 -65.9012 254.082L-64.0906 254.535C-63.3613 254.705 -62.6604 254.934 -61.9877 255.223C-61.3087 255.513 -60.702 255.877 -60.1677 256.317C-59.627 256.757 -59.1995 257.289 -58.8852 257.911C-58.5708 258.533 -58.4137 259.263 -58.4137 260.099C-58.4137 261.23 -58.7029 262.227 -59.2812 263.088C-59.8596 263.943 -60.6958 264.613 -61.7896 265.097C-62.8772 265.574 -64.1943 265.813 -65.7409 265.813C-67.2434 265.813 -68.5479 265.581 -69.6543 265.116C-70.7545 264.65 -71.6158 263.971 -72.2382 263.079C-72.8543 262.186 -73.1875 261.098 -73.2378 259.816H-69.7958C-69.7455 260.488 -69.538 261.048 -69.1734 261.494C-68.8088 261.941 -68.3341 262.274 -67.7495 262.494C-67.1585 262.714 -66.4984 262.824 -65.7691 262.824C-65.0084 262.824 -64.3421 262.711 -63.77 262.485C-63.1916 262.252 -62.7389 261.931 -62.412 261.523C-62.0851 261.108 -61.9185 260.624 -61.9122 260.07C-61.9185 259.567 -62.0663 259.153 -62.3554 258.826C-62.6446 258.492 -63.0501 258.216 -63.5719 257.996C-64.0874 257.769 -64.691 257.568 -65.3825 257.392L-67.5797 256.826C-69.1703 256.418 -70.4276 255.799 -71.3518 254.969C-72.2696 254.133 -72.7285 253.023 -72.7285 251.64C-72.7285 250.502 -72.4205 249.506 -71.8044 248.651C-71.182 247.796 -70.3364 247.132 -69.2677 246.661C-68.199 246.183 -66.9888 245.944 -65.6371 245.944C-64.2666 245.944 -63.0658 246.183 -62.0348 246.661C-60.9975 247.132 -60.1834 247.789 -59.5924 248.632C-59.0015 249.468 -58.6966 250.43 -58.6777 251.517H-62.0443ZM-55.3505 265.521V262.994L-48.6457 256.421C-48.0045 255.773 -47.4701 255.198 -47.0426 254.695C-46.6151 254.192 -46.2945 253.705 -46.0807 253.234C-45.867 252.762 -45.7601 252.259 -45.7601 251.725C-45.7601 251.115 -45.8984 250.593 -46.175 250.159C-46.4516 249.719 -46.832 249.38 -47.3161 249.141C-47.8001 248.902 -48.3502 248.783 -48.9663 248.783C-49.6013 248.783 -50.1577 248.915 -50.6354 249.179C-51.1132 249.436 -51.4842 249.804 -51.7482 250.282C-52.006 250.76 -52.1348 251.329 -52.1348 251.989H-55.4637C-55.4637 250.763 -55.1839 249.697 -54.6244 248.792C-54.0649 247.887 -53.2947 247.186 -52.314 246.689C-51.327 246.192 -50.1954 245.944 -48.9192 245.944C-47.6241 245.944 -46.4862 246.186 -45.5055 246.67C-44.5248 247.154 -43.7641 247.818 -43.2234 248.66C-42.6765 249.502 -42.403 250.464 -42.403 251.546C-42.403 252.269 -42.5413 252.979 -42.8179 253.677C-43.0945 254.375 -43.5817 255.148 -44.2796 255.997C-44.9711 256.845 -45.9424 257.873 -47.1935 259.08L-50.5223 262.466V262.598H-42.1106V265.521H-55.3505ZM-36.5839 265.728C-37.156 265.728 -37.6463 265.527 -38.055 265.125C-38.4636 264.723 -38.6648 264.232 -38.6585 263.654C-38.6648 263.088 -38.4636 262.604 -38.055 262.202C-37.6463 261.799 -37.156 261.598 -36.5839 261.598C-36.0306 261.598 -35.5497 261.799 -35.1411 262.202C-34.7261 262.604 -34.5155 263.088 -34.5092 263.654C-34.5155 264.037 -34.6161 264.386 -34.811 264.701C-34.9996 265.015 -35.2511 265.266 -35.5654 265.455C-35.8735 265.637 -36.2129 265.728 -36.5839 265.728ZM-24.5692 265.785C-25.4933 265.779 -26.3955 265.618 -27.2756 265.304C-28.1558 264.983 -28.9479 264.465 -29.652 263.748C-30.3561 263.025 -30.9156 262.066 -31.3305 260.872C-31.7455 259.671 -31.9498 258.184 -31.9435 256.412C-31.9435 254.758 -31.7675 253.284 -31.4154 251.989C-31.0634 250.694 -30.5573 249.6 -29.8972 248.707C-29.2371 247.808 -28.4418 247.123 -27.5114 246.651C-26.5746 246.18 -25.5279 245.944 -24.3711 245.944C-23.1578 245.944 -22.0828 246.183 -21.146 246.661C-20.203 247.139 -19.4423 247.792 -18.864 248.622C-18.2856 249.446 -17.9272 250.376 -17.7889 251.414H-21.2309C-21.4069 250.672 -21.7684 250.081 -22.3154 249.641C-22.856 249.194 -23.5413 248.971 -24.3711 248.971C-25.7102 248.971 -26.7412 249.553 -27.4642 250.716C-28.1809 251.879 -28.5424 253.476 -28.5487 255.506H-28.4166C-28.1086 254.953 -27.7094 254.478 -27.219 254.082C-26.7287 253.686 -26.1754 253.381 -25.5593 253.168C-24.9369 252.948 -24.28 252.838 -23.5884 252.838C-22.4568 252.838 -21.4415 253.108 -20.5425 253.649C-19.6372 254.189 -18.9205 254.934 -18.3925 255.883C-17.8644 256.826 -17.6035 257.908 -17.6098 259.127C-17.6035 260.397 -17.8927 261.538 -18.4773 262.551C-19.062 263.556 -19.8761 264.349 -20.9197 264.927C-21.9633 265.505 -23.1798 265.791 -24.5692 265.785ZM-24.588 262.956C-23.9028 262.956 -23.2898 262.789 -22.7492 262.456C-22.2085 262.123 -21.781 261.674 -21.4667 261.108C-21.1523 260.542 -20.9983 259.907 -21.0046 259.203C-20.9983 258.511 -21.1492 257.886 -21.4572 257.326C-21.759 256.767 -22.1771 256.324 -22.7114 255.997C-23.2458 255.67 -23.8556 255.506 -24.5409 255.506C-25.0501 255.506 -25.5248 255.604 -25.9648 255.799C-26.4049 255.993 -26.7884 256.264 -27.1153 256.61C-27.4422 256.949 -27.7 257.345 -27.8886 257.798C-28.0709 258.244 -28.1652 258.722 -28.1715 259.231C-28.1652 259.904 -28.008 260.523 -27.7 261.089C-27.3919 261.655 -26.9676 262.107 -26.4269 262.447C-25.8862 262.786 -25.2733 262.956 -24.588 262.956ZM-7.21705 265.785C-8.1412 265.779 -9.04335 265.618 -9.92349 265.304C-10.8036 264.983 -11.5958 264.465 -12.2999 263.748C-13.004 263.025 -13.5635 262.066 -13.9784 260.872C-14.3934 259.671 -14.5977 258.184 -14.5914 256.412C-14.5914 254.758 -14.4154 253.284 -14.0633 251.989C-13.7112 250.694 -13.2052 249.6 -12.5451 248.707C-11.8849 247.808 -11.0897 247.123 -10.1592 246.651C-9.22252 246.18 -8.17578 245.944 -7.01902 245.944C-5.80568 245.944 -4.73065 246.183 -3.79393 246.661C-2.85092 247.139 -2.09023 247.792 -1.51185 248.622C-0.93347 249.446 -0.575126 250.376 -0.436818 251.414H-3.8788C-4.05483 250.672 -4.41632 250.081 -4.96326 249.641C-5.50392 249.194 -6.18917 248.971 -7.01902 248.971C-8.35809 248.971 -9.38912 249.553 -10.1121 250.716C-10.8288 251.879 -11.1903 253.476 -11.1966 255.506H-11.0645C-10.7565 254.953 -10.3573 254.478 -9.86691 254.082C-9.37654 253.686 -8.82331 253.381 -8.20721 253.168C-7.58483 252.948 -6.92786 252.838 -6.23632 252.838C-5.10471 252.838 -4.08941 253.108 -3.1904 253.649C-2.28512 254.189 -1.56843 254.934 -1.04034 255.883C-0.512259 256.826 -0.25136 257.908 -0.257646 259.127C-0.25136 260.397 -0.54055 261.538 -1.12522 262.551C-1.70988 263.556 -2.52401 264.349 -3.56761 264.927C-4.6112 265.505 -5.82769 265.791 -7.21705 265.785ZM-7.23591 262.956C-6.55066 262.956 -5.9377 262.789 -5.39705 262.456C-4.85639 262.123 -4.42889 261.674 -4.11455 261.108C-3.80022 260.542 -3.64619 259.907 -3.65248 259.203C-3.64619 258.511 -3.79707 257.886 -4.10512 257.326C-4.40689 256.767 -4.82495 256.324 -5.35933 255.997C-5.8937 255.67 -6.50351 255.506 -7.18876 255.506C-7.69799 255.506 -8.17264 255.604 -8.61271 255.799C-9.05278 255.993 -9.43627 256.264 -9.76318 256.61C-10.0901 256.949 -10.3478 257.345 -10.5364 257.798C-10.7188 258.244 -10.8131 258.722 -10.8193 259.231C-10.8131 259.904 -10.6559 260.523 -10.3478 261.089C-10.0398 261.655 -9.61544 262.107 -9.07478 262.447C-8.53412 262.786 -7.92117 262.956 -7.23591 262.956ZM2.71359 261.938V259.156L10.9083 246.208H13.2281V250.169H11.8136L6.29702 258.911V259.061H17.7357V261.938H2.71359ZM11.9268 265.521V261.089L11.9645 259.844V246.208H15.265V265.521H11.9268ZM24.3823 262.881L24.2597 263.918C24.1717 264.71 24.0146 265.515 23.7882 266.332C23.5682 267.156 23.3356 267.913 23.0904 268.605C22.8452 269.296 22.6472 269.84 22.4963 270.236H20.1954C20.2834 269.853 20.4028 269.331 20.5537 268.671C20.7109 268.011 20.8618 267.269 21.0064 266.445C21.151 265.622 21.2484 264.785 21.2987 263.937L21.3647 262.881H24.3823ZM34.6218 265.785C33.6977 265.779 32.7955 265.618 31.9154 265.304C31.0352 264.983 30.2431 264.465 29.539 263.748C28.8349 263.025 28.2754 262.066 27.8604 260.872C27.4455 259.671 27.2412 258.184 27.2475 256.412C27.2475 254.758 27.4235 253.284 27.7756 251.989C28.1276 250.694 28.6337 249.6 29.2938 248.707C29.9539 247.808 30.7492 247.123 31.6796 246.651C32.6163 246.18 33.6631 245.944 34.8198 245.944C36.0332 245.944 37.1082 246.183 38.0449 246.661C38.9879 247.139 39.7486 247.792 40.327 248.622C40.9054 249.446 41.2637 250.376 41.402 251.414H37.9601C37.784 250.672 37.4225 250.081 36.8756 249.641C36.3349 249.194 35.6497 248.971 34.8198 248.971C33.4808 248.971 32.4497 249.553 31.7268 250.716C31.0101 251.879 30.6486 253.476 30.6423 255.506H30.7743C31.0824 254.953 31.4816 254.478 31.972 254.082C32.4623 253.686 33.0155 253.381 33.6316 253.168C34.254 252.948 34.911 252.838 35.6025 252.838C36.7341 252.838 37.7495 253.108 38.6485 253.649C39.5537 254.189 40.2704 254.934 40.7985 255.883C41.3266 256.826 41.5875 257.908 41.5812 259.127C41.5875 260.397 41.2983 261.538 40.7136 262.551C40.129 263.556 39.3148 264.349 38.2713 264.927C37.2277 265.505 36.0112 265.791 34.6218 265.785ZM34.6029 262.956C35.2882 262.956 35.9012 262.789 36.4418 262.456C36.9825 262.123 37.41 261.674 37.7243 261.108C38.0386 260.542 38.1927 259.907 38.1864 259.203C38.1927 258.511 38.0418 257.886 37.7337 257.326C37.432 256.767 37.0139 256.324 36.4795 255.997C35.9452 255.67 35.3353 255.506 34.6501 255.506C34.1409 255.506 33.6662 255.604 33.2262 255.799C32.7861 255.993 32.4026 256.264 32.0757 256.61C31.7488 256.949 31.491 257.345 31.3024 257.798C31.1201 258.244 31.0258 258.722 31.0195 259.231C31.0258 259.904 31.183 260.523 31.491 261.089C31.7991 261.655 32.2234 262.107 32.7641 262.447C33.3047 262.786 33.9177 262.956 34.6029 262.956ZM51.8325 265.785C50.4745 265.785 49.2675 265.552 48.2113 265.087C47.1614 264.622 46.3316 263.974 45.7218 263.145C45.112 262.315 44.7882 261.356 44.7505 260.268H48.2962C48.3276 260.79 48.5005 261.246 48.8148 261.636C49.1292 262.019 49.5472 262.318 50.069 262.532C50.5908 262.745 51.1755 262.852 51.823 262.852C52.5146 262.852 53.1275 262.733 53.6619 262.494C54.1963 262.249 54.6144 261.909 54.9161 261.475C55.2179 261.042 55.3656 260.542 55.3593 259.976C55.3656 259.391 55.2147 258.876 54.9067 258.43C54.5986 257.983 54.1523 257.634 53.5676 257.383C52.9892 257.131 52.2914 257.006 51.4741 257.006H49.7673V254.309H51.4741C52.1468 254.309 52.7346 254.192 53.2376 253.96C53.7468 253.727 54.146 253.4 54.4352 252.979C54.7244 252.551 54.8658 252.058 54.8595 251.498C54.8658 250.952 54.7432 250.477 54.4918 250.075C54.2466 249.666 53.8977 249.348 53.445 249.122C52.9987 248.896 52.4737 248.783 51.8702 248.783C51.2792 248.783 50.7323 248.889 50.2294 249.103C49.7264 249.317 49.3209 249.622 49.0129 250.018C48.7048 250.408 48.5414 250.873 48.5225 251.414H45.156C45.1811 250.332 45.4923 249.383 46.0895 248.566C46.6931 247.742 47.4978 247.101 48.5037 246.642C49.5095 246.177 50.638 245.944 51.8891 245.944C53.1778 245.944 54.2969 246.186 55.2462 246.67C56.2017 247.148 56.9404 247.792 57.4622 248.603C57.984 249.414 58.2449 250.31 58.2449 251.291C58.2512 252.379 57.9306 253.29 57.2831 254.026C56.6418 254.761 55.7994 255.242 54.7558 255.469V255.619C56.1137 255.808 57.1542 256.311 57.8772 257.128C58.6064 257.939 58.9679 258.948 58.9616 260.155C58.9616 261.237 58.6536 262.205 58.0375 263.06C57.4277 263.908 56.5852 264.575 55.5102 265.059C54.4415 265.543 53.2156 265.785 51.8325 265.785Z" fill="#0F0F0F"/>
<path d="M66.9846 144.34L64.0605 161.492H68.7371L71.6636 144.34H66.9846Z" fill="#0F0F0F"/>
<path d="M60.1394 144.36L55.5591 156.056L55.0707 154.29C54.1674 152.162 51.603 149.106 48.5923 147.18L52.7805 161.483L57.729 161.475L65.0939 144.356L60.1394 144.36Z" fill="#0F0F0F"/>
<path d="M53.2952 145.587C53.0233 144.542 52.2355 144.231 51.2576 144.194H44.0069L43.9468 144.535C49.5892 145.903 53.3228 149.2 54.8721 153.164L53.2952 145.587Z" fill="#0F0F0F"/>
<path d="M81.1419 147.628C82.6719 147.604 83.7809 147.939 84.6421 148.285L85.0643 148.483L85.697 144.766C84.7708 144.418 83.319 144.046 81.5075 144.046C76.8863 144.046 73.629 146.372 73.6037 149.706C73.5737 152.169 75.924 153.545 77.6994 154.366C79.5217 155.208 80.1327 155.743 80.1243 156.494C80.1098 157.642 78.6713 158.169 77.3277 158.169C75.4549 158.169 74.4602 157.91 72.9241 157.271L72.3215 156.997L71.6636 160.835C72.7581 161.315 74.7777 161.727 76.8742 161.749C81.7902 161.749 84.9849 159.45 85.0186 155.888C85.039 153.939 83.7917 152.452 81.0889 151.232C79.4531 150.436 78.4523 149.907 78.462 149.104C78.462 148.391 79.3112 147.628 81.1419 147.628Z" fill="#0F0F0F"/>
<path d="M97.6988 144.359H94.0855C92.9633 144.359 92.1285 144.665 91.6353 145.783L84.6914 161.501H89.6026C89.6026 161.501 90.4036 159.388 90.5853 158.925C91.1229 158.925 95.8945 158.932 96.5741 158.932C96.7137 159.531 97.1443 161.501 97.1443 161.501H101.483L97.6988 144.359ZM91.9312 155.414C92.3161 154.429 93.7944 150.621 93.7944 150.621C93.7692 150.667 94.1757 149.629 94.4175 148.983L94.7326 150.462C94.7326 150.462 95.6287 154.557 95.8164 155.414H91.9312Z" fill="#0F0F0F"/>
<rect x="238.557" y="409" width="16" height="8" rx="4" fill="#0F0F0F"/>
<rect x="258.557" y="409" width="8" height="8" rx="4" fill="#D4D4D4"/>
<rect x="270.557" y="409" width="8" height="8" rx="4" fill="#D4D4D4"/>
</g>
<defs>
<filter id="filter0_d_226_3293" x="108.631" y="66.5932" width="370.665" height="432.627" filterUnits="userSpaceOnUse" color-interpolation-filters="sRGB">
<feFlood flood-opacity="0" result="BackgroundImageFix"/>
<feColorMatrix in="SourceAlpha" type="matrix" values="0 0 0 0 0 0 0 0 0 0 0 0 0 0 0 0 0 0 127 0" result="hardAlpha"/>
<feOffset dx="35.4068" dy="35.4068"/>
<feGaussianBlur stdDeviation="35.4068"/>
<feComposite in2="hardAlpha" operator="out"/>
<feColorMatrix type="matrix" values="0 0 0 0 0.168627 0 0 0 0 0.176471 0 0 0 0 0.254902 0 0 0 0.12 0"/>
<feBlend mode="normal" in2="BackgroundImageFix" result="effect1_dropShadow_226_3293"/>
<feBlend mode="normal" in="SourceGraphic" in2="effect1_dropShadow_226_3293" result="shape"/>
</filter>
<linearGradient id="paint0_linear_226_3293" x1="602.07" y1="186.645" x2="454.358" y2="324.399" gradientUnits="userSpaceOnUse">
<stop stop-color="#FEFEFE"/>
<stop offset="1" stop-color="#FEFEFE" stop-opacity="0"/>
</linearGradient>
<linearGradient id="paint1_linear_226_3293" x1="539.555" y1="261.884" x2="469.848" y2="324.952" gradientUnits="userSpaceOnUse">
<stop stop-color="#FEFEFE"/>
<stop offset="1" stop-color="#FEFEFE" stop-opacity="0"/>
</linearGradient>
<linearGradient id="paint2_linear_226_3293" x1="357.032" y1="173.367" x2="209.319" y2="311.122" gradientUnits="userSpaceOnUse">
<stop stop-color="#FEFEFE"/>
<stop offset="1" stop-color="#FEFEFE" stop-opacity="0"/>
</linearGradient>
<linearGradient id="paint3_linear_226_3293" x1="294.517" y1="248.606" x2="224.81" y2="311.675" gradientUnits="userSpaceOnUse">
<stop stop-color="#FEFEFE"/>
<stop offset="1" stop-color="#FEFEFE" stop-opacity="0"/>
</linearGradient>
<linearGradient id="paint4_linear_226_3293" x1="111.994" y1="186.645" x2="-35.7186" y2="324.399" gradientUnits="userSpaceOnUse">
<stop stop-color="#FEFEFE"/>
<stop offset="1" stop-color="#FEFEFE" stop-opacity="0"/>
</linearGradient>
<linearGradient id="paint5_linear_226_3293" x1="49.4792" y1="261.884" x2="-20.2281" y2="324.952" gradientUnits="userSpaceOnUse">
<stop stop-color="#FEFEFE"/>
<stop offset="1" stop-color="#FEFEFE" stop-opacity="0"/>
</linearGradient>
<clipPath id="clip0_226_3293">
<rect width="518" height="518" rx="32" fill="white"/>
</clipPath>
</defs>
</svg>
