<svg width="24" height="24" viewBox="0 0 24 24" fill="none" xmlns="http://www.w3.org/2000/svg">
<path d="M18.3861 12C20.697 8.7553 21.8755 5.40186 20.2367 3.76311C18.598 2.12436 15.2445 3.3028 11.9999 5.61373C8.75517 3.3028 5.40174 2.12436 3.76299 3.76311C2.12424 5.40186 3.30267 8.7553 5.61361 12C3.30267 15.2447 2.12424 18.5981 3.76299 20.2369C4.2908 20.7647 4.9958 21 5.81705 21C7.54955 21 9.79955 19.9528 12.0045 18.3862C14.2002 19.9528 16.4502 21 18.1874 21C19.0086 21 19.7146 20.7637 20.2414 20.2369C21.8755 18.5981 20.697 15.2447 18.3861 12ZM19.1764 4.82342C19.8927 5.53967 19.4089 7.86092 17.4402 10.7559C16.8173 9.98491 16.1542 9.24732 15.4536 8.54623C14.7525 7.84658 14.0149 7.1844 13.2439 6.56248C16.1389 4.59373 18.4602 4.10623 19.1764 4.82342ZM16.527 12C15.8636 12.8392 15.1512 13.6384 14.3933 14.3934C13.6383 15.1513 12.8391 15.8638 11.9999 16.5272C11.1606 15.8638 10.3614 15.1513 9.60642 14.3934C8.84857 13.6384 8.13607 12.8392 7.47267 12C8.80365 10.3228 10.3226 8.80377 11.9999 7.4728C12.8391 8.13619 13.6383 8.84869 14.3933 9.60655C15.1512 10.3616 15.8636 11.1608 16.527 12ZM4.8233 4.82342C5.02955 4.61623 5.36986 4.50936 5.81892 4.50936C6.92705 4.50936 8.69611 5.15623 10.7549 6.56248C9.98465 7.18491 9.2474 7.84706 8.54611 8.54623C7.84645 9.24739 7.18428 9.98498 6.56236 10.7559C4.59361 7.86092 4.10705 5.53967 4.8233 4.82342ZM4.8233 19.1765C4.10705 18.4603 4.59361 16.139 6.56236 13.244C7.18519 14.0151 7.84831 14.7526 8.54892 15.4537C9.24962 16.1528 9.98625 16.815 10.7558 17.4375C7.8608 19.4062 5.53955 19.8937 4.8233 19.1765ZM19.1764 19.1765C18.4602 19.8937 16.1389 19.409 13.2439 17.4403C14.0145 16.817 14.7521 16.1539 15.4536 15.4537C16.1533 14.7526 16.8154 14.015 17.4374 13.244C19.4061 16.139 19.8927 18.4603 19.1764 19.1765ZM13.1249 12C13.1249 12.2225 13.0589 12.44 12.9353 12.625C12.8116 12.81 12.6359 12.9542 12.4304 13.0393C12.2248 13.1245 11.9986 13.1468 11.7804 13.1034C11.5622 13.06 11.3617 12.9528 11.2044 12.7955C11.047 12.6381 10.9399 12.4377 10.8965 12.2195C10.8531 12.0012 10.8753 11.775 10.9605 11.5695C11.0456 11.3639 11.1898 11.1882 11.3748 11.0646C11.5599 10.941 11.7774 10.875 11.9999 10.875C12.2982 10.875 12.5844 10.9935 12.7954 11.2045C13.0063 11.4155 13.1249 11.7016 13.1249 12Z" fill="#404040"/>
</svg>
