<svg width="238" height="64" viewBox="0 0 238 64" fill="none" xmlns="http://www.w3.org/2000/svg">
<g clip-path="url(#clip0_287_3982)">
<path d="M8.59711 29.378C8.51098 29.2653 8.39724 29.1767 8.26687 29.1208C8.1365 29.0649 7.99391 29.0436 7.8529 29.0589C7.71188 29.0742 7.5772 29.1257 7.46188 29.2082C7.34656 29.2908 7.25449 29.4018 7.19457 29.5303L0.0877076 43.7396C0.022965 43.8691 -0.00760301 44.013 -0.00109419 44.1577C0.00541463 44.3023 0.0487843 44.4429 0.124897 44.566C0.20101 44.6892 0.307339 44.7909 0.43379 44.8614C0.56024 44.9319 0.702615 44.9689 0.847396 44.9689H10.7433C10.9018 44.9726 11.058 44.9302 11.1928 44.8468C11.3277 44.7635 11.4355 44.6427 11.503 44.4993C13.6377 40.0882 12.344 33.3812 8.59711 29.378Z" fill="#737373"/>
<path d="M13.8086 16.4539C12.0377 19.1786 11.0058 22.317 10.8139 25.5609C10.6221 28.8049 11.277 32.043 12.7144 34.9574L17.4853 44.4993C17.5558 44.6404 17.6643 44.759 17.7984 44.842C17.9326 44.9249 18.0872 44.9689 18.245 44.9689H28.1391C28.2839 44.9689 28.4263 44.9318 28.5528 44.8613C28.6792 44.7908 28.7855 44.6892 28.8616 44.566C28.9378 44.4428 28.9811 44.3023 28.9876 44.1576C28.9941 44.013 28.9636 43.8691 28.8988 43.7396C28.8988 43.7396 15.5878 17.1145 15.2533 16.4486C15.1872 16.313 15.0842 16.1988 14.9561 16.1191C14.828 16.0395 14.6801 15.9975 14.5293 15.9981C14.3784 15.9986 14.2308 16.0417 14.1033 16.1223C13.9759 16.2029 13.8737 16.3178 13.8086 16.4539Z" fill="#737373"/>
<path d="M129.863 27.847C129.863 31.3655 131.495 34.159 137.879 35.3923C141.689 36.192 142.486 36.8068 142.486 38.0765C142.486 39.3098 141.687 40.1082 139.004 40.1082C135.761 40.0499 132.583 39.19 129.754 37.6052V43.3362C131.677 44.2793 134.216 45.3313 138.931 45.3313C145.606 45.3313 148.254 42.3548 148.254 37.9313L129.863 27.847ZM148.254 37.9313C148.254 33.7596 146.041 31.8004 139.802 30.4588C136.356 29.6969 135.522 28.9354 135.522 27.847C135.522 26.4697 136.755 25.8882 139.04 25.8882C141.797 25.8882 144.518 26.7225 147.093 27.8834V22.4056C144.624 21.2816 141.934 20.724 139.222 20.7734C133.055 20.7734 129.863 23.4576 129.863 27.847" fill="#737373"/>
<path d="M215.613 21.1361V44.969H220.692V26.7951L222.832 31.6194L230.014 44.969H236.399V21.1361H231.321V36.5169L229.398 32.0547L223.63 21.1361H215.613Z" fill="#737373"/>
<path d="M183.314 21.1361H177.764V44.969H183.314V21.1361Z" fill="#737373"/>
<path d="M171.36 37.931C171.36 33.7594 169.147 31.8002 162.908 30.4585C159.462 29.6966 158.627 28.9352 158.627 27.8467C158.627 26.4695 159.86 25.888 162.146 25.888C164.903 25.888 167.624 26.7223 170.199 27.8831V22.4054C167.729 21.2814 165.04 20.7237 162.327 20.7732C156.16 20.7732 152.968 23.4574 152.968 27.8467C152.968 31.3653 154.6 34.1588 160.985 35.3921C164.794 36.1917 165.592 36.8066 165.592 38.0763C165.592 39.3096 164.792 40.1079 162.109 40.1079C158.867 40.0496 155.689 39.1897 152.859 37.6049V43.3359C154.782 44.2791 157.321 45.3311 162.037 45.3311C168.712 45.3311 171.36 42.3545 171.36 37.931Z" fill="#737373"/>
<path d="M86.7461 21.1361V44.969H98.1539L99.95 39.8178H92.3323V21.1361H86.7461Z" fill="#737373"/>
<path d="M64.209 21.1361V26.2869H70.3758V44.969H75.962V26.2869H82.5641V21.1361H64.209Z" fill="#737373"/>
<path d="M56.1084 21.1361H48.7874L40.4766 44.969H46.8233L48.0015 40.9551C50.9032 41.8071 53.9886 41.8071 56.8903 40.9551L58.0685 44.969H64.4165L56.1084 21.1361ZM52.4477 36.6573C51.4138 36.6572 50.3853 36.5093 49.3934 36.2179L52.4477 25.8173L55.502 36.2215C54.5099 36.5116 53.4813 36.6584 52.4477 36.6573Z" fill="#737373"/>
<path d="M117.823 21.1361H110.502L102.191 44.969H108.539L109.718 40.9551C112.619 41.8071 115.705 41.8071 118.606 40.9551L119.785 44.969H126.133L117.823 21.1361ZM114.162 36.6573C113.129 36.6572 112.1 36.5093 111.108 36.2179L114.162 25.8173L117.217 36.2215C116.225 36.5116 115.196 36.6584 114.162 36.6573Z" fill="#737373"/>
<path d="M203.313 21.1361H195.992L187.682 44.969H194.03L195.208 40.9551C198.11 41.8071 201.195 41.8071 204.097 40.9551L205.275 44.969H211.623L203.313 21.1361ZM199.651 36.6573C198.617 36.6572 197.588 36.5093 196.596 36.2179L199.651 25.8173L202.705 36.2215C201.713 36.5116 200.684 36.6584 199.651 36.6573Z" fill="#737373"/>
</g>
<defs>
<clipPath id="clip0_287_3982">
<rect width="237.333" height="64" fill="white"/>
</clipPath>
</defs>
</svg>
