<svg width="224" height="64" viewBox="0 0 224 64" fill="none" xmlns="http://www.w3.org/2000/svg">
<path fill-rule="evenodd" clip-rule="evenodd" d="M102.039 40.5845C100.481 40.9438 99.6753 40.4645 99.6753 39.4325C99.6753 38.0185 101.137 37.4525 103.226 37.4525C104.145 37.4525 105.011 37.5319 105.011 37.5319C105.011 38.1372 103.696 40.2025 102.039 40.5845ZM103.625 26.4279C98.6373 26.4279 95.0567 28.2619 95.0567 28.2619V33.6532C95.0567 33.6532 99.01 31.3806 102.217 31.3806C104.776 31.3806 105.091 32.7612 104.975 33.9065C104.975 33.9065 104.236 33.7112 101.984 33.7112C96.6753 33.7112 93.9967 36.1239 93.9967 39.9918C93.9967 43.6612 97.0073 45.1945 99.5447 45.1945C103.246 45.1945 104.874 42.7065 105.373 41.5265C105.721 40.7078 105.785 40.1558 106.095 40.1558C106.452 40.1558 106.332 40.5518 106.314 41.3665C106.285 42.7938 106.353 43.8725 106.579 44.7818H111.487V35.9525C111.487 30.4399 109.537 26.4279 103.625 26.4279Z" fill="#737373"/>
<path fill-rule="evenodd" clip-rule="evenodd" d="M135.932 35.8202C135.932 34.2075 137.431 32.7388 140.183 32.7388C143.181 32.7388 145.594 34.1828 146.134 34.5108V28.2695C146.134 28.2695 144.229 26.4349 139.546 26.4349C134.609 26.4349 130.498 29.3235 130.498 35.5415C130.498 41.7588 134.229 45.2068 139.532 45.2068C143.676 45.2068 146.145 42.9301 146.145 42.9301V37.0028C145.364 37.4395 143.187 38.9508 140.213 38.9508C137.064 38.9508 135.932 37.5015 135.932 35.8202ZM70.3254 26.8435C70.3261 26.8475 70.6387 28.1889 70.2267 29.9429C70.0167 30.8349 69.6307 31.5935 70.0967 31.5935C70.4181 31.5935 70.4187 31.3268 70.8367 30.3709C71.448 28.9735 72.7367 26.4302 75.748 26.4302C78.6107 26.4302 79.9593 28.1695 80.406 29.7982C80.746 31.0355 80.4487 31.5935 80.8633 31.5935C81.158 31.5935 81.26 30.9515 81.6227 30.1395C82.274 28.6849 83.6906 26.4302 86.556 26.4302C90.8793 26.4302 92.5299 29.5522 92.5299 34.2355V44.7881H86.1073V35.0595C86.1073 33.4375 85.8453 31.8642 84.3666 31.8642C82.9967 31.8642 82.358 34.2922 82.358 35.8595V44.7921H75.8174V35.0602C75.8174 32.9848 75.5247 31.8648 74.066 31.8648C72.8034 31.8648 72.0667 34.0988 72.0667 35.8602V44.7888H65.5521V26.8435H70.3254ZM113.625 26.8682C113.628 26.8695 114.736 27.5089 116.888 27.5089C119.044 27.5089 120.139 26.8682 120.139 26.8682V44.7928H113.625V26.8682ZM167.404 26.8682C167.407 26.8695 168.516 27.5089 170.668 27.5089C172.823 27.5089 173.919 26.8682 173.919 26.8682V44.7928H167.404V26.8682ZM128.762 21.4109V44.7928H122.247V21.4109H128.762ZM153.876 21.4109C153.877 21.4129 154.146 22.0849 154.146 24.0836C154.146 27.0349 153.504 29.4369 153.201 30.3522C153.04 30.8369 152.754 31.5848 153.165 31.5982C153.402 31.6055 153.545 31.2482 153.836 30.6282C154.125 30.0075 155.56 26.4342 159.33 26.4342C164.524 26.4342 165.288 30.6875 165.288 35.2935V44.7921H158.774V34.9035C158.774 32.8755 158.348 31.8682 156.989 31.8682C155.348 31.8682 154.768 34.4095 154.768 35.8642V44.7921H148.253V21.4102L153.876 21.4109ZM180.893 26.8435C180.893 26.8475 181.206 28.1889 180.794 29.9429C180.584 30.8349 180.198 31.5935 180.664 31.5935C180.985 31.5935 180.986 31.3268 181.404 30.3709C182.015 28.9735 183.304 26.4302 186.315 26.4302C189.309 26.4302 190.496 28.1775 190.973 29.7982C191.293 30.8842 191.016 31.5935 191.431 31.5935C191.725 31.5935 191.827 30.9515 192.19 30.1395C192.84 28.6849 194.258 26.4302 197.123 26.4302C201.447 26.4302 203.097 29.5522 203.097 34.2355V44.7881H196.675V35.0595C196.675 33.4375 196.413 31.8642 194.934 31.8642C193.564 31.8642 192.925 34.2922 192.925 35.8595V44.7921H186.384V35.0602C186.384 32.9848 186.093 31.8648 184.633 31.8648C183.371 31.8648 182.634 34.0988 182.634 35.8602V44.7888H176.119V26.8435H180.893ZM116.862 21.2296C114.661 21.2296 112.875 22.3949 112.875 23.8322C112.875 25.2695 114.66 26.4349 116.862 26.4349C119.065 26.4349 120.85 25.2695 120.85 23.8322C120.85 22.3949 119.066 21.2296 116.862 21.2296ZM170.642 21.2296C168.44 21.2296 166.654 22.3949 166.654 23.8322C166.654 25.2695 168.439 26.4349 170.642 26.4349C172.844 26.4349 174.63 25.2695 174.63 23.8322C174.63 22.3949 172.845 21.2296 170.642 21.2296Z" fill="#737373"/>
<path fill-rule="evenodd" clip-rule="evenodd" d="M214.194 40.9259C212.701 40.9259 211.602 39.0319 211.602 36.3925C211.602 33.8292 212.73 31.8606 214.143 31.8606C215.954 31.8606 216.728 33.5226 216.728 36.3925C216.728 39.3785 216.015 40.9259 214.194 40.9259ZM215.982 26.4239C212.634 26.4239 211.099 28.9339 210.432 30.3639C209.992 31.3086 210.015 31.5866 209.692 31.5866C209.228 31.5866 209.614 30.8279 209.823 29.9359C210.236 28.1793 209.922 26.8373 209.922 26.8373H205.152V49.7325H211.664V42.4738C212.434 43.7812 213.861 45.1778 216.062 45.1778C220.772 45.1778 223.142 41.1932 223.142 35.8099C223.142 29.7086 220.305 26.4239 215.983 26.4239" fill="#737373"/>
<path fill-rule="evenodd" clip-rule="evenodd" d="M42.5231 31.8414C42.9611 31.7894 43.3805 31.7867 43.7665 31.8414C43.9898 31.3294 44.0278 30.4474 43.8271 29.4867C43.5291 28.0587 43.1251 27.1947 42.2905 27.3294C41.4558 27.4641 41.4251 28.4987 41.7238 29.926C41.8918 30.7294 42.1905 31.416 42.5231 31.8414Z" fill="#737373"/>
<path fill-rule="evenodd" clip-rule="evenodd" d="M35.3624 32.9714C35.9591 33.2334 36.3264 33.4074 36.4698 33.2554C36.5624 33.1608 36.5344 32.9801 36.3918 32.7474C36.0971 32.2668 35.4911 31.7788 34.8478 31.5048C33.5331 30.9388 31.9644 31.1268 30.7545 31.9961C30.3551 32.2888 29.9765 32.6941 30.0305 32.9401C30.0478 33.0194 30.1078 33.0794 30.2478 33.0994C30.5771 33.1368 31.7278 32.5554 33.0538 32.4741C33.9891 32.4168 34.7651 32.7094 35.3624 32.9714Z" fill="#737373"/>
<path fill-rule="evenodd" clip-rule="evenodd" d="M34.1641 33.6568C33.3861 33.7795 32.9574 34.0361 32.6821 34.2741C32.4474 34.4795 32.3021 34.7068 32.3034 34.8661C32.3041 34.9421 32.3367 34.9861 32.3627 35.0081C32.3981 35.0395 32.4401 35.0568 32.4907 35.0568C32.6661 35.0568 33.0601 34.8988 33.0601 34.8988C34.1421 34.5115 34.856 34.5588 35.5634 34.6388C35.954 34.6828 36.1394 34.7068 36.2247 34.5728C36.25 34.5341 36.2807 34.4508 36.2027 34.3241C36.0207 34.0288 35.2347 33.5295 34.1641 33.6568Z" fill="#737373"/>
<path fill-rule="evenodd" clip-rule="evenodd" d="M40.1068 36.1716C40.6348 36.431 41.2161 36.329 41.4055 35.9443C41.5948 35.5597 41.3201 35.037 40.7921 34.7777C40.2641 34.5183 39.6828 34.6203 39.4935 35.005C39.3041 35.3903 39.5788 35.9123 40.1068 36.1716Z" fill="#737373"/>
<path fill-rule="evenodd" clip-rule="evenodd" d="M43.5019 33.2059C43.0732 33.1985 42.7172 33.6692 42.7072 34.2579C42.6972 34.8465 43.0372 35.3285 43.4659 35.3358C43.8946 35.3432 44.2506 34.8725 44.2606 34.2838C44.2706 33.6958 43.9306 33.2132 43.5019 33.2059Z" fill="#737373"/>
<path fill-rule="evenodd" clip-rule="evenodd" d="M14.6888 43.8121C14.5821 43.6781 14.4068 43.7188 14.2368 43.7588C14.1181 43.7868 13.9841 43.8174 13.8368 43.8154C13.5215 43.8094 13.2541 43.6748 13.1041 43.4441C12.9088 43.1441 12.9201 42.6968 13.1355 42.1848L13.2361 41.9554C13.5801 41.1834 14.1555 39.8921 13.5095 38.6615C13.0228 37.7348 12.2295 37.1581 11.2755 37.0368C10.3595 36.9208 9.41683 37.2601 8.81551 37.9235C7.86684 38.9701 7.71818 40.3948 7.90151 40.8981C7.96884 41.0821 8.07417 41.1334 8.15017 41.1441C8.31151 41.1654 8.55017 41.0481 8.6995 40.6461L8.74217 40.5154C8.80884 40.3028 8.93283 39.9068 9.13617 39.5895C9.3815 39.2068 9.76283 38.9435 10.2108 38.8468C10.6668 38.7488 11.1335 38.8361 11.5242 39.0921C12.1888 39.5268 12.4448 40.3415 12.1608 41.1181C12.0142 41.5201 11.7755 42.2888 11.8282 42.9201C11.9348 44.1981 12.7208 44.7114 13.4268 44.7661C14.1135 44.7921 14.5935 44.4061 14.7148 44.1248C14.7861 43.9581 14.7261 43.8568 14.6868 43.8134" fill="#737373"/>
<path fill-rule="evenodd" clip-rule="evenodd" d="M21.2199 20.3391C23.4598 17.7511 26.2165 15.5011 28.6865 14.2378C28.7718 14.1938 28.8625 14.2865 28.8165 14.3705C28.6205 14.7258 28.2425 15.4864 28.1231 16.0631C28.1045 16.1531 28.2025 16.2204 28.2785 16.1691C29.8151 15.1218 32.4878 13.9991 34.8324 13.8551C34.9331 13.8491 34.9818 13.9778 34.9018 14.0398C34.5451 14.3131 34.1551 14.6918 33.8704 15.0745C33.8218 15.1398 33.8678 15.2331 33.9491 15.2338C35.5951 15.2458 37.9157 15.8218 39.4284 16.6704C39.5304 16.7278 39.4577 16.9258 39.3431 16.8998C37.0544 16.3751 33.3084 15.9771 29.4165 16.9264C25.9425 17.7738 23.2905 19.0824 21.3565 20.4891C21.2585 20.5604 21.1405 20.4304 21.2199 20.3391ZM32.3745 45.4136L32.3751 45.415L32.3765 45.4176L32.3745 45.4136ZM41.6104 46.5036C41.6771 46.4756 41.7224 46.4003 41.7151 46.325C41.7057 46.2323 41.6231 46.165 41.5304 46.1743C41.5304 46.1743 36.7511 46.8816 32.2358 45.229C32.7278 43.6303 34.0351 44.2076 36.0118 44.367C39.5744 44.5796 42.7677 44.059 45.1277 43.3816C47.1724 42.795 49.8583 41.6377 51.9443 39.991C52.6477 41.5363 52.8963 43.2376 52.8963 43.2376C52.8963 43.2376 53.441 43.1403 53.8963 43.4203C54.3263 43.685 54.6417 44.235 54.4263 45.6576C53.9877 48.3149 52.8583 50.4723 50.9597 52.4569C49.8037 53.7009 48.401 54.7822 46.7957 55.5689C45.943 56.0169 45.0357 56.4042 44.0764 56.7169C36.9191 59.0549 29.5925 56.4849 27.2312 50.9663C27.0425 50.5516 26.8831 50.1169 26.7578 49.6629C25.7518 46.0263 26.6058 41.663 29.2765 38.9163C29.4411 38.7417 29.6091 38.5343 29.6091 38.275C29.6091 38.0583 29.4711 37.8297 29.3518 37.667C28.4171 36.3117 25.1805 34.0023 25.8305 29.533C26.2972 26.3224 29.1051 24.0611 31.7231 24.1951L32.3865 24.2331C33.5211 24.3004 34.5104 24.4457 35.4444 24.4851C37.0078 24.5531 38.4131 24.3257 40.0784 22.9384C40.6397 22.4704 41.0904 22.0644 41.8524 21.9357C41.9324 21.9217 42.1317 21.8504 42.5297 21.8691C42.9364 21.8911 43.3231 22.0024 43.6704 22.2337C45.005 23.1217 45.1944 25.2731 45.2637 26.8464C45.303 27.7444 45.4117 29.9177 45.449 30.5417C45.5337 31.9684 45.909 32.169 46.6677 32.419C47.0944 32.5597 47.4904 32.6644 48.0744 32.8284C49.841 33.3244 50.8883 33.8277 51.549 34.4743C51.943 34.8783 52.1263 35.3077 52.183 35.717C52.391 37.237 51.003 39.1143 47.3277 40.8203C43.3104 42.685 38.4364 43.157 35.0691 42.7816L33.8891 42.6483C31.1958 42.2856 29.6591 45.7663 31.2758 48.1516C32.3178 49.6889 35.1558 50.6889 37.9951 50.6896C44.5051 50.6903 49.509 47.9103 51.3703 45.5096L51.519 45.2976C51.611 45.1596 51.535 45.0836 51.421 45.1616C49.9003 46.2023 43.1457 50.3336 35.9204 49.0903C35.9204 49.0903 35.0424 48.9456 34.2411 48.6343C33.6045 48.3863 32.2711 47.7729 32.1091 46.4056C37.9398 48.2089 41.6104 46.5036 41.6104 46.5036ZM9.58459 32.647C7.5566 33.041 5.76927 34.1904 4.67661 35.7783C4.02328 35.2337 2.80662 34.179 2.59129 33.7677C0.846631 30.4544 4.49528 24.0131 7.0446 20.3751C13.3446 11.3851 23.2112 4.5805 27.7785 5.81517C28.5211 6.02516 30.9805 8.87648 30.9805 8.87648C30.9805 8.87648 26.4145 11.4098 22.1805 14.9411C16.4752 19.3338 12.1666 25.7184 9.58459 32.647ZM12.9919 47.8503C12.6852 47.903 12.3719 47.9236 12.0559 47.9156C9.00459 47.8336 5.70927 45.087 5.38194 41.8296C5.01994 38.229 6.85993 35.4583 10.1172 34.801C10.5066 34.7223 10.9772 34.677 11.4846 34.7037C13.3099 34.8037 15.9992 36.205 16.6132 40.181C17.1572 43.7023 16.2932 47.2876 12.9919 47.8503ZM54.3223 41.4743C54.2963 41.3816 54.1257 40.7597 53.8917 40.0097C53.6577 39.259 53.4157 38.7317 53.4157 38.7317C54.3543 37.327 54.371 36.0703 54.2457 35.359C54.1123 34.477 53.745 33.7257 53.005 32.9484C52.265 32.1717 50.751 31.3757 48.6237 30.7784L47.5077 30.4684C47.5024 30.4224 47.449 27.837 47.401 26.7271C47.3657 25.9244 47.297 24.6717 46.9084 23.4384C46.445 21.7684 45.6384 20.3071 44.631 19.3724C47.411 16.4911 49.1464 13.3165 49.1417 10.5938C49.1337 5.35717 42.7024 3.77251 34.7764 7.0545L33.0971 7.76716C33.0898 7.75983 30.0611 4.78851 30.0158 4.74851C20.9792 -3.13345 -7.27399 28.271 1.75863 35.8983L3.73262 37.571C3.22062 38.8977 3.01929 40.4176 3.18395 42.0516C3.39462 44.151 4.47728 46.163 6.2326 47.7176C7.89859 49.1936 10.0892 50.1283 12.2146 50.1263C15.7299 58.2269 23.7618 63.1962 33.1791 63.4762C43.2811 63.7762 51.761 59.0362 55.3143 50.5216C55.547 49.9243 56.533 47.2316 56.533 44.8543C56.533 42.4656 55.1823 41.4743 54.3223 41.4743Z" fill="#737373"/>
</svg>
