<svg width="218" height="64" viewBox="0 0 218 64" fill="none" xmlns="http://www.w3.org/2000/svg">
<g clip-path="url(#clip0_287_3973)">
<path d="M60.4004 18.6841H70.5632C77.0423 18.6841 82.3946 22.4329 82.3946 30.9922V32.7908C82.3946 41.4151 77.389 45.2939 70.7583 45.2939H60.4004V18.6841ZM66.0777 23.5164V40.44H70.4332C74.117 40.44 76.5873 38.0347 76.5873 32.6824V31.2739C76.5873 25.9216 73.987 23.5164 70.2382 23.5164H66.0777ZM85.4067 23.7764H89.9572L90.6939 28.782C91.5607 25.3799 93.771 23.5597 97.7798 23.5597H99.1883V29.302H96.848C92.2325 29.302 91.1057 30.9056 91.1057 35.4561V45.3589H85.4933V23.7764H85.4067ZM100.315 35.001V34.3943C100.315 27.1785 104.931 23.2347 111.215 23.2347C117.629 23.2347 122.114 27.1785 122.114 34.3943V35.001C122.114 42.0869 117.759 45.9006 111.215 45.9006C104.259 45.8356 100.315 42.1085 100.315 35.001ZM116.372 34.936V34.3943C116.372 30.3855 114.357 27.9802 111.15 27.9802C108.008 27.9802 105.927 30.1905 105.927 34.3943V34.936C105.927 38.8148 107.943 41.0251 111.15 41.0251C114.357 40.9601 116.372 38.8148 116.372 34.936ZM125.061 23.7764H129.742L130.284 27.8502C131.41 25.1199 133.816 23.2347 137.369 23.2347C142.852 23.2347 146.47 27.1785 146.47 34.481V35.0877C146.47 42.1735 142.462 45.9223 137.369 45.9223C133.967 45.9223 131.627 44.3838 130.479 41.9135V52.8131H124.996L125.061 23.7764ZM140.771 34.936V34.4593C140.771 30.1688 138.561 28.0452 135.614 28.0452C132.472 28.0452 130.392 30.4505 130.392 34.4593V34.871C130.392 38.6848 132.407 41.0901 135.549 41.0901C138.778 41.0251 140.771 38.9665 140.771 34.936ZM154.77 41.3718L154.293 45.3156H149.483V16.5605H154.965V27.5902C156.178 24.7732 158.584 23.2347 161.986 23.2347C167.143 23.2997 170.957 26.8534 170.957 34.0043V34.676C170.957 41.8268 167.338 45.9223 161.856 45.9223C158.237 45.8356 155.897 44.1671 154.77 41.3718ZM165.193 34.676V34.1343C165.193 30.1905 163.047 27.9802 160.035 27.9802C156.958 27.9802 154.813 30.4505 154.813 34.1993V34.676C154.813 38.6848 156.893 41.0251 159.97 41.0251C163.264 41.0251 165.193 38.9665 165.193 34.676ZM173.362 35.001V34.3943C173.362 27.1785 177.978 23.2347 184.262 23.2347C190.676 23.2347 195.161 27.1785 195.161 34.3943V35.001C195.161 42.0869 190.741 45.9006 184.262 45.9006C177.306 45.8356 173.362 42.1085 173.362 35.001ZM189.462 34.936V34.3943C189.462 30.3855 187.447 27.9802 184.24 27.9802C181.098 27.9802 179.018 30.1905 179.018 34.3943V34.936C179.018 38.8148 181.033 41.0251 184.24 41.0251C187.469 40.9601 189.462 38.8148 189.462 34.936ZM202.507 34.1343L194.945 23.7764H201.424L205.779 30.2555L210.2 23.7764H216.614L208.943 34.0693L217.025 45.3156H210.676L205.736 38.1647L200.925 45.3156H194.294L202.507 34.1343Z" fill="#737373"/>
<path d="M25.4703 18.6842L12.9021 26.7018L25.4703 34.7194L12.9021 42.737L0.333984 34.6761L12.9021 26.6585L0.333984 18.6842L12.9021 10.6666L25.4703 18.6842ZM12.8371 45.3157L25.4053 37.2981L37.9734 45.3157L25.4053 53.3333L12.8371 45.3157ZM25.4703 34.6761L38.0384 26.6585L25.4703 18.6842L37.9734 10.6666L50.5415 18.6842L37.9734 26.7018L50.5415 34.7194L37.9734 42.737L25.4703 34.6761Z" fill="#737373"/>
</g>
<defs>
<clipPath id="clip0_287_3973">
<rect width="217.333" height="64" fill="white" transform="translate(0.333984)"/>
</clipPath>
</defs>
</svg>
