<svg width="194" height="64" viewBox="0 0 194 64" fill="none" xmlns="http://www.w3.org/2000/svg">
<g clip-path="url(#clip0_287_3971)">
<path d="M14.441 16.9875C22.3996 16.9875 28.8821 23.47 28.8821 31.4927C28.8821 39.5155 22.3996 45.998 14.441 45.998C6.48242 45.998 0 39.5797 0 31.4927C0 23.4058 6.48242 16.9875 14.441 16.9875ZM127.659 16.6666V42.0828C127.659 44.0083 128.429 44.5218 129.905 44.9069L129.969 45.2278H121.818V42.0828C120.855 44.3934 118.866 45.8054 116.298 45.8054C111.934 45.8054 109.046 41.8261 109.046 35.9213C109.046 32.5838 110.009 29.7598 111.806 27.6418C113.539 25.588 115.913 24.4969 118.545 24.4969C119.828 24.4969 120.92 24.7536 121.818 25.3312V21.8654C121.818 21.0952 121.626 20.5817 121.24 20.1967C120.727 19.7474 119.893 19.5548 118.609 19.6832H118.545V19.3623L127.659 16.6666ZM158.595 24.5611V42.0828C158.595 44.0083 159.365 44.5218 160.841 44.9069V45.2278H152.69V42.0187C151.727 44.3292 149.609 45.8054 147.234 45.8054C144.41 45.8054 142.613 44.5218 141.907 42.0187L141.779 41.3768C141.65 40.735 141.586 40.0932 141.586 39.4514V30.0807C141.586 28.0269 141.137 27.3851 139.34 27.2567H139.276V26.9358L147.427 24.5611V39.323C147.427 41.5052 148.39 42.7247 150.187 42.7247C151.278 42.7247 152.176 42.147 152.69 41.1843V30.0807C152.69 27.9627 152.305 27.3209 150.829 27.1925H150.764V26.8716L158.595 24.5611ZM99.7394 24.4969C101.922 24.4969 104.04 25.2671 105.452 26.6149C107.056 28.1553 107.891 30.4016 107.955 33.354V33.4182H95.6959C95.4392 37.6543 98.0706 41.1201 101.536 41.2485C104.04 41.441 106.222 39.9006 107.441 37.3975L107.762 37.5259C107.056 42.2112 104.296 45.7412 99.4827 45.7412C94.0271 45.7412 90.9464 41.1843 90.818 35.4721V33.9959C91.0748 31.4927 91.8449 29.2464 93.1928 27.5776C94.0272 26.5507 94.9899 25.7805 96.1452 25.2671C97.1079 24.7536 98.5199 24.4969 99.6752 24.4969H99.7394ZM184.653 24.5611C188.118 24.5611 190.236 26.7433 190.236 30.4658V42.4037C190.236 43.8158 190.878 44.5218 192.483 44.9069H192.547V45.2278H184.332V30.6584C184.332 28.3478 183.497 27.1925 181.764 27.1925C180.352 27.1925 179.646 28.2194 179.261 29.118C179.326 29.5673 179.39 30.0166 179.39 30.4658V42.5963C179.39 44.0725 179.839 44.5859 181.123 44.9069H181.187V45.2278H173.549V30.6584C173.549 28.3478 172.651 27.1925 170.982 27.1925C169.634 27.1925 168.928 28.1553 168.607 28.9255V42.6605C168.607 44.1367 169.056 44.6501 170.34 44.971H170.404V45.292H162.766V30.0166C162.766 27.9627 162.253 27.3209 160.52 27.1925H160.456V26.8716L168.607 24.6252V28.0269C169.441 25.8447 171.367 24.5611 173.806 24.5611C176.566 24.5611 178.491 25.9089 179.133 28.3478C179.967 26.0372 182.085 24.5611 184.653 24.5611ZM67.584 17.9503L75.2217 35.8571L82.8594 17.9503H91.0748L91.0106 18.2712L90.9173 18.2919C89.502 18.6145 88.7642 19.1438 88.7642 20.9027V42.7247C88.8926 44.1367 89.6628 44.5859 91.0106 44.9069H91.0748V45.2278H80.613V44.9069H80.6772C82.025 44.5859 82.7952 44.1367 82.9236 42.7247V21.4803L72.847 45.1636H72.2693L62.4494 22.1221V42.2112C62.4494 44.0083 63.2196 44.5218 64.6958 44.8427H64.76V45.1636H58.7269V44.8427H58.791C60.2672 44.5218 61.0374 44.0083 61.0374 42.2112V20.9027C61.0374 19.1056 60.2672 18.5921 58.791 18.2712H58.7269V17.9503H67.584ZM137.607 24.5611V42.0828L137.608 42.2013C137.639 44.0296 138.408 44.5298 139.853 44.9069L139.918 45.2278H131.766V30.0807C131.766 28.0269 131.317 27.3851 129.52 27.2567H129.456V26.9358L137.607 24.5611ZM37.5467 17.8219C41.4618 17.8219 44.7351 23.9834 44.7351 31.4927C44.7351 39.0663 41.526 45.1636 37.5467 45.1636C33.5674 45.1636 30.3583 39.0663 30.3583 31.4927C30.3583 23.9192 33.5674 17.8219 37.5467 17.8219ZM48.586 19.2339C50.0622 19.2339 51.1533 24.7536 51.1533 31.4927C51.1533 38.2319 49.9981 43.7516 48.586 43.7516C47.1882 43.7516 46.0419 38.3417 46.0191 31.6946L46.0187 31.4927C46.0187 24.7536 47.174 19.2339 48.586 19.2339ZM119.508 25.6522C116.94 25.6522 115.336 29.0538 115.336 34.3168C115.336 36.8199 115.785 39.0021 116.555 40.4783C117.261 41.8903 118.288 42.6605 119.443 42.6605C120.599 42.6605 121.433 42.147 121.818 41.1843V27.0642C121.369 26.1656 120.534 25.6522 119.508 25.6522ZM99.6752 25.7163C97.3646 25.7163 96.0168 28.4762 95.8242 32.3271V32.3913H102.82C102.948 29.3747 102.435 27.3851 101.472 26.4223C100.959 25.9731 100.381 25.7163 99.6752 25.7163ZM134.462 16.8592C136.323 16.8592 137.735 18.2712 137.735 20.1325C137.735 21.9938 136.323 23.4058 134.462 23.4058C132.601 23.4058 131.189 21.9938 131.189 20.1325C131.189 18.2712 132.601 16.8592 134.462 16.8592Z" fill="#737373"/>
</g>
<defs>
<clipPath id="clip0_287_3971">
<rect width="193.333" height="64" fill="white"/>
</clipPath>
</defs>
</svg>
