<svg width="150" height="64" viewBox="0 0 150 64" fill="none" xmlns="http://www.w3.org/2000/svg">
<g clip-path="url(#clip0_287_3976)">
<path fill-rule="evenodd" clip-rule="evenodd" d="M149.058 40.7511C142.847 51.2808 133.011 48.2254 130.057 45.8332C128.8 46.6862 126.596 48.5559 123.656 48.34C117.396 47.8805 115.154 38.9342 115.154 38.9342C115.199 38.97 113.289 39.5932 112.257 39.5821C112.244 42.2056 109.976 48.4728 103.855 48.3926C96.9871 48.303 95.5908 38.0708 95.5908 38.0708C95.5908 38.0708 94.9074 39.0198 92.3086 39.9651C92.4395 37.9496 92.3438 48.0858 84.1121 48.2348C77.6044 48.3527 75.8477 37.913 75.8477 37.913C75.8477 37.913 74.7188 39.0857 72.5309 39.4925C72.67 37.444 72.4439 48.2692 64.2112 48.2348C58.6477 48.2117 56.7465 41.804 56.8943 40.9146C57.083 39.7811 55.014 48.3942 49.6099 48.26C47.3797 48.1945 45.7171 46.5798 44.6738 44.4271C43.2772 46.0252 41.2495 48.26 38.9748 48.26C34.8916 48.26 33.0915 44.8448 33.3963 35.0905C33.4224 33.9336 33.3389 33.4786 32.1888 33.3055C31.4985 33.1903 30.7915 32.9723 30.0435 32.8573C29.8038 33.6573 27.7704 47.9997 20.7783 48.2719C18.4326 48.3633 17.15 46.3313 16.0966 44.8231C14.482 46.9592 12.3505 48.34 9.31401 48.34C4.17047 48.34 0.666016 44.1819 0.666016 39.0527C0.666016 33.9233 4.17047 29.7656 9.31401 29.7656C10.2234 29.7656 10.4787 29.8959 11.3096 30.1384C9.60095 14.5819 13.636 12.1507 17.1658 12.1507C20.5546 12.1507 26.344 20.016 18.1978 39.9667C20.0064 45.9175 23.9054 45.5809 25.7791 33.3309C26.1604 30.8409 25.1408 27.4807 26.7267 27.0117C29.6258 26.1546 29.9334 28.7261 31.2928 29.1546C32.7301 29.6074 33.569 29.5632 34.9489 29.8513C37.3067 30.3118 38.2268 31.5784 37.9395 34.3994C37.5945 37.9689 36.991 43.1642 38.831 43.7974C40.1579 44.2574 42.5804 41.5057 43.0056 40.0001C43.4305 38.4946 43.5193 37.9793 43.557 36.875C43.6145 34.5148 43.6867 32.7847 44.0891 30.9998C44.2614 30.3091 44.4577 29.8517 45.2392 29.8205C45.8822 29.8041 47.0581 29.6105 47.5757 30.0133C48.2656 30.5317 48.1794 31.0577 48.1002 32.4421C47.2978 52.1803 53.4734 42.3269 55.3148 34.4372C54.6591 25.5158 55.1093 12.314 60.6998 12.0926C63.6073 11.9775 64.8927 14.3067 65.0341 16.0453C65.434 20.9556 63.1939 29.0896 60.2479 34.5596C58.5641 45.7209 67.6096 47.9278 69.0561 39.0189C66.6895 37.8936 64.1318 33.3391 66.2131 31.1196C67.381 29.8739 72.2423 31.6634 72.3219 35.5663C74.7065 34.9286 75.0248 33.5822 75.0579 33.8053C74.4024 24.8839 75.0104 12.3141 80.6013 12.0927C83.5084 11.9776 84.7936 14.3068 84.935 16.0454C85.3349 20.9557 83.0948 29.0897 80.1492 34.5598C78.4652 45.7209 87.5109 47.928 88.957 39.019C87.2048 38.6809 83.5061 33.8366 85.6402 31.1197C86.7807 29.6679 91.6242 32.6872 92.1665 35.6956C94.4572 35.0473 94.7683 33.7437 94.8012 33.9632C94.1455 25.042 94.7535 12.4722 100.344 12.2508C103.252 12.1357 104.537 14.4649 104.678 16.2035C105.078 21.1138 102.838 29.2479 99.8919 34.718C98.2084 45.8793 107.254 48.0858 108.7 39.1769C106.292 38.776 102.87 33.661 105.625 31.0443C106.725 29.9988 110.93 32.7128 111.914 35.809C113.281 35.7564 114.133 35.2847 114.315 35.2372C112.132 24.764 113.757 12.1978 119.771 12.0929C123.022 12.0362 126.2 13.8503 124.805 23.8141C123.474 33.3208 118.688 37.3103 118.699 37.3713C118.977 38.5102 121.433 48.0416 127.618 43.0125C127.298 42.2876 126.977 41.547 126.798 40.6498C125.773 35.4236 127.786 29.5205 133.259 28.5664C136.394 28.0198 139.348 29.5464 139.815 32.9879C140.583 38.6193 135.498 42.6976 133.565 43.5823C132.699 43.0903 141.416 48.6809 146.589 37.4773C146.889 36.8376 147.25 36.8918 147.719 37.2215C148.05 37.4544 149.935 39.2398 149.058 40.7511ZM13.0555 37.6689C12.7923 36.882 12.2521 35.148 12.0611 34.3967C11.009 33.4819 10.2582 33.3333 8.9078 33.3333C5.9069 33.3333 4.14063 36.1078 4.14063 39.0996C4.14063 42.0912 6.06486 44.8662 9.06577 44.8662C11.6664 44.8662 13.6457 43.0979 14.2496 40.5948C13.8269 39.619 13.4076 38.7222 13.0555 37.6689ZM17.0923 16.2686C14.9837 16.2686 14.2684 21.2986 14.4072 25.5898C14.53 29.3836 15.5901 32.7237 16.1401 34.2203C16.2797 34.4078 16.2537 34.2858 16.3784 34.4847C20.0396 26.4629 18.521 16.2686 17.0923 16.2686ZM61.001 16.4266C58.2757 16.114 58.2933 27.4668 58.6316 30.0133C60.047 27.749 62.5058 17.0362 61.001 16.4266ZM80.9019 16.4266C78.1766 16.114 78.1942 27.4668 78.5327 30.0133C79.948 27.749 82.4069 17.0362 80.9019 16.4266ZM100.645 16.5845C97.9197 16.272 97.9373 27.6248 98.2758 30.1715C99.691 27.907 102.15 17.1941 100.645 16.5845ZM120.072 15.762C115.826 16.6147 116.815 30.7719 117.46 33.2548C122.461 26.3853 122.564 15.504 120.072 15.762ZM135.986 33.4537C135.77 32.551 134.69 32.0686 133.945 32.1875C131.813 32.4787 129.745 35.1339 130.546 39.1765C130.724 40.0768 131.17 40.9056 131.163 40.878C135.934 37.6769 136.34 35.1545 135.986 33.4537ZM46.075 26.6957C45.4656 26.6958 44.87 26.5152 44.3633 26.1768C43.8566 25.8383 43.4616 25.3572 43.2283 24.7942C42.995 24.2313 42.934 23.6118 43.0529 23.0142C43.1716 22.4165 43.4651 21.8676 43.8959 21.4366C44.3267 21.0057 44.8757 20.7123 45.4733 20.5934C46.0709 20.4745 46.6904 20.5355 47.2534 20.7687C47.8164 21.0019 48.2975 21.3968 48.636 21.9034C48.9745 22.4101 49.1552 23.0058 49.1552 23.6151C49.1552 24.0196 49.0756 24.4202 48.9207 24.7939C48.766 25.1677 48.5392 25.5073 48.2531 25.7933C47.967 26.0794 47.6275 26.3063 47.2538 26.4611C46.8801 26.616 46.4796 26.6957 46.075 26.6957Z" fill="#737373"/>
</g>
<defs>
<clipPath id="clip0_287_3976">
<rect width="149.333" height="64" fill="white" transform="translate(0.666016)"/>
</clipPath>
</defs>
</svg>
