<svg width="172" height="64" viewBox="0 0 172 64" fill="none" xmlns="http://www.w3.org/2000/svg">
<path d="M59.9142 46.3665V26.9598H60.2599L74.3861 46.3665H78.8315V17.8675H73.8922V37.2253H73.5465L59.4203 17.8675H54.9749V46.3665H59.9142ZM92.8095 46.8065C99.3293 46.8065 103.33 42.6025 103.33 35.5633C103.33 28.573 99.3293 24.3201 92.8095 24.3201C86.3391 24.3201 82.2889 28.573 82.2889 35.5633C82.3383 42.6025 86.2897 46.8065 92.8095 46.8065ZM92.8095 42.7003C89.352 42.7003 87.3763 40.1094 87.3763 35.5633C87.3763 31.066 89.352 28.4263 92.8095 28.4263C96.267 28.4263 98.2427 31.066 98.2427 35.5633C98.2427 40.1094 96.267 42.7003 92.8095 42.7003ZM107.825 19.4806V24.9067H104.367V28.8174H107.825V40.5983C107.825 44.8023 109.8 46.4643 114.839 46.4643C115.777 46.4643 116.715 46.3665 117.456 46.2199V42.407C116.864 42.4559 116.468 42.5047 115.777 42.5047C113.702 42.5047 112.764 41.576 112.764 39.4251V28.8174H117.456V24.9067H112.764V19.4806H107.825ZM120.42 46.3665H125.359V24.76H120.42V46.3665ZM122.889 21.1915C124.519 21.1915 125.853 19.8717 125.853 18.2585C125.853 16.5965 124.519 15.2767 122.889 15.2767C121.26 15.2767 119.926 16.5965 119.926 18.2585C119.926 19.8717 121.26 21.1915 122.889 21.1915ZM138.893 46.8065C145.412 46.8065 149.413 42.6025 149.413 35.5633C149.413 28.573 145.412 24.3201 138.893 24.3201C132.422 24.3201 128.372 28.573 128.372 35.5633C128.372 42.6025 132.323 46.8065 138.893 46.8065ZM138.893 42.7003C135.435 42.7003 133.459 40.1094 133.459 35.5633C133.459 31.066 135.435 28.4263 138.893 28.4263C142.301 28.4263 144.326 31.066 144.326 35.5633C144.276 40.1094 142.301 42.7003 138.893 42.7003ZM152.327 46.3665H157.267V33.8035C157.267 30.6261 159.143 28.6218 162.058 28.6218C165.071 28.6218 166.454 30.2839 166.454 33.5591V46.3665H171.393V32.3859C171.393 27.2042 168.726 24.3201 163.885 24.3201C160.625 24.3201 158.452 25.7866 157.415 28.2308H157.069V24.76H152.278C152.327 24.76 152.327 46.3665 152.327 46.3665Z" fill="#737373"/>
<path fill-rule="evenodd" clip-rule="evenodd" d="M7.61607 16.0434C9.05365 17.2031 9.57362 17.1116 12.2652 16.9285L37.6216 15.4025C38.1721 15.4025 37.7133 14.8532 37.5298 14.7921L33.3089 11.7707C32.5136 11.1603 31.4125 10.4279 29.3632 10.611L4.83269 12.4116C3.94568 12.5032 3.76216 12.961 4.1292 13.2967L7.61607 16.0434ZM9.14541 21.9336V48.5464C9.14541 49.9808 9.8489 50.4996 11.47 50.4081L39.3344 48.7906C40.9555 48.699 41.139 47.7224 41.139 46.5627V20.133C41.139 18.9733 40.6802 18.3323 39.7015 18.4239L10.583 20.133C9.51245 20.2245 9.14541 20.7739 9.14541 21.9336ZM36.6428 23.368C36.8263 24.1615 36.6428 24.9855 35.8475 25.0771L34.5017 25.3518V45.0062C33.3394 45.6166 32.2689 45.9828 31.3513 45.9828C29.9137 45.9828 29.5467 45.525 28.4762 44.1822L19.6978 30.418V43.7244L22.4812 44.3348C22.4812 44.3348 22.4812 45.9523 20.2484 45.9523L14.0699 46.3185C13.8863 45.9523 14.0699 45.0672 14.6816 44.8841L16.3027 44.4263V26.8472L14.0699 26.6641C13.8863 25.8706 14.3451 24.7109 15.5992 24.6193L22.2365 24.1615L31.3819 38.0783V25.779L29.0573 25.5044C28.8738 24.5278 29.6079 23.7953 30.4949 23.7037L36.6428 23.368ZM2.78338 9.97007L28.3232 8.1084C31.4431 7.83372 32.2689 8.01684 34.2265 9.45125L42.3625 15.1583C43.7083 16.135 44.1671 16.4096 44.1671 17.4778V48.8211C44.1671 50.7743 43.4636 51.934 40.9555 52.1172L11.3171 53.9178C9.42069 54.0094 8.53367 53.7347 7.5549 52.4834L1.52933 44.701C0.4588 43.2666 0 42.1984 0 40.9471V13.083C0 11.4655 0.734079 10.1532 2.78338 9.97007Z" fill="#737373"/>
</svg>
