<svg width="187" height="64" viewBox="0 0 187 64" fill="none" xmlns="http://www.w3.org/2000/svg">
<g clip-path="url(#clip0_287_3980)">
<path d="M28.4302 4.10547C12.9663 4.10547 0.429688 16.6417 0.429688 32.1056C0.429688 47.5702 12.9663 60.1055 28.4302 60.1055C43.8958 60.1055 56.431 47.5702 56.431 32.1056C56.431 16.6427 43.8958 4.10681 28.4299 4.10681L28.4302 4.10547ZM41.271 44.4897C40.7695 45.3123 39.6929 45.5731 38.8703 45.0682C32.2961 41.0525 24.02 40.143 14.2733 42.3699C13.3341 42.5839 12.3979 41.9954 12.1839 41.0558C11.9689 40.1163 12.555 39.1801 13.4966 38.9661C24.1627 36.5293 33.3119 37.5785 40.6926 42.089C41.5151 42.5939 41.7759 43.6672 41.271 44.4897ZM44.6983 36.8656C44.0663 37.8928 42.7222 38.2171 41.6957 37.5852C34.1692 32.9589 22.6962 31.6191 13.7938 34.3215C12.6393 34.6702 11.4198 34.0195 11.0694 32.867C10.7217 31.7124 11.3727 30.4953 12.5252 30.1443C22.6942 27.0588 35.3361 28.5534 43.9794 33.8647C45.0059 34.4967 45.3302 35.8408 44.6983 36.866V36.8656ZM44.9925 28.9265C35.9681 23.5664 21.0789 23.0735 12.4627 25.6886C11.0791 26.1082 9.61596 25.3271 9.19667 23.9435C8.77738 22.5593 9.55778 21.0971 10.9424 20.6765C20.8331 17.6739 37.2754 18.254 47.6654 24.422C48.9126 25.1606 49.3205 26.7679 48.5816 28.0107C47.846 29.2552 46.2343 29.6655 44.9938 28.9265H44.9925ZM76.6098 29.9537C71.7749 28.8008 70.9156 27.9916 70.9156 26.2914C70.9156 24.6851 72.4269 23.6041 74.6772 23.6041C76.8572 23.6041 79.0172 24.425 81.2842 26.1149C81.3511 26.166 81.438 26.1864 81.5216 26.173C81.6085 26.1603 81.6821 26.1139 81.7322 26.044L84.0928 22.7164C84.1898 22.5793 84.1631 22.3904 84.0327 22.2857C81.3344 20.1214 78.2983 19.0692 74.7474 19.0692C69.528 19.0692 65.8801 22.2018 65.8801 26.684C65.8801 31.4904 69.0265 33.1923 74.4632 34.506C79.0874 35.5716 79.8698 36.4644 79.8698 38.06C79.8698 39.8287 78.2917 40.9288 75.7505 40.9288C72.9285 40.9288 70.6247 39.9759 68.0501 37.749C67.9866 37.6922 67.8997 37.6688 67.8194 37.6721C67.7325 37.6788 67.6556 37.7189 67.6021 37.7824L64.9539 40.9321C64.8436 41.0659 64.857 41.2598 64.984 41.3735C67.9799 44.0484 71.6646 45.4594 75.6435 45.4594C81.2675 45.4594 84.902 42.3866 84.902 37.6286C84.912 33.6139 82.508 31.3904 76.6198 29.958L76.6098 29.9537ZM97.6278 25.1857C95.1903 25.1857 93.1908 26.146 91.5391 28.1137V25.8989C91.5391 25.724 91.3987 25.5816 91.2248 25.5816H86.8948C86.7209 25.5816 86.5805 25.724 86.5805 25.8989V50.5083C86.5805 50.6821 86.7209 50.8259 86.8948 50.8259H91.2248C91.3987 50.8259 91.5391 50.6821 91.5391 50.5083V42.741C93.1908 44.5901 95.1903 45.4962 97.6278 45.4962C102.158 45.4962 106.746 42.0088 106.746 35.3419C106.753 28.6737 102.165 25.1853 97.6312 25.1853L97.6278 25.1857ZM101.71 35.3419C101.71 38.7354 99.6206 41.106 96.6247 41.106C93.6656 41.106 91.4321 38.6284 91.4321 35.3419C91.4321 32.0551 93.6656 29.5782 96.6247 29.5782C99.5705 29.5779 101.71 32.0013 101.71 35.3416V35.3419ZM118.499 25.1857C112.664 25.1857 108.093 29.6782 108.093 35.4145C108.093 41.0893 112.634 45.533 118.429 45.533C124.283 45.533 128.867 41.0558 128.867 35.3419C128.867 29.6474 124.313 25.1863 118.499 25.1863V25.1857ZM118.499 41.1394C115.396 41.1394 113.055 38.6451 113.055 35.3403C113.055 32.0204 115.316 29.6113 118.429 29.6113C121.551 29.6113 123.905 32.1046 123.905 35.4128C123.905 38.732 121.632 41.1394 118.499 41.1394ZM141.326 25.5816H136.561V20.7112C136.561 20.5367 136.421 20.3943 136.247 20.3943H131.917C131.743 20.3943 131.599 20.5367 131.599 20.7112V25.5816H129.519C129.345 25.5816 129.205 25.724 129.205 25.8989V29.6193C129.205 29.7939 129.345 29.9366 129.519 29.9366H131.599V39.5646C131.599 43.4532 133.535 45.426 137.357 45.426C138.908 45.426 140.196 45.105 141.409 44.4162C141.51 44.3627 141.57 44.2557 141.57 44.142V40.5978C141.57 40.4908 141.513 40.3871 141.419 40.3303C141.326 40.2701 141.209 40.2668 141.112 40.3169C140.279 40.7349 139.473 40.9288 138.571 40.9288C137.183 40.9288 136.561 40.2968 136.561 38.8858V29.9383H141.326C141.5 29.9383 141.64 29.7959 141.64 29.621V25.9009C141.647 25.726 141.506 25.5836 141.329 25.5836L141.326 25.5816ZM157.923 25.6006V25.0024C157.923 23.2427 158.599 22.4579 160.11 22.4579C161.013 22.4579 161.738 22.6372 162.551 22.908C162.651 22.9394 162.755 22.9237 162.835 22.8639C162.919 22.804 162.966 22.708 162.966 22.6064V18.9585C162.966 18.8191 162.879 18.6957 162.742 18.6546C161.886 18.3995 160.789 18.1377 159.144 18.1377C155.148 18.1377 153.032 20.3892 153.032 24.6467V25.5628H150.952C150.778 25.5628 150.634 25.7053 150.634 25.8798V29.6193C150.634 29.7939 150.778 29.9366 150.952 29.9366H153.032V44.784C153.032 44.9612 153.175 45.1016 153.349 45.1016H157.676C157.853 45.1016 157.994 44.9612 157.994 44.784V29.9376H162.036L168.228 44.784C167.526 46.3421 166.834 46.6531 165.891 46.6531C165.129 46.6531 164.323 46.4257 163.504 45.9743C163.427 45.9342 163.333 45.9275 163.253 45.9509C163.17 45.981 163.099 46.0412 163.066 46.1214L161.598 49.3413C161.528 49.4952 161.588 49.6724 161.735 49.7526C163.267 50.5818 164.647 50.9363 166.356 50.9363C169.553 50.9363 171.321 49.445 172.876 45.4393L180.386 26.034C180.426 25.9363 180.413 25.826 180.352 25.7394C180.296 25.6534 180.199 25.6016 180.095 25.6016H175.588C175.451 25.6016 175.33 25.6876 175.287 25.8143L170.669 38.9995L165.614 25.8056C165.567 25.6829 165.45 25.6016 165.32 25.6016H157.923V25.6006ZM148.3 25.5816H143.97C143.797 25.5816 143.653 25.724 143.653 25.8989V44.784C143.653 44.9612 143.797 45.1016 143.97 45.1016H148.3C148.474 45.1016 148.618 44.9612 148.618 44.784V25.9002C148.618 25.7253 148.478 25.5829 148.3 25.5829V25.5816ZM146.161 16.9821C144.445 16.9821 143.054 18.3704 143.054 20.0853C143.054 21.8013 144.445 23.1912 146.161 23.1912C147.876 23.1912 149.263 21.8013 149.263 20.0853C149.263 18.3707 147.872 16.9821 146.161 16.9821ZM184.084 31.6539C182.372 31.6539 181.038 30.278 181.038 28.6072C181.038 26.9364 182.389 25.5448 184.101 25.5448C185.813 25.5448 187.147 26.9203 187.147 28.5898C187.147 30.2606 185.796 31.6539 184.084 31.6539ZM184.101 25.8477C182.539 25.8477 181.359 27.0882 181.359 28.6072C181.359 30.1255 182.532 31.3493 184.084 31.3493C185.645 31.3493 186.826 30.1098 186.826 28.5898C186.826 27.0715 185.652 25.8477 184.101 25.8477ZM184.776 28.9031L185.639 30.1095H184.91L184.134 29.0028H183.469V30.1095H182.86V26.9117H184.285C185.03 26.9117 185.518 27.2918 185.518 27.9318C185.522 28.4561 185.217 28.7764 184.779 28.9031H184.776ZM184.261 27.4603H183.469V28.4718H184.261C184.656 28.4718 184.893 28.2782 184.893 27.9656C184.893 27.6366 184.656 27.4603 184.261 27.4603Z" fill="#737373"/>
</g>
<defs>
<clipPath id="clip0_287_3980">
<rect width="186.667" height="64" fill="white" transform="translate(0.333984)"/>
</clipPath>
</defs>
</svg>
