<svg width="162" height="64" viewBox="0 0 162 64" fill="none" xmlns="http://www.w3.org/2000/svg">
<g clip-path="url(#clip0_287_3994)">
<path d="M50.9011 43.2352L52.8585 38.6599C55.0018 40.2472 57.7974 41.0872 60.5936 41.0872C62.644 41.0872 63.9485 40.2939 63.9485 39.0803C63.9018 35.7187 51.6001 38.3331 51.5065 29.8816C51.4598 25.5864 55.2812 22.2715 60.6872 22.2715C63.9018 22.2715 67.1177 23.0655 69.4006 24.8866L67.5715 29.5595C65.471 28.2088 62.8766 27.2672 60.4071 27.2672C58.7297 27.2672 57.6109 28.0605 57.6109 29.0883C57.6577 32.4032 70.0536 30.582 70.1933 38.6599C70.1933 43.0487 66.4647 46.1303 61.1523 46.1303C57.2387 46.1303 53.6505 45.1967 50.9004 43.2352H50.9011ZM128.845 37.0032C128.351 37.8811 127.632 38.6118 126.763 39.1203C125.893 39.6288 124.904 39.8969 123.896 39.897C120.757 39.897 118.212 37.3467 118.212 34.2009C118.212 31.0552 120.757 28.5049 123.896 28.5049C124.904 28.505 125.893 28.773 126.763 29.2815C127.632 29.7901 128.351 30.5208 128.845 31.3987L134.287 28.3779C132.249 24.7349 128.361 22.2715 123.896 22.2715C117.321 22.2715 111.99 27.612 111.99 34.2009C111.99 40.7892 117.321 46.1303 123.896 46.1303C128.361 46.1303 132.249 43.6669 134.287 40.0239L128.845 37.0032ZM73.7246 45.6632H80.5281V12.3411H73.7253L73.7246 45.6632ZM137.723 12.3411V45.6632H144.526V35.6799L152.588 45.6632H161.284L151.032 33.8033L160.539 22.7367H152.215L144.526 31.9373V12.3411H137.723ZM101.488 22.738V25.4467C100.37 23.5788 97.6208 22.2715 94.7317 22.2715C88.767 22.2715 84.0608 27.5479 84.0608 34.1775C84.0608 40.8072 88.767 46.1303 94.7317 46.1303C97.6208 46.1303 100.37 44.8231 101.488 42.9552V45.6632H108.292V22.738H101.488ZM101.488 37.0493C100.51 38.6833 98.4596 39.8963 96.1766 39.8963C93.0362 39.8963 90.4913 37.3467 90.4913 34.2009C90.4913 31.0552 93.0362 28.5049 96.1766 28.5049C98.4596 28.5049 100.51 29.7653 101.488 31.4455V37.0493Z" fill="#737373"/>
<path d="M14.9714 11.6049C12.7666 11.6049 10.9795 13.3959 10.9795 15.6047C10.979 16.1295 11.0819 16.6492 11.2822 17.1342C11.4825 17.6192 11.7764 18.06 12.1471 18.4314C12.5177 18.8028 12.9579 19.0976 13.4425 19.2989C13.9271 19.5002 14.4466 19.604 14.9714 19.6046H18.9639V15.6047C18.9648 14.5449 18.5447 13.5281 17.7959 12.778C17.0472 12.0279 16.0312 11.6059 14.9714 11.6049ZM14.9714 22.2711H4.32582C2.12105 22.2711 0.333984 24.0622 0.333984 26.2717C0.333984 28.4804 2.12105 30.2715 4.32582 30.2715H14.9721C17.1762 30.2715 18.9639 28.4804 18.9639 26.2717C18.9639 24.0622 17.1762 22.2711 14.9714 22.2711Z" fill="#737373"/>
<path d="M40.2549 26.2717C40.2549 24.0622 38.4672 22.2711 36.2624 22.2711C34.0576 22.2711 32.2706 24.0622 32.2706 26.2717V30.2715H36.2624C37.3222 30.2705 38.3382 29.8485 39.087 29.0984C39.8357 28.3483 40.2558 27.3315 40.2549 26.2717ZM29.6093 26.2717V15.6047C29.6102 14.5449 29.1901 13.5281 28.4414 12.778C27.6927 12.0279 26.6767 11.6059 25.6168 11.6049C23.4121 11.6049 21.625 13.3959 21.625 15.6047V26.271C21.625 28.4811 23.4121 30.2722 25.6168 30.2722C26.6767 30.2711 27.6927 29.8491 28.4414 29.099C29.1901 28.3489 29.6102 27.3322 29.6093 26.2723" fill="#737373"/>
<path d="M25.6168 51.6048C26.6767 51.6037 27.6927 51.1817 28.4414 50.4316C29.1901 49.6815 29.6102 48.6647 29.6093 47.6049C29.6102 46.5451 29.1901 45.5283 28.4414 44.7782C27.6927 44.0281 26.6767 43.6061 25.6168 43.6051H21.625V47.6049C21.625 49.8137 23.4121 51.6048 25.6168 51.6048ZM25.6168 40.9385H36.2631C38.4672 40.9385 40.2549 39.1474 40.2549 36.938C40.2558 35.8781 39.8357 34.8614 39.087 34.1113C38.3382 33.3612 37.3222 32.9392 36.2624 32.9381H25.6168C23.4121 32.9381 21.625 34.7292 21.625 36.938C21.6245 37.4627 21.7273 37.9824 21.9276 38.4674C22.128 38.9524 22.4218 39.3932 22.7925 39.7646C23.1632 40.1361 23.6034 40.4308 24.088 40.6321C24.5726 40.8334 25.0921 40.9373 25.6168 40.9378" fill="#737373"/>
<path d="M0.333986 36.938C0.33346 37.4627 0.436294 37.9824 0.636617 38.4674C0.83694 38.9524 1.13083 39.3932 1.50151 39.7646C1.87218 40.1361 2.31239 40.4308 2.79698 40.6321C3.28158 40.8334 3.80108 40.9373 4.32582 40.9378C5.38565 40.9368 6.40165 40.5148 7.15037 39.7647C7.89909 39.0146 8.31921 37.9978 8.31833 36.938V32.9381H4.32582C2.12106 32.9381 0.333986 34.7292 0.333986 36.938ZM10.9796 36.938V47.6042C10.9796 49.8137 12.7666 51.6048 14.9714 51.6048C16.0312 51.6037 17.0472 51.1817 17.7959 50.4316C18.5447 49.6815 18.9648 48.6647 18.9639 47.6049V36.938C18.9644 36.4132 18.8616 35.8934 18.6612 35.4084C18.4608 34.9233 18.1669 34.4825 17.7961 34.1111C17.4254 33.7396 16.9851 33.4449 16.5004 33.2436C16.0158 33.0424 15.4962 32.9385 14.9714 32.9381C12.7666 32.9381 10.9796 34.7292 10.9796 36.938Z" fill="#737373"/>
</g>
<defs>
<clipPath id="clip0_287_3994">
<rect width="161.333" height="64" fill="white" transform="translate(0.333984)"/>
</clipPath>
</defs>
</svg>
