<svg width="80" height="80" viewBox="0 0 80 80" fill="none" xmlns="http://www.w3.org/2000/svg">
<rect width="80" height="80" rx="40" fill="#FCFCFC"/>
<rect x="0.5" y="0.5" width="79" height="79" rx="39.5" stroke="white" stroke-opacity="0.32"/>
<path d="M27.106 54.21L28.634 57.896C30.996 57.11 34.844 56 36 56C37.676 56 38.924 56.416 40.368 56.896C41.918 57.414 43.676 58 46 58C48.354 58 52.156 56.158 52.894 55.79L51.104 52.212C49.662 52.932 47.042 54 46 54C44.324 54 43.076 53.584 41.632 53.104C40.082 52.586 38.324 52 36 52C35.542 52 34.948 52.074 34.286 52.198C35.404 49.9 36 47.122 36 44H42V40H35.252C35.168 39.786 35.084 39.568 35.002 39.366C34.486 38.104 34 36.91 34 34C34 31.262 35.042 28 40 28C44.448 28 46.042 32.454 46.104 32.632L49.896 31.366C49.796 31.066 47.358 24 40 24C32.626 24 30 29.166 30 34C30 36.982 30.468 38.7 30.956 40H26V44H32C32 48.934 30.216 52.656 27.106 54.21Z" fill="black"/>
</svg>
