<svg width="80" height="80" viewBox="0 0 80 80" fill="none" xmlns="http://www.w3.org/2000/svg">
<rect width="80" height="80" rx="40" fill="#FCFCFC"/>
<rect x="0.5" y="0.5" width="79" height="79" rx="39.5" stroke="white" stroke-opacity="0.32"/>
<path d="M46 58C42.0667 58 38.5667 56.8833 35.5 54.65C32.4333 52.4167 30.2667 49.5333 29 46H22V42H28.1C28 41.2 27.9587 40.4587 27.976 39.776C27.9933 39.0933 28.0347 38.5013 28.1 38H22V34H29C30.2667 30.4667 32.4333 27.5833 35.5 25.35C38.5667 23.1167 42.0667 22 46 22C48.3 22 50.4753 22.4087 52.526 23.226C54.5767 24.0433 56.4013 25.168 58 26.6L55.15 29.4C53.9167 28.3333 52.5253 27.5 50.976 26.9C49.4267 26.3 47.768 26 46 26C43.1667 26 40.6333 26.742 38.4 28.226C36.1667 29.71 34.4833 31.6347 33.35 34H46V38H32.15C32.0167 38.9 31.9667 39.692 32 40.376C32.0333 41.06 32.0833 41.6013 32.15 42H46V46H33.35C34.4833 48.3667 36.1667 50.292 38.4 51.776C40.6333 53.26 43.1667 54.0013 46 54C47.7667 54 49.4253 53.7 50.976 53.1C52.5267 52.5 53.918 51.6667 55.15 50.6L58 53.4C56.4 54.8333 54.5747 55.9587 52.524 56.776C50.4733 57.5933 48.2987 58.0013 46 58Z" fill="black"/>
</svg>
