<svg width="80" height="80" viewBox="0 0 80 80" fill="none" xmlns="http://www.w3.org/2000/svg">
<rect width="80" height="80" rx="40" fill="#FCFCFC"/>
<rect x="0.5" y="0.5" width="79" height="79" rx="39.5" stroke="white" stroke-opacity="0.32"/>
<path d="M43.7501 38.5H36.2501C35.1008 38.5 33.9986 38.0435 33.1859 37.2308C32.3733 36.4181 31.9167 35.316 31.9167 34.1667C31.9167 33.0174 32.3733 31.9152 33.1859 31.1026C33.9986 30.2899 35.1008 29.8334 36.2501 29.8334H48.2501V26.8334H41.8751V21.25H38.8751V26.8334H36.2501C34.3051 26.8334 32.4399 27.606 31.0646 28.9813C29.6894 30.3565 28.9167 32.2218 28.9167 34.1667C28.9167 36.1116 29.6894 37.9769 31.0646 39.3521C32.4399 40.7274 34.3051 41.5 36.2501 41.5H43.7501C44.8989 41.5013 46.0004 41.9582 46.8128 42.7706C47.6251 43.583 48.0821 44.6844 48.0834 45.8333V46.1667C48.0821 47.3156 47.6251 48.417 46.8128 49.2294C46.0004 50.0418 44.8989 50.4987 43.7501 50.5H31.0557V53.5H38.8751V58.75H41.8751V53.5H43.7501C45.6943 53.4978 47.5583 52.7245 48.9331 51.3497C50.3079 49.9749 51.0812 48.1109 51.0834 46.1667V45.8333C51.0812 43.8891 50.3079 42.0251 48.9331 40.6503C47.5583 39.2755 45.6943 38.5022 43.7501 38.5Z" fill="black"/>
</svg>
