<svg width="36" height="36" viewBox="0 0 36 36" fill="none" xmlns="http://www.w3.org/2000/svg">
<path d="M24.75 2.25H11.25C10.3549 2.25 9.49645 2.60558 8.86351 3.23851C8.23058 3.87145 7.875 4.72989 7.875 5.625V30.375C7.875 31.2701 8.23058 32.1286 8.86351 32.7615C9.49645 33.3944 10.3549 33.75 11.25 33.75H24.75C25.6451 33.75 26.5036 33.3944 27.1365 32.7615C27.7694 32.1286 28.125 31.2701 28.125 30.375V5.625C28.125 4.72989 27.7694 3.87145 27.1365 3.23851C26.5036 2.60558 25.6451 2.25 24.75 2.25ZM25.875 30.375C25.875 30.6734 25.7565 30.9595 25.5455 31.1705C25.3345 31.3815 25.0484 31.5 24.75 31.5H11.25C10.9516 31.5 10.6655 31.3815 10.4545 31.1705C10.2435 30.9595 10.125 30.6734 10.125 30.375V5.625C10.125 5.32663 10.2435 5.04048 10.4545 4.8295C10.6655 4.61853 10.9516 4.5 11.25 4.5H24.75C25.0484 4.5 25.3345 4.61853 25.5455 4.8295C25.7565 5.04048 25.875 5.32663 25.875 5.625V30.375ZM19.6875 8.4375C19.6875 8.77126 19.5885 9.09752 19.4031 9.37502C19.2177 9.65253 18.9541 9.86882 18.6458 9.99655C18.3374 10.1243 17.9981 10.1577 17.6708 10.0926C17.3434 10.0275 17.0428 9.86674 16.8068 9.63074C16.5708 9.39474 16.41 9.09406 16.3449 8.76672C16.2798 8.43937 16.3132 8.10007 16.441 7.79172C16.5687 7.48337 16.785 7.21982 17.0625 7.0344C17.34 6.84897 17.6662 6.75 18 6.75C18.4476 6.75 18.8768 6.92779 19.1932 7.24426C19.5097 7.56072 19.6875 7.98995 19.6875 8.4375Z" fill="#2B7979"/>
</svg>
