<svg width="38" height="38" viewBox="0 0 38 38" fill="none" xmlns="http://www.w3.org/2000/svg">
<path d="M11.875 5.9375C10.7007 5.9375 9.55272 6.28573 8.5763 6.93815C7.59989 7.59057 6.83886 8.51788 6.38947 9.60282C5.94007 10.6878 5.82249 11.8816 6.05159 13.0334C6.28069 14.1851 6.84618 15.2431 7.67656 16.0734C8.50693 16.9038 9.56489 17.4693 10.7167 17.6984C11.8684 17.9275 13.0622 17.8099 14.1472 17.3605C15.2321 16.9111 16.1594 16.1501 16.8119 15.1737C17.4643 14.1973 17.8125 13.0493 17.8125 11.875C17.8125 10.3003 17.1869 8.79005 16.0734 7.67656C14.96 6.56306 13.4497 5.9375 11.875 5.9375ZM11.875 15.4375C11.1704 15.4375 10.4816 15.2286 9.89578 14.8371C9.30993 14.4457 8.85332 13.8893 8.58368 13.2383C8.31404 12.5874 8.2435 11.8711 8.38096 11.18C8.51841 10.4889 8.85771 9.85416 9.35593 9.35593C9.85416 8.85771 10.4889 8.51841 11.18 8.38096C11.8711 8.2435 12.5874 8.31404 13.2383 8.58368C13.8893 8.85332 14.4457 9.30993 14.8371 9.89578C15.2286 10.4816 15.4375 11.1704 15.4375 11.875C15.4375 12.8198 15.0622 13.726 14.3941 14.3941C13.726 15.0622 12.8198 15.4375 11.875 15.4375ZM26.125 17.8125C27.2993 17.8125 28.4473 17.4643 29.4237 16.8119C30.4001 16.1594 31.1611 15.2321 31.6105 14.1472C32.0599 13.0622 32.1775 11.8684 31.9484 10.7167C31.7193 9.56489 31.1538 8.50693 30.3234 7.67656C29.4931 6.84618 28.4351 6.28069 27.2834 6.05159C26.1316 5.82249 24.9378 5.94007 23.8528 6.38947C22.7679 6.83886 21.8406 7.59989 21.1882 8.5763C20.5357 9.55272 20.1875 10.7007 20.1875 11.875C20.1875 13.4497 20.8131 14.96 21.9266 16.0734C23.0401 17.1869 24.5503 17.8125 26.125 17.8125ZM26.125 8.3125C26.8296 8.3125 27.5184 8.52144 28.1042 8.91289C28.6901 9.30434 29.1467 9.86073 29.4163 10.5117C29.686 11.1627 29.7565 11.879 29.6191 12.57C29.4816 13.2611 29.1423 13.8958 28.6441 14.3941C28.1458 14.8923 27.5111 15.2316 26.82 15.3691C26.129 15.5065 25.4127 15.436 24.7617 15.1663C24.1107 14.8967 23.5543 14.4401 23.1629 13.8542C22.7714 13.2684 22.5625 12.5796 22.5625 11.875C22.5625 10.9302 22.9378 10.024 23.6059 9.35593C24.274 8.68784 25.1802 8.3125 26.125 8.3125ZM11.875 20.1875C10.7007 20.1875 9.55272 20.5357 8.5763 21.1882C7.59989 21.8406 6.83886 22.7679 6.38947 23.8528C5.94007 24.9378 5.82249 26.1316 6.05159 27.2834C6.28069 28.4351 6.84618 29.4931 7.67656 30.3234C8.50693 31.1538 9.56489 31.7193 10.7167 31.9484C11.8684 32.1775 13.0622 32.0599 14.1472 31.6105C15.2321 31.1611 16.1594 30.4001 16.8119 29.4237C17.4643 28.4473 17.8125 27.2993 17.8125 26.125C17.8125 24.5503 17.1869 23.0401 16.0734 21.9266C14.96 20.8131 13.4497 20.1875 11.875 20.1875ZM11.875 29.6875C11.1704 29.6875 10.4816 29.4786 9.89578 29.0871C9.30993 28.6957 8.85332 28.1393 8.58368 27.4883C8.31404 26.8374 8.2435 26.121 8.38096 25.43C8.51841 24.7389 8.85771 24.1042 9.35593 23.6059C9.85416 23.1077 10.4889 22.7684 11.18 22.631C11.8711 22.4935 12.5874 22.564 13.2383 22.8337C13.8893 23.1033 14.4457 23.5599 14.8371 24.1458C15.2286 24.7316 15.4375 25.4204 15.4375 26.125C15.4375 27.0698 15.0622 27.976 14.3941 28.6441C13.726 29.3122 12.8198 29.6875 11.875 29.6875ZM26.125 20.1875C24.9507 20.1875 23.8027 20.5357 22.8263 21.1882C21.8499 21.8406 21.0889 22.7679 20.6395 23.8528C20.1901 24.9378 20.0725 26.1316 20.3016 27.2834C20.5307 28.4351 21.0962 29.4931 21.9266 30.3234C22.7569 31.1538 23.8149 31.7193 24.9667 31.9484C26.1184 32.1775 27.3123 32.0599 28.3972 31.6105C29.4821 31.1611 30.4094 30.4001 31.0619 29.4237C31.7143 28.4473 32.0625 27.2993 32.0625 26.125C32.0625 24.5503 31.4369 23.0401 30.3234 21.9266C29.21 20.8131 27.6997 20.1875 26.125 20.1875ZM26.125 29.6875C25.4204 29.6875 24.7316 29.4786 24.1458 29.0871C23.5599 28.6957 23.1033 28.1393 22.8337 27.4883C22.564 26.8374 22.4935 26.121 22.631 25.43C22.7684 24.7389 23.1077 24.1042 23.6059 23.6059C24.1042 23.1077 24.7389 22.7684 25.43 22.631C26.121 22.4935 26.8374 22.564 27.4883 22.8337C28.1393 23.1033 28.6957 23.5599 29.0871 24.1458C29.4786 24.7316 29.6875 25.4204 29.6875 26.125C29.6875 27.0698 29.3122 27.976 28.6441 28.6441C27.976 29.3122 27.0698 29.6875 26.125 29.6875Z" fill="#2B7979"/>
</svg>
