<svg width="36" height="36" viewBox="0 0 36 36" fill="none" xmlns="http://www.w3.org/2000/svg">
<g clip-path="url(#clip0_246_4640)">
<path d="M12.375 20.25V18C12.375 17.7016 12.4935 17.4155 12.7045 17.2045C12.9155 16.9935 13.2016 16.875 13.5 16.875C13.7984 16.875 14.0845 16.9935 14.2955 17.2045C14.5065 17.4155 14.625 17.7016 14.625 18V20.25C14.625 20.5484 14.5065 20.8345 14.2955 21.0455C14.0845 21.2565 13.7984 21.375 13.5 21.375C13.2016 21.375 12.9155 21.2565 12.7045 21.0455C12.4935 20.8345 12.375 20.5484 12.375 20.25ZM18 21.375C18.2984 21.375 18.5845 21.2565 18.7955 21.0455C19.0065 20.8345 19.125 20.5484 19.125 20.25V16.875C19.125 16.5766 19.0065 16.2905 18.7955 16.0795C18.5845 15.8685 18.2984 15.75 18 15.75C17.7016 15.75 17.4155 15.8685 17.2045 16.0795C16.9935 16.2905 16.875 16.5766 16.875 16.875V20.25C16.875 20.5484 16.9935 20.8345 17.2045 21.0455C17.4155 21.2565 17.7016 21.375 18 21.375ZM22.5 21.375C22.7984 21.375 23.0845 21.2565 23.2955 21.0455C23.5065 20.8345 23.625 20.5484 23.625 20.25V15.75C23.625 15.4516 23.5065 15.1655 23.2955 14.9545C23.0845 14.7435 22.7984 14.625 22.5 14.625C22.2016 14.625 21.9155 14.7435 21.7045 14.9545C21.4935 15.1655 21.375 15.4516 21.375 15.75V20.25C21.375 20.5484 21.4935 20.8345 21.7045 21.0455C21.9155 21.2565 22.2016 21.375 22.5 21.375ZM30.375 11.25V24.75H31.5C31.7984 24.75 32.0845 24.8685 32.2955 25.0795C32.5065 25.2905 32.625 25.5766 32.625 25.875C32.625 26.1734 32.5065 26.4595 32.2955 26.6705C32.0845 26.8815 31.7984 27 31.5 27H19.125V29.4441C19.8756 29.7094 20.5082 30.2316 20.9111 30.9184C21.3139 31.6051 21.461 32.4121 21.3264 33.1968C21.1918 33.9814 20.7841 34.6933 20.1754 35.2064C19.5667 35.7196 18.7961 36.001 18 36.001C17.2039 36.001 16.4333 35.7196 15.8246 35.2064C15.2159 34.6933 14.8082 33.9814 14.6736 33.1968C14.539 32.4121 14.6861 31.6051 15.0889 30.9184C15.4918 30.2316 16.1244 29.7094 16.875 29.4441V27H4.5C4.20163 27 3.91548 26.8815 3.7045 26.6705C3.49353 26.4595 3.375 26.1734 3.375 25.875C3.375 25.5766 3.49353 25.2905 3.7045 25.0795C3.91548 24.8685 4.20163 24.75 4.5 24.75H5.625V11.25C5.02826 11.25 4.45597 11.0129 4.03401 10.591C3.61205 10.169 3.375 9.59674 3.375 9V6.75C3.375 6.15326 3.61205 5.58097 4.03401 5.15901C4.45597 4.73705 5.02826 4.5 5.625 4.5H30.375C30.9717 4.5 31.544 4.73705 31.966 5.15901C32.3879 5.58097 32.625 6.15326 32.625 6.75V9C32.625 9.59674 32.3879 10.169 31.966 10.591C31.544 11.0129 30.9717 11.25 30.375 11.25ZM19.125 32.625C19.125 32.4025 19.059 32.185 18.9354 32C18.8118 31.815 18.6361 31.6708 18.4305 31.5856C18.225 31.5005 17.9988 31.4782 17.7805 31.5216C17.5623 31.565 17.3618 31.6722 17.2045 31.8295C17.0472 31.9868 16.94 32.1873 16.8966 32.4055C16.8532 32.6238 16.8755 32.85 16.9606 33.0555C17.0458 33.2611 17.19 33.4368 17.375 33.5604C17.56 33.684 17.7775 33.75 18 33.75C18.2984 33.75 18.5845 33.6315 18.7955 33.4205C19.0065 33.2095 19.125 32.9234 19.125 32.625ZM5.625 9H30.375V6.75H5.625V9ZM28.125 11.25H7.875V24.75H28.125V11.25Z" fill="#2B7979"/>
</g>
<defs>
<clipPath id="clip0_246_4640">
<rect width="36" height="36" fill="white"/>
</clipPath>
</defs>
</svg>
