<svg width="36" height="36" viewBox="0 0 36 36" fill="none" xmlns="http://www.w3.org/2000/svg">
<path d="M29.25 5.625H6.75C6.15326 5.625 5.58097 5.86205 5.15901 6.28401C4.73705 6.70597 4.5 7.27826 4.5 7.875V15.75C4.5 23.1637 8.08875 27.6567 11.0995 30.1205C14.3423 32.7727 17.5683 33.6727 17.7089 33.7106C17.9023 33.7632 18.1062 33.7632 18.2995 33.7106C18.4402 33.6727 21.6619 32.7727 24.9089 30.1205C27.9113 27.6567 31.5 23.1637 31.5 15.75V7.875C31.5 7.27826 31.2629 6.70597 30.841 6.28401C30.419 5.86205 29.8467 5.625 29.25 5.625ZM29.25 15.75C29.25 20.963 27.3291 25.1944 23.5406 28.3247C21.8915 29.6827 20.0159 30.7395 18 31.4466C16.0104 30.7518 14.1581 29.7138 12.5269 28.3795C8.69344 25.2436 6.75 20.9953 6.75 15.75V7.875H29.25V15.75ZM11.5791 19.9209C11.368 19.7098 11.2494 19.4235 11.2494 19.125C11.2494 18.8265 11.368 18.5402 11.5791 18.3291C11.7902 18.118 12.0765 17.9994 12.375 17.9994C12.6735 17.9994 12.9598 18.118 13.1709 18.3291L15.75 20.9095L22.8291 13.8291C22.9336 13.7245 23.0577 13.6416 23.1942 13.5851C23.3308 13.5285 23.4772 13.4994 23.625 13.4994C23.7728 13.4994 23.9192 13.5285 24.0558 13.5851C24.1923 13.6416 24.3164 13.7245 24.4209 13.8291C24.5255 13.9336 24.6084 14.0577 24.6649 14.1942C24.7215 14.3308 24.7506 14.4772 24.7506 14.625C24.7506 14.7728 24.7215 14.9192 24.6649 15.0558C24.6084 15.1923 24.5255 15.3164 24.4209 15.4209L16.5459 23.2959C16.4415 23.4005 16.3174 23.4835 16.1808 23.5401C16.0442 23.5967 15.8978 23.6259 15.75 23.6259C15.6022 23.6259 15.4558 23.5967 15.3192 23.5401C15.1826 23.4835 15.0585 23.4005 14.9541 23.2959L11.5791 19.9209Z" fill="#2B7979"/>
</svg>
