<svg width="518" height="518" viewBox="0 0 518 518" fill="none" xmlns="http://www.w3.org/2000/svg">
<g clip-path="url(#clip0_246_4653)">
<rect width="518" height="518" rx="32" fill="#F5F5F5"/>
<rect x="154.5" y="-50.5" width="209" height="193" rx="31.5" stroke="#E5E5E5"/>
<rect x="219" y="-27" width="80" height="80" rx="40" fill="#F3F4F4"/>
<path d="M267.25 11.5C267.25 13.1317 266.766 14.7267 265.86 16.0835C264.953 17.4402 263.665 18.4976 262.157 19.122C260.65 19.7464 258.991 19.9098 257.391 19.5915C255.79 19.2732 254.32 18.4874 253.166 17.3336C252.013 16.1798 251.227 14.7098 250.909 13.1095C250.59 11.5092 250.754 9.85035 251.378 8.34286C252.002 6.83537 253.06 5.5469 254.417 4.64038C255.773 3.73385 257.368 3.25 259 3.25C261.187 3.25248 263.284 4.12247 264.831 5.66911C266.378 7.21575 267.248 9.31273 267.25 11.5ZM278.5 13C278.5 16.8567 277.356 20.6269 275.214 23.8336C273.071 27.0404 270.025 29.5397 266.462 31.0156C262.899 32.4916 258.978 32.8777 255.196 32.1253C251.413 31.3729 247.939 29.5157 245.211 26.7886C242.484 24.0615 240.627 20.5869 239.875 16.8043C239.122 13.0216 239.508 9.10083 240.984 5.53767C242.46 1.97451 244.96 -1.07097 248.166 -3.21366C251.373 -5.35634 255.143 -6.5 259 -6.5C264.17 -6.49454 269.127 -4.43833 272.783 -0.782553C276.438 2.87322 278.495 7.82995 278.5 13ZM275.5 13C275.498 10.7791 275.047 8.58154 274.176 6.53867C273.305 4.4958 272.031 2.64961 270.43 1.1105C268.829 -0.428608 266.934 -1.62902 264.858 -2.41895C262.782 -3.20887 260.569 -3.57209 258.349 -3.48688C249.518 -3.14563 242.476 4.21 242.5 13.0469C242.508 17.0697 243.992 20.9498 246.67 23.9519C247.761 22.3701 249.146 21.0135 250.75 19.9563C250.887 19.8659 251.049 19.8229 251.213 19.8337C251.376 19.8445 251.532 19.9087 251.656 20.0163C253.694 21.7794 256.299 22.7497 258.994 22.7497C261.69 22.7497 264.295 21.7794 266.333 20.0163C266.457 19.9087 266.612 19.8445 266.776 19.8337C266.939 19.8229 267.102 19.8659 267.239 19.9563C268.845 21.0129 270.232 22.3696 271.324 23.9519C274.015 20.9388 275.502 17.0399 275.5 13Z" fill="#525252"/>
<path d="M209.681 87H207.431L211.528 75.3636H214.13L218.232 87H215.982L212.874 77.75H212.783L209.681 87ZM209.755 82.4375H215.891V84.1307H209.755V82.4375ZM222.647 87.1534C221.961 87.1534 221.348 86.9773 220.806 86.625C220.264 86.2727 219.836 85.7614 219.522 85.0909C219.208 84.4205 219.05 83.6061 219.05 82.6477C219.05 81.678 219.21 80.8598 219.528 80.1932C219.85 79.5227 220.283 79.017 220.829 78.6761C221.374 78.3314 221.982 78.1591 222.653 78.1591C223.164 78.1591 223.585 78.2462 223.914 78.4205C224.244 78.5909 224.505 78.7973 224.698 79.0398C224.891 79.2784 225.041 79.5038 225.147 79.7159H225.232V75.3636H227.295V87H225.272V85.625H225.147C225.041 85.8371 224.888 86.0625 224.687 86.3011C224.486 86.536 224.221 86.7367 223.891 86.9034C223.562 87.0701 223.147 87.1534 222.647 87.1534ZM223.221 85.4659C223.656 85.4659 224.028 85.3485 224.335 85.1136C224.641 84.875 224.874 84.5436 225.033 84.1193C225.192 83.6951 225.272 83.2008 225.272 82.6364C225.272 82.072 225.192 81.5814 225.033 81.1648C224.878 80.7481 224.647 80.4242 224.34 80.1932C224.037 79.9621 223.664 79.8466 223.221 79.8466C222.763 79.8466 222.38 79.9659 222.073 80.2045C221.766 80.4432 221.535 80.7727 221.38 81.1932C221.225 81.6136 221.147 82.0947 221.147 82.6364C221.147 83.1818 221.225 83.6686 221.38 84.0966C221.539 84.5208 221.772 84.8561 222.079 85.1023C222.389 85.3447 222.77 85.4659 223.221 85.4659ZM232.725 87.1534C232.04 87.1534 231.426 86.9773 230.884 86.625C230.343 86.2727 229.915 85.7614 229.6 85.0909C229.286 84.4205 229.129 83.6061 229.129 82.6477C229.129 81.678 229.288 80.8598 229.606 80.1932C229.928 79.5227 230.362 79.017 230.907 78.6761C231.452 78.3314 232.06 78.1591 232.731 78.1591C233.242 78.1591 233.663 78.2462 233.992 78.4205C234.322 78.5909 234.583 78.7973 234.776 79.0398C234.969 79.2784 235.119 79.5038 235.225 79.7159H235.31V75.3636H237.373V87H235.35V85.625H235.225C235.119 85.8371 234.966 86.0625 234.765 86.3011C234.564 86.536 234.299 86.7367 233.969 86.9034C233.64 87.0701 233.225 87.1534 232.725 87.1534ZM233.299 85.4659C233.735 85.4659 234.106 85.3485 234.413 85.1136C234.719 84.875 234.952 84.5436 235.112 84.1193C235.271 83.6951 235.35 83.2008 235.35 82.6364C235.35 82.072 235.271 81.5814 235.112 81.1648C234.956 80.7481 234.725 80.4242 234.418 80.1932C234.115 79.9621 233.742 79.8466 233.299 79.8466C232.841 79.8466 232.458 79.9659 232.151 80.2045C231.844 80.4432 231.613 80.7727 231.458 81.1932C231.303 81.6136 231.225 82.0947 231.225 82.6364C231.225 83.1818 231.303 83.6686 231.458 84.0966C231.617 84.5208 231.85 84.8561 232.157 85.1023C232.468 85.3447 232.848 85.4659 233.299 85.4659ZM243.624 87V75.3636H247.988C248.882 75.3636 249.632 75.5189 250.238 75.8295C250.848 76.1402 251.308 76.5758 251.619 77.1364C251.933 77.6932 252.09 78.3428 252.09 79.0852C252.09 79.8314 251.931 80.4792 251.613 81.0284C251.299 81.5739 250.835 81.9962 250.221 82.2955C249.607 82.5909 248.853 82.7386 247.96 82.7386H244.852V80.9886H247.675C248.198 80.9886 248.626 80.9167 248.96 80.7727C249.293 80.625 249.539 80.411 249.698 80.1307C249.861 79.8466 249.942 79.4981 249.942 79.0852C249.942 78.6723 249.861 78.3201 249.698 78.0284C249.535 77.733 249.287 77.5095 248.954 77.358C248.621 77.2027 248.191 77.125 247.664 77.125H245.732V87H243.624ZM249.636 81.7273L252.516 87H250.164L247.335 81.7273H249.636ZM257.678 87.1705C256.803 87.1705 256.048 86.9886 255.411 86.625C254.779 86.2576 254.292 85.7386 253.951 85.0682C253.61 84.3939 253.44 83.6004 253.44 82.6875C253.44 81.7898 253.61 81.0019 253.951 80.3239C254.296 79.642 254.777 79.1117 255.394 78.733C256.012 78.3504 256.737 78.1591 257.57 78.1591C258.108 78.1591 258.616 78.2462 259.093 78.4205C259.574 78.5909 259.998 78.8561 260.366 79.2159C260.737 79.5758 261.029 80.0341 261.241 80.5909C261.453 81.1439 261.559 81.803 261.559 82.5682V83.1989H254.406V81.8125H259.587C259.584 81.4186 259.498 81.0682 259.332 80.7614C259.165 80.4508 258.932 80.2064 258.633 80.0284C258.337 79.8504 257.993 79.7614 257.599 79.7614C257.178 79.7614 256.809 79.8636 256.491 80.0682C256.173 80.2689 255.924 80.5341 255.746 80.8636C255.572 81.1894 255.483 81.5473 255.479 81.9375V83.1477C255.479 83.6553 255.572 84.0909 255.758 84.4545C255.943 84.8144 256.203 85.0909 256.536 85.2841C256.87 85.4735 257.26 85.5682 257.707 85.5682C258.006 85.5682 258.277 85.5265 258.519 85.4432C258.762 85.3561 258.972 85.2292 259.15 85.0625C259.328 84.8958 259.462 84.6894 259.553 84.4432L261.474 84.6591C261.353 85.1667 261.121 85.6098 260.781 85.9886C260.443 86.3636 260.012 86.6553 259.485 86.8636C258.959 87.0682 258.356 87.1705 257.678 87.1705ZM267.106 87.1705C266.235 87.1705 265.487 86.9792 264.862 86.5966C264.24 86.214 263.761 85.6856 263.424 85.0114C263.091 84.3333 262.924 83.553 262.924 82.6705C262.924 81.7841 263.094 81.0019 263.435 80.3239C263.776 79.642 264.257 79.1117 264.879 78.733C265.504 78.3504 266.242 78.1591 267.094 78.1591C267.803 78.1591 268.43 78.2898 268.975 78.5511C269.524 78.8087 269.962 79.1742 270.288 79.6477C270.613 80.1174 270.799 80.6667 270.844 81.2955H268.879C268.799 80.875 268.61 80.5246 268.31 80.2443C268.015 79.9602 267.619 79.8182 267.123 79.8182C266.702 79.8182 266.333 79.9318 266.015 80.1591C265.697 80.3826 265.449 80.7045 265.271 81.125C265.096 81.5455 265.009 82.0492 265.009 82.6364C265.009 83.2311 265.096 83.7424 265.271 84.1705C265.445 84.5947 265.689 84.9223 266.004 85.1534C266.322 85.3807 266.695 85.4943 267.123 85.4943C267.426 85.4943 267.697 85.4375 267.935 85.3239C268.178 85.2064 268.38 85.0379 268.543 84.8182C268.706 84.5985 268.818 84.3314 268.879 84.017H270.844C270.795 84.6345 270.613 85.1818 270.299 85.6591C269.985 86.1326 269.557 86.5038 269.015 86.7727C268.473 87.0379 267.837 87.1705 267.106 87.1705ZM272.533 87V78.2727H274.59V87H272.533ZM273.567 77.0341C273.242 77.0341 272.961 76.9261 272.727 76.7102C272.492 76.4905 272.374 76.2273 272.374 75.9205C272.374 75.6098 272.492 75.3466 272.727 75.1307C272.961 74.911 273.242 74.8011 273.567 74.8011C273.897 74.8011 274.177 74.911 274.408 75.1307C274.643 75.3466 274.761 75.6098 274.761 75.9205C274.761 76.2273 274.643 76.4905 274.408 76.7102C274.177 76.9261 273.897 77.0341 273.567 77.0341ZM276.705 90.2727V78.2727H278.728V79.7159H278.847C278.953 79.5038 279.103 79.2784 279.296 79.0398C279.489 78.7973 279.751 78.5909 280.08 78.4205C280.41 78.2462 280.83 78.1591 281.342 78.1591C282.016 78.1591 282.624 78.3314 283.165 78.6761C283.711 79.017 284.143 79.5227 284.461 80.1932C284.783 80.8598 284.944 81.678 284.944 82.6477C284.944 83.6061 284.787 84.4205 284.472 85.0909C284.158 85.7614 283.73 86.2727 283.188 86.625C282.647 86.9773 282.033 87.1534 281.347 87.1534C280.847 87.1534 280.433 87.0701 280.103 86.9034C279.773 86.7367 279.508 86.536 279.308 86.3011C279.111 86.0625 278.957 85.8371 278.847 85.625H278.762V90.2727H276.705ZM278.722 82.6364C278.722 83.2008 278.802 83.6951 278.961 84.1193C279.124 84.5436 279.357 84.875 279.66 85.1136C279.967 85.3485 280.338 85.4659 280.773 85.4659C281.228 85.4659 281.609 85.3447 281.915 85.1023C282.222 84.8561 282.453 84.5208 282.609 84.0966C282.768 83.6686 282.847 83.1818 282.847 82.6364C282.847 82.0947 282.77 81.6136 282.614 81.1932C282.459 80.7727 282.228 80.4432 281.921 80.2045C281.614 79.9659 281.232 79.8466 280.773 79.8466C280.334 79.8466 279.961 79.9621 279.654 80.1932C279.347 80.4242 279.114 80.7481 278.955 81.1648C278.8 81.5814 278.722 82.072 278.722 82.6364ZM290.569 87.1705C289.694 87.1705 288.938 86.9886 288.302 86.625C287.669 86.2576 287.183 85.7386 286.842 85.0682C286.501 84.3939 286.33 83.6004 286.33 82.6875C286.33 81.7898 286.501 81.0019 286.842 80.3239C287.186 79.642 287.667 79.1117 288.285 78.733C288.902 78.3504 289.628 78.1591 290.461 78.1591C290.999 78.1591 291.506 78.2462 291.984 78.4205C292.465 78.5909 292.889 78.8561 293.256 79.2159C293.628 79.5758 293.919 80.0341 294.131 80.5909C294.344 81.1439 294.45 81.803 294.45 82.5682V83.1989H287.296V81.8125H292.478C292.474 81.4186 292.389 81.0682 292.222 80.7614C292.056 80.4508 291.823 80.2064 291.523 80.0284C291.228 79.8504 290.883 79.7614 290.489 79.7614C290.069 79.7614 289.7 79.8636 289.381 80.0682C289.063 80.2689 288.815 80.5341 288.637 80.8636C288.463 81.1894 288.374 81.5473 288.37 81.9375V83.1477C288.37 83.6553 288.463 84.0909 288.648 84.4545C288.834 84.8144 289.094 85.0909 289.427 85.2841C289.76 85.4735 290.15 85.5682 290.597 85.5682C290.897 85.5682 291.167 85.5265 291.41 85.4432C291.652 85.3561 291.862 85.2292 292.04 85.0625C292.219 84.8958 292.353 84.6894 292.444 84.4432L294.364 84.6591C294.243 85.1667 294.012 85.6098 293.671 85.9886C293.334 86.3636 292.902 86.6553 292.376 86.8636C291.849 87.0682 291.247 87.1705 290.569 87.1705ZM298.246 81.8864V87H296.19V78.2727H298.156V79.7557H298.258C298.459 79.267 298.779 78.8788 299.218 78.5909C299.661 78.303 300.209 78.1591 300.86 78.1591C301.462 78.1591 301.987 78.2879 302.434 78.5455C302.885 78.803 303.233 79.1761 303.479 79.6648C303.729 80.1534 303.853 80.7462 303.849 81.4432V87H301.792V81.7614C301.792 81.178 301.64 80.7216 301.337 80.392C301.038 80.0625 300.623 79.8977 300.093 79.8977C299.733 79.8977 299.413 79.9773 299.133 80.1364C298.856 80.2917 298.638 80.517 298.479 80.8125C298.324 81.108 298.246 81.4659 298.246 81.8864ZM310.298 78.2727V79.8636H305.281V78.2727H310.298ZM306.519 76.1818H308.576V84.375C308.576 84.6515 308.618 84.8636 308.701 85.0114C308.788 85.1553 308.902 85.2538 309.042 85.3068C309.182 85.3598 309.337 85.3864 309.508 85.3864C309.637 85.3864 309.754 85.3769 309.86 85.358C309.97 85.339 310.053 85.322 310.11 85.3068L310.457 86.9148C310.347 86.9527 310.19 86.9943 309.985 87.0398C309.784 87.0852 309.538 87.1117 309.246 87.1193C308.731 87.1345 308.267 87.0568 307.854 86.8864C307.442 86.7121 307.114 86.4432 306.871 86.0795C306.633 85.7159 306.515 85.2614 306.519 84.7159V76.1818Z" fill="#1F2C37"/>
<path d="M184.801 105.364C184.741 104.86 184.5 104.469 184.075 104.19C183.651 103.912 183.131 103.773 182.514 103.773C182.063 103.773 181.669 103.846 181.331 103.991C180.996 104.137 180.734 104.338 180.545 104.593C180.36 104.848 180.267 105.138 180.267 105.463C180.267 105.735 180.332 105.969 180.461 106.164C180.594 106.356 180.763 106.517 180.968 106.646C181.174 106.772 181.389 106.877 181.614 106.96C181.84 107.039 182.047 107.104 182.236 107.153L183.27 107.432C183.535 107.501 183.83 107.598 184.155 107.72C184.483 107.843 184.796 108.01 185.094 108.222C185.396 108.431 185.645 108.7 185.84 109.028C186.036 109.356 186.134 109.759 186.134 110.236C186.134 110.786 185.989 111.283 185.701 111.727C185.416 112.171 184.998 112.524 184.448 112.786C183.901 113.048 183.237 113.179 182.455 113.179C181.725 113.179 181.094 113.061 180.56 112.826C180.03 112.591 179.612 112.263 179.308 111.842C179.006 111.421 178.835 110.932 178.795 110.375H180.068C180.101 110.759 180.231 111.078 180.456 111.33C180.685 111.578 180.973 111.764 181.321 111.886C181.672 112.006 182.05 112.065 182.455 112.065C182.925 112.065 183.348 111.989 183.722 111.837C184.097 111.681 184.393 111.465 184.612 111.19C184.831 110.912 184.94 110.587 184.94 110.216C184.94 109.878 184.846 109.603 184.657 109.391C184.468 109.179 184.219 109.006 183.911 108.874C183.603 108.741 183.27 108.625 182.912 108.526L181.659 108.168C180.864 107.939 180.234 107.612 179.77 107.188C179.306 106.764 179.074 106.209 179.074 105.523C179.074 104.953 179.228 104.455 179.536 104.031C179.848 103.604 180.265 103.272 180.789 103.037C181.316 102.798 181.904 102.679 182.554 102.679C183.21 102.679 183.794 102.797 184.304 103.032C184.814 103.264 185.219 103.582 185.517 103.987C185.819 104.391 185.978 104.85 185.994 105.364H184.801ZM191.203 113.159C190.468 113.159 189.833 112.997 189.299 112.672C188.769 112.344 188.36 111.886 188.071 111.3C187.786 110.71 187.644 110.024 187.644 109.241C187.644 108.459 187.786 107.77 188.071 107.173C188.36 106.573 188.761 106.106 189.274 105.771C189.791 105.433 190.395 105.264 191.084 105.264C191.482 105.264 191.874 105.33 192.262 105.463C192.65 105.596 193.003 105.811 193.321 106.109C193.639 106.404 193.893 106.795 194.082 107.283C194.271 107.77 194.365 108.37 194.365 109.082V109.58H188.479V108.565H193.172C193.172 108.134 193.086 107.75 192.914 107.412C192.744 107.074 192.503 106.807 192.188 106.612C191.876 106.416 191.508 106.318 191.084 106.318C190.617 106.318 190.212 106.434 189.871 106.666C189.533 106.895 189.273 107.193 189.09 107.561C188.908 107.929 188.817 108.323 188.817 108.744V109.42C188.817 109.997 188.916 110.486 189.115 110.887C189.317 111.285 189.597 111.588 189.955 111.797C190.313 112.002 190.729 112.105 191.203 112.105C191.512 112.105 191.79 112.062 192.039 111.976C192.29 111.886 192.508 111.754 192.69 111.578C192.872 111.399 193.013 111.177 193.112 110.912L194.246 111.23C194.127 111.615 193.926 111.953 193.644 112.244C193.363 112.533 193.015 112.758 192.6 112.92C192.186 113.08 191.72 113.159 191.203 113.159ZM197.323 102.818V113H196.15V102.818H197.323ZM202.674 113.159C201.938 113.159 201.304 112.997 200.77 112.672C200.24 112.344 199.83 111.886 199.542 111.3C199.257 110.71 199.114 110.024 199.114 109.241C199.114 108.459 199.257 107.77 199.542 107.173C199.83 106.573 200.231 106.106 200.745 105.771C201.262 105.433 201.865 105.264 202.555 105.264C202.952 105.264 203.345 105.33 203.733 105.463C204.121 105.596 204.474 105.811 204.792 106.109C205.11 106.404 205.364 106.795 205.553 107.283C205.741 107.77 205.836 108.37 205.836 109.082V109.58H199.95V108.565H204.643C204.643 108.134 204.557 107.75 204.384 107.412C204.215 107.074 203.973 106.807 203.658 106.612C203.347 106.416 202.979 106.318 202.555 106.318C202.087 106.318 201.683 106.434 201.342 106.666C201.004 106.895 200.743 107.193 200.561 107.561C200.379 107.929 200.288 108.323 200.288 108.744V109.42C200.288 109.997 200.387 110.486 200.586 110.887C200.788 111.285 201.068 111.588 201.426 111.797C201.784 112.002 202.2 112.105 202.674 112.105C202.982 112.105 203.261 112.062 203.509 111.976C203.761 111.886 203.978 111.754 204.161 111.578C204.343 111.399 204.484 111.177 204.583 110.912L205.717 111.23C205.597 111.615 205.397 111.953 205.115 112.244C204.833 112.533 204.485 112.758 204.071 112.92C203.657 113.08 203.191 113.159 202.674 113.159ZM210.723 113.159C210.007 113.159 209.391 112.99 208.874 112.652C208.357 112.314 207.959 111.848 207.68 111.255C207.402 110.662 207.263 109.984 207.263 109.222C207.263 108.446 207.405 107.762 207.69 107.168C207.979 106.572 208.38 106.106 208.893 105.771C209.411 105.433 210.014 105.264 210.703 105.264C211.24 105.264 211.724 105.364 212.155 105.562C212.586 105.761 212.939 106.04 213.214 106.398C213.489 106.756 213.66 107.173 213.726 107.651H212.553C212.463 107.303 212.264 106.994 211.956 106.726C211.651 106.454 211.24 106.318 210.723 106.318C210.266 106.318 209.865 106.437 209.52 106.676C209.179 106.911 208.912 107.245 208.719 107.675C208.531 108.103 208.436 108.605 208.436 109.182C208.436 109.772 208.529 110.286 208.714 110.723C208.903 111.161 209.169 111.5 209.51 111.742C209.855 111.984 210.259 112.105 210.723 112.105C211.028 112.105 211.305 112.052 211.553 111.946C211.802 111.84 212.012 111.688 212.185 111.489C212.357 111.29 212.48 111.051 212.553 110.773H213.726C213.66 111.223 213.496 111.629 213.234 111.991C212.975 112.349 212.632 112.634 212.205 112.846C211.78 113.055 211.286 113.159 210.723 113.159ZM218.762 105.364V106.358H214.805V105.364H218.762ZM215.958 103.534H217.131V110.812C217.131 111.144 217.179 111.393 217.276 111.558C217.375 111.721 217.501 111.83 217.653 111.886C217.809 111.939 217.973 111.966 218.146 111.966C218.275 111.966 218.381 111.959 218.464 111.946C218.547 111.929 218.613 111.916 218.663 111.906L218.901 112.96C218.822 112.99 218.711 113.02 218.568 113.05C218.426 113.083 218.245 113.099 218.026 113.099C217.695 113.099 217.37 113.028 217.052 112.886C216.737 112.743 216.475 112.526 216.266 112.234C216.061 111.943 215.958 111.575 215.958 111.131V103.534ZM227.786 105.364V106.358H223.828V105.364H227.786ZM224.982 103.534H226.155V110.812C226.155 111.144 226.203 111.393 226.299 111.558C226.398 111.721 226.524 111.83 226.677 111.886C226.833 111.939 226.997 111.966 227.169 111.966C227.298 111.966 227.404 111.959 227.487 111.946C227.57 111.929 227.636 111.916 227.686 111.906L227.925 112.96C227.845 112.99 227.734 113.02 227.592 113.05C227.449 113.083 227.268 113.099 227.05 113.099C226.718 113.099 226.393 113.028 226.075 112.886C225.76 112.743 225.499 112.526 225.29 112.234C225.084 111.943 224.982 111.575 224.982 111.131V103.534ZM230.888 108.406V113H229.714V102.818H230.888V106.557H230.987C231.166 106.162 231.435 105.849 231.793 105.617C232.154 105.382 232.634 105.264 233.234 105.264C233.755 105.264 234.21 105.369 234.602 105.577C234.993 105.783 235.296 106.099 235.511 106.527C235.73 106.951 235.839 107.491 235.839 108.148V113H234.666V108.227C234.666 107.621 234.509 107.152 234.194 106.82C233.882 106.486 233.45 106.318 232.896 106.318C232.512 106.318 232.167 106.399 231.862 106.562C231.561 106.724 231.322 106.961 231.146 107.273C230.974 107.584 230.888 107.962 230.888 108.406ZM241.188 113.159C240.452 113.159 239.817 112.997 239.284 112.672C238.753 112.344 238.344 111.886 238.056 111.3C237.771 110.71 237.628 110.024 237.628 109.241C237.628 108.459 237.771 107.77 238.056 107.173C238.344 106.573 238.745 106.106 239.259 105.771C239.776 105.433 240.379 105.264 241.068 105.264C241.466 105.264 241.859 105.33 242.247 105.463C242.634 105.596 242.987 105.811 243.306 106.109C243.624 106.404 243.877 106.795 244.066 107.283C244.255 107.77 244.35 108.37 244.35 109.082V109.58H238.463V108.565H243.156C243.156 108.134 243.07 107.75 242.898 107.412C242.729 107.074 242.487 106.807 242.172 106.612C241.86 106.416 241.493 106.318 241.068 106.318C240.601 106.318 240.197 106.434 239.855 106.666C239.517 106.895 239.257 107.193 239.075 107.561C238.892 107.929 238.801 108.323 238.801 108.744V109.42C238.801 109.997 238.901 110.486 239.1 110.887C239.302 111.285 239.582 111.588 239.94 111.797C240.298 112.002 240.714 112.105 241.188 112.105C241.496 112.105 241.774 112.062 242.023 111.976C242.275 111.886 242.492 111.754 242.674 111.578C242.856 111.399 242.997 111.177 243.097 110.912L244.23 111.23C244.111 111.615 243.91 111.953 243.629 112.244C243.347 112.533 242.999 112.758 242.585 112.92C242.17 113.08 241.705 113.159 241.188 113.159ZM250.072 113V105.364H251.205V106.517H251.285C251.424 106.139 251.676 105.833 252.041 105.597C252.405 105.362 252.816 105.244 253.274 105.244C253.36 105.244 253.468 105.246 253.597 105.249C253.726 105.253 253.824 105.258 253.89 105.264V106.457C253.85 106.447 253.759 106.433 253.617 106.413C253.477 106.389 253.33 106.378 253.174 106.378C252.803 106.378 252.472 106.456 252.18 106.612C251.892 106.764 251.663 106.976 251.494 107.248C251.328 107.516 251.245 107.823 251.245 108.168V113H250.072ZM258.25 113.159C257.514 113.159 256.88 112.997 256.346 112.672C255.816 112.344 255.406 111.886 255.118 111.3C254.833 110.71 254.691 110.024 254.691 109.241C254.691 108.459 254.833 107.77 255.118 107.173C255.406 106.573 255.807 106.106 256.321 105.771C256.838 105.433 257.441 105.264 258.131 105.264C258.529 105.264 258.921 105.33 259.309 105.463C259.697 105.596 260.05 105.811 260.368 106.109C260.686 106.404 260.94 106.795 261.129 107.283C261.318 107.77 261.412 108.37 261.412 109.082V109.58H255.526V108.565H260.219C260.219 108.134 260.133 107.75 259.96 107.412C259.791 107.074 259.549 106.807 259.235 106.612C258.923 106.416 258.555 106.318 258.131 106.318C257.664 106.318 257.259 106.434 256.918 106.666C256.58 106.895 256.32 107.193 256.137 107.561C255.955 107.929 255.864 108.323 255.864 108.744V109.42C255.864 109.997 255.963 110.486 256.162 110.887C256.364 111.285 256.644 111.588 257.002 111.797C257.36 112.002 257.776 112.105 258.25 112.105C258.558 112.105 258.837 112.062 259.085 111.976C259.337 111.886 259.554 111.754 259.737 111.578C259.919 111.399 260.06 111.177 260.159 110.912L261.293 111.23C261.173 111.615 260.973 111.953 260.691 112.244C260.41 112.533 260.061 112.758 259.647 112.92C259.233 113.08 258.767 113.159 258.25 113.159ZM266.299 113.159C265.583 113.159 264.967 112.99 264.45 112.652C263.933 112.314 263.535 111.848 263.257 111.255C262.978 110.662 262.839 109.984 262.839 109.222C262.839 108.446 262.981 107.762 263.267 107.168C263.555 106.572 263.956 106.106 264.47 105.771C264.987 105.433 265.59 105.264 266.279 105.264C266.816 105.264 267.3 105.364 267.731 105.562C268.162 105.761 268.515 106.04 268.79 106.398C269.065 106.756 269.236 107.173 269.302 107.651H268.129C268.039 107.303 267.84 106.994 267.532 106.726C267.227 106.454 266.816 106.318 266.299 106.318C265.842 106.318 265.441 106.437 265.096 106.676C264.755 106.911 264.488 107.245 264.296 107.675C264.107 108.103 264.012 108.605 264.012 109.182C264.012 109.772 264.105 110.286 264.291 110.723C264.48 111.161 264.745 111.5 265.086 111.742C265.431 111.984 265.835 112.105 266.299 112.105C266.604 112.105 266.881 112.052 267.129 111.946C267.378 111.84 267.588 111.688 267.761 111.489C267.933 111.29 268.056 111.051 268.129 110.773H269.302C269.236 111.223 269.072 111.629 268.81 111.991C268.551 112.349 268.208 112.634 267.781 112.846C267.356 113.055 266.863 113.159 266.299 113.159ZM271.017 113V105.364H272.191V113H271.017ZM271.614 104.091C271.385 104.091 271.188 104.013 271.022 103.857C270.86 103.701 270.779 103.514 270.779 103.295C270.779 103.077 270.86 102.889 271.022 102.734C271.188 102.578 271.385 102.5 271.614 102.5C271.843 102.5 272.038 102.578 272.2 102.734C272.366 102.889 272.449 103.077 272.449 103.295C272.449 103.514 272.366 103.701 272.2 103.857C272.038 104.013 271.843 104.091 271.614 104.091ZM274.339 115.864V105.364H275.473V106.577H275.612C275.698 106.444 275.818 106.275 275.97 106.07C276.126 105.861 276.348 105.675 276.636 105.513C276.928 105.347 277.322 105.264 277.82 105.264C278.463 105.264 279.029 105.425 279.52 105.746C280.01 106.068 280.393 106.524 280.668 107.114C280.943 107.704 281.081 108.4 281.081 109.202C281.081 110.01 280.943 110.711 280.668 111.305C280.393 111.895 280.012 112.352 279.525 112.677C279.038 112.998 278.476 113.159 277.839 113.159C277.349 113.159 276.956 113.078 276.661 112.915C276.366 112.75 276.139 112.562 275.98 112.354C275.821 112.142 275.698 111.966 275.612 111.827H275.513V115.864H274.339ZM275.493 109.182C275.493 109.759 275.577 110.267 275.746 110.708C275.915 111.146 276.162 111.489 276.487 111.737C276.812 111.982 277.21 112.105 277.68 112.105C278.171 112.105 278.58 111.976 278.908 111.717C279.24 111.455 279.488 111.104 279.654 110.663C279.823 110.219 279.908 109.725 279.908 109.182C279.908 108.645 279.825 108.161 279.659 107.73C279.497 107.296 279.25 106.953 278.918 106.701C278.59 106.446 278.178 106.318 277.68 106.318C277.203 106.318 276.802 106.439 276.477 106.681C276.152 106.92 275.907 107.254 275.741 107.685C275.576 108.113 275.493 108.612 275.493 109.182ZM282.871 113V105.364H284.044V113H282.871ZM283.467 104.091C283.239 104.091 283.041 104.013 282.876 103.857C282.713 103.701 282.632 103.514 282.632 103.295C282.632 103.077 282.713 102.889 282.876 102.734C283.041 102.578 283.239 102.5 283.467 102.5C283.696 102.5 283.892 102.578 284.054 102.734C284.22 102.889 284.303 103.077 284.303 103.295C284.303 103.514 284.22 103.701 284.054 103.857C283.892 104.013 283.696 104.091 283.467 104.091ZM289.395 113.159C288.659 113.159 288.024 112.997 287.491 112.672C286.96 112.344 286.551 111.886 286.263 111.3C285.978 110.71 285.835 110.024 285.835 109.241C285.835 108.459 285.978 107.77 286.263 107.173C286.551 106.573 286.952 106.106 287.466 105.771C287.983 105.433 288.586 105.264 289.275 105.264C289.673 105.264 290.066 105.33 290.454 105.463C290.841 105.596 291.194 105.811 291.513 106.109C291.831 106.404 292.084 106.795 292.273 107.283C292.462 107.77 292.557 108.37 292.557 109.082V109.58H286.67V108.565H291.363C291.363 108.134 291.277 107.75 291.105 107.412C290.936 107.074 290.694 106.807 290.379 106.612C290.068 106.416 289.7 106.318 289.275 106.318C288.808 106.318 288.404 106.434 288.062 106.666C287.724 106.895 287.464 107.193 287.282 107.561C287.099 107.929 287.008 108.323 287.008 108.744V109.42C287.008 109.997 287.108 110.486 287.307 110.887C287.509 111.285 287.789 111.588 288.147 111.797C288.505 112.002 288.921 112.105 289.395 112.105C289.703 112.105 289.981 112.062 290.23 111.976C290.482 111.886 290.699 111.754 290.881 111.578C291.064 111.399 291.204 111.177 291.304 110.912L292.437 111.23C292.318 111.615 292.117 111.953 291.836 112.244C291.554 112.533 291.206 112.758 290.792 112.92C290.377 113.08 289.912 113.159 289.395 113.159ZM295.515 108.406V113H294.341V105.364H295.475V106.557H295.574C295.753 106.169 296.025 105.857 296.39 105.622C296.754 105.384 297.225 105.264 297.802 105.264C298.319 105.264 298.771 105.37 299.159 105.582C299.547 105.791 299.848 106.109 300.064 106.537C300.279 106.961 300.387 107.498 300.387 108.148V113H299.214V108.227C299.214 107.627 299.058 107.16 298.746 106.825C298.435 106.487 298.007 106.318 297.464 106.318C297.089 106.318 296.754 106.399 296.459 106.562C296.168 106.724 295.937 106.961 295.768 107.273C295.599 107.584 295.515 107.962 295.515 108.406ZM305.852 105.364V106.358H301.895V105.364H305.852ZM303.048 103.534H304.221V110.812C304.221 111.144 304.269 111.393 304.365 111.558C304.465 111.721 304.591 111.83 304.743 111.886C304.899 111.939 305.063 111.966 305.235 111.966C305.365 111.966 305.471 111.959 305.554 111.946C305.636 111.929 305.703 111.916 305.752 111.906L305.991 112.96C305.912 112.99 305.801 113.02 305.658 113.05C305.516 113.083 305.335 113.099 305.116 113.099C304.785 113.099 304.46 113.028 304.142 112.886C303.827 112.743 303.565 112.526 303.356 112.234C303.151 111.943 303.048 111.575 303.048 111.131V103.534Z" fill="#525252"/>
<rect x="146" y="151" width="226" height="222" rx="32" fill="#FF7438"/>
<rect x="219" y="175" width="80" height="80" rx="40" fill="white"/>
<path d="M259 195.5C255.143 195.5 251.373 196.644 248.166 198.786C244.96 200.929 242.46 203.975 240.984 207.538C239.508 211.101 239.122 215.022 239.875 218.804C240.627 222.587 242.484 226.061 245.211 228.789C247.939 231.516 251.413 233.373 255.196 234.125C258.978 234.878 262.899 234.492 266.462 233.016C270.025 231.54 273.071 229.04 275.214 225.834C277.356 222.627 278.5 218.857 278.5 215C278.495 209.83 276.438 204.873 272.783 201.217C269.127 197.562 264.17 195.505 259 195.5ZM261.25 224H260.5V225.5C260.5 225.898 260.342 226.279 260.061 226.561C259.779 226.842 259.398 227 259 227C258.602 227 258.221 226.842 257.939 226.561C257.658 226.279 257.5 225.898 257.5 225.5V224H254.5C254.102 224 253.721 223.842 253.439 223.561C253.158 223.279 253 222.898 253 222.5C253 222.102 253.158 221.721 253.439 221.439C253.721 221.158 254.102 221 254.5 221H261.25C261.847 221 262.419 220.763 262.841 220.341C263.263 219.919 263.5 219.347 263.5 218.75C263.5 218.153 263.263 217.581 262.841 217.159C262.419 216.737 261.847 216.5 261.25 216.5H256.75C255.358 216.5 254.022 215.947 253.038 214.962C252.053 213.978 251.5 212.642 251.5 211.25C251.5 209.858 252.053 208.522 253.038 207.538C254.022 206.553 255.358 206 256.75 206H257.5V204.5C257.5 204.102 257.658 203.721 257.939 203.439C258.221 203.158 258.602 203 259 203C259.398 203 259.779 203.158 260.061 203.439C260.342 203.721 260.5 204.102 260.5 204.5V206H263.5C263.898 206 264.279 206.158 264.561 206.439C264.842 206.721 265 207.102 265 207.5C265 207.898 264.842 208.279 264.561 208.561C264.279 208.842 263.898 209 263.5 209H256.75C256.153 209 255.581 209.237 255.159 209.659C254.737 210.081 254.5 210.653 254.5 211.25C254.5 211.847 254.737 212.419 255.159 212.841C255.581 213.263 256.153 213.5 256.75 213.5H261.25C262.642 213.5 263.978 214.053 264.962 215.038C265.947 216.022 266.5 217.358 266.5 218.75C266.5 220.142 265.947 221.478 264.962 222.462C263.978 223.447 262.642 224 261.25 224Z" fill="black"/>
<path d="M200.394 291V277.909H208.908V279.897H202.765V283.451H208.467V285.439H202.765V289.012H208.959V291H200.394ZM213.539 285.247V291H211.225V281.182H213.437V282.85H213.552C213.778 282.3 214.138 281.864 214.632 281.54C215.131 281.216 215.746 281.054 216.479 281.054C217.157 281.054 217.747 281.199 218.25 281.489C218.757 281.778 219.149 282.198 219.426 282.748C219.707 283.298 219.846 283.964 219.842 284.749V291H217.528V285.107C217.528 284.45 217.357 283.937 217.016 283.566C216.68 283.195 216.213 283.01 215.616 283.01C215.212 283.01 214.851 283.099 214.536 283.278C214.225 283.453 213.98 283.707 213.801 284.039C213.626 284.371 213.539 284.774 213.539 285.247ZM227.097 281.182V282.972H221.452V281.182H227.097ZM222.846 278.83H225.16V288.047C225.16 288.358 225.207 288.597 225.3 288.763C225.398 288.925 225.526 289.036 225.684 289.095C225.842 289.155 226.016 289.185 226.208 289.185C226.353 289.185 226.485 289.174 226.604 289.153C226.728 289.131 226.822 289.112 226.886 289.095L227.275 290.904C227.152 290.947 226.975 290.994 226.745 291.045C226.519 291.096 226.242 291.126 225.914 291.134C225.334 291.151 224.812 291.064 224.348 290.872C223.883 290.676 223.515 290.374 223.242 289.964C222.974 289.555 222.842 289.044 222.846 288.43V278.83ZM233.273 291.192C232.288 291.192 231.438 290.987 230.722 290.578C230.011 290.165 229.463 289.581 229.08 288.827C228.696 288.068 228.504 287.175 228.504 286.148C228.504 285.138 228.696 284.252 229.08 283.489C229.467 282.722 230.009 282.126 230.703 281.7C231.398 281.269 232.214 281.054 233.151 281.054C233.756 281.054 234.328 281.152 234.864 281.348C235.406 281.54 235.883 281.838 236.296 282.243C236.714 282.648 237.042 283.163 237.281 283.79C237.519 284.412 237.639 285.153 237.639 286.014V286.724H229.591V285.164H235.421C235.416 284.721 235.32 284.327 235.133 283.982C234.945 283.632 234.683 283.357 234.347 283.157C234.014 282.957 233.627 282.857 233.183 282.857C232.71 282.857 232.295 282.972 231.937 283.202C231.579 283.428 231.3 283.726 231.1 284.097C230.903 284.463 230.803 284.866 230.799 285.305V286.666C230.799 287.237 230.903 287.727 231.112 288.136C231.321 288.541 231.613 288.852 231.988 289.07C232.363 289.283 232.802 289.389 233.305 289.389C233.641 289.389 233.946 289.342 234.219 289.249C234.492 289.151 234.728 289.008 234.928 288.82C235.129 288.633 235.28 288.401 235.382 288.124L237.543 288.366C237.406 288.937 237.146 289.436 236.763 289.862C236.384 290.284 235.898 290.612 235.305 290.847C234.713 291.077 234.036 291.192 233.273 291.192ZM239.596 291V281.182H241.84V282.818H241.942C242.121 282.251 242.428 281.815 242.862 281.508C243.301 281.197 243.802 281.041 244.365 281.041C244.492 281.041 244.635 281.048 244.793 281.06C244.955 281.069 245.089 281.084 245.196 281.105V283.234C245.098 283.2 244.942 283.17 244.729 283.144C244.52 283.114 244.318 283.099 244.122 283.099C243.7 283.099 243.321 283.191 242.984 283.374C242.652 283.553 242.389 283.803 242.198 284.122C242.006 284.442 241.91 284.81 241.91 285.228V291H239.596ZM252.981 291H250.45L255.059 277.909H257.986L262.601 291H260.07L256.573 280.594H256.471L252.981 291ZM253.064 285.867H259.968V287.772H253.064V285.867ZM264.223 291V281.182H266.435V282.85H266.55C266.754 282.288 267.093 281.849 267.566 281.533C268.039 281.214 268.604 281.054 269.26 281.054C269.925 281.054 270.485 281.216 270.941 281.54C271.401 281.859 271.725 282.296 271.913 282.85H272.015C272.232 282.305 272.599 281.87 273.114 281.546C273.634 281.218 274.25 281.054 274.962 281.054C275.865 281.054 276.602 281.339 277.173 281.911C277.744 282.482 278.03 283.315 278.03 284.41V291H275.71V284.768C275.71 284.158 275.548 283.713 275.224 283.432C274.9 283.146 274.504 283.004 274.035 283.004C273.477 283.004 273.04 283.178 272.725 283.528C272.413 283.873 272.258 284.322 272.258 284.876V291H269.989V284.672C269.989 284.165 269.835 283.76 269.528 283.457C269.226 283.155 268.83 283.004 268.34 283.004C268.007 283.004 267.705 283.089 267.432 283.259C267.159 283.425 266.942 283.662 266.78 283.969C266.618 284.271 266.537 284.625 266.537 285.03V291H264.223ZM284.66 291.192C283.701 291.192 282.87 290.981 282.167 290.559C281.464 290.137 280.919 289.547 280.531 288.788C280.147 288.03 279.956 287.143 279.956 286.129C279.956 285.115 280.147 284.227 280.531 283.464C280.919 282.701 281.464 282.109 282.167 281.687C282.87 281.265 283.701 281.054 284.66 281.054C285.619 281.054 286.45 281.265 287.153 281.687C287.856 282.109 288.399 282.701 288.783 283.464C289.171 284.227 289.365 285.115 289.365 286.129C289.365 287.143 289.171 288.03 288.783 288.788C288.399 289.547 287.856 290.137 287.153 290.559C286.45 290.981 285.619 291.192 284.66 291.192ZM284.673 289.338C285.193 289.338 285.627 289.195 285.977 288.91C286.326 288.62 286.586 288.232 286.757 287.746C286.931 287.261 287.019 286.719 287.019 286.123C287.019 285.522 286.931 284.979 286.757 284.493C286.586 284.003 286.326 283.613 285.977 283.323C285.627 283.033 285.193 282.888 284.673 282.888C284.14 282.888 283.697 283.033 283.343 283.323C282.994 283.613 282.732 284.003 282.557 284.493C282.387 284.979 282.301 285.522 282.301 286.123C282.301 286.719 282.387 287.261 282.557 287.746C282.732 288.232 282.994 288.62 283.343 288.91C283.697 289.195 284.14 289.338 284.673 289.338ZM297.586 286.871V281.182H299.9V291H297.657V289.255H297.554C297.333 289.805 296.968 290.254 296.461 290.604C295.959 290.953 295.339 291.128 294.601 291.128C293.958 291.128 293.389 290.985 292.895 290.7C292.405 290.41 292.021 289.99 291.744 289.44C291.467 288.886 291.329 288.217 291.329 287.433V281.182H293.642V287.075C293.642 287.697 293.813 288.192 294.154 288.558C294.495 288.925 294.942 289.108 295.496 289.108C295.837 289.108 296.167 289.025 296.487 288.859C296.807 288.692 297.069 288.445 297.273 288.117C297.482 287.785 297.586 287.369 297.586 286.871ZM304.594 285.247V291H302.28V281.182H304.491V282.85H304.606C304.832 282.3 305.192 281.864 305.687 281.54C306.185 281.216 306.801 281.054 307.534 281.054C308.212 281.054 308.802 281.199 309.305 281.489C309.812 281.778 310.204 282.198 310.481 282.748C310.762 283.298 310.9 283.964 310.896 284.749V291H308.582V285.107C308.582 284.45 308.412 283.937 308.071 283.566C307.734 283.195 307.268 283.01 306.671 283.01C306.266 283.01 305.906 283.099 305.591 283.278C305.28 283.453 305.035 283.707 304.856 284.039C304.681 284.371 304.594 284.774 304.594 285.247ZM318.151 281.182V282.972H312.507V281.182H318.151ZM313.9 278.83H316.214V288.047C316.214 288.358 316.261 288.597 316.355 288.763C316.453 288.925 316.581 289.036 316.739 289.095C316.896 289.155 317.071 289.185 317.263 289.185C317.408 289.185 317.54 289.174 317.659 289.153C317.783 289.131 317.876 289.112 317.94 289.095L318.33 290.904C318.207 290.947 318.03 290.994 317.8 291.045C317.574 291.096 317.297 291.126 316.969 291.134C316.389 291.151 315.867 291.064 315.403 290.872C314.938 290.676 314.57 290.374 314.297 289.964C314.028 289.555 313.896 289.044 313.9 288.43V278.83Z" fill="white"/>
<path opacity="0.8" d="M176.886 319V307.364H183.908V308.614H178.295V312.545H183.545V313.795H178.295V317.75H183.999V319H176.886ZM187.607 313.75V319H186.266V310.273H187.562V311.636H187.675C187.88 311.193 188.191 310.837 188.607 310.568C189.024 310.295 189.562 310.159 190.221 310.159C190.812 310.159 191.329 310.28 191.772 310.523C192.215 310.761 192.56 311.125 192.806 311.614C193.052 312.098 193.175 312.712 193.175 313.455V319H191.835V313.545C191.835 312.86 191.656 312.326 191.3 311.943C190.944 311.557 190.456 311.364 189.835 311.364C189.406 311.364 189.024 311.456 188.687 311.642C188.353 311.828 188.09 312.098 187.897 312.455C187.704 312.811 187.607 313.242 187.607 313.75ZM199.421 310.273V311.409H194.898V310.273H199.421ZM196.217 308.182H197.558V316.5C197.558 316.879 197.612 317.163 197.722 317.352C197.836 317.538 197.98 317.663 198.154 317.727C198.332 317.788 198.52 317.818 198.717 317.818C198.864 317.818 198.986 317.811 199.08 317.795C199.175 317.777 199.251 317.761 199.308 317.75L199.58 318.955C199.489 318.989 199.362 319.023 199.2 319.057C199.037 319.095 198.83 319.114 198.58 319.114C198.201 319.114 197.83 319.032 197.467 318.869C197.107 318.706 196.808 318.458 196.569 318.125C196.334 317.792 196.217 317.371 196.217 316.864V308.182ZM205.004 319.182C204.163 319.182 203.437 318.996 202.827 318.625C202.221 318.25 201.754 317.727 201.424 317.057C201.098 316.383 200.935 315.598 200.935 314.705C200.935 313.811 201.098 313.023 201.424 312.341C201.754 311.655 202.212 311.121 202.799 310.739C203.39 310.352 204.079 310.159 204.867 310.159C205.322 310.159 205.771 310.235 206.214 310.386C206.657 310.538 207.06 310.784 207.424 311.125C207.788 311.462 208.077 311.909 208.293 312.466C208.509 313.023 208.617 313.708 208.617 314.523V315.091H201.89V313.932H207.254C207.254 313.439 207.155 313 206.958 312.614C206.765 312.227 206.488 311.922 206.129 311.699C205.772 311.475 205.352 311.364 204.867 311.364C204.333 311.364 203.871 311.496 203.481 311.761C203.094 312.023 202.797 312.364 202.589 312.784C202.38 313.205 202.276 313.655 202.276 314.136V314.909C202.276 315.568 202.39 316.127 202.617 316.585C202.848 317.04 203.168 317.386 203.577 317.625C203.987 317.86 204.462 317.977 205.004 317.977C205.356 317.977 205.674 317.928 205.958 317.83C206.246 317.727 206.494 317.576 206.702 317.375C206.911 317.17 207.072 316.917 207.185 316.614L208.481 316.977C208.344 317.417 208.115 317.803 207.793 318.136C207.471 318.466 207.074 318.723 206.6 318.909C206.127 319.091 205.594 319.182 205.004 319.182ZM210.657 319V310.273H211.952V311.591H212.043C212.202 311.159 212.49 310.809 212.907 310.54C213.324 310.271 213.793 310.136 214.316 310.136C214.415 310.136 214.538 310.138 214.685 310.142C214.833 310.146 214.945 310.152 215.021 310.159V311.523C214.975 311.511 214.871 311.494 214.708 311.472C214.549 311.445 214.38 311.432 214.202 311.432C213.778 311.432 213.399 311.521 213.066 311.699C212.737 311.873 212.475 312.116 212.282 312.426C212.093 312.733 211.998 313.083 211.998 313.477V319H210.657ZM224.906 310.273V311.409H220.383V310.273H224.906ZM221.701 308.182H223.042V316.5C223.042 316.879 223.097 317.163 223.207 317.352C223.32 317.538 223.464 317.663 223.638 317.727C223.817 317.788 224.004 317.818 224.201 317.818C224.349 317.818 224.47 317.811 224.565 317.795C224.659 317.777 224.735 317.761 224.792 317.75L225.065 318.955C224.974 318.989 224.847 319.023 224.684 319.057C224.521 319.095 224.315 319.114 224.065 319.114C223.686 319.114 223.315 319.032 222.951 318.869C222.591 318.706 222.292 318.458 222.053 318.125C221.818 317.792 221.701 317.371 221.701 316.864V308.182ZM228.451 313.75V319H227.11V307.364H228.451V311.636H228.565C228.769 311.186 229.076 310.828 229.485 310.562C229.898 310.294 230.447 310.159 231.133 310.159C231.728 310.159 232.248 310.278 232.695 310.517C233.142 310.752 233.489 311.114 233.735 311.602C233.985 312.087 234.11 312.705 234.11 313.455V319H232.769V313.545C232.769 312.852 232.589 312.316 232.229 311.938C231.873 311.555 231.379 311.364 230.746 311.364C230.307 311.364 229.913 311.456 229.565 311.642C229.22 311.828 228.947 312.098 228.746 312.455C228.549 312.811 228.451 313.242 228.451 313.75ZM240.222 319.182C239.381 319.182 238.656 318.996 238.046 318.625C237.44 318.25 236.972 317.727 236.643 317.057C236.317 316.383 236.154 315.598 236.154 314.705C236.154 313.811 236.317 313.023 236.643 312.341C236.972 311.655 237.431 311.121 238.018 310.739C238.609 310.352 239.298 310.159 240.086 310.159C240.54 310.159 240.989 310.235 241.433 310.386C241.876 310.538 242.279 310.784 242.643 311.125C243.006 311.462 243.296 311.909 243.512 312.466C243.728 313.023 243.836 313.708 243.836 314.523V315.091H237.109V313.932H242.472C242.472 313.439 242.374 313 242.177 312.614C241.984 312.227 241.707 311.922 241.347 311.699C240.991 311.475 240.571 311.364 240.086 311.364C239.552 311.364 239.09 311.496 238.7 311.761C238.313 312.023 238.016 312.364 237.808 312.784C237.599 313.205 237.495 313.655 237.495 314.136V314.909C237.495 315.568 237.609 316.127 237.836 316.585C238.067 317.04 238.387 317.386 238.796 317.625C239.205 317.86 239.681 317.977 240.222 317.977C240.575 317.977 240.893 317.928 241.177 317.83C241.465 317.727 241.713 317.576 241.921 317.375C242.129 317.17 242.29 316.917 242.404 316.614L243.7 316.977C243.563 317.417 243.334 317.803 243.012 318.136C242.69 318.466 242.292 318.723 241.819 318.909C241.345 319.091 240.813 319.182 240.222 319.182ZM252.944 319.205C252.391 319.205 251.889 319.1 251.438 318.892C250.987 318.68 250.629 318.375 250.364 317.977C250.099 317.576 249.967 317.091 249.967 316.523C249.967 316.023 250.065 315.617 250.262 315.307C250.459 314.992 250.722 314.746 251.052 314.568C251.381 314.39 251.745 314.258 252.143 314.17C252.544 314.08 252.948 314.008 253.353 313.955C253.883 313.886 254.313 313.835 254.643 313.801C254.976 313.763 255.219 313.701 255.37 313.614C255.525 313.527 255.603 313.375 255.603 313.159V313.114C255.603 312.553 255.45 312.117 255.143 311.807C254.84 311.496 254.379 311.341 253.762 311.341C253.122 311.341 252.62 311.481 252.256 311.761C251.893 312.042 251.637 312.341 251.489 312.659L250.217 312.205C250.444 311.674 250.747 311.261 251.126 310.966C251.508 310.667 251.925 310.458 252.376 310.341C252.83 310.22 253.277 310.159 253.717 310.159C253.997 310.159 254.319 310.193 254.683 310.261C255.05 310.326 255.404 310.46 255.745 310.665C256.09 310.869 256.376 311.178 256.603 311.591C256.83 312.004 256.944 312.557 256.944 313.25V319H255.603V317.818H255.535C255.444 318.008 255.292 318.21 255.08 318.426C254.868 318.642 254.586 318.826 254.234 318.977C253.881 319.129 253.451 319.205 252.944 319.205ZM253.148 318C253.679 318 254.126 317.896 254.489 317.688C254.857 317.479 255.133 317.21 255.319 316.881C255.508 316.551 255.603 316.205 255.603 315.841V314.614C255.546 314.682 255.421 314.744 255.228 314.801C255.039 314.854 254.819 314.902 254.569 314.943C254.323 314.981 254.082 315.015 253.847 315.045C253.616 315.072 253.429 315.095 253.285 315.114C252.936 315.159 252.611 315.233 252.308 315.335C252.008 315.434 251.766 315.583 251.58 315.784C251.398 315.981 251.308 316.25 251.308 316.591C251.308 317.057 251.48 317.409 251.825 317.648C252.173 317.883 252.614 318 253.148 318ZM259.391 319V310.273H260.687V311.636H260.8C260.982 311.17 261.276 310.809 261.681 310.551C262.086 310.29 262.573 310.159 263.141 310.159C263.717 310.159 264.196 310.29 264.579 310.551C264.965 310.809 265.266 311.17 265.482 311.636H265.573C265.797 311.186 266.132 310.828 266.579 310.562C267.026 310.294 267.562 310.159 268.187 310.159C268.967 310.159 269.605 310.403 270.102 310.892C270.598 311.377 270.846 312.133 270.846 313.159V319H269.505V313.159C269.505 312.515 269.329 312.055 268.977 311.778C268.624 311.502 268.21 311.364 267.732 311.364C267.119 311.364 266.643 311.549 266.306 311.92C265.969 312.288 265.8 312.754 265.8 313.318V319H264.437V313.023C264.437 312.527 264.276 312.127 263.954 311.824C263.632 311.517 263.217 311.364 262.71 311.364C262.361 311.364 262.035 311.456 261.732 311.642C261.433 311.828 261.191 312.085 261.005 312.415C260.823 312.741 260.732 313.117 260.732 313.545V319H259.391ZM276.843 319.182C276.055 319.182 275.364 318.994 274.769 318.619C274.178 318.244 273.716 317.72 273.383 317.045C273.053 316.371 272.888 315.583 272.888 314.682C272.888 313.773 273.053 312.979 273.383 312.301C273.716 311.623 274.178 311.097 274.769 310.722C275.364 310.347 276.055 310.159 276.843 310.159C277.631 310.159 278.32 310.347 278.911 310.722C279.506 311.097 279.968 311.623 280.298 312.301C280.631 312.979 280.798 313.773 280.798 314.682C280.798 315.583 280.631 316.371 280.298 317.045C279.968 317.72 279.506 318.244 278.911 318.619C278.32 318.994 277.631 319.182 276.843 319.182ZM276.843 317.977C277.442 317.977 277.934 317.824 278.32 317.517C278.707 317.21 278.993 316.807 279.178 316.307C279.364 315.807 279.457 315.265 279.457 314.682C279.457 314.098 279.364 313.555 279.178 313.051C278.993 312.547 278.707 312.14 278.32 311.83C277.934 311.519 277.442 311.364 276.843 311.364C276.245 311.364 275.752 311.519 275.366 311.83C274.979 312.14 274.693 312.547 274.508 313.051C274.322 313.555 274.229 314.098 274.229 314.682C274.229 315.265 274.322 315.807 274.508 316.307C274.693 316.807 274.979 317.21 275.366 317.517C275.752 317.824 276.245 317.977 276.843 317.977ZM288.344 315.432V310.273H289.685V319H288.344V317.523H288.254C288.049 317.966 287.731 318.343 287.299 318.653C286.867 318.96 286.322 319.114 285.663 319.114C285.117 319.114 284.632 318.994 284.208 318.756C283.784 318.513 283.451 318.15 283.208 317.665C282.966 317.176 282.844 316.561 282.844 315.818V310.273H284.185V315.727C284.185 316.364 284.363 316.871 284.719 317.25C285.079 317.629 285.538 317.818 286.094 317.818C286.428 317.818 286.767 317.733 287.112 317.562C287.46 317.392 287.752 317.131 287.987 316.778C288.225 316.426 288.344 315.977 288.344 315.432ZM293.482 313.75V319H292.141V310.273H293.437V311.636H293.55C293.755 311.193 294.066 310.837 294.482 310.568C294.899 310.295 295.437 310.159 296.096 310.159C296.687 310.159 297.204 310.28 297.647 310.523C298.09 310.761 298.435 311.125 298.681 311.614C298.927 312.098 299.05 312.712 299.05 313.455V319H297.71V313.545C297.71 312.86 297.531 312.326 297.175 311.943C296.819 311.557 296.331 311.364 295.71 311.364C295.281 311.364 294.899 311.456 294.562 311.642C294.228 311.828 293.965 312.098 293.772 312.455C293.579 312.811 293.482 313.242 293.482 313.75ZM305.296 310.273V311.409H300.773V310.273H305.296ZM302.092 308.182H303.433V316.5C303.433 316.879 303.487 317.163 303.597 317.352C303.711 317.538 303.855 317.663 304.029 317.727C304.207 317.788 304.395 317.818 304.592 317.818C304.739 317.818 304.861 317.811 304.955 317.795C305.05 317.777 305.126 317.761 305.183 317.75L305.455 318.955C305.364 318.989 305.237 319.023 305.075 319.057C304.912 319.095 304.705 319.114 304.455 319.114C304.076 319.114 303.705 319.032 303.342 318.869C302.982 318.706 302.683 318.458 302.444 318.125C302.209 317.792 302.092 317.371 302.092 316.864V308.182ZM312.677 322.273C312.45 322.273 312.247 322.254 312.069 322.216C311.891 322.182 311.768 322.148 311.7 322.114L312.04 320.932C312.366 321.015 312.654 321.045 312.904 321.023C313.154 321 313.376 320.888 313.569 320.688C313.766 320.491 313.946 320.17 314.109 319.727L314.359 319.045L311.131 310.273H312.586L314.995 317.227H315.086L317.495 310.273H318.95L315.245 320.273C315.078 320.723 314.872 321.097 314.626 321.392C314.379 321.691 314.094 321.913 313.768 322.057C313.446 322.201 313.082 322.273 312.677 322.273ZM323.952 319.182C323.165 319.182 322.473 318.994 321.879 318.619C321.288 318.244 320.826 317.72 320.492 317.045C320.163 316.371 319.998 315.583 319.998 314.682C319.998 313.773 320.163 312.979 320.492 312.301C320.826 311.623 321.288 311.097 321.879 310.722C322.473 310.347 323.165 310.159 323.952 310.159C324.74 310.159 325.43 310.347 326.021 310.722C326.615 311.097 327.077 311.623 327.407 312.301C327.74 312.979 327.907 313.773 327.907 314.682C327.907 315.583 327.74 316.371 327.407 317.045C327.077 317.72 326.615 318.244 326.021 318.619C325.43 318.994 324.74 319.182 323.952 319.182ZM323.952 317.977C324.551 317.977 325.043 317.824 325.43 317.517C325.816 317.21 326.102 316.807 326.288 316.307C326.473 315.807 326.566 315.265 326.566 314.682C326.566 314.098 326.473 313.555 326.288 313.051C326.102 312.547 325.816 312.14 325.43 311.83C325.043 311.519 324.551 311.364 323.952 311.364C323.354 311.364 322.862 311.519 322.475 311.83C322.089 312.14 321.803 312.547 321.617 313.051C321.432 313.555 321.339 314.098 321.339 314.682C321.339 315.265 321.432 315.807 321.617 316.307C321.803 316.807 322.089 317.21 322.475 317.517C322.862 317.824 323.354 317.977 323.952 317.977ZM335.454 315.432V310.273H336.795V319H335.454V317.523H335.363C335.158 317.966 334.84 318.343 334.408 318.653C333.977 318.96 333.431 319.114 332.772 319.114C332.227 319.114 331.742 318.994 331.317 318.756C330.893 318.513 330.56 318.15 330.317 317.665C330.075 317.176 329.954 316.561 329.954 315.818V310.273H331.295V315.727C331.295 316.364 331.473 316.871 331.829 317.25C332.189 317.629 332.647 317.818 333.204 317.818C333.537 317.818 333.876 317.733 334.221 317.562C334.569 317.392 334.861 317.131 335.096 316.778C335.335 316.426 335.454 315.977 335.454 315.432ZM214.283 343L211.624 334.273H213.033L214.919 340.955H215.01L216.874 334.273H218.305L220.146 340.932H220.237L222.124 334.273H223.533L220.874 343H219.555L217.646 336.295H217.51L215.601 343H214.283ZM225.305 343V334.273H226.646V343H225.305ZM225.987 332.818C225.726 332.818 225.5 332.729 225.311 332.551C225.125 332.373 225.033 332.159 225.033 331.909C225.033 331.659 225.125 331.445 225.311 331.267C225.5 331.089 225.726 331 225.987 331C226.249 331 226.472 331.089 226.658 331.267C226.847 331.445 226.942 331.659 226.942 331.909C226.942 332.159 226.847 332.373 226.658 332.551C226.472 332.729 226.249 332.818 225.987 332.818ZM235.284 336.227L234.08 336.568C234.004 336.367 233.892 336.172 233.744 335.983C233.6 335.79 233.403 335.631 233.153 335.506C232.903 335.381 232.583 335.318 232.193 335.318C231.659 335.318 231.214 335.441 230.858 335.688C230.506 335.93 230.33 336.239 230.33 336.614C230.33 336.947 230.451 337.21 230.693 337.403C230.936 337.597 231.314 337.758 231.83 337.886L233.125 338.205C233.905 338.394 234.487 338.684 234.869 339.074C235.252 339.46 235.443 339.958 235.443 340.568C235.443 341.068 235.299 341.515 235.011 341.909C234.727 342.303 234.33 342.614 233.818 342.841C233.307 343.068 232.712 343.182 232.034 343.182C231.144 343.182 230.407 342.989 229.824 342.602C229.241 342.216 228.871 341.652 228.716 340.909L229.989 340.591C230.11 341.061 230.339 341.413 230.676 341.648C231.017 341.883 231.462 342 232.011 342C232.636 342 233.133 341.867 233.5 341.602C233.871 341.333 234.057 341.011 234.057 340.636C234.057 340.333 233.951 340.08 233.739 339.875C233.527 339.667 233.201 339.511 232.761 339.409L231.307 339.068C230.508 338.879 229.92 338.585 229.545 338.188C229.174 337.786 228.989 337.284 228.989 336.682C228.989 336.189 229.127 335.754 229.403 335.375C229.684 334.996 230.064 334.699 230.545 334.483C231.03 334.267 231.58 334.159 232.193 334.159C233.057 334.159 233.735 334.348 234.227 334.727C234.723 335.106 235.076 335.606 235.284 336.227ZM238.803 337.75V343H237.462V331.364H238.803V335.636H238.916C239.121 335.186 239.428 334.828 239.837 334.562C240.25 334.294 240.799 334.159 241.484 334.159C242.079 334.159 242.6 334.278 243.047 334.517C243.494 334.752 243.84 335.114 244.087 335.602C244.337 336.087 244.462 336.705 244.462 337.455V343H243.121V337.545C243.121 336.852 242.941 336.316 242.581 335.938C242.225 335.555 241.731 335.364 241.098 335.364C240.659 335.364 240.265 335.456 239.916 335.642C239.571 335.828 239.299 336.098 239.098 336.455C238.901 336.811 238.803 337.242 238.803 337.75ZM255.21 334.273V335.409H250.688V334.273H255.21ZM252.006 332.182H253.347V340.5C253.347 340.879 253.402 341.163 253.511 341.352C253.625 341.538 253.769 341.663 253.943 341.727C254.121 341.788 254.309 341.818 254.506 341.818C254.653 341.818 254.775 341.811 254.869 341.795C254.964 341.777 255.04 341.761 255.097 341.75L255.369 342.955C255.278 342.989 255.152 343.023 254.989 343.057C254.826 343.095 254.619 343.114 254.369 343.114C253.991 343.114 253.619 343.032 253.256 342.869C252.896 342.706 252.597 342.458 252.358 342.125C252.123 341.792 252.006 341.371 252.006 340.864V332.182ZM260.679 343.182C259.891 343.182 259.2 342.994 258.605 342.619C258.014 342.244 257.552 341.72 257.219 341.045C256.889 340.371 256.724 339.583 256.724 338.682C256.724 337.773 256.889 336.979 257.219 336.301C257.552 335.623 258.014 335.097 258.605 334.722C259.2 334.347 259.891 334.159 260.679 334.159C261.467 334.159 262.156 334.347 262.747 334.722C263.342 335.097 263.804 335.623 264.134 336.301C264.467 336.979 264.634 337.773 264.634 338.682C264.634 339.583 264.467 340.371 264.134 341.045C263.804 341.72 263.342 342.244 262.747 342.619C262.156 342.994 261.467 343.182 260.679 343.182ZM260.679 341.977C261.277 341.977 261.77 341.824 262.156 341.517C262.543 341.21 262.829 340.807 263.014 340.307C263.2 339.807 263.293 339.265 263.293 338.682C263.293 338.098 263.2 337.555 263.014 337.051C262.829 336.547 262.543 336.14 262.156 335.83C261.77 335.519 261.277 335.364 260.679 335.364C260.08 335.364 259.588 335.519 259.202 335.83C258.815 336.14 258.529 336.547 258.344 337.051C258.158 337.555 258.065 338.098 258.065 338.682C258.065 339.265 258.158 339.807 258.344 340.307C258.529 340.807 258.815 341.21 259.202 341.517C259.588 341.824 260.08 341.977 260.679 341.977ZM277.362 336.227L276.158 336.568C276.082 336.367 275.97 336.172 275.822 335.983C275.679 335.79 275.482 335.631 275.232 335.506C274.982 335.381 274.661 335.318 274.271 335.318C273.737 335.318 273.292 335.441 272.936 335.688C272.584 335.93 272.408 336.239 272.408 336.614C272.408 336.947 272.529 337.21 272.771 337.403C273.014 337.597 273.393 337.758 273.908 337.886L275.203 338.205C275.983 338.394 276.565 338.684 276.947 339.074C277.33 339.46 277.521 339.958 277.521 340.568C277.521 341.068 277.377 341.515 277.089 341.909C276.805 342.303 276.408 342.614 275.896 342.841C275.385 343.068 274.79 343.182 274.112 343.182C273.222 343.182 272.485 342.989 271.902 342.602C271.319 342.216 270.949 341.652 270.794 340.909L272.067 340.591C272.188 341.061 272.417 341.413 272.754 341.648C273.095 341.883 273.54 342 274.089 342C274.714 342 275.211 341.867 275.578 341.602C275.949 341.333 276.135 341.011 276.135 340.636C276.135 340.333 276.029 340.08 275.817 339.875C275.605 339.667 275.279 339.511 274.839 339.409L273.385 339.068C272.586 338.879 271.999 338.585 271.624 338.188C271.252 337.786 271.067 337.284 271.067 336.682C271.067 336.189 271.205 335.754 271.482 335.375C271.762 334.996 272.143 334.699 272.624 334.483C273.108 334.267 273.658 334.159 274.271 334.159C275.135 334.159 275.813 334.348 276.305 334.727C276.802 335.106 277.154 335.606 277.362 336.227ZM283.199 343.182C282.358 343.182 281.633 342.996 281.023 342.625C280.417 342.25 279.949 341.727 279.619 341.057C279.294 340.383 279.131 339.598 279.131 338.705C279.131 337.811 279.294 337.023 279.619 336.341C279.949 335.655 280.407 335.121 280.994 334.739C281.585 334.352 282.275 334.159 283.062 334.159C283.517 334.159 283.966 334.235 284.409 334.386C284.852 334.538 285.256 334.784 285.619 335.125C285.983 335.462 286.273 335.909 286.489 336.466C286.705 337.023 286.812 337.708 286.812 338.523V339.091H280.085V337.932H285.449C285.449 337.439 285.35 337 285.153 336.614C284.96 336.227 284.684 335.922 284.324 335.699C283.968 335.475 283.547 335.364 283.062 335.364C282.528 335.364 282.066 335.496 281.676 335.761C281.29 336.023 280.992 336.364 280.784 336.784C280.576 337.205 280.472 337.655 280.472 338.136V338.909C280.472 339.568 280.585 340.127 280.812 340.585C281.044 341.04 281.364 341.386 281.773 341.625C282.182 341.86 282.657 341.977 283.199 341.977C283.551 341.977 283.869 341.928 284.153 341.83C284.441 341.727 284.689 341.576 284.898 341.375C285.106 341.17 285.267 340.917 285.381 340.614L286.676 340.977C286.54 341.417 286.311 341.803 285.989 342.136C285.667 342.466 285.269 342.723 284.795 342.909C284.322 343.091 283.79 343.182 283.199 343.182ZM290.193 337.75V343H288.852V334.273H290.148V335.636H290.261C290.466 335.193 290.777 334.837 291.193 334.568C291.61 334.295 292.148 334.159 292.807 334.159C293.398 334.159 293.915 334.28 294.358 334.523C294.801 334.761 295.146 335.125 295.392 335.614C295.638 336.098 295.761 336.712 295.761 337.455V343H294.42V337.545C294.42 336.86 294.242 336.326 293.886 335.943C293.53 335.557 293.042 335.364 292.42 335.364C291.992 335.364 291.61 335.456 291.273 335.642C290.939 335.828 290.676 336.098 290.483 336.455C290.29 336.811 290.193 337.242 290.193 337.75ZM301.507 343.182C300.78 343.182 300.138 342.998 299.581 342.631C299.024 342.259 298.589 341.737 298.274 341.062C297.96 340.384 297.803 339.583 297.803 338.659C297.803 337.742 297.96 336.947 298.274 336.273C298.589 335.598 299.026 335.078 299.587 334.71C300.147 334.343 300.795 334.159 301.53 334.159C302.098 334.159 302.547 334.254 302.876 334.443C303.21 334.629 303.464 334.841 303.638 335.08C303.816 335.314 303.954 335.508 304.053 335.659H304.166V331.364H305.507V343H304.212V341.659H304.053C303.954 341.818 303.814 342.019 303.632 342.261C303.45 342.5 303.191 342.714 302.854 342.903C302.517 343.089 302.068 343.182 301.507 343.182ZM301.689 341.977C302.227 341.977 302.681 341.837 303.053 341.557C303.424 341.273 303.706 340.881 303.899 340.381C304.092 339.877 304.189 339.295 304.189 338.636C304.189 337.985 304.094 337.415 303.905 336.926C303.715 336.434 303.435 336.051 303.064 335.778C302.693 335.502 302.234 335.364 301.689 335.364C301.121 335.364 300.647 335.509 300.268 335.801C299.893 336.089 299.611 336.481 299.422 336.977C299.236 337.47 299.143 338.023 299.143 338.636C299.143 339.258 299.238 339.822 299.428 340.33C299.621 340.833 299.905 341.235 300.28 341.534C300.659 341.83 301.128 341.977 301.689 341.977Z" fill="white"/>
<rect x="154.5" y="381.5" width="209" height="193" rx="31.5" stroke="#E5E5E5"/>
<rect x="219" y="405" width="80" height="80" rx="40" fill="#F3F4F4"/>
<path d="M259 425.5C255.143 425.5 251.373 426.644 248.166 428.786C244.96 430.929 242.46 433.975 240.984 437.538C239.508 441.101 239.122 445.022 239.875 448.804C240.627 452.587 242.484 456.061 245.211 458.789C247.939 461.516 251.413 463.373 255.196 464.125C258.978 464.878 262.899 464.492 266.462 463.016C270.025 461.54 273.071 459.04 275.214 455.834C277.356 452.627 278.5 448.857 278.5 445C278.495 439.83 276.438 434.873 272.783 431.217C269.127 427.562 264.17 425.505 259 425.5ZM267.561 441.561L257.061 452.061C256.922 452.201 256.757 452.311 256.574 452.387C256.392 452.462 256.197 452.501 256 452.501C255.803 452.501 255.608 452.462 255.426 452.387C255.244 452.311 255.078 452.201 254.939 452.061L250.439 447.561C250.157 447.28 249.999 446.898 249.999 446.5C249.999 446.102 250.157 445.72 250.439 445.439C250.72 445.157 251.102 444.999 251.5 444.999C251.898 444.999 252.28 445.157 252.561 445.439L256 448.879L265.439 439.439C265.578 439.299 265.744 439.189 265.926 439.113C266.108 439.038 266.303 438.999 266.5 438.999C266.697 438.999 266.892 439.038 267.074 439.113C267.256 439.189 267.422 439.299 267.561 439.439C267.701 439.578 267.811 439.744 267.887 439.926C267.962 440.108 268.001 440.303 268.001 440.5C268.001 440.697 267.962 440.892 267.887 441.074C267.811 441.256 267.701 441.422 267.561 441.561Z" fill="#525252"/>
<path d="M225.045 511.29H222.92C222.86 510.941 222.748 510.633 222.585 510.364C222.422 510.091 222.22 509.86 221.977 509.67C221.735 509.481 221.458 509.339 221.148 509.244C220.841 509.146 220.509 509.097 220.153 509.097C219.521 509.097 218.96 509.256 218.472 509.574C217.983 509.888 217.6 510.35 217.324 510.96C217.047 511.566 216.909 512.307 216.909 513.182C216.909 514.072 217.047 514.822 217.324 515.432C217.604 516.038 217.987 516.496 218.472 516.807C218.96 517.114 219.519 517.267 220.148 517.267C220.496 517.267 220.822 517.222 221.125 517.131C221.432 517.036 221.706 516.898 221.949 516.716C222.195 516.534 222.402 516.311 222.568 516.045C222.739 515.78 222.856 515.477 222.92 515.136L225.045 515.148C224.966 515.701 224.794 516.22 224.528 516.705C224.267 517.189 223.924 517.617 223.5 517.989C223.076 518.356 222.58 518.644 222.011 518.852C221.443 519.057 220.813 519.159 220.119 519.159C219.097 519.159 218.184 518.922 217.381 518.449C216.578 517.975 215.945 517.292 215.483 516.398C215.021 515.504 214.79 514.432 214.79 513.182C214.79 511.928 215.023 510.856 215.489 509.966C215.955 509.072 216.589 508.388 217.392 507.915C218.195 507.441 219.104 507.205 220.119 507.205C220.767 507.205 221.369 507.295 221.926 507.477C222.483 507.659 222.979 507.926 223.415 508.278C223.85 508.627 224.208 509.055 224.489 509.562C224.773 510.066 224.958 510.642 225.045 511.29ZM230.692 519.17C229.839 519.17 229.101 518.983 228.476 518.608C227.851 518.233 227.366 517.708 227.021 517.034C226.68 516.36 226.51 515.572 226.51 514.67C226.51 513.769 226.68 512.979 227.021 512.301C227.366 511.623 227.851 511.097 228.476 510.722C229.101 510.347 229.839 510.159 230.692 510.159C231.544 510.159 232.283 510.347 232.908 510.722C233.533 511.097 234.016 511.623 234.357 512.301C234.701 512.979 234.874 513.769 234.874 514.67C234.874 515.572 234.701 516.36 234.357 517.034C234.016 517.708 233.533 518.233 232.908 518.608C232.283 518.983 231.544 519.17 230.692 519.17ZM230.703 517.523C231.165 517.523 231.552 517.396 231.862 517.142C232.173 516.884 232.404 516.54 232.555 516.108C232.711 515.676 232.788 515.195 232.788 514.665C232.788 514.131 232.711 513.648 232.555 513.216C232.404 512.78 232.173 512.434 231.862 512.176C231.552 511.919 231.165 511.79 230.703 511.79C230.23 511.79 229.836 511.919 229.521 512.176C229.211 512.434 228.978 512.78 228.822 513.216C228.671 513.648 228.595 514.131 228.595 514.665C228.595 515.195 228.671 515.676 228.822 516.108C228.978 516.54 229.211 516.884 229.521 517.142C229.836 517.396 230.23 517.523 230.703 517.523ZM236.619 519V510.273H238.585V511.756H238.688C238.869 511.256 239.17 510.866 239.591 510.585C240.011 510.301 240.513 510.159 241.097 510.159C241.688 510.159 242.186 510.303 242.591 510.591C243 510.875 243.288 511.263 243.455 511.756H243.545C243.739 511.271 244.064 510.884 244.523 510.597C244.985 510.305 245.532 510.159 246.165 510.159C246.968 510.159 247.623 510.413 248.131 510.92C248.638 511.428 248.892 512.169 248.892 513.142V519H246.83V513.46C246.83 512.919 246.686 512.523 246.398 512.273C246.11 512.019 245.758 511.892 245.341 511.892C244.845 511.892 244.456 512.047 244.176 512.358C243.9 512.665 243.761 513.064 243.761 513.557V519H241.744V513.375C241.744 512.924 241.608 512.564 241.335 512.295C241.066 512.027 240.714 511.892 240.278 511.892C239.983 511.892 239.714 511.968 239.472 512.119C239.229 512.267 239.036 512.477 238.892 512.75C238.748 513.019 238.676 513.333 238.676 513.693V519H236.619ZM250.979 522.273V510.273H253.001V511.716H253.121C253.227 511.504 253.376 511.278 253.57 511.04C253.763 510.797 254.024 510.591 254.354 510.42C254.683 510.246 255.104 510.159 255.615 510.159C256.289 510.159 256.897 510.331 257.439 510.676C257.984 511.017 258.416 511.523 258.734 512.193C259.056 512.86 259.217 513.678 259.217 514.648C259.217 515.606 259.06 516.42 258.746 517.091C258.431 517.761 258.003 518.273 257.462 518.625C256.92 518.977 256.306 519.153 255.621 519.153C255.121 519.153 254.706 519.07 254.376 518.903C254.047 518.737 253.782 518.536 253.581 518.301C253.384 518.062 253.231 517.837 253.121 517.625H253.036V522.273H250.979ZM252.996 514.636C252.996 515.201 253.075 515.695 253.234 516.119C253.397 516.544 253.63 516.875 253.933 517.114C254.24 517.348 254.611 517.466 255.047 517.466C255.501 517.466 255.882 517.345 256.189 517.102C256.496 516.856 256.727 516.521 256.882 516.097C257.041 515.669 257.121 515.182 257.121 514.636C257.121 514.095 257.043 513.614 256.888 513.193C256.732 512.773 256.501 512.443 256.195 512.205C255.888 511.966 255.505 511.847 255.047 511.847C254.607 511.847 254.234 511.962 253.928 512.193C253.621 512.424 253.388 512.748 253.229 513.165C253.073 513.581 252.996 514.072 252.996 514.636ZM263.036 507.364V519H260.979V507.364H263.036ZM269.014 519.17C268.139 519.17 267.384 518.989 266.747 518.625C266.115 518.258 265.628 517.739 265.287 517.068C264.946 516.394 264.776 515.6 264.776 514.688C264.776 513.79 264.946 513.002 265.287 512.324C265.632 511.642 266.113 511.112 266.73 510.733C267.348 510.35 268.073 510.159 268.906 510.159C269.444 510.159 269.952 510.246 270.429 510.42C270.91 510.591 271.334 510.856 271.702 511.216C272.073 511.576 272.365 512.034 272.577 512.591C272.789 513.144 272.895 513.803 272.895 514.568V515.199H265.741V513.812H270.923C270.92 513.419 270.834 513.068 270.668 512.761C270.501 512.451 270.268 512.206 269.969 512.028C269.673 511.85 269.329 511.761 268.935 511.761C268.514 511.761 268.145 511.864 267.827 512.068C267.509 512.269 267.26 512.534 267.082 512.864C266.908 513.189 266.819 513.547 266.815 513.938V515.148C266.815 515.655 266.908 516.091 267.094 516.455C267.279 516.814 267.539 517.091 267.872 517.284C268.205 517.473 268.596 517.568 269.043 517.568C269.342 517.568 269.613 517.527 269.855 517.443C270.098 517.356 270.308 517.229 270.486 517.062C270.664 516.896 270.798 516.689 270.889 516.443L272.81 516.659C272.688 517.167 272.457 517.61 272.116 517.989C271.779 518.364 271.348 518.655 270.821 518.864C270.295 519.068 269.692 519.17 269.014 519.17ZM278.993 510.273V511.864H273.976V510.273H278.993ZM275.214 508.182H277.271V516.375C277.271 516.652 277.313 516.864 277.396 517.011C277.483 517.155 277.597 517.254 277.737 517.307C277.877 517.36 278.033 517.386 278.203 517.386C278.332 517.386 278.449 517.377 278.555 517.358C278.665 517.339 278.749 517.322 278.805 517.307L279.152 518.915C279.042 518.953 278.885 518.994 278.68 519.04C278.48 519.085 278.233 519.112 277.942 519.119C277.427 519.134 276.963 519.057 276.55 518.886C276.137 518.712 275.809 518.443 275.567 518.08C275.328 517.716 275.211 517.261 275.214 516.716V508.182ZM284.483 519.17C283.608 519.17 282.852 518.989 282.216 518.625C281.583 518.258 281.097 517.739 280.756 517.068C280.415 516.394 280.244 515.6 280.244 514.688C280.244 513.79 280.415 513.002 280.756 512.324C281.1 511.642 281.581 511.112 282.199 510.733C282.816 510.35 283.542 510.159 284.375 510.159C284.913 510.159 285.42 510.246 285.898 510.42C286.379 510.591 286.803 510.856 287.17 511.216C287.542 511.576 287.833 512.034 288.045 512.591C288.258 513.144 288.364 513.803 288.364 514.568V515.199H281.21V513.812H286.392C286.388 513.419 286.303 513.068 286.136 512.761C285.97 512.451 285.737 512.206 285.438 512.028C285.142 511.85 284.797 511.761 284.403 511.761C283.983 511.761 283.614 511.864 283.295 512.068C282.977 512.269 282.729 512.534 282.551 512.864C282.377 513.189 282.288 513.547 282.284 513.938V515.148C282.284 515.655 282.377 516.091 282.562 516.455C282.748 516.814 283.008 517.091 283.341 517.284C283.674 517.473 284.064 517.568 284.511 517.568C284.811 517.568 285.081 517.527 285.324 517.443C285.566 517.356 285.777 517.229 285.955 517.062C286.133 516.896 286.267 516.689 286.358 516.443L288.278 516.659C288.157 517.167 287.926 517.61 287.585 517.989C287.248 518.364 286.816 518.655 286.29 518.864C285.763 519.068 285.161 519.17 284.483 519.17ZM293.342 519.153C292.657 519.153 292.043 518.977 291.501 518.625C290.96 518.273 290.532 517.761 290.217 517.091C289.903 516.42 289.746 515.606 289.746 514.648C289.746 513.678 289.905 512.86 290.223 512.193C290.545 511.523 290.979 511.017 291.524 510.676C292.07 510.331 292.678 510.159 293.348 510.159C293.859 510.159 294.28 510.246 294.609 510.42C294.939 510.591 295.2 510.797 295.393 511.04C295.587 511.278 295.736 511.504 295.842 511.716H295.928V507.364H297.99V519H295.967V517.625H295.842C295.736 517.837 295.583 518.062 295.382 518.301C295.181 518.536 294.916 518.737 294.587 518.903C294.257 519.07 293.842 519.153 293.342 519.153ZM293.916 517.466C294.352 517.466 294.723 517.348 295.03 517.114C295.337 516.875 295.57 516.544 295.729 516.119C295.888 515.695 295.967 515.201 295.967 514.636C295.967 514.072 295.888 513.581 295.729 513.165C295.573 512.748 295.342 512.424 295.036 512.193C294.732 511.962 294.359 511.847 293.916 511.847C293.458 511.847 293.075 511.966 292.768 512.205C292.462 512.443 292.231 512.773 292.075 513.193C291.92 513.614 291.842 514.095 291.842 514.636C291.842 515.182 291.92 515.669 292.075 516.097C292.234 516.521 292.467 516.856 292.774 517.102C293.085 517.345 293.465 517.466 293.916 517.466ZM302.699 507.364L302.511 515.58H300.682L300.5 507.364H302.699ZM301.597 519.125C301.252 519.125 300.956 519.004 300.71 518.761C300.468 518.519 300.347 518.223 300.347 517.875C300.347 517.534 300.468 517.242 300.71 517C300.956 516.758 301.252 516.636 301.597 516.636C301.934 516.636 302.225 516.758 302.472 517C302.722 517.242 302.847 517.534 302.847 517.875C302.847 518.106 302.788 518.316 302.67 518.506C302.557 518.695 302.405 518.847 302.216 518.96C302.03 519.07 301.824 519.125 301.597 519.125Z" fill="#1F2C37"/>
</g>
<defs>
<clipPath id="clip0_246_4653">
<rect width="518" height="518" rx="32" fill="white"/>
</clipPath>
</defs>
</svg>
