<svg width="1248" height="278" viewBox="0 0 1248 278" fill="none" xmlns="http://www.w3.org/2000/svg">
<path d="M1247.91 139.104C1247.91 220.8 1194.19 278.208 1116.91 278.208C1039.99 278.208 987.002 221.168 987.002 139.104C987.002 57.408 1040.36 0 1117.27 0C1194.19 0 1247.91 57.04 1247.91 139.104ZM1198.23 139.104C1198.23 81.696 1166.59 45.264 1117.27 45.264C1067.96 45.264 1036.31 81.696 1036.31 139.104C1036.31 196.512 1067.96 232.944 1117.27 232.944C1166.59 232.944 1198.23 195.776 1198.23 139.104Z" fill="#F5F5F5"/>
<path d="M818.469 273.792H771.365V4.78418H874.037C935.125 4.78418 970.822 35.6962 970.822 88.6882C970.822 124.752 953.893 150.512 922.245 163.392L973.398 273.792H921.878L876.245 173.328H818.469V273.792ZM818.469 46.7362V131.744H874.037C903.845 131.744 921.51 115.92 921.51 88.6882C921.51 61.8242 903.845 46.7362 874.037 46.7362H818.469Z" fill="#F5F5F5"/>
<path d="M657.406 181.056H598.158V273.792H551.054V4.78418H657.406C711.502 4.78418 746.462 40.1122 746.462 92.7362C746.462 144.624 711.134 181.056 657.406 181.056ZM648.206 46.7362H598.158V139.104H647.47C679.854 139.104 697.15 121.808 697.15 92.3682C697.15 62.9282 679.486 46.7362 648.206 46.7362Z" fill="#F5F5F5"/>
<path d="M333.267 273.792H286.899V4.78418H333.635L459.859 195.408V4.78418H506.227V273.792H459.859L333.267 83.1682V273.792Z" fill="#F5F5F5"/>
<path d="M241.989 4.78418V273.792H194.885V4.78418H241.989Z" fill="#F5F5F5"/>
<path d="M148.008 163.76H47.912V273.792H0.807983V4.78418H167.144V48.2082H47.912V121.44H148.008V163.76Z" fill="#F5F5F5"/>
</svg>
