<svg width="72" height="72" viewBox="0 0 72 72" fill="none" xmlns="http://www.w3.org/2000/svg">
<rect width="72" height="72" rx="36" fill="#FF7438"/>
<path d="M34.5 29V40C34.4983 41.5908 33.8657 43.116 32.7408 44.2408C31.616 45.3657 30.0908 45.9983 28.5 46C28.2348 46 27.9804 45.8946 27.7929 45.7071C27.6054 45.5196 27.5 45.2652 27.5 45C27.5 44.7348 27.6054 44.4804 27.7929 44.2929C27.9804 44.1054 28.2348 44 28.5 44C29.5609 44 30.5783 43.5786 31.3284 42.8284C32.0786 42.0783 32.5 41.0609 32.5 40V39H25C24.4696 39 23.9609 38.7893 23.5858 38.4142C23.2107 38.0391 23 37.5304 23 37V29C23 28.4696 23.2107 27.9609 23.5858 27.5858C23.9609 27.2107 24.4696 27 25 27H32.5C33.0304 27 33.5391 27.2107 33.9142 27.5858C34.2893 27.9609 34.5 28.4696 34.5 29ZM47 27H39.5C38.9696 27 38.4609 27.2107 38.0858 27.5858C37.7107 27.9609 37.5 28.4696 37.5 29V37C37.5 37.5304 37.7107 38.0391 38.0858 38.4142C38.4609 38.7893 38.9696 39 39.5 39H47V40C47 41.0609 46.5786 42.0783 45.8284 42.8284C45.0783 43.5786 44.0609 44 43 44C42.7348 44 42.4804 44.1054 42.2929 44.2929C42.1054 44.4804 42 44.7348 42 45C42 45.2652 42.1054 45.5196 42.2929 45.7071C42.4804 45.8946 42.7348 46 43 46C44.5908 45.9983 46.116 45.3657 47.2408 44.2408C48.3657 43.116 48.9983 41.5908 49 40V29C49 28.4696 48.7893 27.9609 48.4142 27.5858C48.0391 27.2107 47.5304 27 47 27Z" fill="#0F0F0F"/>
</svg>
