<svg width="518" height="518" viewBox="0 0 518 518" fill="none" xmlns="http://www.w3.org/2000/svg">
<rect width="518" height="518" rx="32" fill="#F5F5F5"/>
<rect x="75.5" y="75.5" width="367" height="367" rx="183.5" stroke="#E5E5E5"/>
<rect x="107.5" y="107.5" width="303" height="303" rx="151.5" stroke="#E5E5E5"/>
<rect x="139" y="139" width="240" height="240" rx="120" fill="white"/>
<path d="M304 209.5H214C211.613 209.5 209.324 210.448 207.636 212.136C205.948 213.824 205 216.113 205 218.5V250C205 279.655 219.355 297.627 231.398 307.482C244.369 318.091 257.273 321.691 257.836 321.842C258.609 322.053 259.425 322.053 260.198 321.842C260.761 321.691 273.647 318.091 286.636 307.482C298.645 297.627 313 279.655 313 250V218.5C313 216.113 312.052 213.824 310.364 212.136C308.676 210.448 306.387 209.5 304 209.5ZM284.695 248.684L253.195 280.184C252.777 280.602 252.281 280.934 251.734 281.161C251.188 281.387 250.603 281.504 250.011 281.504C249.42 281.504 248.834 281.387 248.288 281.161C247.742 280.934 247.245 280.602 246.827 280.184L233.327 266.684C232.483 265.839 232.009 264.694 232.009 263.5C232.009 262.306 232.483 261.161 233.327 260.316C234.172 259.472 235.317 258.997 236.511 258.997C237.705 258.997 238.851 259.472 239.695 260.316L250 270.638L278.316 242.316C278.734 241.898 279.231 241.567 279.777 241.34C280.323 241.114 280.909 240.997 281.5 240.997C282.091 240.997 282.677 241.114 283.223 241.34C283.769 241.567 284.266 241.898 284.684 242.316C285.102 242.734 285.433 243.231 285.66 243.777C285.886 244.323 286.003 244.909 286.003 245.5C286.003 246.091 285.886 246.677 285.66 247.223C285.433 247.769 285.102 248.266 284.684 248.684H284.695Z" fill="#379592"/>
<g filter="url(#filter0_bd_226_3905)">
<rect x="331" y="59" width="72" height="72" rx="36" fill="#FCFCFC" fill-opacity="0.8" shape-rendering="crispEdges"/>
<rect x="331.5" y="59.5" width="71" height="71" rx="35.5" stroke="white" stroke-opacity="0.32" shape-rendering="crispEdges"/>
<path d="M375.75 95C375.759 100.051 374.774 105.054 372.853 109.725C372.76 109.955 372.6 110.153 372.394 110.292C372.188 110.431 371.945 110.506 371.697 110.506C371.536 110.505 371.377 110.473 371.228 110.413C371.076 110.35 370.938 110.258 370.821 110.143C370.705 110.027 370.612 109.889 370.549 109.737C370.486 109.586 370.453 109.423 370.452 109.259C370.452 109.094 370.484 108.932 370.547 108.78C372.343 104.408 373.261 99.726 373.25 95C373.25 94.6685 373.382 94.3505 373.616 94.1161C373.85 93.8817 374.168 93.75 374.5 93.75C374.831 93.75 375.149 93.8817 375.384 94.1161C375.618 94.3505 375.75 94.6685 375.75 95ZM367 88.75C367.879 88.7506 368.748 88.9364 369.551 89.2953C370.353 89.6541 371.071 90.178 371.658 90.8328C371.766 90.9581 371.899 91.0606 372.047 91.1342C372.196 91.2078 372.358 91.2511 372.523 91.2615C372.689 91.272 372.855 91.2495 373.011 91.1952C373.168 91.1409 373.312 91.056 373.436 90.9454C373.559 90.8348 373.66 90.7007 373.731 90.551C373.802 90.4012 373.843 90.2388 373.851 90.0732C373.859 89.9075 373.833 89.742 373.777 89.5862C373.72 89.4304 373.633 89.2874 373.52 89.1656C372.339 87.8453 370.784 86.9148 369.062 86.4972C367.34 86.0796 365.532 86.1946 363.877 86.827C362.222 87.4594 360.798 88.5793 359.793 90.0387C358.788 91.4981 358.25 93.2282 358.25 95C358.25 98.5993 357.336 102.14 355.594 105.289C355.514 105.433 355.463 105.591 355.445 105.754C355.426 105.917 355.44 106.082 355.485 106.24C355.531 106.398 355.606 106.545 355.709 106.674C355.811 106.802 355.938 106.909 356.081 106.989C356.225 107.069 356.383 107.119 356.546 107.138C356.709 107.156 356.874 107.143 357.032 107.097C357.19 107.052 357.337 106.976 357.466 106.874C357.594 106.772 357.702 106.645 357.781 106.502C359.728 102.981 360.75 99.0233 360.75 95C360.75 93.3424 361.408 91.7527 362.58 90.5806C363.753 89.4085 365.342 88.75 367 88.75ZM367 78.75C365.155 78.7478 363.323 79.0606 361.583 79.675C361.276 79.7898 361.026 80.0205 360.888 80.3176C360.749 80.6146 360.733 80.9542 360.842 81.2631C360.952 81.572 361.178 81.8257 361.472 81.9693C361.767 82.113 362.106 82.1353 362.417 82.0313C364.491 81.2998 366.711 81.0764 368.889 81.3797C371.068 81.6831 373.142 82.5043 374.937 83.7745C376.733 85.0447 378.198 86.727 379.209 88.6801C380.221 90.6333 380.749 92.8005 380.75 95C380.751 98.2714 380.388 101.533 379.666 104.723C379.592 105.046 379.65 105.385 379.825 105.665C380.001 105.945 380.281 106.144 380.603 106.219C380.694 106.24 380.788 106.25 380.881 106.25C381.165 106.25 381.44 106.154 381.661 105.977C381.882 105.8 382.037 105.553 382.1 105.277C382.863 101.904 383.249 98.4576 383.25 95C383.245 90.6916 381.532 86.561 378.485 83.5146C375.439 80.4681 371.308 78.7546 367 78.75ZM357.834 84.7531C357.957 84.6437 358.056 84.5112 358.127 84.3632C358.199 84.2152 358.24 84.0547 358.249 83.8907C358.258 83.7268 358.235 83.5626 358.181 83.4076C358.126 83.2527 358.042 83.1099 357.933 82.9875C357.823 82.8651 357.691 82.7655 357.543 82.6943C357.395 82.6231 357.234 82.5818 357.07 82.5726C356.906 82.5635 356.742 82.5867 356.587 82.641C356.432 82.6953 356.289 82.7796 356.167 82.8891C354.464 84.4141 353.102 86.2808 352.168 88.3675C351.235 90.4542 350.752 92.7141 350.75 95C350.753 96.9774 350.327 98.932 349.5 100.728C349.431 100.877 349.393 101.039 349.387 101.203C349.38 101.367 349.407 101.53 349.464 101.684C349.579 101.995 349.813 102.248 350.114 102.386C350.415 102.524 350.759 102.537 351.07 102.422C351.381 102.307 351.633 102.073 351.772 101.772C352.75 99.6485 353.254 97.3378 353.25 95C353.252 93.0659 353.661 91.1537 354.451 89.3882C355.24 87.6227 356.393 86.0434 357.834 84.7531ZM364.8 106.366C364.651 106.297 364.49 106.259 364.325 106.252C364.161 106.246 363.998 106.272 363.844 106.329C363.69 106.386 363.549 106.473 363.428 106.585C363.308 106.696 363.211 106.831 363.142 106.98C362.842 107.636 362.517 108.291 362.159 108.923C362.079 109.067 362.029 109.225 362.01 109.389C361.991 109.552 362.005 109.717 362.05 109.875C362.095 110.033 362.171 110.181 362.274 110.31C362.376 110.438 362.503 110.545 362.647 110.625C362.832 110.728 363.04 110.782 363.251 110.781C363.475 110.781 363.694 110.722 363.886 110.609C364.078 110.495 364.237 110.333 364.345 110.138C364.726 109.448 365.086 108.731 365.414 108.025C365.483 107.876 365.521 107.714 365.528 107.55C365.534 107.386 365.508 107.222 365.451 107.068C365.394 106.914 365.307 106.772 365.195 106.652C365.084 106.531 364.949 106.434 364.8 106.366ZM367 93.75C366.668 93.75 366.35 93.8817 366.116 94.1161C365.882 94.3505 365.75 94.6685 365.75 95C365.751 97.4243 365.447 99.8391 364.845 102.188C364.763 102.508 364.811 102.849 364.979 103.134C365.148 103.42 365.423 103.627 365.744 103.709C365.846 103.735 365.951 103.748 366.056 103.748C366.333 103.748 366.602 103.656 366.821 103.486C367.04 103.317 367.196 103.079 367.266 102.811C367.921 100.258 368.251 97.6336 368.25 94.9984C368.249 94.6672 368.118 94.3497 367.883 94.1156C367.649 93.8815 367.331 93.75 367 93.75Z" fill="#0F0F0F"/>
</g>
<g filter="url(#filter1_bd_226_3905)">
<rect x="91" y="363" width="72" height="72" rx="36" fill="#FCFCFC" fill-opacity="0.8" shape-rendering="crispEdges"/>
<rect x="91.5" y="363.5" width="71" height="71" rx="35.5" stroke="white" stroke-opacity="0.32" shape-rendering="crispEdges"/>
<path d="M127 396.5C125.949 396.5 124.934 396.879 124.139 397.566C123.345 398.253 122.824 399.204 122.672 400.243C122.521 401.283 122.748 402.342 123.313 403.228C123.878 404.114 124.743 404.767 125.75 405.067V407.75C125.75 408.082 125.882 408.399 126.116 408.634C126.351 408.868 126.668 409 127 409C127.332 409 127.649 408.868 127.884 408.634C128.118 408.399 128.25 408.082 128.25 407.75V405.067C129.257 404.767 130.122 404.114 130.687 403.228C131.252 402.342 131.479 401.283 131.328 400.243C131.176 399.204 130.655 398.253 129.861 397.566C129.066 396.879 128.051 396.5 127 396.5ZM127 402.75C126.629 402.75 126.267 402.64 125.958 402.434C125.65 402.228 125.41 401.935 125.268 401.593C125.126 401.25 125.089 400.873 125.161 400.509C125.233 400.145 125.412 399.811 125.674 399.549C125.936 399.287 126.27 399.108 126.634 399.036C126.998 398.964 127.375 399.001 127.718 399.143C128.06 399.285 128.353 399.525 128.559 399.833C128.765 400.142 128.875 400.504 128.875 400.875C128.875 401.372 128.677 401.849 128.326 402.201C127.974 402.552 127.497 402.75 127 402.75ZM139.5 391.5H134.5V387.75C134.5 385.761 133.71 383.853 132.303 382.447C130.897 381.04 128.989 380.25 127 380.25C125.011 380.25 123.103 381.04 121.697 382.447C120.29 383.853 119.5 385.761 119.5 387.75V391.5H114.5C113.837 391.5 113.201 391.763 112.732 392.232C112.263 392.701 112 393.337 112 394V411.5C112 412.163 112.263 412.799 112.732 413.268C113.201 413.737 113.837 414 114.5 414H139.5C140.163 414 140.799 413.737 141.268 413.268C141.737 412.799 142 412.163 142 411.5V394C142 393.337 141.737 392.701 141.268 392.232C140.799 391.763 140.163 391.5 139.5 391.5ZM122 387.75C122 386.424 122.527 385.152 123.464 384.214C124.402 383.277 125.674 382.75 127 382.75C128.326 382.75 129.598 383.277 130.536 384.214C131.473 385.152 132 386.424 132 387.75V391.5H122V387.75ZM139.5 411.5H114.5V394H139.5V411.5Z" fill="#0F0F0F"/>
</g>
<defs>
<filter id="filter0_bd_226_3905" x="307" y="49" width="152" height="152" filterUnits="userSpaceOnUse" color-interpolation-filters="sRGB">
<feFlood flood-opacity="0" result="BackgroundImageFix"/>
<feGaussianBlur in="BackgroundImageFix" stdDeviation="4.5"/>
<feComposite in2="SourceAlpha" operator="in" result="effect1_backgroundBlur_226_3905"/>
<feColorMatrix in="SourceAlpha" type="matrix" values="0 0 0 0 0 0 0 0 0 0 0 0 0 0 0 0 0 0 127 0" result="hardAlpha"/>
<feMorphology radius="20" operator="erode" in="SourceAlpha" result="effect2_dropShadow_226_3905"/>
<feOffset dx="16" dy="30"/>
<feGaussianBlur stdDeviation="30"/>
<feComposite in2="hardAlpha" operator="out"/>
<feColorMatrix type="matrix" values="0 0 0 0 0.115349 0 0 0 0 0.163721 0 0 0 0 0.204651 0 0 0 0.22 0"/>
<feBlend mode="normal" in2="effect1_backgroundBlur_226_3905" result="effect2_dropShadow_226_3905"/>
<feBlend mode="normal" in="SourceGraphic" in2="effect2_dropShadow_226_3905" result="shape"/>
</filter>
<filter id="filter1_bd_226_3905" x="67" y="353" width="152" height="152" filterUnits="userSpaceOnUse" color-interpolation-filters="sRGB">
<feFlood flood-opacity="0" result="BackgroundImageFix"/>
<feGaussianBlur in="BackgroundImageFix" stdDeviation="4.5"/>
<feComposite in2="SourceAlpha" operator="in" result="effect1_backgroundBlur_226_3905"/>
<feColorMatrix in="SourceAlpha" type="matrix" values="0 0 0 0 0 0 0 0 0 0 0 0 0 0 0 0 0 0 127 0" result="hardAlpha"/>
<feMorphology radius="20" operator="erode" in="SourceAlpha" result="effect2_dropShadow_226_3905"/>
<feOffset dx="16" dy="30"/>
<feGaussianBlur stdDeviation="30"/>
<feComposite in2="hardAlpha" operator="out"/>
<feColorMatrix type="matrix" values="0 0 0 0 0.115349 0 0 0 0 0.163721 0 0 0 0 0.204651 0 0 0 0.22 0"/>
<feBlend mode="normal" in2="effect1_backgroundBlur_226_3905" result="effect2_dropShadow_226_3905"/>
<feBlend mode="normal" in="SourceGraphic" in2="effect2_dropShadow_226_3905" result="shape"/>
</filter>
</defs>
</svg>
