<svg width="691" height="290" viewBox="0 0 691 290" fill="none" xmlns="http://www.w3.org/2000/svg">
<path d="M129 243H168.162C185.835 243 200.162 228.673 200.162 211V166C200.162 148.327 214.489 134 232.162 134H349" stroke="#2B7979"/>
<path d="M360 134H399.162C416.835 134 431.162 119.673 431.162 102V57C431.162 39.3269 445.489 25 463.162 25H580" stroke="#2B7979"/>
<path d="M360 134H399.162C416.835 134 431.162 148.327 431.162 166V211C431.162 228.673 445.489 243 463.162 243H580" stroke="#2B7979"/>
<g filter="url(#filter0_bd_292_4947)">
<rect x="261" y="78" width="112" height="112" rx="56" fill="#FCFCFC" fill-opacity="0.8" shape-rendering="crispEdges"/>
<rect x="255" y="72" width="124" height="124" rx="62" stroke="white" stroke-opacity="0.04" stroke-width="12" shape-rendering="crispEdges"/>
<path d="M343 114H325C323.448 114 321.916 114.361 320.528 115.056C319.139 115.75 317.931 116.758 317 118C316.069 116.758 314.861 115.75 313.472 115.056C312.084 114.361 310.552 114 309 114H291C290.47 114 289.961 114.211 289.586 114.586C289.211 114.961 289 115.47 289 116V152C289 152.53 289.211 153.039 289.586 153.414C289.961 153.789 290.47 154 291 154H309C310.591 154 312.117 154.632 313.243 155.757C314.368 156.883 315 158.409 315 160C315 160.53 315.211 161.039 315.586 161.414C315.961 161.789 316.47 162 317 162C317.53 162 318.039 161.789 318.414 161.414C318.789 161.039 319 160.53 319 160C319 158.409 319.632 156.883 320.757 155.757C321.883 154.632 323.409 154 325 154H343C343.53 154 344.039 153.789 344.414 153.414C344.789 153.039 345 152.53 345 152V116C345 115.47 344.789 114.961 344.414 114.586C344.039 114.211 343.53 114 343 114ZM309 150H293V118H309C310.591 118 312.117 118.632 313.243 119.757C314.368 120.883 315 122.409 315 124V152C313.271 150.699 311.164 149.997 309 150ZM341 150H325C322.836 149.997 320.729 150.699 319 152V124C319 122.409 319.632 120.883 320.757 119.757C321.883 118.632 323.409 118 325 118H341V150ZM325 124H335C335.53 124 336.039 124.211 336.414 124.586C336.789 124.961 337 125.47 337 126C337 126.53 336.789 127.039 336.414 127.414C336.039 127.789 335.53 128 335 128H325C324.47 128 323.961 127.789 323.586 127.414C323.211 127.039 323 126.53 323 126C323 125.47 323.211 124.961 323.586 124.586C323.961 124.211 324.47 124 325 124ZM337 134C337 134.53 336.789 135.039 336.414 135.414C336.039 135.789 335.53 136 335 136H325C324.47 136 323.961 135.789 323.586 135.414C323.211 135.039 323 134.53 323 134C323 133.47 323.211 132.961 323.586 132.586C323.961 132.211 324.47 132 325 132H335C335.53 132 336.039 132.211 336.414 132.586C336.789 132.961 337 133.47 337 134ZM337 142C337 142.53 336.789 143.039 336.414 143.414C336.039 143.789 335.53 144 335 144H325C324.47 144 323.961 143.789 323.586 143.414C323.211 143.039 323 142.53 323 142C323 141.47 323.211 140.961 323.586 140.586C323.961 140.211 324.47 140 325 140H335C335.53 140 336.039 140.211 336.414 140.586C336.789 140.961 337 141.47 337 142Z" fill="#0F0F0F"/>
</g>
<g filter="url(#filter1_d_292_4947)">
<rect x="508" y="4" width="135" height="42" rx="21" fill="white" shape-rendering="crispEdges"/>
<rect x="506" y="2" width="139" height="46" rx="23" stroke="white" stroke-opacity="0.12" stroke-width="4" shape-rendering="crispEdges"/>
<path d="M536 29.5C537.193 29.4988 538.337 29.0243 539.181 28.1806C540.024 27.337 540.499 26.1931 540.5 25V19C540.5 17.8065 540.026 16.6619 539.182 15.818C538.338 14.9741 537.193 14.5 536 14.5C534.807 14.5 533.662 14.9741 532.818 15.818C531.974 16.6619 531.5 17.8065 531.5 19V25C531.501 26.1931 531.976 27.337 532.819 28.1806C533.663 29.0243 534.807 29.4988 536 29.5ZM533 19C533 18.2044 533.316 17.4413 533.879 16.8787C534.441 16.3161 535.204 16 536 16C536.796 16 537.559 16.3161 538.121 16.8787C538.684 17.4413 539 18.2044 539 19V25C539 25.7956 538.684 26.5587 538.121 27.1213C537.559 27.6839 536.796 28 536 28C535.204 28 534.441 27.6839 533.879 27.1213C533.316 26.5587 533 25.7956 533 25V19ZM536.75 32.4625V35.5C536.75 35.6989 536.671 35.8897 536.53 36.0303C536.39 36.171 536.199 36.25 536 36.25C535.801 36.25 535.61 36.171 535.47 36.0303C535.329 35.8897 535.25 35.6989 535.25 35.5V32.4625C533.401 32.2743 531.687 31.4072 530.44 30.0288C529.194 28.6504 528.502 26.8586 528.5 25C528.5 24.8011 528.579 24.6103 528.72 24.4697C528.86 24.329 529.051 24.25 529.25 24.25C529.449 24.25 529.64 24.329 529.78 24.4697C529.921 24.6103 530 24.8011 530 25C530 26.5913 530.632 28.1174 531.757 29.2426C532.883 30.3679 534.409 31 536 31C537.591 31 539.117 30.3679 540.243 29.2426C541.368 28.1174 542 26.5913 542 25C542 24.8011 542.079 24.6103 542.22 24.4697C542.36 24.329 542.551 24.25 542.75 24.25C542.949 24.25 543.14 24.329 543.28 24.4697C543.421 24.6103 543.5 24.8011 543.5 25C543.498 26.8586 542.806 28.6504 541.56 30.0288C540.313 31.4072 538.599 32.2743 536.75 32.4625Z" fill="#0F0F0F"/>
<path d="M557.438 32V18.9091H562.104C563.123 18.9091 563.967 19.0945 564.636 19.4652C565.305 19.8359 565.805 20.343 566.138 20.9865C566.47 21.6257 566.636 22.3459 566.636 23.147C566.636 23.9524 566.468 24.6768 566.131 25.3203C565.799 25.9595 565.296 26.4666 564.623 26.8416C563.954 27.2124 563.112 27.3977 562.098 27.3977H558.889V25.723H561.919C562.563 25.723 563.085 25.6122 563.485 25.3906C563.886 25.1648 564.18 24.858 564.367 24.4702C564.555 24.0824 564.648 23.6413 564.648 23.147C564.648 22.6527 564.555 22.2138 564.367 21.8303C564.18 21.4467 563.884 21.1463 563.479 20.929C563.078 20.7116 562.55 20.603 561.893 20.603H559.413V32H557.438ZM572.811 32.1982C571.891 32.1982 571.087 31.9872 570.401 31.5653C569.715 31.1435 569.183 30.5533 568.803 29.7947C568.424 29.0362 568.234 28.1499 568.234 27.1357C568.234 26.1172 568.424 25.2266 568.803 24.4638C569.183 23.701 569.715 23.1087 570.401 22.6868C571.087 22.2649 571.891 22.054 572.811 22.054C573.732 22.054 574.535 22.2649 575.221 22.6868C575.907 23.1087 576.44 23.701 576.819 24.4638C577.198 25.2266 577.388 26.1172 577.388 27.1357C577.388 28.1499 577.198 29.0362 576.819 29.7947C576.44 30.5533 575.907 31.1435 575.221 31.5653C574.535 31.9872 573.732 32.1982 572.811 32.1982ZM572.817 30.5938C573.414 30.5938 573.908 30.4361 574.3 30.1207C574.692 29.8054 574.982 29.3857 575.17 28.8615C575.362 28.3374 575.457 27.7599 575.457 27.1293C575.457 26.5028 575.362 25.9276 575.17 25.4034C574.982 24.875 574.692 24.451 574.3 24.1314C573.908 23.8118 573.414 23.652 572.817 23.652C572.217 23.652 571.718 23.8118 571.322 24.1314C570.93 24.451 570.638 24.875 570.446 25.4034C570.259 25.9276 570.165 26.5028 570.165 27.1293C570.165 27.7599 570.259 28.3374 570.446 28.8615C570.638 29.3857 570.93 29.8054 571.322 30.1207C571.718 30.4361 572.217 30.5938 572.817 30.5938ZM583.197 32.1918C582.404 32.1918 581.697 31.9893 581.074 31.5845C580.456 31.1754 579.971 30.5937 579.617 29.8395C579.268 29.081 579.093 28.1712 579.093 27.1101C579.093 26.049 579.27 25.1413 579.623 24.3871C579.981 23.6328 580.471 23.0554 581.094 22.6548C581.716 22.2543 582.421 22.054 583.209 22.054C583.819 22.054 584.309 22.1562 584.68 22.3608C585.055 22.5611 585.344 22.7955 585.549 23.0639C585.758 23.3324 585.92 23.5689 586.035 23.7734H586.15V18.9091H588.061V32H586.194V30.4723H586.035C585.92 30.6811 585.753 30.9197 585.536 31.1882C585.323 31.4567 585.029 31.6911 584.654 31.8913C584.279 32.0916 583.793 32.1918 583.197 32.1918ZM583.618 30.5618C584.168 30.5618 584.633 30.4169 585.012 30.1271C585.395 29.8331 585.685 29.4261 585.881 28.9062C586.081 28.3864 586.182 27.7812 586.182 27.0909C586.182 26.4091 586.084 25.8125 585.888 25.3011C585.692 24.7898 585.404 24.3913 585.025 24.1058C584.645 23.8203 584.177 23.6776 583.618 23.6776C583.043 23.6776 582.564 23.8267 582.18 24.125C581.797 24.4233 581.507 24.8303 581.311 25.3459C581.119 25.8615 581.023 26.4432 581.023 27.0909C581.023 27.7472 581.121 28.3374 581.317 28.8615C581.513 29.3857 581.803 29.8011 582.187 30.108C582.574 30.4105 583.052 30.5618 583.618 30.5618ZM594.924 32.1982C593.974 32.1982 593.156 31.983 592.47 31.5526C591.788 31.1179 591.264 30.5192 590.897 29.7564C590.531 28.9936 590.348 28.12 590.348 27.1357C590.348 26.1385 590.535 25.2585 590.91 24.4957C591.285 23.7287 591.814 23.13 592.495 22.6996C593.177 22.2692 593.98 22.054 594.905 22.054C595.651 22.054 596.316 22.1925 596.9 22.4695C597.483 22.7422 597.954 23.1257 598.312 23.62C598.674 24.1143 598.89 24.6918 598.958 25.3523H597.098C596.995 24.892 596.761 24.4957 596.395 24.1634C596.032 23.831 595.547 23.6648 594.937 23.6648C594.404 23.6648 593.938 23.8054 593.537 24.0866C593.141 24.3636 592.832 24.7599 592.61 25.2756C592.389 25.7869 592.278 26.392 592.278 27.0909C592.278 27.8068 592.387 28.4247 592.604 28.9446C592.821 29.4645 593.128 29.8672 593.525 30.1527C593.925 30.4382 594.396 30.581 594.937 30.581C595.299 30.581 595.627 30.5149 595.922 30.3828C596.22 30.2464 596.469 30.0526 596.669 29.8011C596.874 29.5497 597.017 29.2472 597.098 28.8935H598.958C598.89 29.5284 598.683 30.0952 598.338 30.5938C597.993 31.0923 597.53 31.4844 596.951 31.7699C596.375 32.0554 595.7 32.1982 594.924 32.1982ZM603.859 32.2173C603.237 32.2173 602.674 32.1023 602.171 31.8722C601.669 31.6378 601.27 31.299 600.976 30.8558C600.686 30.4126 600.541 29.8693 600.541 29.2259C600.541 28.6719 600.648 28.2159 600.861 27.858C601.074 27.5 601.362 27.2166 601.724 27.0078C602.086 26.799 602.491 26.6413 602.938 26.5348C603.386 26.4283 603.842 26.3473 604.306 26.2919C604.894 26.2237 605.372 26.1683 605.738 26.1257C606.105 26.0788 606.371 26.0043 606.537 25.902C606.703 25.7997 606.786 25.6335 606.786 25.4034V25.3587C606.786 24.8004 606.629 24.3679 606.313 24.0611C606.002 23.7543 605.538 23.6009 604.92 23.6009C604.276 23.6009 603.769 23.7436 603.399 24.0291C603.032 24.3104 602.779 24.6236 602.638 24.9688L600.842 24.5597C601.055 23.9631 601.366 23.4815 601.775 23.1151C602.188 22.7443 602.664 22.4759 603.2 22.3097C603.737 22.1392 604.302 22.054 604.894 22.054C605.286 22.054 605.702 22.1009 606.141 22.1946C606.584 22.2841 606.997 22.4503 607.381 22.6932C607.769 22.9361 608.086 23.2834 608.333 23.7351C608.58 24.1825 608.704 24.7642 608.704 25.4801V32H606.838V30.6577H606.761C606.637 30.9048 606.452 31.1477 606.205 31.3864C605.958 31.625 605.64 31.8232 605.252 31.9808C604.865 32.1385 604.4 32.2173 603.859 32.2173ZM604.274 30.6832C604.803 30.6832 605.254 30.5788 605.629 30.37C606.009 30.1612 606.296 29.8885 606.492 29.5518C606.693 29.2109 606.793 28.8466 606.793 28.4588V27.1932C606.725 27.2614 606.593 27.3253 606.396 27.3849C606.205 27.4403 605.985 27.4893 605.738 27.532C605.491 27.5703 605.25 27.6065 605.016 27.6406C604.781 27.6705 604.585 27.696 604.428 27.7173C604.057 27.7642 603.718 27.843 603.411 27.9538C603.109 28.0646 602.866 28.2244 602.683 28.4332C602.504 28.6378 602.414 28.9105 602.414 29.2514C602.414 29.7244 602.589 30.0824 602.938 30.3253C603.288 30.5639 603.733 30.6832 604.274 30.6832ZM618.607 24.5788L616.875 24.8857C616.802 24.6641 616.687 24.4531 616.529 24.2528C616.376 24.0526 616.167 23.8885 615.903 23.7607C615.639 23.6328 615.309 23.5689 614.912 23.5689C614.371 23.5689 613.919 23.6903 613.557 23.9332C613.195 24.1719 613.014 24.4808 613.014 24.8601C613.014 25.1882 613.135 25.4524 613.378 25.6527C613.621 25.853 614.013 26.017 614.554 26.1449L616.114 26.5028C617.017 26.7116 617.691 27.0334 618.134 27.468C618.577 27.9027 618.799 28.4673 618.799 29.1619C618.799 29.75 618.628 30.2741 618.287 30.7344C617.951 31.1903 617.48 31.5483 616.875 31.8082C616.274 32.0682 615.577 32.1982 614.784 32.1982C613.685 32.1982 612.788 31.9638 612.093 31.495C611.399 31.022 610.973 30.3509 610.815 29.4815L612.662 29.2003C612.777 29.6818 613.014 30.0462 613.372 30.2933C613.73 30.5362 614.196 30.6577 614.772 30.6577C615.398 30.6577 615.899 30.5277 616.274 30.2678C616.649 30.0036 616.836 29.6818 616.836 29.3026C616.836 28.9957 616.721 28.7379 616.491 28.5291C616.265 28.3203 615.918 28.1626 615.449 28.0561L613.787 27.6918C612.871 27.483 612.194 27.1506 611.755 26.6946C611.32 26.2386 611.103 25.6612 611.103 24.9624C611.103 24.3828 611.265 23.8757 611.588 23.4411C611.912 23.0064 612.36 22.6676 612.931 22.4247C613.502 22.1776 614.156 22.054 614.893 22.054C615.954 22.054 616.789 22.2841 617.399 22.7443C618.008 23.2003 618.411 23.8118 618.607 24.5788ZM625.483 22.1818V23.7159H620.12V22.1818H625.483ZM621.558 19.8295H623.47V29.1172C623.47 29.4879 623.525 29.767 623.636 29.9545C623.747 30.1378 623.889 30.2635 624.064 30.3317C624.243 30.3956 624.437 30.4276 624.646 30.4276C624.799 30.4276 624.933 30.4169 625.048 30.3956C625.164 30.3743 625.253 30.3572 625.317 30.3445L625.662 31.9233C625.551 31.9659 625.394 32.0085 625.189 32.0511C624.985 32.098 624.729 32.1236 624.422 32.1278C623.919 32.1364 623.45 32.0469 623.016 31.8594C622.581 31.6719 622.23 31.3821 621.961 30.9901C621.693 30.598 621.558 30.1058 621.558 29.5135V19.8295Z" fill="#525252"/>
</g>
<g filter="url(#filter2_d_292_4947)">
<rect x="508" y="222" width="163" height="42" rx="21" fill="white" shape-rendering="crispEdges"/>
<rect x="506" y="220" width="167" height="46" rx="23" stroke="white" stroke-opacity="0.12" stroke-width="4" shape-rendering="crispEdges"/>
<path d="M543.5 233.25H530.75C529.954 233.25 529.191 233.566 528.629 234.129C528.066 234.691 527.75 235.454 527.75 236.25V252C527.75 252.199 527.829 252.39 527.97 252.53C528.11 252.671 528.301 252.75 528.5 252.75H542C542.199 252.75 542.39 252.671 542.53 252.53C542.671 252.39 542.75 252.199 542.75 252C542.75 251.801 542.671 251.61 542.53 251.47C542.39 251.329 542.199 251.25 542 251.25H529.25C529.25 250.852 529.408 250.471 529.689 250.189C529.971 249.908 530.352 249.75 530.75 249.75H543.5C543.699 249.75 543.89 249.671 544.03 249.53C544.171 249.39 544.25 249.199 544.25 249V234C544.25 233.801 544.171 233.61 544.03 233.47C543.89 233.329 543.699 233.25 543.5 233.25ZM542.75 248.25H530.75C530.223 248.249 529.706 248.388 529.25 248.652V236.25C529.25 235.852 529.408 235.471 529.689 235.189C529.971 234.908 530.352 234.75 530.75 234.75H542.75V248.25Z" fill="#0F0F0F"/>
<path d="M568.311 241.166H566.317C566.24 240.74 566.097 240.365 565.888 240.041C565.68 239.717 565.424 239.442 565.121 239.217C564.819 238.991 564.48 238.82 564.105 238.705C563.734 238.59 563.34 238.533 562.923 238.533C562.168 238.533 561.493 238.722 560.896 239.102C560.304 239.481 559.835 240.037 559.49 240.77C559.149 241.503 558.979 242.398 558.979 243.455C558.979 244.52 559.149 245.419 559.49 246.152C559.835 246.885 560.306 247.439 560.903 247.814C561.499 248.189 562.17 248.376 562.916 248.376C563.33 248.376 563.722 248.321 564.092 248.21C564.467 248.095 564.806 247.927 565.109 247.705C565.411 247.484 565.667 247.213 565.876 246.893C566.089 246.57 566.236 246.199 566.317 245.781L568.311 245.788C568.205 246.431 567.998 247.023 567.691 247.565C567.388 248.102 566.999 248.566 566.521 248.958C566.048 249.346 565.507 249.646 564.898 249.859C564.288 250.072 563.624 250.179 562.903 250.179C561.77 250.179 560.76 249.911 559.874 249.374C558.987 248.832 558.288 248.059 557.777 247.053C557.27 246.048 557.016 244.848 557.016 243.455C557.016 242.057 557.272 240.857 557.783 239.856C558.295 238.85 558.994 238.079 559.88 237.542C560.766 237.001 561.774 236.73 562.903 236.73C563.598 236.73 564.246 236.83 564.847 237.031C565.452 237.227 565.995 237.516 566.477 237.9C566.958 238.279 567.357 238.744 567.672 239.293C567.987 239.839 568.2 240.463 568.311 241.166ZM573.378 250.217C572.756 250.217 572.194 250.102 571.691 249.872C571.188 249.638 570.79 249.299 570.496 248.856C570.206 248.413 570.061 247.869 570.061 247.226C570.061 246.672 570.167 246.216 570.381 245.858C570.594 245.5 570.881 245.217 571.243 245.008C571.606 244.799 572.01 244.641 572.458 244.535C572.905 244.428 573.361 244.347 573.826 244.292C574.414 244.224 574.891 244.168 575.258 244.126C575.624 244.079 575.89 244.004 576.057 243.902C576.223 243.8 576.306 243.634 576.306 243.403V243.359C576.306 242.8 576.148 242.368 575.833 242.061C575.522 241.754 575.057 241.601 574.439 241.601C573.796 241.601 573.289 241.744 572.918 242.029C572.552 242.31 572.298 242.624 572.157 242.969L570.361 242.56C570.574 241.963 570.885 241.482 571.295 241.115C571.708 240.744 572.183 240.476 572.72 240.31C573.257 240.139 573.822 240.054 574.414 240.054C574.806 240.054 575.221 240.101 575.66 240.195C576.104 240.284 576.517 240.45 576.9 240.693C577.288 240.936 577.606 241.283 577.853 241.735C578.1 242.183 578.224 242.764 578.224 243.48V250H576.357V248.658H576.28C576.157 248.905 575.971 249.148 575.724 249.386C575.477 249.625 575.16 249.823 574.772 249.981C574.384 250.138 573.92 250.217 573.378 250.217ZM573.794 248.683C574.322 248.683 574.774 248.579 575.149 248.37C575.528 248.161 575.816 247.888 576.012 247.552C576.212 247.211 576.312 246.847 576.312 246.459V245.193C576.244 245.261 576.112 245.325 575.916 245.385C575.724 245.44 575.505 245.489 575.258 245.532C575.01 245.57 574.77 245.607 574.535 245.641C574.301 245.67 574.105 245.696 573.947 245.717C573.577 245.764 573.238 245.843 572.931 245.954C572.628 246.065 572.385 246.224 572.202 246.433C572.023 246.638 571.934 246.911 571.934 247.251C571.934 247.724 572.108 248.082 572.458 248.325C572.807 248.564 573.253 248.683 573.794 248.683ZM588.126 242.579L586.394 242.886C586.322 242.664 586.207 242.453 586.049 242.253C585.896 242.053 585.687 241.888 585.423 241.761C585.158 241.633 584.828 241.569 584.432 241.569C583.891 241.569 583.439 241.69 583.077 241.933C582.714 242.172 582.533 242.481 582.533 242.86C582.533 243.188 582.655 243.452 582.898 243.653C583.141 243.853 583.533 244.017 584.074 244.145L585.634 244.503C586.537 244.712 587.21 245.033 587.653 245.468C588.097 245.903 588.318 246.467 588.318 247.162C588.318 247.75 588.148 248.274 587.807 248.734C587.47 249.19 586.999 249.548 586.394 249.808C585.793 250.068 585.097 250.198 584.304 250.198C583.205 250.198 582.308 249.964 581.613 249.495C580.918 249.022 580.492 248.351 580.335 247.482L582.182 247.2C582.297 247.682 582.533 248.046 582.891 248.293C583.249 248.536 583.716 248.658 584.291 248.658C584.918 248.658 585.418 248.528 585.793 248.268C586.168 248.004 586.356 247.682 586.356 247.303C586.356 246.996 586.241 246.738 586.011 246.529C585.785 246.32 585.438 246.163 584.969 246.056L583.307 245.692C582.391 245.483 581.713 245.151 581.274 244.695C580.839 244.239 580.622 243.661 580.622 242.962C580.622 242.383 580.784 241.876 581.108 241.441C581.432 241.006 581.879 240.668 582.45 240.425C583.021 240.178 583.675 240.054 584.413 240.054C585.474 240.054 586.309 240.284 586.918 240.744C587.528 241.2 587.93 241.812 588.126 242.579ZM594.651 250.198C593.684 250.198 592.851 249.991 592.152 249.578C591.457 249.161 590.92 248.575 590.541 247.82C590.166 247.062 589.979 246.173 589.979 245.155C589.979 244.149 590.166 243.263 590.541 242.496C590.92 241.729 591.449 241.13 592.126 240.7C592.808 240.269 593.605 240.054 594.517 240.054C595.071 240.054 595.608 240.146 596.128 240.329C596.648 240.512 597.114 240.8 597.528 241.192C597.941 241.584 598.267 242.093 598.506 242.719C598.744 243.342 598.863 244.098 598.863 244.989V245.666H591.059V244.234H596.991C596.991 243.732 596.888 243.286 596.684 242.898C596.479 242.506 596.192 242.197 595.821 241.972C595.454 241.746 595.024 241.633 594.53 241.633C593.993 241.633 593.524 241.765 593.123 242.029C592.727 242.289 592.42 242.63 592.203 243.052C591.99 243.469 591.883 243.923 591.883 244.413V245.532C591.883 246.188 591.998 246.746 592.229 247.207C592.463 247.667 592.789 248.018 593.206 248.261C593.624 248.5 594.112 248.619 594.67 248.619C595.032 248.619 595.363 248.568 595.661 248.466C595.959 248.359 596.217 248.202 596.434 247.993C596.652 247.784 596.818 247.526 596.933 247.219L598.742 247.545C598.597 248.078 598.337 248.545 597.962 248.945C597.591 249.342 597.125 249.651 596.562 249.872C596.004 250.089 595.367 250.198 594.651 250.198ZM613.041 240.348C612.973 239.743 612.692 239.274 612.197 238.942C611.703 238.605 611.081 238.437 610.331 238.437C609.794 238.437 609.329 238.522 608.937 238.692C608.545 238.859 608.241 239.089 608.023 239.383C607.81 239.673 607.704 240.003 607.704 240.374C607.704 240.685 607.776 240.953 607.921 241.179C608.07 241.405 608.264 241.594 608.503 241.748C608.746 241.897 609.006 242.023 609.282 242.125C609.559 242.223 609.826 242.304 610.081 242.368L611.36 242.7C611.778 242.803 612.206 242.941 612.645 243.116C613.084 243.29 613.491 243.521 613.866 243.806C614.241 244.092 614.543 244.445 614.773 244.867C615.008 245.289 615.125 245.794 615.125 246.382C615.125 247.124 614.933 247.782 614.55 248.357C614.17 248.933 613.618 249.386 612.894 249.719C612.174 250.051 611.302 250.217 610.28 250.217C609.3 250.217 608.452 250.062 607.736 249.751C607.02 249.44 606.459 248.999 606.055 248.428C605.65 247.852 605.426 247.17 605.383 246.382H607.365C607.403 246.855 607.557 247.249 607.825 247.565C608.098 247.876 608.445 248.108 608.867 248.261C609.293 248.411 609.76 248.485 610.267 248.485C610.825 248.485 611.322 248.398 611.756 248.223C612.195 248.044 612.54 247.797 612.792 247.482C613.043 247.162 613.169 246.789 613.169 246.363C613.169 245.975 613.058 245.658 612.836 245.411C612.619 245.163 612.323 244.959 611.948 244.797C611.577 244.635 611.157 244.492 610.689 244.369L609.142 243.947C608.094 243.661 607.263 243.241 606.649 242.688C606.04 242.134 605.735 241.401 605.735 240.489C605.735 239.734 605.939 239.076 606.349 238.513C606.758 237.951 607.312 237.514 608.01 237.203C608.709 236.888 609.498 236.73 610.376 236.73C611.262 236.73 612.044 236.886 612.721 237.197C613.403 237.508 613.94 237.936 614.332 238.482C614.724 239.023 614.929 239.645 614.946 240.348H613.041ZM621.915 240.182V241.716H616.552V240.182H621.915ZM617.99 237.83H619.901V247.117C619.901 247.488 619.957 247.767 620.067 247.955C620.178 248.138 620.321 248.263 620.496 248.332C620.675 248.396 620.869 248.428 621.077 248.428C621.231 248.428 621.365 248.417 621.48 248.396C621.595 248.374 621.685 248.357 621.749 248.344L622.094 249.923C621.983 249.966 621.825 250.009 621.621 250.051C621.416 250.098 621.161 250.124 620.854 250.128C620.351 250.136 619.882 250.047 619.447 249.859C619.013 249.672 618.661 249.382 618.393 248.99C618.124 248.598 617.99 248.106 617.99 247.513V237.83ZM630.248 245.928V240.182H632.166V250H630.287V248.3H630.184C629.959 248.824 629.596 249.261 629.098 249.61C628.604 249.955 627.988 250.128 627.251 250.128C626.62 250.128 626.062 249.989 625.576 249.712C625.094 249.431 624.715 249.016 624.438 248.466C624.165 247.916 624.029 247.237 624.029 246.427V240.182H625.94V246.197C625.94 246.866 626.126 247.398 626.496 247.795C626.867 248.191 627.349 248.389 627.941 248.389C628.299 248.389 628.655 248.3 629.008 248.121C629.366 247.942 629.662 247.671 629.897 247.309C630.135 246.947 630.253 246.487 630.248 245.928ZM638.409 250.192C637.617 250.192 636.909 249.989 636.287 249.585C635.669 249.175 635.184 248.594 634.83 247.839C634.48 247.081 634.306 246.171 634.306 245.11C634.306 244.049 634.483 243.141 634.836 242.387C635.194 241.633 635.684 241.055 636.306 240.655C636.929 240.254 637.634 240.054 638.422 240.054C639.032 240.054 639.522 240.156 639.892 240.361C640.267 240.561 640.557 240.795 640.762 241.064C640.971 241.332 641.132 241.569 641.248 241.773H641.363V236.909H643.274V250H641.407V248.472H641.248C641.132 248.681 640.966 248.92 640.749 249.188C640.536 249.457 640.242 249.691 639.867 249.891C639.492 250.092 639.006 250.192 638.409 250.192ZM638.831 248.562C639.381 248.562 639.846 248.417 640.225 248.127C640.608 247.833 640.898 247.426 641.094 246.906C641.294 246.386 641.395 245.781 641.395 245.091C641.395 244.409 641.297 243.812 641.1 243.301C640.904 242.79 640.617 242.391 640.238 242.106C639.858 241.82 639.39 241.678 638.831 241.678C638.256 241.678 637.777 241.827 637.393 242.125C637.01 242.423 636.72 242.83 636.524 243.346C636.332 243.862 636.236 244.443 636.236 245.091C636.236 245.747 636.334 246.337 636.53 246.862C636.726 247.386 637.016 247.801 637.4 248.108C637.787 248.411 638.265 248.562 638.831 248.562ZM647.21 253.682C646.924 253.682 646.664 253.658 646.43 253.612C646.195 253.569 646.021 253.522 645.906 253.471L646.366 251.905C646.715 251.999 647.026 252.039 647.299 252.026C647.572 252.013 647.813 251.911 648.021 251.719C648.235 251.528 648.422 251.214 648.584 250.78L648.82 250.128L645.228 240.182H647.274L649.76 247.801H649.862L652.349 240.182H654.401L650.355 251.31C650.167 251.822 649.928 252.254 649.639 252.608C649.349 252.966 649.004 253.234 648.603 253.413C648.203 253.592 647.738 253.682 647.21 253.682Z" fill="#525252"/>
</g>
<g filter="url(#filter3_d_292_4947)">
<rect x="9" y="222" width="116" height="42" rx="21" fill="white" shape-rendering="crispEdges"/>
<rect x="7" y="220" width="120" height="46" rx="23" stroke="white" stroke-opacity="0.12" stroke-width="4" shape-rendering="crispEdges"/>
<path d="M33.25 241.5C33.25 241.301 33.329 241.11 33.4697 240.97C33.6103 240.829 33.8011 240.75 34 240.75H41.5C41.6989 240.75 41.8897 240.829 42.0303 240.97C42.171 241.11 42.25 241.301 42.25 241.5C42.25 241.699 42.171 241.89 42.0303 242.03C41.8897 242.171 41.6989 242.25 41.5 242.25H34C33.8011 242.25 33.6103 242.171 33.4697 242.03C33.329 241.89 33.25 241.699 33.25 241.5ZM34 245.25H41.5C41.6989 245.25 41.8897 245.171 42.0303 245.03C42.171 244.89 42.25 244.699 42.25 244.5C42.25 244.301 42.171 244.11 42.0303 243.97C41.8897 243.829 41.6989 243.75 41.5 243.75H34C33.8011 243.75 33.6103 243.829 33.4697 243.97C33.329 244.11 33.25 244.301 33.25 244.5C33.25 244.699 33.329 244.89 33.4697 245.03C33.6103 245.171 33.8011 245.25 34 245.25ZM46.75 237V248.25C46.75 248.847 46.5129 249.419 46.091 249.841C45.669 250.263 45.0967 250.5 44.5 250.5H28C27.405 250.5 26.8343 250.264 26.4126 249.845C25.991 249.425 25.7527 248.855 25.75 248.26V239.25C25.75 239.051 25.829 238.86 25.9697 238.72C26.1103 238.579 26.3011 238.5 26.5 238.5C26.6989 238.5 26.8897 238.579 27.0303 238.72C27.171 238.86 27.25 239.051 27.25 239.25V248.25C27.25 248.449 27.329 248.64 27.4697 248.78C27.6103 248.921 27.8011 249 28 249C28.1989 249 28.3897 248.921 28.5303 248.78C28.671 248.64 28.75 248.449 28.75 248.25V237C28.75 236.602 28.908 236.221 29.1893 235.939C29.4706 235.658 29.8522 235.5 30.25 235.5H45.25C45.6478 235.5 46.0294 235.658 46.3107 235.939C46.592 236.221 46.75 236.602 46.75 237ZM45.25 237H30.25V248.25C30.2504 248.506 30.2069 248.759 30.1216 249H44.5C44.6989 249 44.8897 248.921 45.0303 248.78C45.171 248.64 45.25 248.449 45.25 248.25V237Z" fill="#0F0F0F"/>
<path d="M59.544 250H57.4474L62.1584 236.909H64.4403L69.1513 250H67.0547L63.3537 239.287H63.2514L59.544 250ZM59.8956 244.874H66.6967V246.536H59.8956V244.874ZM70.8883 250V240.182H72.7356V241.741H72.8379C73.0169 241.213 73.3322 240.798 73.7839 240.495C74.2399 240.188 74.7555 240.035 75.3308 240.035C75.4501 240.035 75.5907 240.039 75.7527 240.048C75.9189 240.056 76.0488 240.067 76.1426 240.08V241.908C76.0659 241.886 75.9295 241.863 75.7335 241.837C75.5375 241.808 75.3414 241.793 75.1454 241.793C74.6937 241.793 74.291 241.888 73.9373 242.08C73.5879 242.268 73.3109 242.53 73.1064 242.866C72.9018 243.199 72.7995 243.578 72.7995 244.004V250H70.8883ZM82.9597 240.182V241.716H77.5968V240.182H82.9597ZM79.035 237.83H80.9462V247.117C80.9462 247.488 81.0016 247.767 81.1124 247.955C81.2232 248.138 81.3659 248.263 81.5407 248.332C81.7196 248.396 81.9135 248.428 82.1223 248.428C82.2757 248.428 82.41 248.417 82.525 248.396C82.6401 248.374 82.7296 248.357 82.7935 248.344L83.1387 249.923C83.0279 249.966 82.8702 250.009 82.6657 250.051C82.4611 250.098 82.2054 250.124 81.8986 250.128C81.3958 250.136 80.927 250.047 80.4924 249.859C80.0577 249.672 79.7061 249.382 79.4377 248.99C79.1692 248.598 79.035 248.106 79.035 247.513V237.83ZM89.104 250.198C88.1538 250.198 87.3356 249.983 86.6495 249.553C85.9677 249.118 85.4435 248.519 85.0771 247.756C84.7106 246.994 84.5273 246.12 84.5273 245.136C84.5273 244.138 84.7148 243.259 85.0898 242.496C85.4648 241.729 85.9933 241.13 86.6751 240.7C87.3569 240.269 88.1602 240.054 89.0849 240.054C89.8306 240.054 90.4954 240.192 91.0792 240.469C91.663 240.742 92.1339 241.126 92.4918 241.62C92.854 242.114 93.0692 242.692 93.1374 243.352H91.2773C91.1751 242.892 90.9407 242.496 90.5742 242.163C90.212 241.831 89.7262 241.665 89.1168 241.665C88.5842 241.665 88.1175 241.805 87.717 242.087C87.3207 242.364 87.0117 242.76 86.7901 243.276C86.5685 243.787 86.4577 244.392 86.4577 245.091C86.4577 245.807 86.5664 246.425 86.7837 246.945C87.0011 247.464 87.3079 247.867 87.7042 248.153C88.1048 248.438 88.5756 248.581 89.1168 248.581C89.479 248.581 89.8072 248.515 90.1012 248.383C90.3995 248.246 90.6488 248.053 90.8491 247.801C91.0536 247.55 91.1964 247.247 91.2773 246.893H93.1374C93.0692 247.528 92.8626 248.095 92.5174 248.594C92.1722 249.092 91.7099 249.484 91.1303 249.77C90.555 250.055 89.8796 250.198 89.104 250.198ZM97.0925 236.909V250H95.1813V236.909H97.0925ZM103.895 250.198C102.928 250.198 102.095 249.991 101.396 249.578C100.701 249.161 100.164 248.575 99.7852 247.82C99.4102 247.062 99.2227 246.173 99.2227 245.155C99.2227 244.149 99.4102 243.263 99.7852 242.496C100.164 241.729 100.693 241.13 101.37 240.7C102.052 240.269 102.849 240.054 103.761 240.054C104.315 240.054 104.852 240.146 105.372 240.329C105.892 240.512 106.358 240.8 106.772 241.192C107.185 241.584 107.511 242.093 107.75 242.719C107.988 243.342 108.108 244.098 108.108 244.989V245.666H100.303V244.234H106.235C106.235 243.732 106.132 243.286 105.928 242.898C105.723 242.506 105.436 242.197 105.065 241.972C104.699 241.746 104.268 241.633 103.774 241.633C103.237 241.633 102.768 241.765 102.368 242.029C101.971 242.289 101.664 242.63 101.447 243.052C101.234 243.469 101.127 243.923 101.127 244.413V245.532C101.127 246.188 101.243 246.746 101.473 247.207C101.707 247.667 102.033 248.018 102.451 248.261C102.868 248.5 103.356 248.619 103.914 248.619C104.277 248.619 104.607 248.568 104.905 248.466C105.203 248.359 105.461 248.202 105.679 247.993C105.896 247.784 106.062 247.526 106.177 247.219L107.986 247.545C107.841 248.078 107.581 248.545 107.206 248.945C106.836 249.342 106.369 249.651 105.806 249.872C105.248 250.089 104.611 250.198 103.895 250.198Z" fill="#525252"/>
</g>
<defs>
<filter id="filter0_bd_292_4947" x="225" y="56" width="216" height="216" filterUnits="userSpaceOnUse" color-interpolation-filters="sRGB">
<feFlood flood-opacity="0" result="BackgroundImageFix"/>
<feGaussianBlur in="BackgroundImageFix" stdDeviation="4.5"/>
<feComposite in2="SourceAlpha" operator="in" result="effect1_backgroundBlur_292_4947"/>
<feColorMatrix in="SourceAlpha" type="matrix" values="0 0 0 0 0 0 0 0 0 0 0 0 0 0 0 0 0 0 127 0" result="hardAlpha"/>
<feMorphology radius="20" operator="erode" in="SourceAlpha" result="effect2_dropShadow_292_4947"/>
<feOffset dx="16" dy="30"/>
<feGaussianBlur stdDeviation="30"/>
<feComposite in2="hardAlpha" operator="out"/>
<feColorMatrix type="matrix" values="0 0 0 0 0.115349 0 0 0 0 0.163721 0 0 0 0 0.204651 0 0 0 0.12 0"/>
<feBlend mode="normal" in2="effect1_backgroundBlur_292_4947" result="effect2_dropShadow_292_4947"/>
<feBlend mode="normal" in="SourceGraphic" in2="effect2_dropShadow_292_4947" result="shape"/>
</filter>
<filter id="filter1_d_292_4947" x="504" y="0" width="159" height="72" filterUnits="userSpaceOnUse" color-interpolation-filters="sRGB">
<feFlood flood-opacity="0" result="BackgroundImageFix"/>
<feColorMatrix in="SourceAlpha" type="matrix" values="0 0 0 0 0 0 0 0 0 0 0 0 0 0 0 0 0 0 127 0" result="hardAlpha"/>
<feMorphology radius="20" operator="erode" in="SourceAlpha" result="effect1_dropShadow_292_4947"/>
<feOffset dx="16" dy="22"/>
<feGaussianBlur stdDeviation="10"/>
<feComposite in2="hardAlpha" operator="out"/>
<feColorMatrix type="matrix" values="0 0 0 0 0.115349 0 0 0 0 0.163721 0 0 0 0 0.204651 0 0 0 0.04 0"/>
<feBlend mode="normal" in2="BackgroundImageFix" result="effect1_dropShadow_292_4947"/>
<feBlend mode="normal" in="SourceGraphic" in2="effect1_dropShadow_292_4947" result="shape"/>
</filter>
<filter id="filter2_d_292_4947" x="504" y="218" width="187" height="72" filterUnits="userSpaceOnUse" color-interpolation-filters="sRGB">
<feFlood flood-opacity="0" result="BackgroundImageFix"/>
<feColorMatrix in="SourceAlpha" type="matrix" values="0 0 0 0 0 0 0 0 0 0 0 0 0 0 0 0 0 0 127 0" result="hardAlpha"/>
<feMorphology radius="20" operator="erode" in="SourceAlpha" result="effect1_dropShadow_292_4947"/>
<feOffset dx="16" dy="22"/>
<feGaussianBlur stdDeviation="10"/>
<feComposite in2="hardAlpha" operator="out"/>
<feColorMatrix type="matrix" values="0 0 0 0 0.115349 0 0 0 0 0.163721 0 0 0 0 0.204651 0 0 0 0.04 0"/>
<feBlend mode="normal" in2="BackgroundImageFix" result="effect1_dropShadow_292_4947"/>
<feBlend mode="normal" in="SourceGraphic" in2="effect1_dropShadow_292_4947" result="shape"/>
</filter>
<filter id="filter3_d_292_4947" x="5" y="218" width="140" height="72" filterUnits="userSpaceOnUse" color-interpolation-filters="sRGB">
<feFlood flood-opacity="0" result="BackgroundImageFix"/>
<feColorMatrix in="SourceAlpha" type="matrix" values="0 0 0 0 0 0 0 0 0 0 0 0 0 0 0 0 0 0 127 0" result="hardAlpha"/>
<feMorphology radius="20" operator="erode" in="SourceAlpha" result="effect1_dropShadow_292_4947"/>
<feOffset dx="16" dy="22"/>
<feGaussianBlur stdDeviation="10"/>
<feComposite in2="hardAlpha" operator="out"/>
<feColorMatrix type="matrix" values="0 0 0 0 0.115349 0 0 0 0 0.163721 0 0 0 0 0.204651 0 0 0 0.04 0"/>
<feBlend mode="normal" in2="BackgroundImageFix" result="effect1_dropShadow_292_4947"/>
<feBlend mode="normal" in="SourceGraphic" in2="effect1_dropShadow_292_4947" result="shape"/>
</filter>
</defs>
</svg>
