<svg width="692" height="290" viewBox="0 0 692 290" fill="none" xmlns="http://www.w3.org/2000/svg">
<path d="M133 243H172.162C189.835 243 204.162 228.673 204.162 211V166C204.162 148.327 218.489 134 236.162 134H353" stroke="#2B7979"/>
<path d="M364 134H403.162C420.835 134 435.162 119.673 435.162 102V57C435.162 39.3269 449.489 25 467.162 25H584" stroke="#2B7979"/>
<path d="M364 134H403.162C420.835 134 435.162 148.327 435.162 166V211C435.162 228.673 449.489 243 467.162 243H584" stroke="#2B7979"/>
<g filter="url(#filter0_bd_2182_5931)">
<rect x="265" y="78" width="112" height="112" rx="56" fill="#FCFCFC" fill-opacity="0.8" shape-rendering="crispEdges"/>
<rect x="259" y="72" width="124" height="124" rx="62" stroke="white" stroke-opacity="0.04" stroke-width="12" shape-rendering="crispEdges"/>
<path d="M321 146C324.182 145.997 327.232 144.731 329.482 142.482C331.731 140.232 332.997 137.182 333 134V118C333 114.817 331.736 111.765 329.485 109.515C327.235 107.264 324.183 106 321 106C317.817 106 314.765 107.264 312.515 109.515C310.264 111.765 309 114.817 309 118V134C309.003 137.182 310.269 140.232 312.518 142.482C314.768 144.731 317.818 145.997 321 146ZM313 118C313 115.878 313.843 113.843 315.343 112.343C316.843 110.843 318.878 110 321 110C323.122 110 325.157 110.843 326.657 112.343C328.157 113.843 329 115.878 329 118V134C329 136.122 328.157 138.157 326.657 139.657C325.157 141.157 323.122 142 321 142C318.878 142 316.843 141.157 315.343 139.657C313.843 138.157 313 136.122 313 134V118ZM323 153.9V162C323 162.53 322.789 163.039 322.414 163.414C322.039 163.789 321.53 164 321 164C320.47 164 319.961 163.789 319.586 163.414C319.211 163.039 319 162.53 319 162V153.9C314.069 153.398 309.499 151.086 306.175 147.41C302.85 143.734 301.006 138.956 301 134C301 133.47 301.211 132.961 301.586 132.586C301.961 132.211 302.47 132 303 132C303.53 132 304.039 132.211 304.414 132.586C304.789 132.961 305 133.47 305 134C305 138.243 306.686 142.313 309.686 145.314C312.687 148.314 316.757 150 321 150C325.243 150 329.313 148.314 332.314 145.314C335.314 142.313 337 138.243 337 134C337 133.47 337.211 132.961 337.586 132.586C337.961 132.211 338.47 132 339 132C339.53 132 340.039 132.211 340.414 132.586C340.789 132.961 341 133.47 341 134C340.994 138.956 339.15 143.734 335.825 147.41C332.501 151.086 327.931 153.398 323 153.9Z" fill="#404040"/>
</g>
<g filter="url(#filter1_d_2182_5931)">
<rect x="512" y="4" width="160" height="42" rx="21" fill="white" shape-rendering="crispEdges"/>
<rect x="510" y="2" width="164" height="46" rx="23" stroke="white" stroke-opacity="0.12" stroke-width="4" shape-rendering="crispEdges"/>
<path d="M549.75 32.5C549.75 32.6989 549.671 32.8897 549.53 33.0303C549.39 33.171 549.199 33.25 549 33.25H531C530.801 33.25 530.61 33.171 530.47 33.0303C530.329 32.8897 530.25 32.6989 530.25 32.5V17.5C530.25 17.3011 530.329 17.1103 530.47 16.9697C530.61 16.829 530.801 16.75 531 16.75C531.199 16.75 531.39 16.829 531.53 16.9697C531.671 17.1103 531.75 17.3011 531.75 17.5V27.6897L536.469 22.9694C536.539 22.8996 536.622 22.8443 536.713 22.8066C536.804 22.7688 536.901 22.7494 537 22.7494C537.099 22.7494 537.196 22.7688 537.287 22.8066C537.378 22.8443 537.461 22.8996 537.531 22.9694L540 25.4397L544.94 20.5H543C542.801 20.5 542.61 20.421 542.47 20.2803C542.329 20.1397 542.25 19.9489 542.25 19.75C542.25 19.5511 542.329 19.3603 542.47 19.2197C542.61 19.079 542.801 19 543 19H546.75C546.949 19 547.14 19.079 547.28 19.2197C547.421 19.3603 547.5 19.5511 547.5 19.75V23.5C547.5 23.6989 547.421 23.8897 547.28 24.0303C547.14 24.171 546.949 24.25 546.75 24.25C546.551 24.25 546.36 24.171 546.22 24.0303C546.079 23.8897 546 23.6989 546 23.5V21.5603L540.531 27.0306C540.461 27.1004 540.378 27.1557 540.287 27.1934C540.196 27.2312 540.099 27.2506 540 27.2506C539.901 27.2506 539.804 27.2312 539.713 27.1934C539.622 27.1557 539.539 27.1004 539.469 27.0306L537 24.5603L531.75 29.8103V31.75H549C549.199 31.75 549.39 31.829 549.53 31.9697C549.671 32.1103 549.75 32.3011 549.75 32.5Z" fill="#0F0F0F"/>
<path d="M572.311 23.1662H570.317C570.24 22.7401 570.097 22.3651 569.888 22.0412C569.68 21.7173 569.424 21.4425 569.121 21.2166C568.819 20.9908 568.48 20.8203 568.105 20.7053C567.734 20.5902 567.34 20.5327 566.923 20.5327C566.168 20.5327 565.493 20.7223 564.896 21.1016C564.304 21.4808 563.835 22.0369 563.49 22.7699C563.149 23.5028 562.979 24.3977 562.979 25.4545C562.979 26.5199 563.149 27.419 563.49 28.152C563.835 28.8849 564.306 29.4389 564.903 29.8139C565.499 30.1889 566.17 30.3764 566.916 30.3764C567.33 30.3764 567.722 30.321 568.092 30.2102C568.467 30.0952 568.806 29.9268 569.109 29.7053C569.411 29.4837 569.667 29.2131 569.876 28.8935C570.089 28.5696 570.236 28.1989 570.317 27.7812L572.311 27.7876C572.205 28.4311 571.998 29.0234 571.691 29.5646C571.388 30.1016 570.999 30.5661 570.521 30.9581C570.048 31.3459 569.507 31.6463 568.898 31.8594C568.288 32.0724 567.624 32.179 566.903 32.179C565.77 32.179 564.76 31.9105 563.874 31.3736C562.987 30.8324 562.288 30.0589 561.777 29.0533C561.27 28.0476 561.016 26.848 561.016 25.4545C561.016 24.0568 561.272 22.8572 561.783 21.8558C562.295 20.8501 562.994 20.0788 563.88 19.5419C564.766 19.0007 565.774 18.7301 566.903 18.7301C567.598 18.7301 568.246 18.8303 568.847 19.0305C569.452 19.2266 569.995 19.5163 570.477 19.8999C570.958 20.2791 571.357 20.7436 571.672 21.2933C571.987 21.8388 572.2 22.4631 572.311 23.1662ZM576.432 26.1705V32H574.521V18.9091H576.407V23.7798H576.528C576.758 23.2514 577.11 22.8317 577.583 22.5206C578.056 22.2095 578.674 22.054 579.437 22.054C580.11 22.054 580.698 22.1925 581.201 22.4695C581.708 22.7464 582.1 23.1598 582.377 23.7095C582.658 24.255 582.799 24.9368 582.799 25.755V32H580.888V25.9851C580.888 25.2649 580.702 24.7067 580.331 24.3104C579.961 23.9098 579.445 23.7095 578.785 23.7095C578.333 23.7095 577.928 23.8054 577.57 23.9972C577.216 24.1889 576.937 24.4702 576.733 24.8409C576.532 25.2074 576.432 25.6506 576.432 26.1705ZM588.206 32.2173C587.584 32.2173 587.022 32.1023 586.519 31.8722C586.016 31.6378 585.618 31.299 585.324 30.8558C585.034 30.4126 584.889 29.8693 584.889 29.2259C584.889 28.6719 584.996 28.2159 585.209 27.858C585.422 27.5 585.709 27.2166 586.072 27.0078C586.434 26.799 586.839 26.6413 587.286 26.5348C587.733 26.4283 588.189 26.3473 588.654 26.2919C589.242 26.2237 589.719 26.1683 590.086 26.1257C590.452 26.0788 590.719 26.0043 590.885 25.902C591.051 25.7997 591.134 25.6335 591.134 25.4034V25.3587C591.134 24.8004 590.976 24.3679 590.661 24.0611C590.35 23.7543 589.885 23.6009 589.268 23.6009C588.624 23.6009 588.117 23.7436 587.746 24.0291C587.38 24.3104 587.126 24.6236 586.986 24.9688L585.189 24.5597C585.403 23.9631 585.714 23.4815 586.123 23.1151C586.536 22.7443 587.011 22.4759 587.548 22.3097C588.085 22.1392 588.65 22.054 589.242 22.054C589.634 22.054 590.05 22.1009 590.488 22.1946C590.932 22.2841 591.345 22.4503 591.729 22.6932C592.116 22.9361 592.434 23.2834 592.681 23.7351C592.928 24.1825 593.052 24.7642 593.052 25.4801V32H591.185V30.6577H591.108C590.985 30.9048 590.8 31.1477 590.552 31.3864C590.305 31.625 589.988 31.8232 589.6 31.9808C589.212 32.1385 588.748 32.2173 588.206 32.2173ZM588.622 30.6832C589.15 30.6832 589.602 30.5788 589.977 30.37C590.356 30.1612 590.644 29.8885 590.84 29.5518C591.04 29.2109 591.14 28.8466 591.14 28.4588V27.1932C591.072 27.2614 590.94 27.3253 590.744 27.3849C590.552 27.4403 590.333 27.4893 590.086 27.532C589.839 27.5703 589.598 27.6065 589.363 27.6406C589.129 27.6705 588.933 27.696 588.775 27.7173C588.405 27.7642 588.066 27.843 587.759 27.9538C587.456 28.0646 587.214 28.2244 587.03 28.4332C586.851 28.6378 586.762 28.9105 586.762 29.2514C586.762 29.7244 586.937 30.0824 587.286 30.3253C587.635 30.5639 588.081 30.6832 588.622 30.6832ZM597.509 18.9091V32H595.597V18.9091H597.509ZM601.991 18.9091V32H600.08V18.9091H601.991ZM608.794 32.1982C607.826 32.1982 606.993 31.9915 606.294 31.5781C605.6 31.1605 605.063 30.5746 604.684 29.8203C604.309 29.0618 604.121 28.1733 604.121 27.1548C604.121 26.1491 604.309 25.2628 604.684 24.4957C605.063 23.7287 605.591 23.13 606.269 22.6996C606.951 22.2692 607.748 22.054 608.659 22.054C609.213 22.054 609.75 22.1456 610.27 22.3288C610.79 22.5121 611.257 22.7997 611.67 23.1918C612.083 23.5838 612.409 24.093 612.648 24.7195C612.887 25.3416 613.006 26.098 613.006 26.9886V27.6662H605.201V26.2344H611.133C611.133 25.7315 611.031 25.2862 610.826 24.8984C610.622 24.5064 610.334 24.1974 609.963 23.9716C609.597 23.7457 609.167 23.6328 608.672 23.6328C608.135 23.6328 607.667 23.7649 607.266 24.0291C606.87 24.2891 606.563 24.63 606.346 25.0518C606.132 25.4695 606.026 25.9233 606.026 26.4134V27.532C606.026 28.1882 606.141 28.7464 606.371 29.2067C606.605 29.6669 606.931 30.0185 607.349 30.2614C607.767 30.5 608.255 30.6193 608.813 30.6193C609.175 30.6193 609.505 30.5682 609.804 30.4659C610.102 30.3594 610.36 30.2017 610.577 29.9929C610.794 29.7841 610.961 29.5263 611.076 29.2195L612.885 29.5455C612.74 30.0781 612.48 30.5447 612.105 30.9453C611.734 31.3416 611.267 31.6506 610.705 31.8722C610.147 32.0895 609.51 32.1982 608.794 32.1982ZM617.038 26.1705V32H615.127V22.1818H616.961V23.7798H617.083C617.308 23.2599 617.662 22.8423 618.144 22.527C618.629 22.2116 619.241 22.054 619.978 22.054C620.647 22.054 621.233 22.1946 621.736 22.4759C622.239 22.7528 622.629 23.1662 622.906 23.7159C623.183 24.2656 623.321 24.9453 623.321 25.755V32H621.41V25.9851C621.41 25.2734 621.225 24.7173 620.854 24.3168C620.483 23.9119 619.974 23.7095 619.326 23.7095C618.883 23.7095 618.489 23.8054 618.144 23.9972C617.803 24.1889 617.532 24.4702 617.332 24.8409C617.136 25.2074 617.038 25.6506 617.038 26.1705ZM630.001 35.8864C629.221 35.8864 628.55 35.7841 627.987 35.5795C627.429 35.375 626.973 35.1044 626.619 34.7678C626.266 34.4311 626.002 34.0625 625.827 33.6619L627.47 32.9844C627.585 33.1719 627.738 33.37 627.93 33.5788C628.126 33.7919 628.39 33.973 628.722 34.1222C629.059 34.2713 629.492 34.3459 630.02 34.3459C630.744 34.3459 631.343 34.169 631.816 33.8153C632.289 33.4659 632.526 32.9077 632.526 32.1406V30.2102H632.404C632.289 30.419 632.123 30.6513 631.906 30.907C631.693 31.1626 631.399 31.3842 631.024 31.5717C630.649 31.7592 630.161 31.853 629.56 31.853C628.784 31.853 628.085 31.6719 627.463 31.3097C626.845 30.9432 626.355 30.4041 625.993 29.6925C625.635 28.9766 625.456 28.0966 625.456 27.0526C625.456 26.0085 625.633 25.1136 625.987 24.3679C626.345 23.6222 626.835 23.0511 627.457 22.6548C628.079 22.2543 628.784 22.054 629.573 22.054C630.182 22.054 630.674 22.1562 631.049 22.3608C631.424 22.5611 631.716 22.7955 631.925 23.0639C632.138 23.3324 632.302 23.5689 632.417 23.7734H632.558V22.1818H634.431V32.2173C634.431 33.0611 634.235 33.7536 633.843 34.2947C633.45 34.8359 632.92 35.2365 632.251 35.4964C631.586 35.7564 630.836 35.8864 630.001 35.8864ZM629.982 30.2678C630.531 30.2678 630.996 30.1399 631.375 29.8842C631.759 29.6243 632.048 29.2536 632.244 28.772C632.445 28.2862 632.545 27.7045 632.545 27.027C632.545 26.3665 632.447 25.7848 632.251 25.282C632.055 24.7791 631.767 24.3871 631.388 24.1058C631.009 23.8203 630.54 23.6776 629.982 23.6776C629.406 23.6776 628.927 23.8267 628.544 24.125C628.16 24.419 627.87 24.8196 627.674 25.3267C627.482 25.8338 627.387 26.4006 627.387 27.027C627.387 27.6705 627.485 28.2351 627.681 28.7209C627.877 29.2067 628.166 29.5859 628.55 29.8587C628.938 30.1314 629.415 30.2678 629.982 30.2678ZM641.225 32.1982C640.258 32.1982 639.425 31.9915 638.726 31.5781C638.031 31.1605 637.494 30.5746 637.115 29.8203C636.74 29.0618 636.553 28.1733 636.553 27.1548C636.553 26.1491 636.74 25.2628 637.115 24.4957C637.494 23.7287 638.023 23.13 638.7 22.6996C639.382 22.2692 640.179 22.054 641.091 22.054C641.645 22.054 642.182 22.1456 642.702 22.3288C643.222 22.5121 643.688 22.7997 644.102 23.1918C644.515 23.5838 644.841 24.093 645.08 24.7195C645.318 25.3416 645.438 26.098 645.438 26.9886V27.6662H637.633V26.2344H643.565C643.565 25.7315 643.463 25.2862 643.258 24.8984C643.053 24.5064 642.766 24.1974 642.395 23.9716C642.029 23.7457 641.598 23.6328 641.104 23.6328C640.567 23.6328 640.098 23.7649 639.698 24.0291C639.301 24.2891 638.994 24.63 638.777 25.0518C638.564 25.4695 638.458 25.9233 638.458 26.4134V27.532C638.458 28.1882 638.573 28.7464 638.803 29.2067C639.037 29.6669 639.363 30.0185 639.781 30.2614C640.198 30.5 640.686 30.6193 641.244 30.6193C641.607 30.6193 641.937 30.5682 642.235 30.4659C642.534 30.3594 642.791 30.2017 643.009 29.9929C643.226 29.7841 643.392 29.5263 643.507 29.2195L645.316 29.5455C645.171 30.0781 644.911 30.5447 644.536 30.9453C644.166 31.3416 643.699 31.6506 643.137 31.8722C642.578 32.0895 641.941 32.1982 641.225 32.1982ZM654.915 24.5788L653.183 24.8857C653.111 24.6641 652.996 24.4531 652.838 24.2528C652.685 24.0526 652.476 23.8885 652.212 23.7607C651.947 23.6328 651.617 23.5689 651.221 23.5689C650.68 23.5689 650.228 23.6903 649.866 23.9332C649.504 24.1719 649.322 24.4808 649.322 24.8601C649.322 25.1882 649.444 25.4524 649.687 25.6527C649.93 25.853 650.322 26.017 650.863 26.1449L652.423 26.5028C653.326 26.7116 653.999 27.0334 654.442 27.468C654.886 27.9027 655.107 28.4673 655.107 29.1619C655.107 29.75 654.937 30.2741 654.596 30.7344C654.259 31.1903 653.788 31.5483 653.183 31.8082C652.582 32.0682 651.886 32.1982 651.093 32.1982C649.994 32.1982 649.097 31.9638 648.402 31.495C647.707 31.022 647.281 30.3509 647.124 29.4815L648.971 29.2003C649.086 29.6818 649.322 30.0462 649.68 30.2933C650.038 30.5362 650.505 30.6577 651.08 30.6577C651.707 30.6577 652.207 30.5277 652.582 30.2678C652.957 30.0036 653.145 29.6818 653.145 29.3026C653.145 28.9957 653.03 28.7379 652.8 28.5291C652.574 28.3203 652.227 28.1626 651.758 28.0561L650.096 27.6918C649.18 27.483 648.502 27.1506 648.063 26.6946C647.629 26.2386 647.411 25.6612 647.411 24.9624C647.411 24.3828 647.573 23.8757 647.897 23.4411C648.221 23.0064 648.668 22.6676 649.239 22.4247C649.81 22.1776 650.464 22.054 651.202 22.054C652.263 22.054 653.098 22.2841 653.707 22.7443C654.317 23.2003 654.719 23.8118 654.915 24.5788Z" fill="#525252"/>
</g>
<g filter="url(#filter2_d_2182_5931)">
<rect x="512" y="222" width="145" height="42" rx="21" fill="white" shape-rendering="crispEdges"/>
<rect x="510" y="220" width="149" height="46" rx="23" stroke="white" stroke-opacity="0.12" stroke-width="4" shape-rendering="crispEdges"/>
<g clip-path="url(#clip0_2182_5931)">
<path d="M536.25 244.5V243C536.25 242.801 536.329 242.61 536.47 242.47C536.61 242.329 536.801 242.25 537 242.25C537.199 242.25 537.39 242.329 537.53 242.47C537.671 242.61 537.75 242.801 537.75 243V244.5C537.75 244.699 537.671 244.89 537.53 245.03C537.39 245.171 537.199 245.25 537 245.25C536.801 245.25 536.61 245.171 536.47 245.03C536.329 244.89 536.25 244.699 536.25 244.5ZM540 245.25C540.199 245.25 540.39 245.171 540.53 245.03C540.671 244.89 540.75 244.699 540.75 244.5V242.25C540.75 242.051 540.671 241.86 540.53 241.72C540.39 241.579 540.199 241.5 540 241.5C539.801 241.5 539.61 241.579 539.47 241.72C539.329 241.86 539.25 242.051 539.25 242.25V244.5C539.25 244.699 539.329 244.89 539.47 245.03C539.61 245.171 539.801 245.25 540 245.25ZM543 245.25C543.199 245.25 543.39 245.171 543.53 245.03C543.671 244.89 543.75 244.699 543.75 244.5V241.5C543.75 241.301 543.671 241.11 543.53 240.97C543.39 240.829 543.199 240.75 543 240.75C542.801 240.75 542.61 240.829 542.47 240.97C542.329 241.11 542.25 241.301 542.25 241.5V244.5C542.25 244.699 542.329 244.89 542.47 245.03C542.61 245.171 542.801 245.25 543 245.25ZM548.25 238.5V247.5H549C549.199 247.5 549.39 247.579 549.53 247.72C549.671 247.86 549.75 248.051 549.75 248.25C549.75 248.449 549.671 248.64 549.53 248.78C549.39 248.921 549.199 249 549 249H540.75V250.629C541.25 250.806 541.672 251.154 541.941 251.612C542.209 252.07 542.307 252.608 542.218 253.131C542.128 253.654 541.856 254.129 541.45 254.471C541.044 254.813 540.531 255.001 540 255.001C539.469 255.001 538.956 254.813 538.55 254.471C538.144 254.129 537.872 253.654 537.782 253.131C537.693 252.608 537.791 252.07 538.059 251.612C538.328 251.154 538.75 250.806 539.25 250.629V249H531C530.801 249 530.61 248.921 530.47 248.78C530.329 248.64 530.25 248.449 530.25 248.25C530.25 248.051 530.329 247.86 530.47 247.72C530.61 247.579 530.801 247.5 531 247.5H531.75V238.5C531.352 238.5 530.971 238.342 530.689 238.061C530.408 237.779 530.25 237.398 530.25 237V235.5C530.25 235.102 530.408 234.721 530.689 234.439C530.971 234.158 531.352 234 531.75 234H548.25C548.648 234 549.029 234.158 549.311 234.439C549.592 234.721 549.75 235.102 549.75 235.5V237C549.75 237.398 549.592 237.779 549.311 238.061C549.029 238.342 548.648 238.5 548.25 238.5ZM540.75 252.75C540.75 252.602 540.706 252.457 540.624 252.333C540.541 252.21 540.424 252.114 540.287 252.057C540.15 252 539.999 251.985 539.854 252.014C539.708 252.043 539.575 252.115 539.47 252.22C539.365 252.325 539.293 252.458 539.264 252.604C539.235 252.749 539.25 252.9 539.307 253.037C539.364 253.174 539.46 253.291 539.583 253.374C539.707 253.456 539.852 253.5 540 253.5C540.199 253.5 540.39 253.421 540.53 253.28C540.671 253.14 540.75 252.949 540.75 252.75ZM531.75 237H548.25V235.5H531.75V237ZM546.75 238.5H533.25V247.5H546.75V238.5Z" fill="#0F0F0F"/>
</g>
<path d="M568.578 240.348C568.51 239.743 568.229 239.274 567.734 238.942C567.24 238.605 566.618 238.437 565.868 238.437C565.331 238.437 564.866 238.522 564.474 238.692C564.082 238.859 563.778 239.089 563.56 239.383C563.347 239.673 563.241 240.003 563.241 240.374C563.241 240.685 563.313 240.953 563.458 241.179C563.607 241.405 563.801 241.594 564.04 241.748C564.283 241.897 564.543 242.023 564.82 242.125C565.097 242.223 565.363 242.304 565.619 242.368L566.897 242.7C567.315 242.803 567.743 242.941 568.182 243.116C568.621 243.29 569.028 243.521 569.403 243.806C569.778 244.092 570.08 244.445 570.31 244.867C570.545 245.289 570.662 245.794 570.662 246.382C570.662 247.124 570.47 247.782 570.087 248.357C569.707 248.933 569.156 249.386 568.431 249.719C567.711 250.051 566.839 250.217 565.817 250.217C564.837 250.217 563.989 250.062 563.273 249.751C562.557 249.44 561.996 248.999 561.592 248.428C561.187 247.852 560.963 247.17 560.92 246.382H562.902C562.94 246.855 563.094 247.249 563.362 247.565C563.635 247.876 563.982 248.108 564.404 248.261C564.83 248.411 565.297 248.485 565.804 248.485C566.362 248.485 566.859 248.398 567.293 248.223C567.732 248.044 568.077 247.797 568.329 247.482C568.58 247.162 568.706 246.789 568.706 246.363C568.706 245.975 568.595 245.658 568.374 245.411C568.156 245.163 567.86 244.959 567.485 244.797C567.114 244.635 566.695 244.492 566.226 244.369L564.679 243.947C563.631 243.661 562.8 243.241 562.186 242.688C561.577 242.134 561.272 241.401 561.272 240.489C561.272 239.734 561.477 239.076 561.886 238.513C562.295 237.951 562.849 237.514 563.548 237.203C564.246 236.888 565.035 236.73 565.913 236.73C566.799 236.73 567.581 236.886 568.259 237.197C568.94 237.508 569.477 237.936 569.869 238.482C570.261 239.023 570.466 239.645 570.483 240.348H568.578ZM577.004 250.198C576.084 250.198 575.281 249.987 574.595 249.565C573.909 249.143 573.376 248.553 572.997 247.795C572.617 247.036 572.428 246.15 572.428 245.136C572.428 244.117 572.617 243.227 572.997 242.464C573.376 241.701 573.909 241.109 574.595 240.687C575.281 240.265 576.084 240.054 577.004 240.054C577.925 240.054 578.728 240.265 579.414 240.687C580.1 241.109 580.633 241.701 581.012 242.464C581.392 243.227 581.581 244.117 581.581 245.136C581.581 246.15 581.392 247.036 581.012 247.795C580.633 248.553 580.1 249.143 579.414 249.565C578.728 249.987 577.925 250.198 577.004 250.198ZM577.011 248.594C577.607 248.594 578.102 248.436 578.494 248.121C578.886 247.805 579.176 247.386 579.363 246.862C579.555 246.337 579.651 245.76 579.651 245.129C579.651 244.503 579.555 243.928 579.363 243.403C579.176 242.875 578.886 242.451 578.494 242.131C578.102 241.812 577.607 241.652 577.011 241.652C576.41 241.652 575.911 241.812 575.515 242.131C575.123 242.451 574.831 242.875 574.639 243.403C574.452 243.928 574.358 244.503 574.358 245.129C574.358 245.76 574.452 246.337 574.639 246.862C574.831 247.386 575.123 247.805 575.515 248.121C575.911 248.436 576.41 248.594 577.011 248.594ZM585.626 236.909V250H583.714V236.909H585.626ZM594.416 245.928V240.182H596.334V250H594.455V248.3H594.352C594.127 248.824 593.764 249.261 593.266 249.61C592.771 249.955 592.156 250.128 591.419 250.128C590.788 250.128 590.23 249.989 589.744 249.712C589.262 249.431 588.883 249.016 588.606 248.466C588.333 247.916 588.197 247.237 588.197 246.427V240.182H590.108V246.197C590.108 246.866 590.294 247.398 590.664 247.795C591.035 248.191 591.517 248.389 592.109 248.389C592.467 248.389 592.823 248.3 593.176 248.121C593.534 247.942 593.83 247.671 594.065 247.309C594.303 246.947 594.421 246.487 594.416 245.928ZM603.485 240.182V241.716H598.122V240.182H603.485ZM599.56 237.83H601.472V247.117C601.472 247.488 601.527 247.767 601.638 247.955C601.749 248.138 601.891 248.263 602.066 248.332C602.245 248.396 602.439 248.428 602.648 248.428C602.801 248.428 602.935 248.417 603.05 248.396C603.165 248.374 603.255 248.357 603.319 248.344L603.664 249.923C603.553 249.966 603.396 250.009 603.191 250.051C602.987 250.098 602.731 250.124 602.424 250.128C601.921 250.136 601.452 250.047 601.018 249.859C600.583 249.672 600.232 249.382 599.963 248.99C599.695 248.598 599.56 248.106 599.56 247.513V237.83ZM605.599 250V240.182H607.51V250H605.599ZM606.564 238.667C606.232 238.667 605.947 238.556 605.708 238.335C605.474 238.109 605.356 237.84 605.356 237.529C605.356 237.214 605.474 236.945 605.708 236.724C605.947 236.498 606.232 236.385 606.564 236.385C606.897 236.385 607.18 236.498 607.415 236.724C607.653 236.945 607.773 237.214 607.773 237.529C607.773 237.84 607.653 238.109 607.415 238.335C607.18 238.556 606.897 238.667 606.564 238.667ZM614.217 250.198C613.297 250.198 612.494 249.987 611.808 249.565C611.121 249.143 610.589 248.553 610.21 247.795C609.83 247.036 609.641 246.15 609.641 245.136C609.641 244.117 609.83 243.227 610.21 242.464C610.589 241.701 611.121 241.109 611.808 240.687C612.494 240.265 613.297 240.054 614.217 240.054C615.138 240.054 615.941 240.265 616.627 240.687C617.313 241.109 617.846 241.701 618.225 242.464C618.604 243.227 618.794 244.117 618.794 245.136C618.794 246.15 618.604 247.036 618.225 247.795C617.846 248.553 617.313 249.143 616.627 249.565C615.941 249.987 615.138 250.198 614.217 250.198ZM614.224 248.594C614.82 248.594 615.315 248.436 615.707 248.121C616.099 247.805 616.388 247.386 616.576 246.862C616.768 246.337 616.864 245.76 616.864 245.129C616.864 244.503 616.768 243.928 616.576 243.403C616.388 242.875 616.099 242.451 615.707 242.131C615.315 241.812 614.82 241.652 614.224 241.652C613.623 241.652 613.124 241.812 612.728 242.131C612.336 242.451 612.044 242.875 611.852 243.403C611.665 243.928 611.571 244.503 611.571 245.129C611.571 245.76 611.665 246.337 611.852 246.862C612.044 247.386 612.336 247.805 612.728 248.121C613.124 248.436 613.623 248.594 614.224 248.594ZM622.839 244.17V250H620.927V240.182H622.762V241.78H622.883C623.109 241.26 623.463 240.842 623.944 240.527C624.43 240.212 625.042 240.054 625.779 240.054C626.448 240.054 627.034 240.195 627.537 240.476C628.04 240.753 628.43 241.166 628.706 241.716C628.983 242.266 629.122 242.945 629.122 243.755V250H627.211V243.985C627.211 243.273 627.025 242.717 626.655 242.317C626.284 241.912 625.775 241.71 625.127 241.71C624.684 241.71 624.29 241.805 623.944 241.997C623.604 242.189 623.333 242.47 623.133 242.841C622.937 243.207 622.839 243.651 622.839 244.17ZM639.042 242.579L637.31 242.886C637.238 242.664 637.123 242.453 636.965 242.253C636.812 242.053 636.603 241.888 636.339 241.761C636.074 241.633 635.744 241.569 635.348 241.569C634.807 241.569 634.355 241.69 633.993 241.933C633.631 242.172 633.449 242.481 633.449 242.86C633.449 243.188 633.571 243.452 633.814 243.653C634.057 243.853 634.449 244.017 634.99 244.145L636.55 244.503C637.453 244.712 638.126 245.033 638.569 245.468C639.013 245.903 639.234 246.467 639.234 247.162C639.234 247.75 639.064 248.274 638.723 248.734C638.386 249.19 637.915 249.548 637.31 249.808C636.709 250.068 636.013 250.198 635.22 250.198C634.121 250.198 633.224 249.964 632.529 249.495C631.834 249.022 631.408 248.351 631.251 247.482L633.098 247.2C633.213 247.682 633.449 248.046 633.807 248.293C634.165 248.536 634.632 248.658 635.207 248.658C635.834 248.658 636.334 248.528 636.709 248.268C637.084 248.004 637.272 247.682 637.272 247.303C637.272 246.996 637.157 246.738 636.927 246.529C636.701 246.32 636.354 246.163 635.885 246.056L634.223 245.692C633.307 245.483 632.629 245.151 632.19 244.695C631.756 244.239 631.538 243.661 631.538 242.962C631.538 242.383 631.7 241.876 632.024 241.441C632.348 241.006 632.795 240.668 633.366 240.425C633.937 240.178 634.591 240.054 635.329 240.054C636.39 240.054 637.225 240.284 637.834 240.744C638.444 241.2 638.846 241.812 639.042 242.579Z" fill="#525252"/>
</g>
<g filter="url(#filter3_d_2182_5931)">
<rect x="4" y="222" width="160" height="42" rx="21" fill="white" shape-rendering="crispEdges"/>
<rect x="2" y="220" width="164" height="46" rx="23" stroke="white" stroke-opacity="0.12" stroke-width="4" shape-rendering="crispEdges"/>
<path d="M39.5 234.75H24.5C24.1022 234.75 23.7206 234.908 23.4393 235.189C23.158 235.471 23 235.852 23 236.25V241.5C23 246.443 25.3925 249.438 27.3997 251.08C29.5616 252.848 31.7122 253.448 31.8059 253.474C31.9348 253.509 32.0708 253.509 32.1997 253.474C32.2934 253.448 34.4413 252.848 36.6059 251.08C38.6075 249.438 41 246.443 41 241.5V236.25C41 235.852 40.842 235.471 40.5607 235.189C40.2794 234.908 39.8978 234.75 39.5 234.75ZM39.5 241.5C39.5 244.975 38.2194 247.796 35.6937 249.883C34.5943 250.788 33.344 251.493 32 251.964C30.6736 251.501 29.4387 250.809 28.3513 249.92C25.7956 247.829 24.5 244.997 24.5 241.5V236.25H39.5V241.5ZM27.7194 244.281C27.5786 244.14 27.4996 243.949 27.4996 243.75C27.4996 243.551 27.5786 243.36 27.7194 243.219C27.8601 243.079 28.051 243 28.25 243C28.449 243 28.6399 243.079 28.7806 243.219L30.5 244.94L35.2194 240.219C35.2891 240.15 35.3718 240.094 35.4628 240.057C35.5539 240.019 35.6515 240 35.75 240C35.8485 240 35.9461 240.019 36.0372 240.057C36.1282 240.094 36.2109 240.15 36.2806 240.219C36.3503 240.289 36.4056 240.372 36.4433 240.463C36.481 240.554 36.5004 240.651 36.5004 240.75C36.5004 240.849 36.481 240.946 36.4433 241.037C36.4056 241.128 36.3503 241.211 36.2806 241.281L31.0306 246.531C30.961 246.6 30.8783 246.656 30.7872 246.693C30.6962 246.731 30.5986 246.751 30.5 246.751C30.4014 246.751 30.3038 246.731 30.2128 246.693C30.1217 246.656 30.039 246.6 29.9694 246.531L27.7194 244.281Z" fill="#0F0F0F"/>
<path d="M64.3111 241.166H62.3168C62.2401 240.74 62.0973 240.365 61.8885 240.041C61.6797 239.717 61.424 239.442 61.1214 239.217C60.8189 238.991 60.4801 238.82 60.1051 238.705C59.7344 238.59 59.3402 238.533 58.9226 238.533C58.1683 238.533 57.4929 238.722 56.8963 239.102C56.304 239.481 55.8352 240.037 55.4901 240.77C55.1491 241.503 54.9787 242.398 54.9787 243.455C54.9787 244.52 55.1491 245.419 55.4901 246.152C55.8352 246.885 56.3061 247.439 56.9027 247.814C57.4993 248.189 58.1705 248.376 58.9162 248.376C59.3295 248.376 59.7216 248.321 60.0923 248.21C60.4673 248.095 60.8061 247.927 61.1087 247.705C61.4112 247.484 61.6669 247.213 61.8757 246.893C62.0888 246.57 62.2358 246.199 62.3168 245.781L64.3111 245.788C64.2045 246.431 63.9979 247.023 63.6911 247.565C63.3885 248.102 62.9986 248.566 62.5213 248.958C62.0483 249.346 61.5071 249.646 60.8977 249.859C60.2884 250.072 59.6236 250.179 58.9034 250.179C57.7699 250.179 56.7599 249.911 55.8736 249.374C54.9872 248.832 54.2884 248.059 53.777 247.053C53.2699 246.048 53.0163 244.848 53.0163 243.455C53.0163 242.057 53.272 240.857 53.7834 239.856C54.2947 238.85 54.9936 238.079 55.88 237.542C56.7663 237.001 57.7741 236.73 58.9034 236.73C59.598 236.73 60.2457 236.83 60.8466 237.031C61.4517 237.227 61.995 237.516 62.4766 237.9C62.9581 238.279 63.3565 238.744 63.6719 239.293C63.9872 239.839 64.2003 240.463 64.3111 241.166ZM70.6568 250.198C69.7363 250.198 68.9331 249.987 68.247 249.565C67.5609 249.143 67.0282 248.553 66.649 247.795C66.2697 247.036 66.0801 246.15 66.0801 245.136C66.0801 244.117 66.2697 243.227 66.649 242.464C67.0282 241.701 67.5609 241.109 68.247 240.687C68.9331 240.265 69.7363 240.054 70.6568 240.054C71.5772 240.054 72.3805 240.265 73.0666 240.687C73.7527 241.109 74.2853 241.701 74.6646 242.464C75.0439 243.227 75.2335 244.117 75.2335 245.136C75.2335 246.15 75.0439 247.036 74.6646 247.795C74.2853 248.553 73.7527 249.143 73.0666 249.565C72.3805 249.987 71.5772 250.198 70.6568 250.198ZM70.6632 248.594C71.2598 248.594 71.7541 248.436 72.1461 248.121C72.5382 247.805 72.8279 247.386 73.0154 246.862C73.2072 246.337 73.3031 245.76 73.3031 245.129C73.3031 244.503 73.2072 243.928 73.0154 243.403C72.8279 242.875 72.5382 242.451 72.1461 242.131C71.7541 241.812 71.2598 241.652 70.6632 241.652C70.0623 241.652 69.5637 241.812 69.1674 242.131C68.7754 242.451 68.4835 242.875 68.2917 243.403C68.1042 243.928 68.0105 244.503 68.0105 245.129C68.0105 245.76 68.1042 246.337 68.2917 246.862C68.4835 247.386 68.7754 247.805 69.1674 248.121C69.5637 248.436 70.0623 248.594 70.6632 248.594ZM79.2781 244.17V250H77.3668V240.182H79.2013V241.78H79.3228C79.5487 241.26 79.9023 240.842 80.3839 240.527C80.8697 240.212 81.4812 240.054 82.2184 240.054C82.8874 240.054 83.4734 240.195 83.9762 240.476C84.479 240.753 84.869 241.166 85.146 241.716C85.4229 242.266 85.5614 242.945 85.5614 243.755V250H83.6502V243.985C83.6502 243.273 83.4648 242.717 83.0941 242.317C82.7234 241.912 82.2141 241.71 81.5664 241.71C81.1232 241.71 80.729 241.805 80.3839 241.997C80.043 242.189 79.7724 242.47 79.5721 242.841C79.3761 243.207 79.2781 243.651 79.2781 244.17ZM92.2603 250.198C91.31 250.198 90.4918 249.983 89.8058 249.553C89.1239 249.118 88.5998 248.519 88.2333 247.756C87.8668 246.994 87.6836 246.12 87.6836 245.136C87.6836 244.138 87.8711 243.259 88.2461 242.496C88.6211 241.729 89.1495 241.13 89.8313 240.7C90.5131 240.269 91.3164 240.054 92.2411 240.054C92.9869 240.054 93.6516 240.192 94.2354 240.469C94.8192 240.742 95.2901 241.126 95.6481 241.62C96.0103 242.114 96.2255 242.692 96.2937 243.352H94.4336C94.3313 242.892 94.0969 242.496 93.7305 242.163C93.3683 241.831 92.8825 241.665 92.2731 241.665C91.7404 241.665 91.2738 241.805 90.8732 242.087C90.4769 242.364 90.168 242.76 89.9464 243.276C89.7248 243.787 89.614 244.392 89.614 245.091C89.614 245.807 89.7227 246.425 89.94 246.945C90.1573 247.464 90.4641 247.867 90.8604 248.153C91.261 248.438 91.7319 248.581 92.2731 248.581C92.6353 248.581 92.9634 248.515 93.2575 248.383C93.5558 248.246 93.805 248.053 94.0053 247.801C94.2099 247.55 94.3526 247.247 94.4336 246.893H96.2937C96.2255 247.528 96.0188 248.095 95.6737 248.594C95.3285 249.092 94.8661 249.484 94.2866 249.77C93.7113 250.055 93.0359 250.198 92.2603 250.198ZM100.249 236.909V250H98.3375V236.909H100.249ZM109.039 245.928V240.182H110.957V250H109.078V248.3H108.975C108.75 248.824 108.387 249.261 107.889 249.61C107.395 249.955 106.779 250.128 106.042 250.128C105.411 250.128 104.853 249.989 104.367 249.712C103.885 249.431 103.506 249.016 103.229 248.466C102.956 247.916 102.82 247.237 102.82 246.427V240.182H104.731V246.197C104.731 246.866 104.917 247.398 105.287 247.795C105.658 248.191 106.14 248.389 106.732 248.389C107.09 248.389 107.446 248.3 107.799 248.121C108.157 247.942 108.453 247.671 108.688 247.309C108.926 246.947 109.044 246.487 109.039 245.928ZM120.882 242.579L119.15 242.886C119.078 242.664 118.963 242.453 118.805 242.253C118.651 242.053 118.443 241.888 118.178 241.761C117.914 241.633 117.584 241.569 117.188 241.569C116.646 241.569 116.195 241.69 115.833 241.933C115.47 242.172 115.289 242.481 115.289 242.86C115.289 243.188 115.411 243.452 115.654 243.653C115.896 243.853 116.289 244.017 116.83 244.145L118.389 244.503C119.293 244.712 119.966 245.033 120.409 245.468C120.852 245.903 121.074 246.467 121.074 247.162C121.074 247.75 120.904 248.274 120.563 248.734C120.226 249.19 119.755 249.548 119.15 249.808C118.549 250.068 117.852 250.198 117.06 250.198C115.96 250.198 115.063 249.964 114.369 249.495C113.674 249.022 113.248 248.351 113.09 247.482L114.938 247.2C115.053 247.682 115.289 248.046 115.647 248.293C116.005 248.536 116.472 248.658 117.047 248.658C117.673 248.658 118.174 248.528 118.549 248.268C118.924 248.004 119.112 247.682 119.112 247.303C119.112 246.996 118.997 246.738 118.767 246.529C118.541 246.32 118.193 246.163 117.725 246.056L116.063 245.692C115.146 245.483 114.469 245.151 114.03 244.695C113.595 244.239 113.378 243.661 113.378 242.962C113.378 242.383 113.54 241.876 113.864 241.441C114.188 241.006 114.635 240.668 115.206 240.425C115.777 240.178 116.431 240.054 117.169 240.054C118.23 240.054 119.065 240.284 119.674 240.744C120.284 241.2 120.686 241.812 120.882 242.579ZM123.175 250V240.182H125.087V250H123.175ZM124.141 238.667C123.808 238.667 123.523 238.556 123.284 238.335C123.05 238.109 122.933 237.84 122.933 237.529C122.933 237.214 123.05 236.945 123.284 236.724C123.523 236.498 123.808 236.385 124.141 236.385C124.473 236.385 124.756 236.498 124.991 236.724C125.229 236.945 125.349 237.214 125.349 237.529C125.349 237.84 125.229 238.109 124.991 238.335C124.756 238.556 124.473 238.667 124.141 238.667ZM131.794 250.198C130.873 250.198 130.07 249.987 129.384 249.565C128.698 249.143 128.165 248.553 127.786 247.795C127.406 247.036 127.217 246.15 127.217 245.136C127.217 244.117 127.406 243.227 127.786 242.464C128.165 241.701 128.698 241.109 129.384 240.687C130.07 240.265 130.873 240.054 131.794 240.054C132.714 240.054 133.517 240.265 134.203 240.687C134.889 241.109 135.422 241.701 135.801 242.464C136.181 243.227 136.37 244.117 136.37 245.136C136.37 246.15 136.181 247.036 135.801 247.795C135.422 248.553 134.889 249.143 134.203 249.565C133.517 249.987 132.714 250.198 131.794 250.198ZM131.8 248.594C132.396 248.594 132.891 248.436 133.283 248.121C133.675 247.805 133.965 247.386 134.152 246.862C134.344 246.337 134.44 245.76 134.44 245.129C134.44 244.503 134.344 243.928 134.152 243.403C133.965 242.875 133.675 242.451 133.283 242.131C132.891 241.812 132.396 241.652 131.8 241.652C131.199 241.652 130.7 241.812 130.304 242.131C129.912 242.451 129.62 242.875 129.428 243.403C129.241 243.928 129.147 244.503 129.147 245.129C129.147 245.76 129.241 246.337 129.428 246.862C129.62 247.386 129.912 247.805 130.304 248.121C130.7 248.436 131.199 248.594 131.8 248.594ZM140.415 244.17V250H138.504V240.182H140.338V241.78H140.46C140.685 241.26 141.039 240.842 141.521 240.527C142.006 240.212 142.618 240.054 143.355 240.054C144.024 240.054 144.61 240.195 145.113 240.476C145.616 240.753 146.006 241.166 146.283 241.716C146.56 242.266 146.698 242.945 146.698 243.755V250H144.787V243.985C144.787 243.273 144.602 242.717 144.231 242.317C143.86 241.912 143.351 241.71 142.703 241.71C142.26 241.71 141.866 241.805 141.521 241.997C141.18 242.189 140.909 242.47 140.709 242.841C140.513 243.207 140.415 243.651 140.415 244.17Z" fill="#525252"/>
</g>
<defs>
<filter id="filter0_bd_2182_5931" x="229" y="56" width="216" height="216" filterUnits="userSpaceOnUse" color-interpolation-filters="sRGB">
<feFlood flood-opacity="0" result="BackgroundImageFix"/>
<feGaussianBlur in="BackgroundImageFix" stdDeviation="4.5"/>
<feComposite in2="SourceAlpha" operator="in" result="effect1_backgroundBlur_2182_5931"/>
<feColorMatrix in="SourceAlpha" type="matrix" values="0 0 0 0 0 0 0 0 0 0 0 0 0 0 0 0 0 0 127 0" result="hardAlpha"/>
<feMorphology radius="20" operator="erode" in="SourceAlpha" result="effect2_dropShadow_2182_5931"/>
<feOffset dx="16" dy="30"/>
<feGaussianBlur stdDeviation="30"/>
<feComposite in2="hardAlpha" operator="out"/>
<feColorMatrix type="matrix" values="0 0 0 0 0.115349 0 0 0 0 0.163721 0 0 0 0 0.204651 0 0 0 0.12 0"/>
<feBlend mode="normal" in2="effect1_backgroundBlur_2182_5931" result="effect2_dropShadow_2182_5931"/>
<feBlend mode="normal" in="SourceGraphic" in2="effect2_dropShadow_2182_5931" result="shape"/>
</filter>
<filter id="filter1_d_2182_5931" x="508" y="0" width="184" height="72" filterUnits="userSpaceOnUse" color-interpolation-filters="sRGB">
<feFlood flood-opacity="0" result="BackgroundImageFix"/>
<feColorMatrix in="SourceAlpha" type="matrix" values="0 0 0 0 0 0 0 0 0 0 0 0 0 0 0 0 0 0 127 0" result="hardAlpha"/>
<feMorphology radius="20" operator="erode" in="SourceAlpha" result="effect1_dropShadow_2182_5931"/>
<feOffset dx="16" dy="22"/>
<feGaussianBlur stdDeviation="10"/>
<feComposite in2="hardAlpha" operator="out"/>
<feColorMatrix type="matrix" values="0 0 0 0 0.115349 0 0 0 0 0.163721 0 0 0 0 0.204651 0 0 0 0.04 0"/>
<feBlend mode="normal" in2="BackgroundImageFix" result="effect1_dropShadow_2182_5931"/>
<feBlend mode="normal" in="SourceGraphic" in2="effect1_dropShadow_2182_5931" result="shape"/>
</filter>
<filter id="filter2_d_2182_5931" x="508" y="218" width="169" height="72" filterUnits="userSpaceOnUse" color-interpolation-filters="sRGB">
<feFlood flood-opacity="0" result="BackgroundImageFix"/>
<feColorMatrix in="SourceAlpha" type="matrix" values="0 0 0 0 0 0 0 0 0 0 0 0 0 0 0 0 0 0 127 0" result="hardAlpha"/>
<feMorphology radius="20" operator="erode" in="SourceAlpha" result="effect1_dropShadow_2182_5931"/>
<feOffset dx="16" dy="22"/>
<feGaussianBlur stdDeviation="10"/>
<feComposite in2="hardAlpha" operator="out"/>
<feColorMatrix type="matrix" values="0 0 0 0 0.115349 0 0 0 0 0.163721 0 0 0 0 0.204651 0 0 0 0.04 0"/>
<feBlend mode="normal" in2="BackgroundImageFix" result="effect1_dropShadow_2182_5931"/>
<feBlend mode="normal" in="SourceGraphic" in2="effect1_dropShadow_2182_5931" result="shape"/>
</filter>
<filter id="filter3_d_2182_5931" x="0" y="218" width="184" height="72" filterUnits="userSpaceOnUse" color-interpolation-filters="sRGB">
<feFlood flood-opacity="0" result="BackgroundImageFix"/>
<feColorMatrix in="SourceAlpha" type="matrix" values="0 0 0 0 0 0 0 0 0 0 0 0 0 0 0 0 0 0 127 0" result="hardAlpha"/>
<feMorphology radius="20" operator="erode" in="SourceAlpha" result="effect1_dropShadow_2182_5931"/>
<feOffset dx="16" dy="22"/>
<feGaussianBlur stdDeviation="10"/>
<feComposite in2="hardAlpha" operator="out"/>
<feColorMatrix type="matrix" values="0 0 0 0 0.115349 0 0 0 0 0.163721 0 0 0 0 0.204651 0 0 0 0.04 0"/>
<feBlend mode="normal" in2="BackgroundImageFix" result="effect1_dropShadow_2182_5931"/>
<feBlend mode="normal" in="SourceGraphic" in2="effect1_dropShadow_2182_5931" result="shape"/>
</filter>
<clipPath id="clip0_2182_5931">
<rect width="24" height="24" fill="white" transform="translate(528 231)"/>
</clipPath>
</defs>
</svg>
