<svg width="785" height="290" viewBox="0 0 785 290" fill="none" xmlns="http://www.w3.org/2000/svg">
<path d="M199 26H238.162C255.835 26 270.162 40.3269 270.162 58V103C270.162 120.673 284.489 135 302.162 135H419" stroke="#2B7979"/>
<path d="M199 244H238.162C255.835 244 270.162 229.673 270.162 212V167C270.162 149.327 284.489 135 302.162 135H419" stroke="#2B7979"/>
<path d="M469 134H508.162C525.835 134 540.162 119.673 540.162 102V57C540.162 39.3269 554.489 25 572.162 25H689" stroke="#2B7979"/>
<path d="M469 134H508.162C525.835 134 540.162 148.327 540.162 166V211C540.162 228.673 554.489 243 572.162 243H689" stroke="#2B7979"/>
<g filter="url(#filter0_bd_2174_5933)">
<rect x="349" y="78" width="112" height="112" rx="56" fill="#FCFCFC" fill-opacity="0.8" shape-rendering="crispEdges"/>
<rect x="343" y="72" width="124" height="124" rx="62" stroke="white" stroke-opacity="0.04" stroke-width="12" shape-rendering="crispEdges"/>
<path d="M426.948 131.542C426.872 131.222 426.718 130.925 426.5 130.678C426.282 130.431 426.006 130.242 425.698 130.127L411.295 124.725L414.96 106.392C415.043 105.967 414.985 105.525 414.795 105.135C414.606 104.745 414.294 104.427 413.908 104.229C413.521 104.032 413.081 103.965 412.653 104.04C412.226 104.114 411.834 104.326 411.538 104.642L383.538 134.642C383.31 134.882 383.146 135.174 383.059 135.493C382.972 135.812 382.965 136.147 383.039 136.469C383.114 136.791 383.267 137.089 383.484 137.338C383.702 137.586 383.978 137.777 384.288 137.892L398.695 143.295L395.04 161.607C394.957 162.033 395.015 162.475 395.205 162.865C395.395 163.255 395.706 163.573 396.093 163.771C396.479 163.968 396.919 164.035 397.347 163.96C397.774 163.886 398.166 163.674 398.463 163.357L426.463 133.357C426.686 133.118 426.847 132.827 426.931 132.51C427.016 132.194 427.022 131.862 426.948 131.542ZM400.343 155.5L402.96 142.405C403.054 141.941 402.98 141.458 402.751 141.043C402.522 140.628 402.153 140.308 401.71 140.14L388.5 135.177L409.655 112.512L407.04 125.607C406.946 126.072 407.021 126.555 407.25 126.969C407.478 127.384 407.847 127.704 408.29 127.872L421.49 132.822L400.343 155.5Z" fill="#404040"/>
</g>
<g filter="url(#filter1_d_2174_5933)">
<rect x="55" y="7" width="154" height="42" rx="21" fill="white" shape-rendering="crispEdges"/>
<rect x="53" y="5" width="158" height="46" rx="23" stroke="white" stroke-opacity="0.12" stroke-width="4" shape-rendering="crispEdges"/>
<path d="M89.3861 28C91.697 24.7553 92.8755 21.4019 91.2367 19.7631C89.598 18.1244 86.2445 19.3028 82.9999 21.6137C79.7552 19.3028 76.4017 18.1244 74.763 19.7631C73.1242 21.4019 74.3027 24.7553 76.6136 28C74.3027 31.2447 73.1242 34.5981 74.763 36.2369C75.2908 36.7647 75.9958 37 76.817 37C78.5495 37 80.7995 35.9528 83.0045 34.3862C85.2002 35.9528 87.4502 37 89.1874 37C90.0086 37 90.7146 36.7637 91.2414 36.2369C92.8755 34.5981 91.697 31.2447 89.3861 28ZM90.1764 20.8234C90.8927 21.5397 90.4089 23.8609 88.4402 26.7559C87.8173 25.9849 87.1542 25.2473 86.4536 24.5462C85.7525 23.8466 85.0149 23.1844 84.2439 22.5625C87.1389 20.5937 89.4602 20.1062 90.1764 20.8234ZM87.527 28C86.8636 28.8392 86.1512 29.6384 85.3933 30.3934C84.6383 31.1513 83.8391 31.8638 82.9999 32.5272C82.1606 31.8638 81.3614 31.1513 80.6064 30.3934C79.8486 29.6384 79.1361 28.8392 78.4727 28C79.8036 26.3228 81.3226 24.8038 82.9999 23.4728C83.8391 24.1362 84.6383 24.8487 85.3933 25.6065C86.1512 26.3616 86.8636 27.1608 87.527 28ZM75.8233 20.8234C76.0295 20.6162 76.3699 20.5094 76.8189 20.5094C77.927 20.5094 79.6961 21.1562 81.7549 22.5625C80.9846 23.1849 80.2474 23.8471 79.5461 24.5462C78.8465 25.2474 78.1843 25.985 77.5624 26.7559C75.5936 23.8609 75.107 21.5397 75.8233 20.8234ZM75.8233 35.1765C75.107 34.4603 75.5936 32.139 77.5624 29.244C78.1852 30.0151 78.8483 30.7526 79.5489 31.4537C80.2496 32.1528 80.9862 32.815 81.7558 33.4375C78.8608 35.4062 76.5395 35.8937 75.8233 35.1765ZM90.1764 35.1765C89.4602 35.8937 87.1389 35.409 84.2439 33.4403C85.0145 32.817 85.7521 32.1539 86.4536 31.4537C87.1533 30.7526 87.8154 30.015 88.4374 29.244C90.4061 32.139 90.8927 34.4603 90.1764 35.1765ZM84.1249 28C84.1249 28.2225 84.0589 28.44 83.9353 28.625C83.8116 28.81 83.6359 28.9542 83.4304 29.0393C83.2248 29.1245 82.9986 29.1468 82.7804 29.1034C82.5622 29.06 82.3617 28.9528 82.2044 28.7955C82.047 28.6381 81.9399 28.4377 81.8965 28.2195C81.8531 28.0012 81.8753 27.775 81.9605 27.5695C82.0456 27.3639 82.1898 27.1882 82.3748 27.0646C82.5599 26.941 82.7774 26.875 82.9999 26.875C83.2982 26.875 83.5844 26.9935 83.7954 27.2045C84.0063 27.4155 84.1249 27.7016 84.1249 28Z" fill="#404040"/>
<path d="M106.413 21.9091V35H104.438V21.9091H106.413ZM111.048 29.1705V35H109.136V25.1818H110.971V26.7798H111.092C111.318 26.2599 111.672 25.8423 112.153 25.527C112.639 25.2116 113.251 25.054 113.988 25.054C114.657 25.054 115.243 25.1946 115.746 25.4759C116.249 25.7528 116.638 26.1662 116.915 26.7159C117.192 27.2656 117.331 27.9453 117.331 28.755V35H115.42V28.9851C115.42 28.2734 115.234 27.7173 114.864 27.3168C114.493 26.9119 113.984 26.7095 113.336 26.7095C112.893 26.7095 112.499 26.8054 112.153 26.9972C111.813 27.1889 111.542 27.4702 111.342 27.8409C111.146 28.2074 111.048 28.6506 111.048 29.1705ZM121.805 29.1705V35H119.894V25.1818H121.729V26.7798H121.85C122.076 26.2599 122.43 25.8423 122.911 25.527C123.397 25.2116 124.009 25.054 124.746 25.054C125.415 25.054 126.001 25.1946 126.504 25.4759C127.006 25.7528 127.396 26.1662 127.673 26.7159C127.95 27.2656 128.089 27.9453 128.089 28.755V35H126.178V28.9851C126.178 28.2734 125.992 27.7173 125.621 27.3168C125.251 26.9119 124.741 26.7095 124.094 26.7095C123.651 26.7095 123.256 26.8054 122.911 26.9972C122.57 27.1889 122.3 27.4702 122.099 27.8409C121.903 28.2074 121.805 28.6506 121.805 29.1705ZM134.788 35.1982C133.867 35.1982 133.064 34.9872 132.378 34.5653C131.692 34.1435 131.159 33.5533 130.78 32.7947C130.401 32.0362 130.211 31.1499 130.211 30.1357C130.211 29.1172 130.401 28.2266 130.78 27.4638C131.159 26.701 131.692 26.1087 132.378 25.6868C133.064 25.2649 133.867 25.054 134.788 25.054C135.708 25.054 136.511 25.2649 137.197 25.6868C137.884 26.1087 138.416 26.701 138.795 27.4638C139.175 28.2266 139.364 29.1172 139.364 30.1357C139.364 31.1499 139.175 32.0362 138.795 32.7947C138.416 33.5533 137.884 34.1435 137.197 34.5653C136.511 34.9872 135.708 35.1982 134.788 35.1982ZM134.794 33.5938C135.391 33.5938 135.885 33.4361 136.277 33.1207C136.669 32.8054 136.959 32.3857 137.146 31.8615C137.338 31.3374 137.434 30.7599 137.434 30.1293C137.434 29.5028 137.338 28.9276 137.146 28.4034C136.959 27.875 136.669 27.451 136.277 27.1314C135.885 26.8118 135.391 26.652 134.794 26.652C134.193 26.652 133.695 26.8118 133.298 27.1314C132.906 27.451 132.614 27.875 132.423 28.4034C132.235 28.9276 132.141 29.5028 132.141 30.1293C132.141 30.7599 132.235 31.3374 132.423 31.8615C132.614 32.3857 132.906 32.8054 133.298 33.1207C133.695 33.4361 134.193 33.5938 134.794 33.5938ZM149.563 25.1818L146.002 35H143.957L140.39 25.1818H142.442L144.929 32.7372H145.031L147.511 25.1818H149.563ZM153.935 35.2173C153.313 35.2173 152.75 35.1023 152.248 34.8722C151.745 34.6378 151.346 34.299 151.052 33.8558C150.762 33.4126 150.618 32.8693 150.618 32.2259C150.618 31.6719 150.724 31.2159 150.937 30.858C151.15 30.5 151.438 30.2166 151.8 30.0078C152.162 29.799 152.567 29.6413 153.015 29.5348C153.462 29.4283 153.918 29.3473 154.382 29.2919C154.971 29.2237 155.448 29.1683 155.814 29.1257C156.181 29.0788 156.447 29.0043 156.613 28.902C156.779 28.7997 156.863 28.6335 156.863 28.4034V28.3587C156.863 27.8004 156.705 27.3679 156.39 27.0611C156.078 26.7543 155.614 26.6009 154.996 26.6009C154.353 26.6009 153.846 26.7436 153.475 27.0291C153.108 27.3104 152.855 27.6236 152.714 27.9688L150.918 27.5597C151.131 26.9631 151.442 26.4815 151.851 26.1151C152.265 25.7443 152.74 25.4759 153.277 25.3097C153.814 25.1392 154.378 25.054 154.971 25.054C155.363 25.054 155.778 25.1009 156.217 25.1946C156.66 25.2841 157.074 25.4503 157.457 25.6932C157.845 25.9361 158.162 26.2834 158.409 26.7351C158.657 27.1825 158.78 27.7642 158.78 28.4801V35H156.914V33.6577H156.837C156.713 33.9048 156.528 34.1477 156.281 34.3864C156.034 34.625 155.716 34.8232 155.328 34.9808C154.941 35.1385 154.476 35.2173 153.935 35.2173ZM154.35 33.6832C154.879 33.6832 155.331 33.5788 155.706 33.37C156.085 33.1612 156.373 32.8885 156.569 32.5518C156.769 32.2109 156.869 31.8466 156.869 31.4588V30.1932C156.801 30.2614 156.669 30.3253 156.473 30.3849C156.281 30.4403 156.061 30.4893 155.814 30.532C155.567 30.5703 155.326 30.6065 155.092 30.6406C154.858 30.6705 154.662 30.696 154.504 30.7173C154.133 30.7642 153.794 30.843 153.488 30.9538C153.185 31.0646 152.942 31.2244 152.759 31.4332C152.58 31.6378 152.49 31.9105 152.49 32.2514C152.49 32.7244 152.665 33.0824 153.015 33.3253C153.364 33.5639 153.809 33.6832 154.35 33.6832ZM165.909 25.1818V26.7159H160.546V25.1818H165.909ZM161.984 22.8295H163.895V32.1172C163.895 32.4879 163.951 32.767 164.062 32.9545C164.172 33.1378 164.315 33.2635 164.49 33.3317C164.669 33.3956 164.863 33.4276 165.072 33.4276C165.225 33.4276 165.359 33.4169 165.474 33.3956C165.589 33.3743 165.679 33.3572 165.743 33.3445L166.088 34.9233C165.977 34.9659 165.819 35.0085 165.615 35.0511C165.41 35.098 165.155 35.1236 164.848 35.1278C164.345 35.1364 163.876 35.0469 163.442 34.8594C163.007 34.6719 162.655 34.3821 162.387 33.9901C162.118 33.598 161.984 33.1058 161.984 32.5135V22.8295ZM168.023 35V25.1818H169.934V35H168.023ZM168.988 23.6669C168.656 23.6669 168.37 23.5561 168.132 23.3345C167.897 23.1087 167.78 22.8402 167.78 22.5291C167.78 22.2138 167.897 21.9453 168.132 21.7237C168.37 21.4979 168.656 21.3849 168.988 21.3849C169.321 21.3849 169.604 21.4979 169.838 21.7237C170.077 21.9453 170.196 22.2138 170.196 22.5291C170.196 22.8402 170.077 23.1087 169.838 23.3345C169.604 23.5561 169.321 23.6669 168.988 23.6669ZM176.641 35.1982C175.721 35.1982 174.917 34.9872 174.231 34.5653C173.545 34.1435 173.013 33.5533 172.633 32.7947C172.254 32.0362 172.064 31.1499 172.064 30.1357C172.064 29.1172 172.254 28.2266 172.633 27.4638C173.013 26.701 173.545 26.1087 174.231 25.6868C174.917 25.2649 175.721 25.054 176.641 25.054C177.562 25.054 178.365 25.2649 179.051 25.6868C179.737 26.1087 180.27 26.701 180.649 27.4638C181.028 28.2266 181.218 29.1172 181.218 30.1357C181.218 31.1499 181.028 32.0362 180.649 32.7947C180.27 33.5533 179.737 34.1435 179.051 34.5653C178.365 34.9872 177.562 35.1982 176.641 35.1982ZM176.648 33.5938C177.244 33.5938 177.738 33.4361 178.131 33.1207C178.523 32.8054 178.812 32.3857 179 31.8615C179.192 31.3374 179.287 30.7599 179.287 30.1293C179.287 29.5028 179.192 28.9276 179 28.4034C178.812 27.875 178.523 27.451 178.131 27.1314C177.738 26.8118 177.244 26.652 176.648 26.652C176.047 26.652 175.548 26.8118 175.152 27.1314C174.76 27.451 174.468 27.875 174.276 28.4034C174.089 28.9276 173.995 29.5028 173.995 30.1293C173.995 30.7599 174.089 31.3374 174.276 31.8615C174.468 32.3857 174.76 32.8054 175.152 33.1207C175.548 33.4361 176.047 33.5938 176.648 33.5938ZM185.262 29.1705V35H183.351V25.1818H185.186V26.7798H185.307C185.533 26.2599 185.887 25.8423 186.368 25.527C186.854 25.2116 187.466 25.054 188.203 25.054C188.872 25.054 189.458 25.1946 189.961 25.4759C190.463 25.7528 190.853 26.1662 191.13 26.7159C191.407 27.2656 191.546 27.9453 191.546 28.755V35H189.635V28.9851C189.635 28.2734 189.449 27.7173 189.078 27.3168C188.708 26.9119 188.199 26.7095 187.551 26.7095C187.108 26.7095 186.713 26.8054 186.368 26.9972C186.027 27.1889 185.757 27.4702 185.556 27.8409C185.36 28.2074 185.262 28.6506 185.262 29.1705Z" fill="#737373"/>
</g>
<g filter="url(#filter2_d_2174_5933)">
<rect x="4" y="222" width="205" height="42" rx="21" fill="white" shape-rendering="crispEdges"/>
<rect x="2" y="220" width="209" height="46" rx="23" stroke="white" stroke-opacity="0.12" stroke-width="4" shape-rendering="crispEdges"/>
<path d="M38.3861 243C40.697 239.755 41.8755 236.402 40.2367 234.763C38.598 233.124 35.2445 234.303 31.9999 236.614C28.7552 234.303 25.4017 233.124 23.763 234.763C22.1242 236.402 23.3027 239.755 25.6136 243C23.3027 246.245 22.1242 249.598 23.763 251.237C24.2908 251.765 24.9958 252 25.817 252C27.5495 252 29.7995 250.953 32.0045 249.386C34.2002 250.953 36.4502 252 38.1874 252C39.0086 252 39.7146 251.764 40.2414 251.237C41.8755 249.598 40.697 246.245 38.3861 243ZM39.1764 235.823C39.8927 236.54 39.4089 238.861 37.4402 241.756C36.8173 240.985 36.1542 240.247 35.4536 239.546C34.7525 238.847 34.0149 238.184 33.2439 237.562C36.1389 235.594 38.4602 235.106 39.1764 235.823ZM36.527 243C35.8636 243.839 35.1512 244.638 34.3933 245.393C33.6383 246.151 32.8391 246.864 31.9999 247.527C31.1606 246.864 30.3614 246.151 29.6064 245.393C28.8486 244.638 28.1361 243.839 27.4727 243C28.8036 241.323 30.3226 239.804 31.9999 238.473C32.8391 239.136 33.6383 239.849 34.3933 240.607C35.1512 241.362 35.8636 242.161 36.527 243ZM24.8233 235.823C25.0295 235.616 25.3699 235.509 25.8189 235.509C26.927 235.509 28.6961 236.156 30.7549 237.562C29.9846 238.185 29.2474 238.847 28.5461 239.546C27.8465 240.247 27.1843 240.985 26.5624 241.756C24.5936 238.861 24.107 236.54 24.8233 235.823ZM24.8233 250.177C24.107 249.46 24.5936 247.139 26.5624 244.244C27.1852 245.015 27.8483 245.753 28.5489 246.454C29.2496 247.153 29.9862 247.815 30.7558 248.437C27.8608 250.406 25.5395 250.894 24.8233 250.177ZM39.1764 250.177C38.4602 250.894 36.1389 250.409 33.2439 248.44C34.0145 247.817 34.7521 247.154 35.4536 246.454C36.1533 245.753 36.8154 245.015 37.4374 244.244C39.4061 247.139 39.8927 249.46 39.1764 250.177ZM33.1249 243C33.1249 243.222 33.0589 243.44 32.9353 243.625C32.8116 243.81 32.6359 243.954 32.4304 244.039C32.2248 244.124 31.9986 244.147 31.7804 244.103C31.5622 244.06 31.3617 243.953 31.2044 243.795C31.047 243.638 30.9399 243.438 30.8965 243.219C30.8531 243.001 30.8753 242.775 30.9605 242.569C31.0456 242.364 31.1898 242.188 31.3748 242.065C31.5599 241.941 31.7774 241.875 31.9999 241.875C32.2982 241.875 32.5844 241.994 32.7954 242.204C33.0063 242.415 33.1249 242.702 33.1249 243Z" fill="#404040"/>
<path d="M64.8097 243.455C64.8097 244.852 64.554 246.054 64.0426 247.06C63.5313 248.061 62.8303 248.832 61.9396 249.374C61.0533 249.911 60.0455 250.179 58.9162 250.179C57.7827 250.179 56.7706 249.911 55.88 249.374C54.9936 248.832 54.2947 248.059 53.7834 247.053C53.272 246.048 53.0163 244.848 53.0163 243.455C53.0163 242.057 53.272 240.857 53.7834 239.856C54.2947 238.85 54.9936 238.079 55.88 237.542C56.7706 237.001 57.7827 236.73 58.9162 236.73C60.0455 236.73 61.0533 237.001 61.9396 237.542C62.8303 238.079 63.5313 238.85 64.0426 239.856C64.554 240.857 64.8097 242.057 64.8097 243.455ZM62.8537 243.455C62.8537 242.389 62.6811 241.492 62.3359 240.763C61.995 240.031 61.5263 239.477 60.9297 239.102C60.3374 238.722 59.6662 238.533 58.9162 238.533C58.1619 238.533 57.4886 238.722 56.8963 239.102C56.304 239.477 55.8352 240.031 55.4901 240.763C55.1491 241.492 54.9787 242.389 54.9787 243.455C54.9787 244.52 55.1491 245.419 55.4901 246.152C55.8352 246.881 56.304 247.435 56.8963 247.814C57.4886 248.189 58.1619 248.376 58.9162 248.376C59.6662 248.376 60.3374 248.189 60.9297 247.814C61.5263 247.435 61.995 246.881 62.3359 246.152C62.6811 245.419 62.8537 244.52 62.8537 243.455ZM67.1188 253.682V240.182H68.9853V241.773H69.1451C69.2559 241.569 69.4157 241.332 69.6245 241.064C69.8333 240.795 70.123 240.561 70.4938 240.361C70.8645 240.156 71.3546 240.054 71.964 240.054C72.7566 240.054 73.464 240.254 74.0861 240.655C74.7083 241.055 75.1962 241.633 75.5499 242.387C75.9078 243.141 76.0868 244.049 76.0868 245.11C76.0868 246.171 75.91 247.081 75.5563 247.839C75.2026 248.594 74.7168 249.175 74.0989 249.585C73.481 249.989 72.7757 250.192 71.9831 250.192C71.3865 250.192 70.8986 250.092 70.5194 249.891C70.1444 249.691 69.8503 249.457 69.6373 249.188C69.4242 248.92 69.2601 248.681 69.1451 248.472H69.03V253.682H67.1188ZM68.9917 245.091C68.9917 245.781 69.0918 246.386 69.2921 246.906C69.4924 247.426 69.7821 247.833 70.1614 248.127C70.5407 248.417 71.0051 248.562 71.5549 248.562C72.1259 248.562 72.6032 248.411 72.9867 248.108C73.3702 247.801 73.66 247.386 73.856 246.862C74.0563 246.337 74.1564 245.747 74.1564 245.091C74.1564 244.443 74.0584 243.862 73.8624 243.346C73.6706 242.83 73.3809 242.423 72.9931 242.125C72.6096 241.827 72.1301 241.678 71.5549 241.678C71.0009 241.678 70.5321 241.82 70.1486 242.106C69.7694 242.391 69.4817 242.79 69.2857 243.301C69.0897 243.812 68.9917 244.409 68.9917 245.091ZM82.8113 240.182V241.716H77.4483V240.182H82.8113ZM78.8865 237.83H80.7978V247.117C80.7978 247.488 80.8532 247.767 80.964 247.955C81.0748 248.138 81.2175 248.263 81.3922 248.332C81.5712 248.396 81.7651 248.428 81.9739 248.428C82.1273 248.428 82.2615 248.417 82.3766 248.396C82.4917 248.374 82.5811 248.357 82.6451 248.344L82.9902 249.923C82.8794 249.966 82.7218 250.009 82.5172 250.051C82.3127 250.098 82.057 250.124 81.7502 250.128C81.2473 250.136 80.7786 250.047 80.3439 249.859C79.9093 249.672 79.5577 249.382 79.2892 248.99C79.0208 248.598 78.8865 248.106 78.8865 247.513V237.83ZM84.9254 250V240.182H86.8366V250H84.9254ZM85.8906 238.667C85.5582 238.667 85.2727 238.556 85.0341 238.335C84.7997 238.109 84.6825 237.84 84.6825 237.529C84.6825 237.214 84.7997 236.945 85.0341 236.724C85.2727 236.498 85.5582 236.385 85.8906 236.385C86.223 236.385 86.5064 236.498 86.7408 236.724C86.9794 236.945 87.0987 237.214 87.0987 237.529C87.0987 237.84 86.9794 238.109 86.7408 238.335C86.5064 238.556 86.223 238.667 85.8906 238.667ZM89.4078 250V240.182H91.2424V241.78H91.3638C91.5684 241.239 91.9029 240.817 92.3674 240.514C92.8319 240.207 93.388 240.054 94.0357 240.054C94.6919 240.054 95.2417 240.207 95.6848 240.514C96.1323 240.821 96.4625 241.243 96.6756 241.78H96.7779C97.0123 241.256 97.3851 240.838 97.8965 240.527C98.4078 240.212 99.0172 240.054 99.7246 240.054C100.615 240.054 101.342 240.333 101.904 240.891C102.471 241.45 102.754 242.291 102.754 243.416V250H100.843V243.595C100.843 242.93 100.662 242.449 100.3 242.151C99.9377 241.852 99.5051 241.703 99.0023 241.703C98.3801 241.703 97.8965 241.895 97.5513 242.278C97.2061 242.658 97.0336 243.146 97.0336 243.742V250H95.1287V243.474C95.1287 242.941 94.9625 242.513 94.6301 242.189C94.2978 241.865 93.8652 241.703 93.3326 241.703C92.9703 241.703 92.6358 241.799 92.329 241.991C92.0265 242.178 91.7814 242.44 91.5939 242.777C91.4107 243.114 91.3191 243.504 91.3191 243.947V250H89.4078ZM108.173 250.217C107.551 250.217 106.989 250.102 106.486 249.872C105.983 249.638 105.585 249.299 105.29 248.856C105.001 248.413 104.856 247.869 104.856 247.226C104.856 246.672 104.962 246.216 105.175 245.858C105.388 245.5 105.676 245.217 106.038 245.008C106.401 244.799 106.805 244.641 107.253 244.535C107.7 244.428 108.156 244.347 108.621 244.292C109.209 244.224 109.686 244.168 110.053 244.126C110.419 244.079 110.685 244.004 110.852 243.902C111.018 243.8 111.101 243.634 111.101 243.403V243.359C111.101 242.8 110.943 242.368 110.628 242.061C110.317 241.754 109.852 241.601 109.234 241.601C108.591 241.601 108.084 241.744 107.713 242.029C107.347 242.31 107.093 242.624 106.952 242.969L105.156 242.56C105.369 241.963 105.68 241.482 106.089 241.115C106.503 240.744 106.978 240.476 107.515 240.31C108.052 240.139 108.616 240.054 109.209 240.054C109.601 240.054 110.016 240.101 110.455 240.195C110.898 240.284 111.312 240.45 111.695 240.693C112.083 240.936 112.401 241.283 112.648 241.735C112.895 242.183 113.018 242.764 113.018 243.48V250H111.152V248.658H111.075C110.952 248.905 110.766 249.148 110.519 249.386C110.272 249.625 109.955 249.823 109.567 249.981C109.179 250.138 108.714 250.217 108.173 250.217ZM108.589 248.683C109.117 248.683 109.569 248.579 109.944 248.37C110.323 248.161 110.611 247.888 110.807 247.552C111.007 247.211 111.107 246.847 111.107 246.459V245.193C111.039 245.261 110.907 245.325 110.711 245.385C110.519 245.44 110.3 245.489 110.053 245.532C109.805 245.57 109.565 245.607 109.33 245.641C109.096 245.67 108.9 245.696 108.742 245.717C108.371 245.764 108.033 245.843 107.726 245.954C107.423 246.065 107.18 246.224 106.997 246.433C106.818 246.638 106.729 246.911 106.729 247.251C106.729 247.724 106.903 248.082 107.253 248.325C107.602 248.564 108.048 248.683 108.589 248.683ZM117.475 236.909V250H115.564V236.909H117.475ZM132.167 242.579L130.435 242.886C130.363 242.664 130.248 242.453 130.09 242.253C129.937 242.053 129.728 241.888 129.464 241.761C129.199 241.633 128.869 241.569 128.473 241.569C127.932 241.569 127.48 241.69 127.118 241.933C126.756 242.172 126.574 242.481 126.574 242.86C126.574 243.188 126.696 243.452 126.939 243.653C127.182 243.853 127.574 244.017 128.115 244.145L129.675 244.503C130.578 244.712 131.251 245.033 131.694 245.468C132.138 245.903 132.359 246.467 132.359 247.162C132.359 247.75 132.189 248.274 131.848 248.734C131.511 249.19 131.04 249.548 130.435 249.808C129.834 250.068 129.138 250.198 128.345 250.198C127.246 250.198 126.349 249.964 125.654 249.495C124.959 249.022 124.533 248.351 124.376 247.482L126.223 247.2C126.338 247.682 126.574 248.046 126.932 248.293C127.29 248.536 127.757 248.658 128.332 248.658C128.959 248.658 129.459 248.528 129.834 248.268C130.209 248.004 130.397 247.682 130.397 247.303C130.397 246.996 130.282 246.738 130.052 246.529C129.826 246.32 129.479 246.163 129.01 246.056L127.348 245.692C126.432 245.483 125.754 245.151 125.315 244.695C124.881 244.239 124.663 243.661 124.663 242.962C124.663 242.383 124.825 241.876 125.149 241.441C125.473 241.006 125.92 240.668 126.491 240.425C127.062 240.178 127.716 240.054 128.454 240.054C129.515 240.054 130.35 240.284 130.959 240.744C131.569 241.2 131.971 241.812 132.167 242.579ZM138.692 250.198C137.725 250.198 136.892 249.991 136.193 249.578C135.498 249.161 134.961 248.575 134.582 247.82C134.207 247.062 134.02 246.173 134.02 245.155C134.02 244.149 134.207 243.263 134.582 242.496C134.961 241.729 135.49 241.13 136.167 240.7C136.849 240.269 137.646 240.054 138.558 240.054C139.112 240.054 139.649 240.146 140.169 240.329C140.689 240.512 141.155 240.8 141.569 241.192C141.982 241.584 142.308 242.093 142.547 242.719C142.785 243.342 142.904 244.098 142.904 244.989V245.666H135.1V244.234H141.032C141.032 243.732 140.929 243.286 140.725 242.898C140.52 242.506 140.233 242.197 139.862 241.972C139.495 241.746 139.065 241.633 138.571 241.633C138.034 241.633 137.565 241.765 137.164 242.029C136.768 242.289 136.461 242.63 136.244 243.052C136.031 243.469 135.924 243.923 135.924 244.413V245.532C135.924 246.188 136.039 246.746 136.27 247.207C136.504 247.667 136.83 248.018 137.248 248.261C137.665 248.5 138.153 248.619 138.711 248.619C139.074 248.619 139.404 248.568 139.702 248.466C140 248.359 140.258 248.202 140.475 247.993C140.693 247.784 140.859 247.526 140.974 247.219L142.783 247.545C142.638 248.078 142.378 248.545 142.003 248.945C141.632 249.342 141.166 249.651 140.603 249.872C140.045 250.089 139.408 250.198 138.692 250.198ZM149.161 250.198C148.21 250.198 147.392 249.983 146.706 249.553C146.024 249.118 145.5 248.519 145.134 247.756C144.767 246.994 144.584 246.12 144.584 245.136C144.584 244.138 144.771 243.259 145.146 242.496C145.521 241.729 146.05 241.13 146.732 240.7C147.414 240.269 148.217 240.054 149.142 240.054C149.887 240.054 150.552 240.192 151.136 240.469C151.72 240.742 152.191 241.126 152.548 241.62C152.911 242.114 153.126 242.692 153.194 243.352H151.334C151.232 242.892 150.997 242.496 150.631 242.163C150.269 241.831 149.783 241.665 149.173 241.665C148.641 241.665 148.174 241.805 147.774 242.087C147.377 242.364 147.068 242.76 146.847 243.276C146.625 243.787 146.514 244.392 146.514 245.091C146.514 245.807 146.623 246.425 146.84 246.945C147.058 247.464 147.365 247.867 147.761 248.153C148.161 248.438 148.632 248.581 149.173 248.581C149.536 248.581 149.864 248.515 150.158 248.383C150.456 248.246 150.705 248.053 150.906 247.801C151.11 247.55 151.253 247.247 151.334 246.893H153.194C153.126 247.528 152.919 248.095 152.574 248.594C152.229 249.092 151.767 249.484 151.187 249.77C150.612 250.055 149.936 250.198 149.161 250.198ZM161.457 245.928V240.182H163.375V250H161.496V248.3H161.393C161.168 248.824 160.805 249.261 160.307 249.61C159.813 249.955 159.197 250.128 158.46 250.128C157.829 250.128 157.271 249.989 156.785 249.712C156.303 249.431 155.924 249.016 155.647 248.466C155.374 247.916 155.238 247.237 155.238 246.427V240.182H157.149V246.197C157.149 246.866 157.335 247.398 157.705 247.795C158.076 248.191 158.558 248.389 159.15 248.389C159.508 248.389 159.864 248.3 160.217 248.121C160.575 247.942 160.871 247.671 161.106 247.309C161.344 246.947 161.462 246.487 161.457 245.928ZM165.943 250V240.182H167.79V241.741H167.893C168.072 241.213 168.387 240.798 168.839 240.495C169.295 240.188 169.81 240.035 170.385 240.035C170.505 240.035 170.645 240.039 170.807 240.048C170.974 240.056 171.104 240.067 171.197 240.08V241.908C171.121 241.886 170.984 241.863 170.788 241.837C170.592 241.808 170.396 241.793 170.2 241.793C169.748 241.793 169.346 241.888 168.992 242.08C168.643 242.268 168.366 242.53 168.161 242.866C167.956 243.199 167.854 243.578 167.854 244.004V250H165.943ZM172.851 250V240.182H174.762V250H172.851ZM173.816 238.667C173.484 238.667 173.199 238.556 172.96 238.335C172.725 238.109 172.608 237.84 172.608 237.529C172.608 237.214 172.725 236.945 172.96 236.724C173.199 236.498 173.484 236.385 173.816 236.385C174.149 236.385 174.432 236.498 174.667 236.724C174.905 236.945 175.025 237.214 175.025 237.529C175.025 237.84 174.905 238.109 174.667 238.335C174.432 238.556 174.149 238.667 173.816 238.667ZM181.917 240.182V241.716H176.554V240.182H181.917ZM177.992 237.83H179.903V247.117C179.903 247.488 179.959 247.767 180.069 247.955C180.18 248.138 180.323 248.263 180.498 248.332C180.677 248.396 180.871 248.428 181.079 248.428C181.233 248.428 181.367 248.417 181.482 248.396C181.597 248.374 181.687 248.357 181.751 248.344L182.096 249.923C181.985 249.966 181.827 250.009 181.623 250.051C181.418 250.098 181.162 250.124 180.856 250.128C180.353 250.136 179.884 250.047 179.449 249.859C179.015 249.672 178.663 249.382 178.395 248.99C178.126 248.598 177.992 248.106 177.992 247.513V237.83ZM185.239 253.682C184.953 253.682 184.694 253.658 184.459 253.612C184.225 253.569 184.05 253.522 183.935 253.471L184.395 251.905C184.745 251.999 185.056 252.039 185.328 252.026C185.601 252.013 185.842 251.911 186.051 251.719C186.264 251.528 186.451 251.214 186.613 250.78L186.85 250.128L183.257 240.182H185.303L187.789 247.801H187.892L190.378 240.182H192.43L188.384 251.31C188.196 251.822 187.958 252.254 187.668 252.608C187.378 252.966 187.033 253.234 186.632 253.413C186.232 253.592 185.767 253.682 185.239 253.682Z" fill="#737373"/>
</g>
<g filter="url(#filter3_d_2174_5933)">
<rect x="601" y="4" width="164" height="42" rx="21" fill="white" shape-rendering="crispEdges"/>
<rect x="599" y="2" width="168" height="46" rx="23" stroke="white" stroke-opacity="0.12" stroke-width="4" shape-rendering="crispEdges"/>
<path d="M638.75 32.5C638.75 32.6989 638.671 32.8897 638.53 33.0303C638.39 33.171 638.199 33.25 638 33.25H620C619.801 33.25 619.61 33.171 619.47 33.0303C619.329 32.8897 619.25 32.6989 619.25 32.5V17.5C619.25 17.3011 619.329 17.1103 619.47 16.9697C619.61 16.829 619.801 16.75 620 16.75C620.199 16.75 620.39 16.829 620.53 16.9697C620.671 17.1103 620.75 17.3011 620.75 17.5V27.6897L625.469 22.9694C625.539 22.8996 625.622 22.8443 625.713 22.8066C625.804 22.7688 625.901 22.7494 626 22.7494C626.099 22.7494 626.196 22.7688 626.287 22.8066C626.378 22.8443 626.461 22.8996 626.531 22.9694L629 25.4397L633.94 20.5H632C631.801 20.5 631.61 20.421 631.47 20.2803C631.329 20.1397 631.25 19.9489 631.25 19.75C631.25 19.5511 631.329 19.3603 631.47 19.2197C631.61 19.079 631.801 19 632 19H635.75C635.949 19 636.14 19.079 636.28 19.2197C636.421 19.3603 636.5 19.5511 636.5 19.75V23.5C636.5 23.6989 636.421 23.8897 636.28 24.0303C636.14 24.171 635.949 24.25 635.75 24.25C635.551 24.25 635.36 24.171 635.22 24.0303C635.079 23.8897 635 23.6989 635 23.5V21.5603L629.531 27.0306C629.461 27.1004 629.378 27.1557 629.287 27.1934C629.196 27.2312 629.099 27.2506 629 27.2506C628.901 27.2506 628.804 27.2312 628.713 27.1934C628.622 27.1557 628.539 27.1004 628.469 27.0306L626 24.5603L620.75 29.8103V31.75H638C638.199 31.75 638.39 31.829 638.53 31.9697C638.671 32.1103 638.75 32.3011 638.75 32.5Z" fill="#0F0F0F"/>
<path d="M650.438 32V18.9091H658.646V20.6094H652.413V24.598H658.217V26.2919H652.413V30.2997H658.722V32H650.438ZM663.988 32.2173C663.366 32.2173 662.803 32.1023 662.3 31.8722C661.797 31.6378 661.399 31.299 661.105 30.8558C660.815 30.4126 660.67 29.8693 660.67 29.2259C660.67 28.6719 660.777 28.2159 660.99 27.858C661.203 27.5 661.491 27.2166 661.853 27.0078C662.215 26.799 662.62 26.6413 663.067 26.5348C663.515 26.4283 663.971 26.3473 664.435 26.2919C665.023 26.2237 665.501 26.1683 665.867 26.1257C666.233 26.0788 666.5 26.0043 666.666 25.902C666.832 25.7997 666.915 25.6335 666.915 25.4034V25.3587C666.915 24.8004 666.758 24.3679 666.442 24.0611C666.131 23.7543 665.667 23.6009 665.049 23.6009C664.405 23.6009 663.898 23.7436 663.528 24.0291C663.161 24.3104 662.907 24.6236 662.767 24.9688L660.971 24.5597C661.184 23.9631 661.495 23.4815 661.904 23.1151C662.317 22.7443 662.792 22.4759 663.329 22.3097C663.866 22.1392 664.431 22.054 665.023 22.054C665.415 22.054 665.831 22.1009 666.27 22.1946C666.713 22.2841 667.126 22.4503 667.51 22.6932C667.898 22.9361 668.215 23.2834 668.462 23.7351C668.709 24.1825 668.833 24.7642 668.833 25.4801V32H666.966V30.6577H666.89C666.766 30.9048 666.581 31.1477 666.334 31.3864C666.086 31.625 665.769 31.8232 665.381 31.9808C664.993 32.1385 664.529 32.2173 663.988 32.2173ZM664.403 30.6832C664.932 30.6832 665.383 30.5788 665.758 30.37C666.138 30.1612 666.425 29.8885 666.621 29.5518C666.822 29.2109 666.922 28.8466 666.922 28.4588V27.1932C666.854 27.2614 666.721 27.3253 666.525 27.3849C666.334 27.4403 666.114 27.4893 665.867 27.532C665.62 27.5703 665.379 27.6065 665.145 27.6406C664.91 27.6705 664.714 27.696 664.557 27.7173C664.186 27.7642 663.847 27.843 663.54 27.9538C663.238 28.0646 662.995 28.2244 662.812 28.4332C662.633 28.6378 662.543 28.9105 662.543 29.2514C662.543 29.7244 662.718 30.0824 663.067 30.3253C663.417 30.5639 663.862 30.6832 664.403 30.6832ZM678.736 24.5788L677.004 24.8857C676.931 24.6641 676.816 24.4531 676.658 24.2528C676.505 24.0526 676.296 23.8885 676.032 23.7607C675.768 23.6328 675.438 23.5689 675.041 23.5689C674.5 23.5689 674.048 23.6903 673.686 23.9332C673.324 24.1719 673.143 24.4808 673.143 24.8601C673.143 25.1882 673.264 25.4524 673.507 25.6527C673.75 25.853 674.142 26.017 674.683 26.1449L676.243 26.5028C677.146 26.7116 677.82 27.0334 678.263 27.468C678.706 27.9027 678.928 28.4673 678.928 29.1619C678.928 29.75 678.757 30.2741 678.416 30.7344C678.08 31.1903 677.609 31.5483 677.004 31.8082C676.403 32.0682 675.706 32.1982 674.913 32.1982C673.814 32.1982 672.917 31.9638 672.222 31.495C671.528 31.022 671.102 30.3509 670.944 29.4815L672.791 29.2003C672.906 29.6818 673.143 30.0462 673.501 30.2933C673.859 30.5362 674.325 30.6577 674.901 30.6577C675.527 30.6577 676.028 30.5277 676.403 30.2678C676.778 30.0036 676.965 29.6818 676.965 29.3026C676.965 28.9957 676.85 28.7379 676.62 28.5291C676.394 28.3203 676.047 28.1626 675.578 28.0561L673.916 27.6918C673 27.483 672.322 27.1506 671.884 26.6946C671.449 26.2386 671.232 25.6612 671.232 24.9624C671.232 24.3828 671.393 23.8757 671.717 23.4411C672.041 23.0064 672.489 22.6676 673.06 22.4247C673.631 22.1776 674.285 22.054 675.022 22.054C676.083 22.054 676.918 22.2841 677.528 22.7443C678.137 23.2003 678.54 23.8118 678.736 24.5788ZM685.26 32.1982C684.293 32.1982 683.46 31.9915 682.761 31.5781C682.067 31.1605 681.53 30.5746 681.15 29.8203C680.775 29.0618 680.588 28.1733 680.588 27.1548C680.588 26.1491 680.775 25.2628 681.15 24.4957C681.53 23.7287 682.058 23.13 682.736 22.6996C683.417 22.2692 684.214 22.054 685.126 22.054C685.68 22.054 686.217 22.1456 686.737 22.3288C687.257 22.5121 687.724 22.7997 688.137 23.1918C688.55 23.5838 688.876 24.093 689.115 24.7195C689.354 25.3416 689.473 26.098 689.473 26.9886V27.6662H681.668V26.2344H687.6C687.6 25.7315 687.498 25.2862 687.293 24.8984C687.089 24.5064 686.801 24.1974 686.43 23.9716C686.064 23.7457 685.633 23.6328 685.139 23.6328C684.602 23.6328 684.133 23.7649 683.733 24.0291C683.336 24.2891 683.03 24.63 682.812 25.0518C682.599 25.4695 682.493 25.9233 682.493 26.4134V27.532C682.493 28.1882 682.608 28.7464 682.838 29.2067C683.072 29.6669 683.398 30.0185 683.816 30.2614C684.233 30.5 684.721 30.6193 685.28 30.6193C685.642 30.6193 685.972 30.5682 686.27 30.4659C686.569 30.3594 686.827 30.2017 687.044 29.9929C687.261 29.7841 687.427 29.5263 687.542 29.2195L689.351 29.5455C689.206 30.0781 688.947 30.5447 688.572 30.9453C688.201 31.3416 687.734 31.6506 687.172 31.8722C686.613 32.0895 685.976 32.1982 685.26 32.1982ZM700.493 32.1982C699.572 32.1982 698.769 31.9872 698.083 31.5653C697.397 31.1435 696.864 30.5533 696.485 29.7947C696.106 29.0362 695.916 28.1499 695.916 27.1357C695.916 26.1172 696.106 25.2266 696.485 24.4638C696.864 23.701 697.397 23.1087 698.083 22.6868C698.769 22.2649 699.572 22.054 700.493 22.054C701.413 22.054 702.216 22.2649 702.903 22.6868C703.589 23.1087 704.121 23.701 704.501 24.4638C704.88 25.2266 705.069 26.1172 705.069 27.1357C705.069 28.1499 704.88 29.0362 704.501 29.7947C704.121 30.5533 703.589 31.1435 702.903 31.5653C702.216 31.9872 701.413 32.1982 700.493 32.1982ZM700.499 30.5938C701.096 30.5938 701.59 30.4361 701.982 30.1207C702.374 29.8054 702.664 29.3857 702.851 28.8615C703.043 28.3374 703.139 27.7599 703.139 27.1293C703.139 26.5028 703.043 25.9276 702.851 25.4034C702.664 24.875 702.374 24.451 701.982 24.1314C701.59 23.8118 701.096 23.652 700.499 23.652C699.898 23.652 699.4 23.8118 699.003 24.1314C698.611 24.451 698.319 24.875 698.128 25.4034C697.94 25.9276 697.846 26.5028 697.846 27.1293C697.846 27.7599 697.94 28.3374 698.128 28.8615C698.319 29.3857 698.611 29.8054 699.003 30.1207C699.4 30.4361 699.898 30.5938 700.499 30.5938ZM711.875 22.1818V23.7159H706.327V22.1818H711.875ZM707.848 32V21.044C707.848 20.4304 707.983 19.9212 708.251 19.5163C708.52 19.1072 708.875 18.8026 709.319 18.6023C709.762 18.3977 710.243 18.2955 710.763 18.2955C711.147 18.2955 711.475 18.3274 711.748 18.3913C712.02 18.451 712.223 18.5064 712.355 18.5575L711.907 20.1044C711.818 20.0788 711.703 20.049 711.562 20.0149C711.422 19.9766 711.251 19.9574 711.051 19.9574C710.586 19.9574 710.254 20.0724 710.054 20.3026C709.858 20.5327 709.76 20.8651 709.76 21.2997V32H707.848ZM724.83 27.9283V22.1818H726.748V32H724.869V30.2997H724.767C724.541 30.8239 724.178 31.2607 723.68 31.6101C723.186 31.9553 722.57 32.1278 721.833 32.1278C721.202 32.1278 720.644 31.9893 720.158 31.7124C719.676 31.4311 719.297 31.0156 719.02 30.4659C718.747 29.9162 718.611 29.2365 718.611 28.4268V22.1818H720.522V28.1967C720.522 28.8658 720.708 29.3984 721.078 29.7947C721.449 30.1911 721.931 30.3892 722.523 30.3892C722.881 30.3892 723.237 30.2997 723.59 30.1207C723.948 29.9418 724.244 29.6712 724.479 29.3089C724.718 28.9467 724.835 28.4865 724.83 27.9283ZM736.673 24.5788L734.941 24.8857C734.869 24.6641 734.754 24.4531 734.596 24.2528C734.442 24.0526 734.234 23.8885 733.969 23.7607C733.705 23.6328 733.375 23.5689 732.979 23.5689C732.438 23.5689 731.986 23.6903 731.624 23.9332C731.261 24.1719 731.08 24.4808 731.08 24.8601C731.08 25.1882 731.202 25.4524 731.445 25.6527C731.688 25.853 732.08 26.017 732.621 26.1449L734.18 26.5028C735.084 26.7116 735.757 27.0334 736.2 27.468C736.643 27.9027 736.865 28.4673 736.865 29.1619C736.865 29.75 736.695 30.2741 736.354 30.7344C736.017 31.1903 735.546 31.5483 734.941 31.8082C734.34 32.0682 733.643 32.1982 732.851 32.1982C731.751 32.1982 730.854 31.9638 730.16 31.495C729.465 31.022 729.039 30.3509 728.881 29.4815L730.729 29.2003C730.844 29.6818 731.08 30.0462 731.438 30.2933C731.796 30.5362 732.263 30.6577 732.838 30.6577C733.464 30.6577 733.965 30.5277 734.34 30.2678C734.715 30.0036 734.903 29.6818 734.903 29.3026C734.903 28.9957 734.788 28.7379 734.558 28.5291C734.332 28.3203 733.984 28.1626 733.516 28.0561L731.854 27.6918C730.938 27.483 730.26 27.1506 729.821 26.6946C729.386 26.2386 729.169 25.6612 729.169 24.9624C729.169 24.3828 729.331 23.8757 729.655 23.4411C729.979 23.0064 730.426 22.6676 730.997 22.4247C731.568 22.1776 732.222 22.054 732.96 22.054C734.021 22.054 734.856 22.2841 735.465 22.7443C736.075 23.2003 736.477 23.8118 736.673 24.5788ZM743.198 32.1982C742.231 32.1982 741.398 31.9915 740.699 31.5781C740.004 31.1605 739.467 30.5746 739.088 29.8203C738.713 29.0618 738.525 28.1733 738.525 27.1548C738.525 26.1491 738.713 25.2628 739.088 24.4957C739.467 23.7287 739.996 23.13 740.673 22.6996C741.355 22.2692 742.152 22.054 743.064 22.054C743.618 22.054 744.155 22.1456 744.675 22.3288C745.194 22.5121 745.661 22.7997 746.074 23.1918C746.488 23.5838 746.814 24.093 747.052 24.7195C747.291 25.3416 747.41 26.098 747.41 26.9886V27.6662H739.606V26.2344H745.537C745.537 25.7315 745.435 25.2862 745.231 24.8984C745.026 24.5064 744.738 24.1974 744.368 23.9716C744.001 23.7457 743.571 23.6328 743.077 23.6328C742.54 23.6328 742.071 23.7649 741.67 24.0291C741.274 24.2891 740.967 24.63 740.75 25.0518C740.537 25.4695 740.43 25.9233 740.43 26.4134V27.532C740.43 28.1882 740.545 28.7464 740.775 29.2067C741.01 29.6669 741.336 30.0185 741.753 30.2614C742.171 30.5 742.659 30.6193 743.217 30.6193C743.579 30.6193 743.91 30.5682 744.208 30.4659C744.506 30.3594 744.764 30.2017 744.981 29.9929C745.199 29.7841 745.365 29.5263 745.48 29.2195L747.289 29.5455C747.144 30.0781 746.884 30.5447 746.509 30.9453C746.138 31.3416 745.672 31.6506 745.109 31.8722C744.551 32.0895 743.914 32.1982 743.198 32.1982Z" fill="#737373"/>
</g>
<g filter="url(#filter4_d_2174_5933)">
<rect x="601" y="222" width="147" height="42" rx="21" fill="white" shape-rendering="crispEdges"/>
<rect x="599" y="220" width="151" height="46" rx="23" stroke="white" stroke-opacity="0.12" stroke-width="4" shape-rendering="crispEdges"/>
<g clip-path="url(#clip0_2174_5933)">
<path d="M625.25 244.5V243C625.25 242.801 625.329 242.61 625.47 242.47C625.61 242.329 625.801 242.25 626 242.25C626.199 242.25 626.39 242.329 626.53 242.47C626.671 242.61 626.75 242.801 626.75 243V244.5C626.75 244.699 626.671 244.89 626.53 245.03C626.39 245.171 626.199 245.25 626 245.25C625.801 245.25 625.61 245.171 625.47 245.03C625.329 244.89 625.25 244.699 625.25 244.5ZM629 245.25C629.199 245.25 629.39 245.171 629.53 245.03C629.671 244.89 629.75 244.699 629.75 244.5V242.25C629.75 242.051 629.671 241.86 629.53 241.72C629.39 241.579 629.199 241.5 629 241.5C628.801 241.5 628.61 241.579 628.47 241.72C628.329 241.86 628.25 242.051 628.25 242.25V244.5C628.25 244.699 628.329 244.89 628.47 245.03C628.61 245.171 628.801 245.25 629 245.25ZM632 245.25C632.199 245.25 632.39 245.171 632.53 245.03C632.671 244.89 632.75 244.699 632.75 244.5V241.5C632.75 241.301 632.671 241.11 632.53 240.97C632.39 240.829 632.199 240.75 632 240.75C631.801 240.75 631.61 240.829 631.47 240.97C631.329 241.11 631.25 241.301 631.25 241.5V244.5C631.25 244.699 631.329 244.89 631.47 245.03C631.61 245.171 631.801 245.25 632 245.25ZM637.25 238.5V247.5H638C638.199 247.5 638.39 247.579 638.53 247.72C638.671 247.86 638.75 248.051 638.75 248.25C638.75 248.449 638.671 248.64 638.53 248.78C638.39 248.921 638.199 249 638 249H629.75V250.629C630.25 250.806 630.672 251.154 630.941 251.612C631.209 252.07 631.307 252.608 631.218 253.131C631.128 253.654 630.856 254.129 630.45 254.471C630.044 254.813 629.531 255.001 629 255.001C628.469 255.001 627.956 254.813 627.55 254.471C627.144 254.129 626.872 253.654 626.782 253.131C626.693 252.608 626.791 252.07 627.059 251.612C627.328 251.154 627.75 250.806 628.25 250.629V249H620C619.801 249 619.61 248.921 619.47 248.78C619.329 248.64 619.25 248.449 619.25 248.25C619.25 248.051 619.329 247.86 619.47 247.72C619.61 247.579 619.801 247.5 620 247.5H620.75V238.5C620.352 238.5 619.971 238.342 619.689 238.061C619.408 237.779 619.25 237.398 619.25 237V235.5C619.25 235.102 619.408 234.721 619.689 234.439C619.971 234.158 620.352 234 620.75 234H637.25C637.648 234 638.029 234.158 638.311 234.439C638.592 234.721 638.75 235.102 638.75 235.5V237C638.75 237.398 638.592 237.779 638.311 238.061C638.029 238.342 637.648 238.5 637.25 238.5ZM629.75 252.75C629.75 252.602 629.706 252.457 629.624 252.333C629.541 252.21 629.424 252.114 629.287 252.057C629.15 252 628.999 251.985 628.854 252.014C628.708 252.043 628.575 252.115 628.47 252.22C628.365 252.325 628.293 252.458 628.264 252.604C628.235 252.749 628.25 252.9 628.307 253.037C628.364 253.174 628.46 253.291 628.583 253.374C628.707 253.456 628.852 253.5 629 253.5C629.199 253.5 629.39 253.421 629.53 253.28C629.671 253.14 629.75 252.949 629.75 252.75ZM620.75 237H637.25V235.5H620.75V237ZM635.75 238.5H622.25V247.5H635.75V238.5Z" fill="#0F0F0F"/>
</g>
<path d="M650.438 250V236.909H655.104C656.119 236.909 656.96 237.084 657.629 237.433C658.303 237.783 658.805 238.266 659.138 238.884C659.47 239.498 659.636 240.207 659.636 241.013C659.636 241.814 659.468 242.519 659.131 243.129C658.799 243.734 658.296 244.205 657.623 244.541C656.954 244.878 656.112 245.046 655.098 245.046H651.563V243.346H654.919C655.558 243.346 656.078 243.254 656.479 243.071C656.884 242.888 657.18 242.621 657.367 242.272C657.555 241.923 657.648 241.503 657.648 241.013C657.648 240.518 657.553 240.09 657.361 239.728C657.173 239.366 656.877 239.089 656.472 238.897C656.072 238.701 655.545 238.603 654.893 238.603H652.413V250H650.438ZM656.901 244.094L660.135 250H657.885L654.714 244.094H656.901ZM665.995 250.198C665.028 250.198 664.194 249.991 663.496 249.578C662.801 249.161 662.264 248.575 661.885 247.82C661.51 247.062 661.322 246.173 661.322 245.155C661.322 244.149 661.51 243.263 661.885 242.496C662.264 241.729 662.792 241.13 663.47 240.7C664.152 240.269 664.949 240.054 665.861 240.054C666.415 240.054 666.952 240.146 667.471 240.329C667.991 240.512 668.458 240.8 668.871 241.192C669.285 241.584 669.611 242.093 669.849 242.719C670.088 243.342 670.207 244.098 670.207 244.989V245.666H662.403V244.234H668.334C668.334 243.732 668.232 243.286 668.028 242.898C667.823 242.506 667.535 242.197 667.165 241.972C666.798 241.746 666.368 241.633 665.873 241.633C665.336 241.633 664.868 241.765 664.467 242.029C664.071 242.289 663.764 242.63 663.547 243.052C663.334 243.469 663.227 243.923 663.227 244.413V245.532C663.227 246.188 663.342 246.746 663.572 247.207C663.807 247.667 664.133 248.018 664.55 248.261C664.968 248.5 665.456 248.619 666.014 248.619C666.376 248.619 666.706 248.568 667.005 248.466C667.303 248.359 667.561 248.202 667.778 247.993C667.996 247.784 668.162 247.526 668.277 247.219L670.086 247.545C669.941 248.078 669.681 248.545 669.306 248.945C668.935 249.342 668.469 249.651 667.906 249.872C667.348 250.089 666.711 250.198 665.995 250.198ZM675.185 250.217C674.563 250.217 674 250.102 673.498 249.872C672.995 249.638 672.596 249.299 672.302 248.856C672.012 248.413 671.868 247.869 671.868 247.226C671.868 246.672 671.974 246.216 672.187 245.858C672.4 245.5 672.688 245.217 673.05 245.008C673.412 244.799 673.817 244.641 674.265 244.535C674.712 244.428 675.168 244.347 675.632 244.292C676.221 244.224 676.698 244.168 677.064 244.126C677.431 244.079 677.697 244.004 677.863 243.902C678.029 243.8 678.113 243.634 678.113 243.403V243.359C678.113 242.8 677.955 242.368 677.64 242.061C677.328 241.754 676.864 241.601 676.246 241.601C675.603 241.601 675.096 241.744 674.725 242.029C674.358 242.31 674.105 242.624 673.964 242.969L672.168 242.56C672.381 241.963 672.692 241.482 673.101 241.115C673.515 240.744 673.99 240.476 674.527 240.31C675.064 240.139 675.628 240.054 676.221 240.054C676.613 240.054 677.028 240.101 677.467 240.195C677.91 240.284 678.324 240.45 678.707 240.693C679.095 240.936 679.412 241.283 679.659 241.735C679.907 242.183 680.03 242.764 680.03 243.48V250H678.164V248.658H678.087C677.963 248.905 677.778 249.148 677.531 249.386C677.284 249.625 676.966 249.823 676.578 249.981C676.191 250.138 675.726 250.217 675.185 250.217ZM675.6 248.683C676.129 248.683 676.581 248.579 676.956 248.37C677.335 248.161 677.623 247.888 677.819 247.552C678.019 247.211 678.119 246.847 678.119 246.459V245.193C678.051 245.261 677.919 245.325 677.723 245.385C677.531 245.44 677.311 245.489 677.064 245.532C676.817 245.57 676.576 245.607 676.342 245.641C676.108 245.67 675.912 245.696 675.754 245.717C675.383 245.764 675.044 245.843 674.738 245.954C674.435 246.065 674.192 246.224 674.009 246.433C673.83 246.638 673.74 246.911 673.74 247.251C673.74 247.724 673.915 248.082 674.265 248.325C674.614 248.564 675.059 248.683 675.6 248.683ZM684.487 236.909V250H682.576V236.909H684.487ZM692.843 243.64V245.295H687.039V243.64H692.843ZM699.973 240.182V241.716H694.61V240.182H699.973ZM696.049 237.83H697.96V247.117C697.96 247.488 698.015 247.767 698.126 247.955C698.237 248.138 698.38 248.263 698.554 248.332C698.733 248.396 698.927 248.428 699.136 248.428C699.289 248.428 699.424 248.417 699.539 248.396C699.654 248.374 699.743 248.357 699.807 248.344L700.152 249.923C700.042 249.966 699.884 250.009 699.679 250.051C699.475 250.098 699.219 250.124 698.912 250.128C698.409 250.136 697.941 250.047 697.506 249.859C697.071 249.672 696.72 249.382 696.451 248.99C696.183 248.598 696.049 248.106 696.049 247.513V237.83ZM702.088 250V240.182H703.999V250H702.088ZM703.053 238.667C702.72 238.667 702.435 238.556 702.196 238.335C701.962 238.109 701.845 237.84 701.845 237.529C701.845 237.214 701.962 236.945 702.196 236.724C702.435 236.498 702.72 236.385 703.053 236.385C703.385 236.385 703.669 236.498 703.903 236.724C704.142 236.945 704.261 237.214 704.261 237.529C704.261 237.84 704.142 238.109 703.903 238.335C703.669 238.556 703.385 238.667 703.053 238.667ZM706.57 250V240.182H708.404V241.78H708.526C708.73 241.239 709.065 240.817 709.529 240.514C709.994 240.207 710.55 240.054 711.198 240.054C711.854 240.054 712.404 240.207 712.847 240.514C713.294 240.821 713.625 241.243 713.838 241.78H713.94C714.174 241.256 714.547 240.838 715.059 240.527C715.57 240.212 716.179 240.054 716.887 240.054C717.777 240.054 718.504 240.333 719.066 240.891C719.633 241.45 719.917 242.291 719.917 243.416V250H718.005V243.595C718.005 242.93 717.824 242.449 717.462 242.151C717.1 241.852 716.667 241.703 716.164 241.703C715.542 241.703 715.059 241.895 714.713 242.278C714.368 242.658 714.196 243.146 714.196 243.742V250H712.291V243.474C712.291 242.941 712.125 242.513 711.792 242.189C711.46 241.865 711.027 241.703 710.495 241.703C710.132 241.703 709.798 241.799 709.491 241.991C709.189 242.178 708.944 242.44 708.756 242.777C708.573 243.114 708.481 243.504 708.481 243.947V250H706.57ZM726.71 250.198C725.742 250.198 724.909 249.991 724.21 249.578C723.516 249.161 722.979 248.575 722.6 247.82C722.225 247.062 722.037 246.173 722.037 245.155C722.037 244.149 722.225 243.263 722.6 242.496C722.979 241.729 723.507 241.13 724.185 240.7C724.867 240.269 725.664 240.054 726.575 240.054C727.129 240.054 727.666 240.146 728.186 240.329C728.706 240.512 729.173 240.8 729.586 241.192C729.999 241.584 730.325 242.093 730.564 242.719C730.803 243.342 730.922 244.098 730.922 244.989V245.666H723.117V244.234H729.049C729.049 243.732 728.947 243.286 728.742 242.898C728.538 242.506 728.25 242.197 727.879 241.972C727.513 241.746 727.083 241.633 726.588 241.633C726.051 241.633 725.583 241.765 725.182 242.029C724.786 242.289 724.479 242.63 724.262 243.052C724.048 243.469 723.942 243.923 723.942 244.413V245.532C723.942 246.188 724.057 246.746 724.287 247.207C724.521 247.667 724.847 248.018 725.265 248.261C725.683 248.5 726.171 248.619 726.729 248.619C727.091 248.619 727.421 248.568 727.72 248.466C728.018 248.359 728.276 248.202 728.493 247.993C728.71 247.784 728.877 247.526 728.992 247.219L730.801 247.545C730.656 248.078 730.396 248.545 730.021 248.945C729.65 249.342 729.183 249.651 728.621 249.872C728.063 250.089 727.426 250.198 726.71 250.198Z" fill="#737373"/>
</g>
<defs>
<filter id="filter0_bd_2174_5933" x="313" y="56" width="216" height="216" filterUnits="userSpaceOnUse" color-interpolation-filters="sRGB">
<feFlood flood-opacity="0" result="BackgroundImageFix"/>
<feGaussianBlur in="BackgroundImageFix" stdDeviation="4.5"/>
<feComposite in2="SourceAlpha" operator="in" result="effect1_backgroundBlur_2174_5933"/>
<feColorMatrix in="SourceAlpha" type="matrix" values="0 0 0 0 0 0 0 0 0 0 0 0 0 0 0 0 0 0 127 0" result="hardAlpha"/>
<feMorphology radius="20" operator="erode" in="SourceAlpha" result="effect2_dropShadow_2174_5933"/>
<feOffset dx="16" dy="30"/>
<feGaussianBlur stdDeviation="30"/>
<feComposite in2="hardAlpha" operator="out"/>
<feColorMatrix type="matrix" values="0 0 0 0 0.115349 0 0 0 0 0.163721 0 0 0 0 0.204651 0 0 0 0.12 0"/>
<feBlend mode="normal" in2="effect1_backgroundBlur_2174_5933" result="effect2_dropShadow_2174_5933"/>
<feBlend mode="normal" in="SourceGraphic" in2="effect2_dropShadow_2174_5933" result="shape"/>
</filter>
<filter id="filter1_d_2174_5933" x="51" y="3" width="178" height="72" filterUnits="userSpaceOnUse" color-interpolation-filters="sRGB">
<feFlood flood-opacity="0" result="BackgroundImageFix"/>
<feColorMatrix in="SourceAlpha" type="matrix" values="0 0 0 0 0 0 0 0 0 0 0 0 0 0 0 0 0 0 127 0" result="hardAlpha"/>
<feMorphology radius="20" operator="erode" in="SourceAlpha" result="effect1_dropShadow_2174_5933"/>
<feOffset dx="16" dy="22"/>
<feGaussianBlur stdDeviation="10"/>
<feComposite in2="hardAlpha" operator="out"/>
<feColorMatrix type="matrix" values="0 0 0 0 0.115349 0 0 0 0 0.163721 0 0 0 0 0.204651 0 0 0 0.04 0"/>
<feBlend mode="normal" in2="BackgroundImageFix" result="effect1_dropShadow_2174_5933"/>
<feBlend mode="normal" in="SourceGraphic" in2="effect1_dropShadow_2174_5933" result="shape"/>
</filter>
<filter id="filter2_d_2174_5933" x="0" y="218" width="229" height="72" filterUnits="userSpaceOnUse" color-interpolation-filters="sRGB">
<feFlood flood-opacity="0" result="BackgroundImageFix"/>
<feColorMatrix in="SourceAlpha" type="matrix" values="0 0 0 0 0 0 0 0 0 0 0 0 0 0 0 0 0 0 127 0" result="hardAlpha"/>
<feMorphology radius="20" operator="erode" in="SourceAlpha" result="effect1_dropShadow_2174_5933"/>
<feOffset dx="16" dy="22"/>
<feGaussianBlur stdDeviation="10"/>
<feComposite in2="hardAlpha" operator="out"/>
<feColorMatrix type="matrix" values="0 0 0 0 0.115349 0 0 0 0 0.163721 0 0 0 0 0.204651 0 0 0 0.04 0"/>
<feBlend mode="normal" in2="BackgroundImageFix" result="effect1_dropShadow_2174_5933"/>
<feBlend mode="normal" in="SourceGraphic" in2="effect1_dropShadow_2174_5933" result="shape"/>
</filter>
<filter id="filter3_d_2174_5933" x="597" y="0" width="188" height="72" filterUnits="userSpaceOnUse" color-interpolation-filters="sRGB">
<feFlood flood-opacity="0" result="BackgroundImageFix"/>
<feColorMatrix in="SourceAlpha" type="matrix" values="0 0 0 0 0 0 0 0 0 0 0 0 0 0 0 0 0 0 127 0" result="hardAlpha"/>
<feMorphology radius="20" operator="erode" in="SourceAlpha" result="effect1_dropShadow_2174_5933"/>
<feOffset dx="16" dy="22"/>
<feGaussianBlur stdDeviation="10"/>
<feComposite in2="hardAlpha" operator="out"/>
<feColorMatrix type="matrix" values="0 0 0 0 0.115349 0 0 0 0 0.163721 0 0 0 0 0.204651 0 0 0 0.04 0"/>
<feBlend mode="normal" in2="BackgroundImageFix" result="effect1_dropShadow_2174_5933"/>
<feBlend mode="normal" in="SourceGraphic" in2="effect1_dropShadow_2174_5933" result="shape"/>
</filter>
<filter id="filter4_d_2174_5933" x="597" y="218" width="171" height="72" filterUnits="userSpaceOnUse" color-interpolation-filters="sRGB">
<feFlood flood-opacity="0" result="BackgroundImageFix"/>
<feColorMatrix in="SourceAlpha" type="matrix" values="0 0 0 0 0 0 0 0 0 0 0 0 0 0 0 0 0 0 127 0" result="hardAlpha"/>
<feMorphology radius="20" operator="erode" in="SourceAlpha" result="effect1_dropShadow_2174_5933"/>
<feOffset dx="16" dy="22"/>
<feGaussianBlur stdDeviation="10"/>
<feComposite in2="hardAlpha" operator="out"/>
<feColorMatrix type="matrix" values="0 0 0 0 0.115349 0 0 0 0 0.163721 0 0 0 0 0.204651 0 0 0 0.04 0"/>
<feBlend mode="normal" in2="BackgroundImageFix" result="effect1_dropShadow_2174_5933"/>
<feBlend mode="normal" in="SourceGraphic" in2="effect1_dropShadow_2174_5933" result="shape"/>
</filter>
<clipPath id="clip0_2174_5933">
<rect width="24" height="24" fill="white" transform="translate(617 231)"/>
</clipPath>
</defs>
</svg>
