<svg width="518" height="518" viewBox="0 0 518 518" fill="none" xmlns="http://www.w3.org/2000/svg">
<rect width="518" height="518" rx="32" fill="#F5F5F5"/>
<path d="M75.2793 86.053C75.2793 83.5674 77.3377 81.8391 80.3282 81.8391C83.2021 81.8391 85.0275 83.4314 85.1052 85.9947H82.6196C82.5613 84.7713 81.6875 84.0528 80.2893 84.0528C78.7553 84.0528 77.7649 84.7907 77.7649 85.9753C77.7649 86.9851 78.3086 87.5482 79.4932 87.8201L81.7263 88.3055C84.1537 88.8298 85.3382 90.0726 85.3382 92.1893C85.3382 94.8302 83.2798 96.5391 80.1534 96.5391C77.1241 96.5391 75.1434 94.9273 75.0851 92.3835H77.5707C77.5901 93.5874 78.5611 94.3059 80.1534 94.3059C81.804 94.3059 82.8526 93.5874 82.8526 92.4029C82.8526 91.4514 82.3671 90.8882 81.202 90.6358L78.9494 90.1309C76.5415 89.6066 75.2793 88.2279 75.2793 86.053ZM90.6075 96.2866H88.2384V88.6745H86.3937V86.6938H88.2384V83.7033H90.6075V86.6938H92.4717V88.6745H90.6075V96.2866ZM96.85 96.5391C94.8111 96.5391 93.5683 95.3545 93.5683 93.5486C93.5683 91.7815 94.8499 90.6746 97.1219 90.4998L99.9959 90.2862V90.0726C99.9959 88.7716 99.2191 88.2473 98.0152 88.2473C96.617 88.2473 95.8403 88.8298 95.8403 89.8396H93.8207C93.8207 87.7618 95.5296 86.4025 98.1317 86.4025C100.714 86.4025 102.307 87.8006 102.307 90.461V96.2866H100.229L100.054 94.8691C99.6463 95.8594 98.3453 96.5391 96.85 96.5391ZM97.6268 94.7525C99.0832 94.7525 100.015 93.8787 100.015 92.4029V91.898L98.0152 92.0533C96.5393 92.1893 95.9762 92.6747 95.9762 93.4515C95.9762 94.3253 96.5588 94.7525 97.6268 94.7525ZM107.872 96.2866H105.502V88.6745H103.658V86.6938H105.502V83.7033H107.872V86.6938H109.736V88.6745H107.872V96.2866ZM112.501 84.7713C111.685 84.7713 111.045 84.1305 111.045 83.3343C111.045 82.5382 111.685 81.9168 112.501 81.9168C113.278 81.9168 113.919 82.5382 113.919 83.3343C113.919 84.1305 113.278 84.7713 112.501 84.7713ZM111.316 96.2866V86.6938H113.686V96.2866H111.316ZM115.503 93.3738H117.756C117.775 94.2088 118.397 94.7331 119.484 94.7331C120.591 94.7331 121.193 94.2865 121.193 93.5874C121.193 93.102 120.94 92.7524 120.086 92.5582L118.358 92.1504C116.629 91.7621 115.794 90.9465 115.794 89.4124C115.794 87.5288 117.387 86.4025 119.6 86.4025C121.756 86.4025 123.212 87.6453 123.232 89.5095H120.979C120.96 88.6939 120.416 88.1696 119.503 88.1696C118.571 88.1696 118.028 88.5968 118.028 89.3153C118.028 89.859 118.455 90.2086 119.27 90.4027L120.999 90.8105C122.61 91.1795 123.426 91.9174 123.426 93.3932C123.426 95.3351 121.775 96.5391 119.406 96.5391C117.018 96.5391 115.503 95.2574 115.503 93.3738ZM128.6 96.2866H126.231V88.6745H124.386V86.6938H126.231V83.7033H128.6V86.6938H130.464V88.6745H128.6V96.2866ZM133.229 84.7713C132.414 84.7713 131.773 84.1305 131.773 83.3343C131.773 82.5382 132.414 81.9168 133.229 81.9168C134.006 81.9168 134.647 82.5382 134.647 83.3343C134.647 84.1305 134.006 84.7713 133.229 84.7713ZM132.045 96.2866V86.6938H134.414V96.2866H132.045ZM136.406 91.4708C136.406 88.4997 138.368 86.4025 141.203 86.4025C143.824 86.4025 145.611 87.8589 145.863 90.1697H143.494C143.222 89.0823 142.426 88.5191 141.3 88.5191C139.785 88.5191 138.775 89.6648 138.775 91.4708C138.775 93.2767 139.708 94.403 141.222 94.403C142.407 94.403 143.242 93.8204 143.494 92.7718H145.883C145.591 95.005 143.727 96.5391 141.222 96.5391C138.309 96.5391 136.406 94.5195 136.406 91.4708ZM147.016 93.3738H149.269C149.288 94.2088 149.909 94.7331 150.997 94.7331C152.104 94.7331 152.706 94.2865 152.706 93.5874C152.706 93.102 152.453 92.7524 151.599 92.5582L149.871 92.1504C148.142 91.7621 147.307 90.9465 147.307 89.4124C147.307 87.5288 148.9 86.4025 151.113 86.4025C153.269 86.4025 154.725 87.6453 154.745 89.5095H152.492C152.473 88.6939 151.929 88.1696 151.016 88.1696C150.084 88.1696 149.54 88.5968 149.54 89.3153C149.54 89.859 149.968 90.2086 150.783 90.4027L152.511 90.8105C154.123 91.1795 154.939 91.9174 154.939 93.3932C154.939 95.3351 153.288 96.5391 150.919 96.5391C148.531 96.5391 147.016 95.2574 147.016 93.3738Z" fill="black"/>
<rect x="301.318" y="70.8532" width="95.2315" height="35.867" rx="9.16995" fill="white"/>
<rect x="301.318" y="70.8532" width="95.2315" height="35.867" rx="9.16995" stroke="#D0D5DD" stroke-width="1.07882"/>
<path d="M320.331 95.0132C319.248 95.0132 318.329 94.774 317.574 94.2958C316.819 93.8175 316.243 93.1529 315.845 92.3021C315.452 91.4513 315.256 90.467 315.256 89.3494C315.256 88.2317 315.452 87.2475 315.845 86.3967C316.243 85.5458 316.819 84.8813 317.574 84.403C318.329 83.9247 319.248 83.6856 320.331 83.6856C321.589 83.6856 322.624 84.0053 323.434 84.6447C324.25 85.284 324.811 86.1449 325.118 87.2273L323.752 87.5898C323.53 86.7793 323.135 86.1399 322.566 85.6717C321.997 85.2035 321.252 84.9694 320.331 84.9694C319.52 84.9694 318.845 85.1531 318.307 85.5207C317.768 85.8882 317.363 86.4017 317.091 87.0612C316.819 87.7157 316.681 88.4784 316.676 89.3494C316.671 90.2153 316.804 90.978 317.076 91.6376C317.348 92.292 317.755 92.8056 318.299 93.1781C318.843 93.5456 319.52 93.7294 320.331 93.7294C321.252 93.7294 321.997 93.4953 322.566 93.0271C323.135 92.5538 323.53 91.9144 323.752 91.1089L325.118 91.4714C324.811 92.5488 324.25 93.4097 323.434 94.0541C322.624 94.6935 321.589 95.0132 320.331 95.0132ZM329.093 95.0132C328.484 95.0132 327.973 94.9024 327.56 94.6809C327.152 94.4543 326.843 94.1573 326.631 93.7898C326.425 93.4223 326.321 93.0195 326.321 92.5815C326.321 92.1536 326.402 91.7836 326.563 91.4714C326.729 91.1542 326.961 90.8924 327.258 90.686C327.555 90.4746 327.91 90.3084 328.323 90.1876C328.71 90.0819 329.143 89.9913 329.622 89.9158C330.105 89.8352 330.593 89.7622 331.087 89.6968C331.58 89.6313 332.041 89.5684 332.469 89.508L331.985 89.7874C332 89.0624 331.854 88.5262 331.547 88.1789C331.245 87.8315 330.722 87.6578 329.977 87.6578C329.483 87.6578 329.05 87.7711 328.678 87.9976C328.31 88.2191 328.051 88.5816 327.9 89.0851L326.624 88.6999C326.82 87.985 327.2 87.4237 327.764 87.0159C328.328 86.6081 329.07 86.4042 329.992 86.4042C330.732 86.4042 331.366 86.5376 331.895 86.8044C332.428 87.0662 332.811 87.464 333.043 87.9976C333.158 88.2493 333.231 88.5237 333.262 88.8208C333.292 89.1128 333.307 89.4199 333.307 89.7421V94.7866H332.114V92.8307L332.393 93.012C332.086 93.6715 331.656 94.1699 331.102 94.5072C330.553 94.8445 329.883 95.0132 329.093 95.0132ZM329.297 93.888C329.78 93.888 330.198 93.8024 330.55 93.6312C330.908 93.455 331.195 93.2259 331.411 92.944C331.628 92.657 331.769 92.3449 331.834 92.0076C331.91 91.7559 331.95 91.4764 331.955 91.1693C331.965 90.8572 331.97 90.6181 331.97 90.4519L332.438 90.6558C332 90.7162 331.57 90.7741 331.147 90.8295C330.724 90.8849 330.324 90.9453 329.946 91.0108C329.569 91.0712 329.229 91.1442 328.927 91.2298C328.705 91.3002 328.496 91.3909 328.3 91.5016C328.109 91.6124 327.953 91.7559 327.832 91.9321C327.716 92.1032 327.658 92.3172 327.658 92.574C327.658 92.7955 327.714 93.0069 327.824 93.2083C327.94 93.4097 328.116 93.5733 328.353 93.6992C328.595 93.825 328.909 93.888 329.297 93.888ZM341.078 94.7866V90.7011C341.078 90.3135 341.042 89.9409 340.972 89.5835C340.906 89.226 340.788 88.9063 340.617 88.6244C340.451 88.3374 340.224 88.1109 339.937 87.9448C339.655 87.7786 339.298 87.6956 338.865 87.6956C338.528 87.6956 338.22 87.7534 337.944 87.8692C337.672 87.98 337.438 88.1512 337.241 88.3828C337.045 88.6143 336.891 88.9063 336.781 89.2588C336.675 89.6061 336.622 90.0164 336.622 90.4897L335.738 90.2178C335.738 89.4274 335.879 88.7503 336.161 88.1864C336.448 87.6175 336.849 87.182 337.362 86.88C337.881 86.5729 338.49 86.4193 339.19 86.4193C339.718 86.4193 340.169 86.5024 340.541 86.6685C340.914 86.8347 341.224 87.0562 341.47 87.3331C341.717 87.6049 341.911 87.912 342.052 88.2544C342.193 88.5917 342.291 88.9366 342.346 89.289C342.407 89.6363 342.437 89.9661 342.437 90.2782V94.7866H341.078ZM335.263 94.7866V86.6308H336.471V88.8132H336.622V94.7866H335.263ZM347.528 95.0132C346.768 95.0132 346.116 94.8244 345.572 94.4468C345.029 94.0642 344.608 93.5481 344.311 92.8987C344.019 92.2492 343.873 91.5167 343.873 90.7011C343.873 89.8856 344.019 89.153 344.311 88.5036C344.608 87.8541 345.029 87.3431 345.572 86.9706C346.116 86.593 346.766 86.4042 347.521 86.4042C348.291 86.4042 348.938 86.5905 349.462 86.963C349.985 87.3356 350.38 87.8466 350.647 88.496C350.919 89.1455 351.055 89.8805 351.055 90.7011C351.055 91.5117 350.919 92.2442 350.647 92.8987C350.38 93.5481 349.985 94.0642 349.462 94.4468C348.938 94.8244 348.294 95.0132 347.528 95.0132ZM347.695 93.7822C348.243 93.7822 348.694 93.6513 349.046 93.3896C349.399 93.1227 349.658 92.7577 349.824 92.2946C349.995 91.8263 350.081 91.2952 350.081 90.7011C350.081 90.097 349.995 89.5659 349.824 89.1077C349.658 88.6446 349.401 88.2846 349.054 88.0278C348.706 87.766 348.266 87.6351 347.732 87.6351C347.178 87.6351 346.72 87.7711 346.358 88.0429C346 88.3148 345.734 88.6823 345.557 89.1455C345.386 89.6087 345.301 90.1272 345.301 90.7011C345.301 91.2801 345.389 91.8037 345.565 92.2719C345.741 92.7351 346.005 93.1026 346.358 93.3744C346.715 93.6463 347.161 93.7822 347.695 93.7822ZM350.081 94.7866V88.783H349.93V83.9121H351.282V94.7866H350.081ZM353.548 94.7866V83.6856H354.893V94.7866H353.548ZM360.693 95.0132C359.892 95.0132 359.192 94.837 358.593 94.4846C357.999 94.1271 357.536 93.6312 357.204 92.9969C356.871 92.3575 356.705 91.6124 356.705 90.7616C356.705 89.8704 356.869 89.1002 357.196 88.4507C357.523 87.7962 357.979 87.2928 358.563 86.9404C359.152 86.5829 359.842 86.4042 360.632 86.4042C361.453 86.4042 362.15 86.593 362.724 86.9706C363.303 87.3482 363.736 87.8869 364.023 88.5867C364.315 89.2864 364.441 90.1197 364.401 91.0863H363.041V90.603C363.026 89.6011 362.822 88.8535 362.43 88.3601C362.037 87.8617 361.453 87.6125 360.678 87.6125C359.847 87.6125 359.215 87.8793 358.782 88.413C358.349 88.9466 358.133 89.7119 358.133 90.7087C358.133 91.6703 358.349 92.4154 358.782 92.944C359.215 93.4726 359.832 93.7369 360.632 93.7369C361.171 93.7369 361.639 93.6136 362.037 93.3669C362.435 93.1202 362.747 92.7653 362.973 92.3021L364.265 92.7477C363.947 93.4676 363.469 94.0264 362.83 94.4241C362.195 94.8168 361.483 95.0132 360.693 95.0132ZM357.68 91.0863V90.0064H363.706V91.0863H357.68Z" fill="black"/>
<path d="M374.434 86.6289L378.749 90.9442L383.064 86.6289" stroke="#1E0B28" stroke-width="1.61823" stroke-linecap="round" stroke-linejoin="round"/>
<path d="M417.586 84.4715V82.3139C417.586 81.7416 417.814 81.1928 418.218 80.7882C418.623 80.3836 419.172 80.1562 419.744 80.1562H421.902M417.586 93.1021V95.2597C417.586 95.8319 417.814 96.3807 418.218 96.7854C418.623 97.19 419.172 97.4173 419.744 97.4173H421.902M430.532 80.1562H432.69C433.262 80.1562 433.811 80.3836 434.216 80.7882C434.62 81.1928 434.848 81.7416 434.848 82.3139V84.4715M430.532 97.4173H432.69C433.262 97.4173 433.811 97.19 434.216 96.7854C434.62 96.3807 434.848 95.8319 434.848 95.2597V93.1021" stroke="#666666" stroke-width="1.61823" stroke-linecap="round" stroke-linejoin="round"/>
<path d="M79.2601 139.636C78.3324 139.636 77.5448 139.431 76.8975 139.021C76.2502 138.611 75.7561 138.042 75.4152 137.312C75.0786 136.583 74.9103 135.739 74.9103 134.781C74.9103 133.823 75.0786 132.98 75.4152 132.25C75.7561 131.521 76.2502 130.952 76.8975 130.542C77.5448 130.132 78.3324 129.927 79.2601 129.927C80.1922 129.927 80.9819 130.132 81.6292 130.542C82.2765 130.952 82.7685 131.521 83.105 132.25C83.4416 132.98 83.6099 133.823 83.6099 134.781C83.6099 135.739 83.4416 136.583 83.105 137.312C82.7685 138.042 82.2765 138.611 81.6292 139.021C80.9819 139.431 80.1922 139.636 79.2601 139.636ZM79.2601 138.536C79.9549 138.54 80.5331 138.385 80.9949 138.07C81.4609 137.75 81.8083 137.308 82.037 136.743C82.27 136.177 82.3866 135.524 82.3866 134.781C82.3866 134.035 82.27 133.381 82.037 132.82C81.8083 132.259 81.4609 131.821 80.9949 131.506C80.5331 131.191 79.9549 131.031 79.2601 131.027C78.5654 131.023 77.9871 131.178 77.5254 131.493C77.068 131.808 76.7228 132.248 76.4897 132.814C76.2567 133.379 76.138 134.035 76.1337 134.781C76.1294 135.524 76.2438 136.175 76.4768 136.736C76.7098 137.297 77.0572 137.737 77.5189 138.057C77.985 138.372 78.5654 138.531 79.2601 138.536Z" fill="black"/>
<path d="M93.6025 141.668C92.9128 141.668 92.286 141.502 91.7222 141.17C91.1633 140.838 90.7178 140.385 90.3855 139.811C90.0583 139.232 89.8946 138.58 89.8946 137.855V134.238C89.8946 133.477 90.0583 132.805 90.3855 132.221C90.7178 131.632 91.1709 131.174 91.7448 130.847C92.3238 130.515 92.9833 130.348 93.7234 130.348C94.3225 130.348 94.8788 130.472 95.3923 130.718C95.9109 130.96 96.3463 131.31 96.6987 131.768L95.6944 132.659C95.4779 132.342 95.196 132.09 94.8486 131.904C94.5012 131.718 94.1261 131.625 93.7234 131.625C93.2451 131.625 92.8197 131.74 92.4471 131.972C92.0796 132.199 91.7901 132.501 91.5787 132.878C91.3672 133.251 91.2615 133.654 91.2615 134.087V136.269L90.967 135.937C91.2842 135.484 91.6869 135.121 92.1753 134.849C92.6636 134.577 93.1922 134.441 93.7611 134.441C94.4357 134.441 95.0399 134.6 95.5735 134.917C96.1122 135.234 96.5351 135.665 96.8422 136.209C97.1544 136.747 97.3104 137.354 97.3104 138.029C97.3104 138.703 97.1418 139.315 96.8045 139.864C96.4672 140.412 96.0166 140.85 95.4527 141.178C94.8939 141.505 94.2772 141.668 93.6025 141.668ZM93.6025 140.37C94.0355 140.37 94.4307 140.266 94.7882 140.06C95.1456 139.848 95.4275 139.567 95.634 139.214C95.8454 138.857 95.9511 138.461 95.9511 138.029C95.9511 137.596 95.8454 137.2 95.634 136.843C95.4275 136.485 95.1456 136.204 94.7882 135.997C94.4357 135.786 94.0431 135.68 93.6101 135.68C93.1771 135.68 92.7819 135.786 92.4245 135.997C92.0721 136.204 91.7901 136.485 91.5787 136.843C91.3672 137.2 91.2615 137.596 91.2615 138.029C91.2615 138.456 91.3647 138.849 91.5711 139.207C91.7826 139.559 92.0645 139.841 92.4169 140.052C92.7744 140.264 93.1696 140.37 93.6025 140.37ZM103.972 141.442V139.441H98.9732V138.164L102.56 130.567H104.086L100.499 138.164H103.972V135.106H105.332V138.164H106.465V139.441H105.332V141.442H103.972ZM110.168 141.442V132.055L108.121 133.294V131.791L110.168 130.567H111.535V141.442H110.168ZM117.391 141.653C116.852 141.653 116.352 141.555 115.888 141.359C115.425 141.157 115.025 140.876 114.688 140.513C114.355 140.146 114.111 139.71 113.955 139.207L115.246 138.837C115.413 139.34 115.69 139.723 116.077 139.984C116.465 140.246 116.9 140.375 117.384 140.37C117.827 140.359 118.209 140.259 118.531 140.067C118.859 139.871 119.11 139.604 119.287 139.267C119.468 138.93 119.559 138.54 119.559 138.096C119.559 137.422 119.357 136.876 118.954 136.458C118.552 136.035 118.023 135.823 117.369 135.823C117.187 135.823 116.996 135.849 116.795 135.899C116.598 135.949 116.414 136.02 116.243 136.11L115.594 135.046L119.626 131.398L119.8 131.851H114.386V130.567H120.797V131.859L117.361 135.151L117.346 134.676C118.066 134.625 118.695 134.744 119.234 135.03C119.772 135.317 120.19 135.728 120.487 136.261C120.789 136.795 120.94 137.407 120.94 138.096C120.94 138.791 120.784 139.405 120.472 139.939C120.16 140.473 119.737 140.893 119.204 141.2C118.67 141.502 118.066 141.653 117.391 141.653ZM123.146 141.442V139.962H124.626V141.442H123.146ZM130.192 141.668C129.633 141.668 129.112 141.553 128.629 141.321C128.15 141.089 127.74 140.772 127.398 140.37C127.06 139.962 126.819 139.494 126.673 138.965L127.964 138.618C128.055 138.975 128.216 139.285 128.447 139.546C128.679 139.803 128.948 140.005 129.255 140.151C129.568 140.292 129.892 140.362 130.23 140.362C130.673 140.362 131.07 140.256 131.423 140.045C131.78 139.828 132.062 139.544 132.269 139.191C132.475 138.834 132.578 138.444 132.578 138.021C132.578 137.583 132.47 137.188 132.253 136.835C132.042 136.478 131.758 136.196 131.4 135.99C131.043 135.783 130.652 135.68 130.23 135.68C129.751 135.68 129.341 135.781 128.999 135.982C128.661 136.178 128.395 136.42 128.198 136.707L127.005 136.254L127.337 130.567H133.175V131.844H127.987L128.583 131.285L128.304 135.839L128.009 135.453C128.311 135.131 128.671 134.882 129.089 134.706C129.512 134.53 129.943 134.441 130.381 134.441C131.055 134.441 131.659 134.6 132.193 134.917C132.727 135.229 133.15 135.657 133.462 136.201C133.774 136.74 133.93 137.346 133.93 138.021C133.93 138.691 133.759 139.302 133.416 139.856C133.074 140.405 132.618 140.845 132.05 141.178C131.486 141.505 130.866 141.668 130.192 141.668ZM139.444 141.668C138.754 141.668 138.127 141.502 137.563 141.17C137.005 140.838 136.559 140.385 136.227 139.811C135.9 139.232 135.736 138.58 135.736 137.855V134.238C135.736 133.477 135.9 132.805 136.227 132.221C136.559 131.632 137.012 131.174 137.586 130.847C138.165 130.515 138.825 130.348 139.565 130.348C140.164 130.348 140.72 130.472 141.234 130.718C141.752 130.96 142.188 131.31 142.54 131.768L141.536 132.659C141.319 132.342 141.037 132.09 140.69 131.904C140.343 131.718 139.967 131.625 139.565 131.625C139.086 131.625 138.661 131.74 138.288 131.972C137.921 132.199 137.631 132.501 137.42 132.878C137.209 133.251 137.103 133.654 137.103 134.087V136.269L136.808 135.937C137.125 135.484 137.528 135.121 138.017 134.849C138.505 134.577 139.034 134.441 139.602 134.441C140.277 134.441 140.881 134.6 141.415 134.917C141.954 135.234 142.376 135.665 142.684 136.209C142.996 136.747 143.152 137.354 143.152 138.029C143.152 138.703 142.983 139.315 142.646 139.864C142.308 140.412 141.858 140.85 141.294 141.178C140.735 141.505 140.118 141.668 139.444 141.668ZM139.444 140.37C139.877 140.37 140.272 140.266 140.629 140.06C140.987 139.848 141.269 139.567 141.475 139.214C141.687 138.857 141.792 138.461 141.792 138.029C141.792 137.596 141.687 137.2 141.475 136.843C141.269 136.485 140.987 136.204 140.629 135.997C140.277 135.786 139.884 135.68 139.451 135.68C139.018 135.68 138.623 135.786 138.266 135.997C137.913 136.204 137.631 136.485 137.42 136.843C137.209 137.2 137.103 137.596 137.103 138.029C137.103 138.456 137.206 138.849 137.412 139.207C137.624 139.559 137.906 139.841 138.258 140.052C138.616 140.264 139.011 140.37 139.444 140.37Z" fill="#43C463"/>
<path d="M169.309 139.442V130.121H170.461V134.231H175.367V130.121H176.519V139.442H175.367V135.325H170.461V139.442H169.309Z" fill="black"/>
<path d="M188.472 141.442V139.441H183.473V138.164L187.06 130.567H188.585L184.998 138.164H188.472V135.106H189.831V138.164H190.964V139.441H189.831V141.442H188.472ZM196.48 141.668C195.79 141.668 195.164 141.502 194.6 141.17C194.041 140.838 193.595 140.385 193.263 139.811C192.936 139.232 192.772 138.58 192.772 137.855V134.238C192.772 133.477 192.936 132.805 193.263 132.221C193.595 131.632 194.048 131.174 194.622 130.847C195.201 130.515 195.861 130.348 196.601 130.348C197.2 130.348 197.756 130.472 198.27 130.718C198.788 130.96 199.224 131.31 199.576 131.768L198.572 132.659C198.355 132.342 198.073 132.09 197.726 131.904C197.379 131.718 197.004 131.625 196.601 131.625C196.123 131.625 195.697 131.74 195.325 131.972C194.957 132.199 194.668 132.501 194.456 132.878C194.245 133.251 194.139 133.654 194.139 134.087V136.269L193.845 135.937C194.162 135.484 194.564 135.121 195.053 134.849C195.541 134.577 196.07 134.441 196.639 134.441C197.313 134.441 197.917 134.6 198.451 134.917C198.99 135.234 199.413 135.665 199.72 136.209C200.032 136.747 200.188 137.354 200.188 138.029C200.188 138.703 200.019 139.315 199.682 139.864C199.345 140.412 198.894 140.85 198.33 141.178C197.771 141.505 197.155 141.668 196.48 141.668ZM196.48 140.37C196.913 140.37 197.308 140.266 197.666 140.06C198.023 139.848 198.305 139.567 198.511 139.214C198.723 138.857 198.829 138.461 198.829 138.029C198.829 137.596 198.723 137.2 198.511 136.843C198.305 136.485 198.023 136.204 197.666 135.997C197.313 135.786 196.921 135.68 196.488 135.68C196.055 135.68 195.659 135.786 195.302 135.997C194.95 136.204 194.668 136.485 194.456 136.843C194.245 137.2 194.139 137.596 194.139 138.029C194.139 138.456 194.242 138.849 194.449 139.207C194.66 139.559 194.942 139.841 195.294 140.052C195.652 140.264 196.047 140.37 196.48 140.37ZM205.37 141.668C204.811 141.668 204.29 141.553 203.807 141.321C203.328 141.089 202.918 140.772 202.576 140.37C202.238 139.962 201.997 139.494 201.851 138.965L203.142 138.618C203.233 138.975 203.394 139.285 203.625 139.546C203.857 139.803 204.126 140.005 204.433 140.151C204.746 140.292 205.07 140.362 205.408 140.362C205.851 140.362 206.248 140.256 206.601 140.045C206.958 139.828 207.24 139.544 207.447 139.191C207.653 138.834 207.756 138.444 207.756 138.021C207.756 137.583 207.648 137.188 207.432 136.835C207.22 136.478 206.936 136.196 206.578 135.99C206.221 135.783 205.831 135.68 205.408 135.68C204.929 135.68 204.519 135.781 204.177 135.982C203.839 136.178 203.573 136.42 203.376 136.707L202.183 136.254L202.515 130.567H208.353V131.844H203.165L203.761 131.285L203.482 135.839L203.187 135.453C203.49 135.131 203.849 134.882 204.267 134.706C204.69 134.53 205.121 134.441 205.559 134.441C206.233 134.441 206.837 134.6 207.371 134.917C207.905 135.229 208.328 135.657 208.64 136.201C208.952 136.74 209.108 137.346 209.108 138.021C209.108 138.691 208.937 139.302 208.594 139.856C208.252 140.405 207.797 140.845 207.228 141.178C206.664 141.505 206.045 141.668 205.37 141.668ZM211.488 141.442L215.4 131.859H210.461V130.567H216.842V131.859L212.938 141.442H211.488ZM222.75 141.442V139.441H217.751V138.164L221.338 130.567H222.863L219.276 138.164H222.75V135.106H224.109V138.164H225.242V139.441H224.109V141.442H222.75ZM226.997 141.442V139.962H228.477V141.442H226.997ZM234.043 141.668C233.484 141.668 232.963 141.553 232.48 141.321C232.001 141.089 231.591 140.772 231.249 140.37C230.911 139.962 230.67 139.494 230.524 138.965L231.815 138.618C231.906 138.975 232.067 139.285 232.298 139.546C232.53 139.803 232.799 140.005 233.106 140.151C233.419 140.292 233.743 140.362 234.081 140.362C234.524 140.362 234.921 140.256 235.274 140.045C235.631 139.828 235.913 139.544 236.12 139.191C236.326 138.834 236.429 138.444 236.429 138.021C236.429 137.583 236.321 137.188 236.104 136.835C235.893 136.478 235.609 136.196 235.251 135.99C234.894 135.783 234.503 135.68 234.081 135.68C233.602 135.68 233.192 135.781 232.85 135.982C232.512 136.178 232.246 136.42 232.049 136.707L230.856 136.254L231.188 130.567H237.026V131.844H231.838L232.434 131.285L232.155 135.839L231.86 135.453C232.162 135.131 232.522 134.882 232.94 134.706C233.363 134.53 233.794 134.441 234.232 134.441C234.906 134.441 235.51 134.6 236.044 134.917C236.578 135.229 237.001 135.657 237.313 136.201C237.625 136.74 237.781 137.346 237.781 138.021C237.781 138.691 237.61 139.302 237.267 139.856C236.925 140.405 236.469 140.845 235.901 141.178C235.337 141.505 234.717 141.668 234.043 141.668ZM238.872 141.434L238.879 140.226L243.705 135.884C244.108 135.521 244.377 135.179 244.513 134.857C244.654 134.53 244.725 134.195 244.725 133.852C244.725 133.435 244.629 133.057 244.438 132.72C244.246 132.382 243.984 132.116 243.652 131.919C243.325 131.723 242.952 131.625 242.535 131.625C242.102 131.625 241.716 131.728 241.379 131.934C241.042 132.136 240.775 132.405 240.579 132.742C240.387 133.08 240.294 133.447 240.299 133.845H238.925C238.925 133.16 239.083 132.556 239.401 132.032C239.718 131.504 240.148 131.091 240.692 130.794C241.241 130.492 241.862 130.341 242.557 130.341C243.232 130.341 243.836 130.497 244.37 130.809C244.903 131.116 245.324 131.537 245.631 132.07C245.943 132.599 246.099 133.198 246.099 133.868C246.099 134.341 246.039 134.751 245.918 135.098C245.802 135.446 245.621 135.768 245.374 136.065C245.127 136.357 244.818 136.669 244.445 137.001L240.435 140.604L240.261 140.151H246.099V141.434H238.872Z" fill="#43C463"/>
<path d="M272.318 139.442V130.121H273.47V138.348H277.794V139.442H272.318Z" fill="black"/>
<path d="M285.55 141.442V132.055L283.504 133.294V131.791L285.55 130.567H286.917V141.442H285.55ZM293.008 141.668C292.449 141.668 291.928 141.553 291.445 141.321C290.966 141.089 290.556 140.772 290.214 140.37C289.876 139.962 289.635 139.494 289.489 138.965L290.78 138.618C290.871 138.975 291.032 139.285 291.263 139.546C291.495 139.803 291.764 140.005 292.071 140.151C292.383 140.292 292.708 140.362 293.045 140.362C293.489 140.362 293.886 140.256 294.239 140.045C294.596 139.828 294.878 139.544 295.084 139.191C295.291 138.834 295.394 138.444 295.394 138.021C295.394 137.583 295.286 137.188 295.069 136.835C294.858 136.478 294.573 136.196 294.216 135.99C293.859 135.783 293.468 135.68 293.045 135.68C292.567 135.68 292.157 135.781 291.815 135.982C291.477 136.178 291.21 136.42 291.014 136.707L289.821 136.254L290.153 130.567H295.991V131.844H290.803L291.399 131.285L291.12 135.839L290.825 135.453C291.127 135.131 291.487 134.882 291.905 134.706C292.328 134.53 292.759 134.441 293.197 134.441C293.871 134.441 294.475 134.6 295.009 134.917C295.543 135.229 295.965 135.657 296.278 136.201C296.59 136.74 296.746 137.346 296.746 138.021C296.746 138.691 296.575 139.302 296.232 139.856C295.89 140.405 295.434 140.845 294.865 141.178C294.302 141.505 293.682 141.668 293.008 141.668ZM302.26 141.668C301.57 141.668 300.943 141.502 300.379 141.17C299.821 140.838 299.375 140.385 299.043 139.811C298.715 139.232 298.552 138.58 298.552 137.855V134.238C298.552 133.477 298.715 132.805 299.043 132.221C299.375 131.632 299.828 131.174 300.402 130.847C300.981 130.515 301.641 130.348 302.381 130.348C302.98 130.348 303.536 130.472 304.05 130.718C304.568 130.96 305.004 131.31 305.356 131.768L304.352 132.659C304.135 132.342 303.853 132.09 303.506 131.904C303.158 131.718 302.783 131.625 302.381 131.625C301.902 131.625 301.477 131.74 301.104 131.972C300.737 132.199 300.447 132.501 300.236 132.878C300.024 133.251 299.919 133.654 299.919 134.087V136.269L299.624 135.937C299.941 135.484 300.344 135.121 300.832 134.849C301.321 134.577 301.849 134.441 302.418 134.441C303.093 134.441 303.697 134.6 304.231 134.917C304.769 135.234 305.192 135.665 305.499 136.209C305.812 136.747 305.968 137.354 305.968 138.029C305.968 138.703 305.799 139.315 305.462 139.864C305.124 140.412 304.674 140.85 304.11 141.178C303.551 141.505 302.934 141.668 302.26 141.668ZM302.26 140.37C302.693 140.37 303.088 140.266 303.445 140.06C303.803 139.848 304.085 139.567 304.291 139.214C304.503 138.857 304.608 138.461 304.608 138.029C304.608 137.596 304.503 137.2 304.291 136.843C304.085 136.485 303.803 136.204 303.445 135.997C303.093 135.786 302.7 135.68 302.267 135.68C301.834 135.68 301.439 135.786 301.082 135.997C300.729 136.204 300.447 136.485 300.236 136.843C300.024 137.2 299.919 137.596 299.919 138.029C299.919 138.456 300.022 138.849 300.228 139.207C300.44 139.559 300.722 139.841 301.074 140.052C301.432 140.264 301.827 140.37 302.26 140.37ZM308.506 141.442L312.418 131.859H307.479V130.567H313.861V131.859L309.956 141.442H308.506ZM319.074 141.668C318.379 141.668 317.765 141.53 317.232 141.253C316.698 140.971 316.28 140.581 315.978 140.083C315.676 139.584 315.525 139.003 315.525 138.338C315.525 137.689 315.678 137.102 315.986 136.579C316.298 136.055 316.766 135.652 317.39 135.37L317.368 135.861C316.859 135.614 316.469 135.267 316.197 134.819C315.925 134.366 315.789 133.865 315.789 133.316C315.789 132.702 315.93 132.173 316.212 131.73C316.494 131.287 316.882 130.945 317.375 130.703C317.868 130.462 318.435 130.341 319.074 130.341C319.714 130.341 320.28 130.462 320.773 130.703C321.267 130.945 321.654 131.287 321.936 131.73C322.218 132.173 322.359 132.702 322.359 133.316C322.359 133.865 322.231 134.363 321.974 134.811C321.717 135.255 321.322 135.604 320.788 135.861L320.758 135.378C321.383 135.65 321.851 136.05 322.163 136.579C322.48 137.102 322.639 137.689 322.639 138.338C322.639 139.003 322.485 139.584 322.178 140.083C321.876 140.581 321.456 140.971 320.917 141.253C320.383 141.53 319.769 141.668 319.074 141.668ZM319.074 140.385C319.709 140.385 320.222 140.211 320.615 139.864C321.013 139.511 321.211 139.003 321.211 138.338C321.211 137.669 321.015 137.16 320.622 136.813C320.235 136.46 319.719 136.284 319.074 136.284C318.435 136.284 317.919 136.46 317.526 136.813C317.138 137.16 316.945 137.669 316.945 138.338C316.945 139.003 317.141 139.511 317.534 139.864C317.926 140.211 318.44 140.385 319.074 140.385ZM319.074 134.993C319.628 134.993 320.076 134.854 320.418 134.577C320.761 134.295 320.932 133.875 320.932 133.316C320.932 132.757 320.761 132.34 320.418 132.063C320.076 131.781 319.628 131.64 319.074 131.64C318.525 131.64 318.077 131.781 317.73 132.063C317.388 132.34 317.217 132.757 317.217 133.316C317.217 133.875 317.388 134.295 317.73 134.577C318.077 134.854 318.525 134.993 319.074 134.993ZM324.841 141.442V139.962H326.321V141.442H324.841ZM332.227 130.348C332.922 130.348 333.549 130.515 334.107 130.847C334.666 131.179 335.109 131.632 335.437 132.206C335.769 132.78 335.935 133.432 335.935 134.162V137.779C335.935 138.54 335.771 139.212 335.444 139.796C335.117 140.38 334.664 140.838 334.085 141.17C333.511 141.502 332.851 141.668 332.106 141.668C331.512 141.668 330.956 141.545 330.437 141.298C329.924 141.052 329.488 140.702 329.131 140.249L330.135 139.358C330.357 139.67 330.641 139.921 330.989 140.113C331.336 140.299 331.709 140.392 332.106 140.392C332.59 140.392 333.015 140.276 333.383 140.045C333.755 139.813 334.045 139.511 334.251 139.139C334.462 138.766 334.568 138.363 334.568 137.93V135.748L334.863 136.08C334.551 136.533 334.15 136.896 333.662 137.168C333.174 137.439 332.642 137.575 332.069 137.575C331.394 137.575 330.79 137.417 330.256 137.1C329.722 136.782 329.3 136.355 328.987 135.816C328.675 135.272 328.519 134.663 328.519 133.988C328.519 133.314 328.688 132.702 329.025 132.153C329.362 131.599 329.811 131.161 330.369 130.839C330.933 130.512 331.552 130.348 332.227 130.348ZM332.227 131.647C331.794 131.647 331.399 131.753 331.041 131.964C330.689 132.171 330.407 132.453 330.196 132.81C329.984 133.163 329.879 133.555 329.879 133.988C329.879 134.421 329.982 134.817 330.188 135.174C330.4 135.526 330.682 135.808 331.034 136.02C331.391 136.231 331.787 136.337 332.22 136.337C332.653 136.337 333.048 136.231 333.405 136.02C333.763 135.808 334.045 135.526 334.251 135.174C334.462 134.817 334.568 134.421 334.568 133.988C334.568 133.56 334.462 133.17 334.251 132.818C334.045 132.46 333.763 132.176 333.405 131.964C333.053 131.753 332.66 131.647 332.227 131.647ZM338.477 141.442L342.389 131.859H337.45V130.567H343.832V131.859L339.927 141.442H338.477Z" fill="#43C463"/>
<path d="M372.9 139.636C371.972 139.636 371.185 139.431 370.538 139.021C369.89 138.611 369.396 138.042 369.055 137.312C368.719 136.583 368.55 135.739 368.55 134.781C368.55 133.823 368.719 132.98 369.055 132.25C369.396 131.521 369.89 130.952 370.538 130.542C371.185 130.132 371.972 129.927 372.9 129.927C373.979 129.927 374.866 130.201 375.561 130.749C376.26 131.297 376.741 132.035 377.004 132.963L375.833 133.273C375.643 132.578 375.304 132.03 374.816 131.629C374.329 131.228 373.69 131.027 372.9 131.027C372.206 131.027 371.627 131.185 371.166 131.5C370.704 131.815 370.356 132.255 370.123 132.82C369.89 133.381 369.772 134.035 369.767 134.781C369.763 135.524 369.877 136.177 370.11 136.743C370.343 137.304 370.693 137.744 371.159 138.063C371.625 138.378 372.206 138.536 372.9 138.536C373.69 138.536 374.329 138.335 374.816 137.934C375.304 137.528 375.643 136.98 375.833 136.29L377.004 136.6C376.741 137.524 376.26 138.262 375.561 138.814C374.866 139.362 373.979 139.636 372.9 139.636Z" fill="black"/>
<path d="M386.518 141.653C385.979 141.653 385.478 141.555 385.015 141.359C384.552 141.157 384.152 140.876 383.814 140.513C383.482 140.146 383.238 139.71 383.082 139.207L384.373 138.837C384.539 139.34 384.816 139.723 385.204 139.984C385.591 140.246 386.027 140.375 386.51 140.37C386.953 140.359 387.336 140.259 387.658 140.067C387.985 139.871 388.237 139.604 388.413 139.267C388.594 138.93 388.685 138.54 388.685 138.096C388.685 137.422 388.484 136.876 388.081 136.458C387.678 136.035 387.15 135.823 386.495 135.823C386.314 135.823 386.123 135.849 385.921 135.899C385.725 135.949 385.541 136.02 385.37 136.11L384.72 135.046L388.753 131.398L388.927 131.851H383.512V130.567H389.924V131.859L386.488 135.151L386.472 134.676C387.192 134.625 387.822 134.744 388.36 135.03C388.899 135.317 389.317 135.728 389.614 136.261C389.916 136.795 390.067 137.407 390.067 138.096C390.067 138.791 389.911 139.405 389.599 139.939C389.287 140.473 388.864 140.893 388.33 141.2C387.796 141.502 387.192 141.653 386.518 141.653ZM395.429 141.668C394.734 141.668 394.12 141.53 393.586 141.253C393.052 140.971 392.635 140.581 392.333 140.083C392.03 139.584 391.879 139.003 391.879 138.338C391.879 137.689 392.033 137.102 392.34 136.579C392.652 136.055 393.12 135.652 393.745 135.37L393.722 135.861C393.214 135.614 392.823 135.267 392.552 134.819C392.28 134.366 392.144 133.865 392.144 133.316C392.144 132.702 392.285 132.173 392.567 131.73C392.849 131.287 393.236 130.945 393.73 130.703C394.223 130.462 394.789 130.341 395.429 130.341C396.068 130.341 396.635 130.462 397.128 130.703C397.621 130.945 398.009 131.287 398.291 131.73C398.573 132.173 398.714 132.702 398.714 133.316C398.714 133.865 398.585 134.363 398.329 134.811C398.072 135.255 397.677 135.604 397.143 135.861L397.113 135.378C397.737 135.65 398.205 136.05 398.517 136.579C398.835 137.102 398.993 137.689 398.993 138.338C398.993 139.003 398.84 139.584 398.533 140.083C398.23 140.581 397.81 140.971 397.271 141.253C396.738 141.53 396.124 141.668 395.429 141.668ZM395.429 140.385C396.063 140.385 396.577 140.211 396.969 139.864C397.367 139.511 397.566 139.003 397.566 138.338C397.566 137.669 397.37 137.16 396.977 136.813C396.589 136.46 396.073 136.284 395.429 136.284C394.789 136.284 394.273 136.46 393.881 136.813C393.493 137.16 393.299 137.669 393.299 138.338C393.299 139.003 393.496 139.511 393.888 139.864C394.281 140.211 394.794 140.385 395.429 140.385ZM395.429 134.993C395.983 134.993 396.431 134.854 396.773 134.577C397.115 134.295 397.286 133.875 397.286 133.316C397.286 132.757 397.115 132.34 396.773 132.063C396.431 131.781 395.983 131.64 395.429 131.64C394.88 131.64 394.432 131.781 394.085 132.063C393.742 132.34 393.571 132.757 393.571 133.316C393.571 133.875 393.742 134.295 394.085 134.577C394.432 134.854 394.88 134.993 395.429 134.993ZM401.528 141.442L405.44 131.859H400.501V130.567H406.882V131.859L402.978 141.442H401.528ZM410.593 141.442V132.055L408.546 133.294V131.791L410.593 130.567H411.96V141.442H410.593ZM419.53 141.442V139.441H414.531V138.164L418.118 130.567H419.644L416.057 138.164H419.53V135.106H420.89V138.164H422.022V139.441H420.89V141.442H419.53ZM423.777 141.442V139.962H425.257V141.442H423.777ZM431.004 141.668C430.31 141.668 429.695 141.53 429.162 141.253C428.628 140.971 428.21 140.581 427.908 140.083C427.606 139.584 427.455 139.003 427.455 138.338C427.455 137.689 427.609 137.102 427.916 136.579C428.228 136.055 428.696 135.652 429.32 135.37L429.298 135.861C428.789 135.614 428.399 135.267 428.127 134.819C427.855 134.366 427.719 133.865 427.719 133.316C427.719 132.702 427.86 132.173 428.142 131.73C428.424 131.287 428.812 130.945 429.305 130.703C429.799 130.462 430.365 130.341 431.004 130.341C431.644 130.341 432.21 130.462 432.704 130.703C433.197 130.945 433.585 131.287 433.867 131.73C434.148 132.173 434.289 132.702 434.289 133.316C434.289 133.865 434.161 134.363 433.904 134.811C433.648 135.255 433.252 135.604 432.719 135.861L432.688 135.378C433.313 135.65 433.781 136.05 434.093 136.579C434.41 137.102 434.569 137.689 434.569 138.338C434.569 139.003 434.415 139.584 434.108 140.083C433.806 140.581 433.386 140.971 432.847 141.253C432.313 141.53 431.699 141.668 431.004 141.668ZM431.004 140.385C431.639 140.385 432.152 140.211 432.545 139.864C432.943 139.511 433.142 139.003 433.142 138.338C433.142 137.669 432.945 137.16 432.553 136.813C432.165 136.46 431.649 136.284 431.004 136.284C430.365 136.284 429.849 136.46 429.456 136.813C429.069 137.16 428.875 137.669 428.875 138.338C428.875 139.003 429.071 139.511 429.464 139.864C429.857 140.211 430.37 140.385 431.004 140.385ZM431.004 134.993C431.558 134.993 432.006 134.854 432.349 134.577C432.691 134.295 432.862 133.875 432.862 133.316C432.862 132.757 432.691 132.34 432.349 132.063C432.006 131.781 431.558 131.64 431.004 131.64C430.456 131.64 430.008 131.781 429.66 132.063C429.318 132.34 429.147 132.757 429.147 133.316C429.147 133.875 429.318 134.295 429.66 134.577C430.008 134.854 430.456 134.993 431.004 134.993ZM437.104 141.442L441.015 131.859H436.076V130.567H442.458V131.859L438.553 141.442H437.104Z" fill="#43C463"/>
<g clip-path="url(#clip0_246_4868)">
<rect x="48.6304" y="304.42" width="10.18" height="67.4438" rx="2.54505" fill="#43C463"/>
<path d="M53.7207 299.33V305.692" stroke="#43C463" stroke-width="1.27253" stroke-linecap="round"/>
<rect x="89.3511" y="301.067" width="10.18" height="35.1666" rx="2.54505" fill="#43C463"/>
<path d="M94.4409 296.784L94.4409 343.868" stroke="#43C463" stroke-width="1.27253" stroke-linecap="round"/>
<rect x="109.712" y="297.016" width="10.18" height="12.3558" rx="2.54505" fill="#DE2E21"/>
<path d="M114.802 295.512L114.802 312.055" stroke="#DE2E21" stroke-width="1.27253" stroke-linecap="round"/>
<rect x="130.07" y="296.901" width="10.18" height="21.8603" rx="2.54505" fill="#DE2E21"/>
<path d="M135.16 294.239L135.16 323.507" stroke="#DE2E21" stroke-width="1.27253" stroke-linecap="round"/>
<rect x="150.43" y="294.701" width="10.18" height="14.2567" rx="2.54505" fill="#43C463"/>
<path d="M155.52 290.422L155.52 313.327" stroke="#43C463" stroke-width="1.27253" stroke-linecap="round"/>
<rect x="170.791" y="270.526" width="10.18" height="35.1666" rx="2.54505" fill="#43C463"/>
<path d="M175.881 266.244L175.881 313.327" stroke="#43C463" stroke-width="1.27253" stroke-linecap="round"/>
<rect x="191.151" y="247.62" width="10.18" height="35.1666" rx="2.54505" fill="#43C463"/>
<path d="M196.24 243.338L196.24 290.422" stroke="#43C463" stroke-width="1.27253" stroke-linecap="round"/>
<rect x="211.511" y="227.26" width="10.18" height="35.1666" rx="2.54505" fill="#43C463"/>
<path d="M216.601 222.978L216.601 270.061" stroke="#43C463" stroke-width="1.27253" stroke-linecap="round"/>
<rect x="231.872" y="227.26" width="10.18" height="35.1666" rx="2.54505" fill="#43C463"/>
<path d="M236.961 222.978L236.961 270.061" stroke="#43C463" stroke-width="1.27253" stroke-linecap="round"/>
<rect x="292.951" y="226.833" width="10.18" height="129.761" rx="2.54505" fill="#DE2E21"/>
<path d="M298.04 178.439L298.04 379.498" stroke="#DE2E21" stroke-width="1.27253" stroke-linecap="round"/>
<rect x="313.311" y="322.528" width="10.18" height="9.88654" rx="2.54505" fill="#DE2E21"/>
<path d="M318.4 317.145L318.4 342.595" stroke="#DE2E21" stroke-width="1.27253" stroke-linecap="round"/>
<rect x="333.672" y="322.235" width="10.18" height="3.81758" rx="1.90879" fill="#DE2E21"/>
<path d="M338.762 320.962L338.762 366.773" stroke="#DE2E21" stroke-width="1.27253" stroke-linecap="round"/>
<rect x="354.032" y="322.235" width="10.18" height="3.81758" rx="1.90879" fill="#DE2E21"/>
<path d="M359.122 320.962L359.122 366.773" stroke="#DE2E21" stroke-width="1.27253" stroke-linecap="round"/>
<rect x="374.391" y="320.962" width="10.18" height="16.5428" rx="2.54505" fill="#43C463"/>
<path d="M379.481 313.327L379.481 356.593" stroke="#43C463" stroke-width="1.27253" stroke-linecap="round"/>
<rect x="392.205" y="296.784" width="10.18" height="16.5428" rx="2.54505" fill="#43C463"/>
<path d="M397.295 289.149L397.295 332.415" stroke="#43C463" stroke-width="1.27253" stroke-linecap="round"/>
<rect x="410.02" y="272.606" width="10.18" height="30.5406" rx="2.54505" fill="#43C463"/>
<path d="M415.11 264.971L415.11 308.237" stroke="#43C463" stroke-width="1.27253" stroke-linecap="round"/>
<rect x="427.835" y="261.153" width="10.18" height="16.5428" rx="2.54505" fill="#43C463"/>
<path d="M432.926 253.518L432.926 296.784" stroke="#43C463" stroke-width="1.27253" stroke-linecap="round"/>
<rect x="445.651" y="234.43" width="10.18" height="21.6329" rx="2.54505" fill="#43C463"/>
<path d="M450.741 231.885L450.741 275.151" stroke="#43C463" stroke-width="1.27253" stroke-linecap="round"/>
<rect x="252.23" y="242.528" width="10.18" height="3.8018" rx="1.9009" fill="#DE2E21"/>
<path d="M257.32 242.066L257.32 275.151" stroke="#DE2E21" stroke-width="1.27253" stroke-linecap="round"/>
<rect x="272.59" y="242.528" width="10.18" height="3.8018" rx="1.9009" fill="#DE2E21"/>
<path d="M277.68 242.066L277.68 275.151" stroke="#DE2E21" stroke-width="1.27253" stroke-linecap="round"/>
<rect x="68.9912" y="323.507" width="10.18" height="62.3537" rx="2.54505" fill="#DE2E21"/>
<path d="M74.0811 309.509L74.0811 323.507" stroke="#DE2E21" stroke-width="1.27253" stroke-linecap="round"/>
</g>
<rect x="74.522" y="411.752" width="56.0985" height="34.7882" rx="17.2611" fill="black"/>
<path d="M97.024 435.146V425.76L94.9775 426.998V425.495L97.024 424.272H98.3909V435.146H97.024ZM101.264 435.146V424.272H102.609V429.067H108.333V424.272H109.677V435.146H108.333V430.344H102.609V435.146H101.264Z" fill="white"/>
<rect x="137.093" y="411.752" width="56.0985" height="34.7882" rx="17.2611" fill="white"/>
<path d="M159.595 435.146V425.76L157.549 426.998V425.495L159.595 424.272H160.962V435.146H159.595ZM163.836 435.146V424.272H167.189C167.299 424.272 167.493 424.275 167.77 424.28C168.047 424.285 168.311 424.305 168.563 424.34C169.404 424.451 170.106 424.758 170.67 425.261C171.239 425.76 171.667 426.394 171.954 427.164C172.241 427.935 172.384 428.783 172.384 429.709C172.384 430.636 172.241 431.484 171.954 432.254C171.667 433.024 171.239 433.661 170.67 434.165C170.106 434.663 169.404 434.968 168.563 435.079C168.311 435.109 168.044 435.129 167.762 435.139C167.486 435.144 167.294 435.146 167.189 435.146H163.836ZM165.218 433.863H167.189C167.38 433.863 167.594 433.858 167.83 433.848C168.067 433.832 168.273 433.81 168.45 433.78C169.044 433.669 169.525 433.42 169.892 433.032C170.26 432.644 170.529 432.161 170.7 431.582C170.871 431.003 170.957 430.379 170.957 429.709C170.957 429.025 170.869 428.393 170.693 427.814C170.521 427.235 170.252 426.754 169.885 426.371C169.517 425.989 169.039 425.745 168.45 425.639C168.273 425.604 168.065 425.581 167.823 425.571C167.581 425.561 167.37 425.556 167.189 425.556H165.218V433.863Z" fill="#666666"/>
<rect x="199.665" y="411.752" width="56.0985" height="34.7882" rx="17.2611" fill="white"/>
<path d="M220.167 435.146V425.76L218.121 426.998V425.495L220.167 424.272H221.534V435.146H220.167ZM226.726 435.146L223.577 424.272H224.981L227.398 432.873L229.807 424.28L231.219 424.272L233.636 432.873L236.045 424.272H237.457L234.308 435.146H232.963L230.517 426.621L228.07 435.146H226.726Z" fill="#666666"/>
<rect x="262.236" y="411.752" width="56.0985" height="34.7882" rx="17.2611" fill="white"/>
<path d="M282.738 435.146V425.76L280.692 426.998V425.495L282.738 424.272H284.105V435.146H282.738ZM289.297 435.146L286.148 424.272H287.553L289.969 432.873L292.378 424.28L293.79 424.272L296.207 432.873L298.616 424.272H300.028L296.879 435.146H295.535L293.088 426.621L290.641 435.146H289.297Z" fill="#666666"/>
<rect x="324.808" y="411.752" width="56.0985" height="34.7882" rx="17.2611" fill="white"/>
<path d="M346.31 435.146V425.76L344.263 426.998V425.495L346.31 424.272H347.677V435.146H346.31ZM350.55 435.146V424.272H351.773L355.881 432.934L359.967 424.272H361.205V435.139H359.929V427.225L356.236 435.146H355.519L351.826 427.225V435.146H350.55Z" fill="#666666"/>
<rect x="387.379" y="411.752" width="56.0985" height="34.7882" rx="17.2611" fill="white"/>
<path d="M410.881 435.146V425.76L408.834 426.998V425.495L410.881 424.272H412.248V435.146H410.881ZM417.727 435.146V430.623L414.064 424.272H415.627L418.406 429.082L421.178 424.272H422.741L419.086 430.623V435.146H417.727Z" fill="#666666"/>
<defs>
<clipPath id="clip0_246_4868">
<rect width="407" height="251" fill="white" transform="translate(49 135)"/>
</clipPath>
</defs>
</svg>
