<svg width="40" height="40" viewBox="0 0 40 40" fill="none" xmlns="http://www.w3.org/2000/svg">
<path d="M38.1625 9.37495C37.9825 9.26264 37.777 9.19797 37.5651 9.18704C37.3533 9.1761 37.1421 9.21926 36.9516 9.31245C30.2438 12.5937 25.4531 11.0562 20.3891 9.43432C15.0766 7.73276 9.56875 5.97495 1.95938 9.69057C1.74677 9.79256 1.56734 9.9526 1.44182 10.1522C1.3163 10.3518 1.2498 10.5829 1.25 10.8187V29.5578C1.24997 29.7698 1.3039 29.9785 1.40673 30.1639C1.50955 30.3494 1.65788 30.5057 1.83775 30.6181C2.01763 30.7305 2.22313 30.7952 2.43493 30.8062C2.64673 30.8173 2.85786 30.7743 3.04844 30.6812C9.75625 27.3999 14.5469 28.9374 19.6187 30.5593C22.625 31.5203 25.6875 32.4999 29.15 32.4999C31.8203 32.4999 34.7328 31.9187 38.0422 30.3031C38.2524 30.2004 38.4296 30.0409 38.5536 29.8426C38.6776 29.6443 38.7435 29.4151 38.7438 29.1812V10.4421C38.7456 10.2295 38.6932 10.0199 38.5915 9.83316C38.4898 9.64641 38.3422 9.48871 38.1625 9.37495ZM36.25 28.3859C29.9063 31.2249 25.2734 29.7437 20.3813 28.1796C17.375 27.2187 14.3125 26.239 10.85 26.239C8.41735 26.2508 6.00944 26.7282 3.75625 27.6453V11.614C10.1 8.77495 14.7328 10.2562 19.625 11.8203C24.5172 13.3843 29.5531 14.9999 36.25 12.3578V28.3859ZM20 14.9999C19.0111 14.9999 18.0444 15.2932 17.2221 15.8426C16.3999 16.392 15.759 17.1729 15.3806 18.0865C15.0022 19.0002 14.9031 20.0055 15.0961 20.9754C15.289 21.9453 15.7652 22.8362 16.4645 23.5355C17.1637 24.2347 18.0546 24.7109 19.0245 24.9039C19.9945 25.0968 20.9998 24.9978 21.9134 24.6193C22.827 24.2409 23.6079 23.6 24.1573 22.7778C24.7068 21.9556 25 20.9889 25 19.9999C25 18.6739 24.4732 17.4021 23.5355 16.4644C22.5979 15.5267 21.3261 14.9999 20 14.9999ZM20 22.4999C19.5055 22.4999 19.0222 22.3533 18.6111 22.0786C18.2 21.8039 17.8795 21.4135 17.6903 20.9567C17.5011 20.4998 17.4516 19.9972 17.548 19.5122C17.6445 19.0273 17.8826 18.5818 18.2322 18.2322C18.5819 17.8826 19.0273 17.6444 19.5123 17.548C19.9972 17.4515 20.4999 17.501 20.9567 17.6902C21.4135 17.8795 21.804 18.1999 22.0787 18.611C22.3534 19.0221 22.5 19.5055 22.5 19.9999C22.5 20.663 22.2366 21.2989 21.7678 21.7677C21.2989 22.2366 20.663 22.4999 20 22.4999ZM8.75 14.9999V22.4999C8.75 22.8315 8.6183 23.1494 8.38388 23.3838C8.14946 23.6183 7.83152 23.7499 7.5 23.7499C7.16848 23.7499 6.85054 23.6183 6.61612 23.3838C6.3817 23.1494 6.25 22.8315 6.25 22.4999V14.9999C6.25 14.6684 6.3817 14.3505 6.61612 14.1161C6.85054 13.8816 7.16848 13.7499 7.5 13.7499C7.83152 13.7499 8.14946 13.8816 8.38388 14.1161C8.6183 14.3505 8.75 14.6684 8.75 14.9999ZM31.25 24.9999V17.4999C31.25 17.1684 31.3817 16.8505 31.6161 16.6161C31.8505 16.3816 32.1685 16.2499 32.5 16.2499C32.8315 16.2499 33.1495 16.3816 33.3839 16.6161C33.6183 16.8505 33.75 17.1684 33.75 17.4999V24.9999C33.75 25.3315 33.6183 25.6494 33.3839 25.8838C33.1495 26.1183 32.8315 26.2499 32.5 26.2499C32.1685 26.2499 31.8505 26.1183 31.6161 25.8838C31.3817 25.6494 31.25 25.3315 31.25 24.9999Z" fill="white"/>
</svg>
