<svg width="36" height="40" viewBox="0 0 36 40" fill="none" xmlns="http://www.w3.org/2000/svg">
<path d="M14.625 6.25H7.875C7.27826 6.25 6.70597 6.51339 6.28401 6.98223C5.86205 7.45107 5.625 8.08696 5.625 8.75V16.25C5.625 16.913 5.86205 17.5489 6.28401 18.0178C6.70597 18.4866 7.27826 18.75 7.875 18.75H14.625C15.2217 18.75 15.794 18.4866 16.216 18.0178C16.6379 17.5489 16.875 16.913 16.875 16.25V8.75C16.875 8.08696 16.6379 7.45107 16.216 6.98223C15.794 6.51339 15.2217 6.25 14.625 6.25ZM14.625 16.25H7.875V8.75H14.625V16.25ZM28.125 6.25H21.375C20.7783 6.25 20.206 6.51339 19.784 6.98223C19.3621 7.45107 19.125 8.08696 19.125 8.75V16.25C19.125 16.913 19.3621 17.5489 19.784 18.0178C20.206 18.4866 20.7783 18.75 21.375 18.75H28.125C28.7217 18.75 29.294 18.4866 29.716 18.0178C30.1379 17.5489 30.375 16.913 30.375 16.25V8.75C30.375 8.08696 30.1379 7.45107 29.716 6.98223C29.294 6.51339 28.7217 6.25 28.125 6.25ZM28.125 16.25H21.375V8.75H28.125V16.25ZM14.625 21.25H7.875C7.27826 21.25 6.70597 21.5134 6.28401 21.9822C5.86205 22.4511 5.625 23.087 5.625 23.75V31.25C5.625 31.913 5.86205 32.5489 6.28401 33.0178C6.70597 33.4866 7.27826 33.75 7.875 33.75H14.625C15.2217 33.75 15.794 33.4866 16.216 33.0178C16.6379 32.5489 16.875 31.913 16.875 31.25V23.75C16.875 23.087 16.6379 22.4511 16.216 21.9822C15.794 21.5134 15.2217 21.25 14.625 21.25ZM14.625 31.25H7.875V23.75H14.625V31.25ZM28.125 21.25H21.375C20.7783 21.25 20.206 21.5134 19.784 21.9822C19.3621 22.4511 19.125 23.087 19.125 23.75V31.25C19.125 31.913 19.3621 32.5489 19.784 33.0178C20.206 33.4866 20.7783 33.75 21.375 33.75H28.125C28.7217 33.75 29.294 33.4866 29.716 33.0178C30.1379 32.5489 30.375 31.913 30.375 31.25V23.75C30.375 23.087 30.1379 22.4511 29.716 21.9822C29.294 21.5134 28.7217 21.25 28.125 21.25ZM28.125 31.25H21.375V23.75H28.125V31.25Z" fill="white"/>
</svg>
