<svg width="50" height="50" viewBox="0 0 50 50" fill="none" xmlns="http://www.w3.org/2000/svg">
<rect width="50" height="50" rx="25" fill="white"/>
<path d="M34.625 18H17.125C16.8929 18 16.6704 17.9078 16.5063 17.7437C16.3422 17.5796 16.25 17.3571 16.25 17.125C16.25 16.8929 16.3422 16.6704 16.5063 16.5063C16.6704 16.3422 16.8929 16.25 17.125 16.25H32C32.2321 16.25 32.4546 16.1578 32.6187 15.9937C32.7828 15.8296 32.875 15.6071 32.875 15.375C32.875 15.1429 32.7828 14.9204 32.6187 14.7563C32.4546 14.5922 32.2321 14.5 32 14.5H17.125C16.4288 14.5 15.7611 14.7766 15.2688 15.2688C14.7766 15.7611 14.5 16.4288 14.5 17.125V31.125C14.5 31.8212 14.7766 32.4889 15.2688 32.9812C15.7611 33.4734 16.4288 33.75 17.125 33.75H34.625C35.0891 33.75 35.5342 33.5656 35.8624 33.2374C36.1906 32.9092 36.375 32.4641 36.375 32V19.75C36.375 19.2859 36.1906 18.8408 35.8624 18.5126C35.5342 18.1844 35.0891 18 34.625 18ZM34.625 32H17.125C16.8929 32 16.6704 31.9078 16.5063 31.7437C16.3422 31.5796 16.25 31.3571 16.25 31.125V19.6002C16.531 19.6998 16.8269 19.7504 17.125 19.75H34.625V32ZM29.375 25.4375C29.375 25.1779 29.452 24.9242 29.5962 24.7083C29.7404 24.4925 29.9454 24.3242 30.1852 24.2249C30.4251 24.1256 30.689 24.0996 30.9436 24.1502C31.1982 24.2009 31.432 24.3259 31.6156 24.5094C31.7991 24.693 31.9241 24.9268 31.9748 25.1814C32.0254 25.436 31.9994 25.6999 31.9001 25.9398C31.8008 26.1796 31.6325 26.3846 31.4167 26.5288C31.2008 26.673 30.9471 26.75 30.6875 26.75C30.3394 26.75 30.0056 26.6117 29.7594 26.3656C29.5133 26.1194 29.375 25.7856 29.375 25.4375Z" fill="#0F0F0F"/>
</svg>
