<svg width="50" height="50" viewBox="0 0 50 50" fill="none" xmlns="http://www.w3.org/2000/svg">
<rect width="50" height="50" rx="25" fill="white"/>
<path d="M35.5 32.875H34.625V15.375C34.625 15.1429 34.5328 14.9204 34.3687 14.7563C34.2046 14.5922 33.9821 14.5 33.75 14.5H27.625C27.3929 14.5 27.1704 14.5922 27.0063 14.7563C26.8422 14.9204 26.75 15.1429 26.75 15.375V19.75H21.5C21.2679 19.75 21.0454 19.8422 20.8813 20.0063C20.7172 20.1704 20.625 20.3929 20.625 20.625V25H16.25C16.0179 25 15.7954 25.0922 15.6313 25.2563C15.4672 25.4204 15.375 25.6429 15.375 25.875V32.875H14.5C14.2679 32.875 14.0454 32.9672 13.8813 33.1313C13.7172 33.2954 13.625 33.5179 13.625 33.75C13.625 33.9821 13.7172 34.2046 13.8813 34.3687C14.0454 34.5328 14.2679 34.625 14.5 34.625H35.5C35.7321 34.625 35.9546 34.5328 36.1187 34.3687C36.2828 34.2046 36.375 33.9821 36.375 33.75C36.375 33.5179 36.2828 33.2954 36.1187 33.1313C35.9546 32.9672 35.7321 32.875 35.5 32.875ZM28.5 16.25H32.875V32.875H28.5V16.25ZM22.375 21.5H26.75V32.875H22.375V21.5ZM17.125 26.75H20.625V32.875H17.125V26.75Z" fill="#0F0F0F"/>
</svg>
