<svg width="50" height="50" viewBox="0 0 50 50" fill="none" xmlns="http://www.w3.org/2000/svg">
<rect width="50" height="50" rx="25" fill="white"/>
<path d="M25 20.625C24.1347 20.625 23.2888 20.8816 22.5694 21.3623C21.8499 21.8431 21.2892 22.5263 20.958 23.3258C20.6269 24.1252 20.5403 25.0049 20.7091 25.8535C20.8779 26.7022 21.2946 27.4817 21.9064 28.0936C22.5183 28.7054 23.2978 29.1221 24.1465 29.2909C24.9951 29.4597 25.8748 29.3731 26.6742 29.042C27.4737 28.7108 28.1569 28.1501 28.6377 27.4306C29.1184 26.7112 29.375 25.8653 29.375 25C29.375 23.8397 28.9141 22.7269 28.0936 21.9064C27.2731 21.0859 26.1603 20.625 25 20.625ZM25 27.625C24.4808 27.625 23.9733 27.471 23.5416 27.1826C23.1099 26.8942 22.7735 26.4842 22.5748 26.0045C22.3761 25.5249 22.3242 24.9971 22.4254 24.4879C22.5267 23.9787 22.7767 23.511 23.1438 23.1438C23.511 22.7767 23.9787 22.5267 24.4879 22.4254C24.9971 22.3242 25.5249 22.3761 26.0045 22.5748C26.4842 22.7735 26.8942 23.1099 27.1826 23.5416C27.471 23.9733 27.625 24.4808 27.625 25C27.625 25.6962 27.3484 26.3639 26.8562 26.8562C26.3639 27.3484 25.6962 27.625 25 27.625ZM37.25 17.125H12.75C12.5179 17.125 12.2954 17.2172 12.1313 17.3813C11.9672 17.5454 11.875 17.7679 11.875 18V32C11.875 32.2321 11.9672 32.4546 12.1313 32.6187C12.2954 32.7828 12.5179 32.875 12.75 32.875H37.25C37.4821 32.875 37.7046 32.7828 37.8687 32.6187C38.0328 32.4546 38.125 32.2321 38.125 32V18C38.125 17.7679 38.0328 17.5454 37.8687 17.3813C37.7046 17.2172 37.4821 17.125 37.25 17.125ZM32.1805 31.125H17.8195C17.5258 30.1314 16.9881 29.2272 16.2555 28.4945C15.5228 27.7619 14.6186 27.2242 13.625 26.9305V23.0695C14.6186 22.7758 15.5228 22.2381 16.2555 21.5055C16.9881 20.7728 17.5258 19.8686 17.8195 18.875H32.1805C32.4742 19.8686 33.0119 20.7728 33.7445 21.5055C34.4772 22.2381 35.3814 22.7758 36.375 23.0695V26.9305C35.3814 27.2242 34.4772 27.7619 33.7445 28.4945C33.0119 29.2272 32.4742 30.1314 32.1805 31.125ZM36.375 21.2123C35.3255 20.7611 34.4889 19.9245 34.0377 18.875H36.375V21.2123ZM15.9623 18.875C15.5111 19.9245 14.6745 20.7611 13.625 21.2123V18.875H15.9623ZM13.625 28.7877C14.6745 29.2389 15.5111 30.0755 15.9623 31.125H13.625V28.7877ZM34.0377 31.125C34.4889 30.0755 35.3255 29.2389 36.375 28.7877V31.125H34.0377Z" fill="#0F0F0F"/>
</svg>
