<svg width="56" height="56" viewBox="0 0 56 56" fill="none" xmlns="http://www.w3.org/2000/svg">
<rect width="56" height="56" rx="28" fill="#FF7438"/>
<path d="M42 28C42.0008 28.3395 41.9138 28.6735 41.7473 28.9694C41.5808 29.2654 41.3406 29.5132 41.05 29.6888L23.04 40.7063C22.7364 40.8922 22.3886 40.9937 22.0326 41.0003C21.6766 41.0069 21.3253 40.9183 21.015 40.7438C20.7076 40.5719 20.4516 40.3213 20.2732 40.0177C20.0948 39.7141 20.0005 39.3684 20 39.0163V16.9838C20.0005 16.6316 20.0948 16.286 20.2732 15.9824C20.4516 15.6787 20.7076 15.4281 21.015 15.2563C21.3253 15.0817 21.6766 14.9931 22.0326 14.9997C22.3886 15.0063 22.7364 15.1078 23.04 15.2938L41.05 26.3113C41.3406 26.4869 41.5808 26.7347 41.7473 27.0306C41.9138 27.3265 42.0008 27.6605 42 28Z" fill="#0F0F0F"/>
</svg>
