<svg width="32" height="32" viewBox="0 0 32 32" fill="none" xmlns="http://www.w3.org/2000/svg">
<rect width="32" height="32" rx="16" fill="white"/>
<path d="M8.98292 11.197C10.1913 11.197 11.1709 10.2174 11.1709 9.009C11.1709 7.8006 10.1913 6.821 8.98292 6.821C7.77452 6.821 6.79492 7.8006 6.79492 9.009C6.79492 10.2174 7.77452 11.197 8.98292 11.197Z" fill="black"/>
<path d="M13.2372 12.855V24.994H17.0062V18.991C17.0062 17.407 17.3042 15.873 19.2682 15.873C21.2052 15.873 21.2292 17.684 21.2292 19.091V24.995H25.0002V18.338C25.0002 15.068 24.2962 12.555 20.4742 12.555C18.6392 12.555 17.4092 13.562 16.9062 14.515H16.8552V12.855H13.2372ZM7.09521 12.855H10.8702V24.994H7.09521V12.855Z" fill="black"/>
</svg>
