<svg width="285" height="358" viewBox="0 0 285 358" fill="none" xmlns="http://www.w3.org/2000/svg">
<rect width="284.578" height="483" rx="20" fill="#FEFEFE"/>
<path d="M102.505 182.829V157.512H104.127V182.829H102.505ZM107.182 165.612C107.09 164.748 106.701 164.075 106.015 163.594C105.336 163.113 104.453 162.872 103.365 162.872C102.6 162.872 101.944 162.988 101.397 163.218C100.85 163.449 100.431 163.762 100.141 164.158C99.8511 164.553 99.7027 165.005 99.6961 165.513C99.6961 165.935 99.7917 166.301 99.9829 166.61C100.181 166.92 100.448 167.184 100.784 167.402C101.12 167.613 101.493 167.791 101.901 167.936C102.31 168.081 102.722 168.203 103.138 168.301L105.036 168.776C105.801 168.954 106.536 169.195 107.242 169.498C107.954 169.801 108.59 170.184 109.15 170.645C109.717 171.107 110.166 171.664 110.495 172.317C110.825 172.969 110.99 173.734 110.99 174.611C110.99 175.798 110.687 176.843 110.08 177.746C109.473 178.643 108.597 179.345 107.449 179.852C106.309 180.353 104.928 180.604 103.306 180.604C101.73 180.604 100.362 180.36 99.2017 179.872C98.0479 179.384 97.1446 178.672 96.4919 177.736C95.8458 176.8 95.4964 175.659 95.4437 174.314H99.0533C99.1061 175.02 99.3236 175.606 99.706 176.075C100.088 176.543 100.586 176.892 101.199 177.123C101.819 177.354 102.511 177.469 103.276 177.469C104.074 177.469 104.773 177.35 105.373 177.113C105.979 176.869 106.454 176.533 106.797 176.104C107.14 175.669 107.314 175.161 107.321 174.581C107.314 174.054 107.159 173.619 106.856 173.276C106.553 172.926 106.128 172.636 105.58 172.406C105.04 172.168 104.407 171.957 103.682 171.773L101.377 171.179C99.7093 170.751 98.3907 170.101 97.4216 169.231C96.459 168.354 95.9777 167.191 95.9777 165.74C95.9777 164.547 96.3008 163.502 96.9469 162.605C97.5996 161.709 98.4863 161.013 99.6071 160.518C100.728 160.017 101.997 159.767 103.415 159.767C104.852 159.767 106.111 160.017 107.192 160.518C108.28 161.013 109.134 161.702 109.754 162.585C110.373 163.462 110.693 164.471 110.713 165.612H107.182ZM122.736 160.044V180.297H119.067V163.614H118.948L114.211 166.64V163.278L119.245 160.044H122.736ZM135.355 180.574C134.036 180.574 132.856 180.327 131.815 179.833C130.773 179.331 129.945 178.646 129.332 177.776C128.726 176.905 128.403 175.91 128.363 174.789H131.923C131.989 175.62 132.349 176.299 133.001 176.826C133.654 177.347 134.439 177.607 135.355 177.607C136.074 177.607 136.713 177.443 137.274 177.113C137.834 176.783 138.276 176.325 138.599 175.738C138.922 175.152 139.08 174.482 139.073 173.731C139.08 172.966 138.918 172.287 138.589 171.694C138.259 171.1 137.808 170.635 137.234 170.299C136.66 169.956 136.001 169.785 135.256 169.785C134.65 169.778 134.053 169.89 133.466 170.121C132.879 170.352 132.414 170.655 132.072 171.031L128.759 170.487L129.817 160.044H141.566V163.11H132.853L132.269 168.479H132.388C132.764 168.038 133.295 167.672 133.98 167.382C134.666 167.085 135.418 166.937 136.235 166.937C137.461 166.937 138.556 167.227 139.518 167.807C140.481 168.381 141.239 169.172 141.793 170.18C142.347 171.189 142.624 172.343 142.624 173.642C142.624 174.98 142.314 176.173 141.694 177.222C141.081 178.263 140.227 179.084 139.133 179.684C138.045 180.278 136.786 180.574 135.355 180.574ZM146.006 176.539V173.622L154.6 160.044H157.033V164.197H155.549L149.764 173.365V173.523H161.76V176.539H146.006ZM155.668 180.297V175.649L155.707 174.344V160.044H159.169V180.297H155.668ZM169.026 177.528L168.897 178.616C168.805 179.447 168.64 180.291 168.403 181.148C168.172 182.012 167.928 182.806 167.671 183.531C167.414 184.256 167.206 184.827 167.048 185.242H164.635C164.727 184.84 164.853 184.293 165.011 183.6C165.176 182.908 165.334 182.13 165.486 181.267C165.637 180.403 165.739 179.526 165.792 178.636L165.861 177.528H169.026ZM172.349 178.418V176.96L176.646 170.171H177.862V172.247H177.121L174.228 176.831V176.91H180.226V178.418H172.349ZM177.18 180.297V177.973L177.2 177.321V170.171H178.93V180.297H177.18ZM182.241 180.297V178.972L185.756 175.526C186.093 175.186 186.373 174.885 186.597 174.621C186.821 174.357 186.989 174.102 187.101 173.854C187.214 173.607 187.27 173.343 187.27 173.063C187.27 172.743 187.197 172.47 187.052 172.242C186.907 172.012 186.707 171.834 186.454 171.708C186.2 171.583 185.911 171.52 185.588 171.52C185.255 171.52 184.964 171.59 184.713 171.728C184.463 171.863 184.268 172.056 184.13 172.307C183.994 172.557 183.927 172.856 183.927 173.202H182.181C182.181 172.559 182.328 172 182.622 171.525C182.915 171.051 183.319 170.683 183.833 170.423C184.351 170.162 184.944 170.032 185.613 170.032C186.292 170.032 186.889 170.159 187.403 170.413C187.917 170.667 188.316 171.014 188.6 171.456C188.886 171.898 189.03 172.402 189.03 172.969C189.03 173.348 188.957 173.721 188.812 174.087C188.667 174.453 188.412 174.858 188.046 175.303C187.683 175.748 187.174 176.287 186.518 176.92L184.772 178.695V178.765H189.183V180.297H182.241Z" fill="#1F2C37"/>
<path d="M97.1537 130.119V128.581H105.233V130.119H102.103V138.708H100.284V130.119H97.1537ZM108.993 138.856C108.251 138.856 107.608 138.693 107.065 138.367C106.521 138.04 106.099 137.584 105.799 136.997C105.502 136.41 105.354 135.725 105.354 134.94C105.354 134.156 105.502 133.468 105.799 132.878C106.099 132.288 106.521 131.83 107.065 131.504C107.608 131.177 108.251 131.014 108.993 131.014C109.735 131.014 110.378 131.177 110.921 131.504C111.465 131.83 111.886 132.288 112.182 132.878C112.482 133.468 112.632 134.156 112.632 134.94C112.632 135.725 112.482 136.41 112.182 136.997C111.886 137.584 111.465 138.04 110.921 138.367C110.378 138.693 109.735 138.856 108.993 138.856ZM109.003 137.422C109.405 137.422 109.741 137.312 110.012 137.091C110.282 136.867 110.483 136.567 110.615 136.191C110.75 135.815 110.818 135.397 110.818 134.935C110.818 134.47 110.75 134.05 110.615 133.674C110.483 133.295 110.282 132.994 110.012 132.769C109.741 132.545 109.405 132.433 109.003 132.433C108.591 132.433 108.248 132.545 107.974 132.769C107.704 132.994 107.501 133.295 107.366 133.674C107.234 134.05 107.168 134.47 107.168 134.935C107.168 135.397 107.234 135.815 107.366 136.191C107.501 136.567 107.704 136.867 107.974 137.091C108.248 137.312 108.591 137.422 109.003 137.422ZM118.014 131.113V132.497H113.648V131.113H118.014ZM114.726 129.293H116.516V136.424C116.516 136.664 116.552 136.849 116.624 136.977C116.7 137.103 116.799 137.188 116.921 137.234C117.043 137.281 117.178 137.304 117.326 137.304C117.439 137.304 117.541 137.295 117.633 137.279C117.729 137.263 117.801 137.248 117.851 137.234L118.152 138.634C118.057 138.667 117.92 138.703 117.742 138.743C117.567 138.782 117.353 138.805 117.099 138.812C116.651 138.825 116.247 138.757 115.888 138.609C115.528 138.457 115.243 138.223 115.032 137.907C114.824 137.591 114.722 137.195 114.726 136.72V129.293ZM121.766 138.861C121.285 138.861 120.851 138.776 120.466 138.604C120.083 138.429 119.78 138.172 119.556 137.833C119.335 137.493 119.224 137.075 119.224 136.577C119.224 136.148 119.304 135.794 119.462 135.514C119.62 135.234 119.836 135.009 120.11 134.841C120.383 134.673 120.691 134.546 121.034 134.46C121.38 134.371 121.738 134.307 122.107 134.268C122.552 134.222 122.913 134.18 123.19 134.144C123.467 134.104 123.668 134.045 123.793 133.966C123.922 133.884 123.986 133.757 123.986 133.585V133.556C123.986 133.183 123.876 132.895 123.655 132.69C123.434 132.486 123.116 132.384 122.701 132.384C122.262 132.384 121.914 132.479 121.657 132.671C121.403 132.862 121.232 133.088 121.143 133.348L119.472 133.111C119.604 132.649 119.821 132.263 120.124 131.954C120.428 131.64 120.798 131.406 121.237 131.251C121.675 131.093 122.16 131.014 122.691 131.014C123.057 131.014 123.421 131.057 123.783 131.143C124.146 131.228 124.477 131.37 124.777 131.568C125.077 131.762 125.318 132.028 125.499 132.364C125.684 132.7 125.776 133.12 125.776 133.625V138.708H124.055V137.665H123.996C123.887 137.876 123.734 138.073 123.536 138.258C123.342 138.439 123.096 138.586 122.799 138.698C122.506 138.807 122.162 138.861 121.766 138.861ZM122.231 137.546C122.59 137.546 122.902 137.475 123.165 137.333C123.429 137.188 123.632 136.997 123.774 136.76C123.919 136.522 123.991 136.264 123.991 135.983V135.088C123.935 135.135 123.839 135.177 123.704 135.217C123.572 135.257 123.424 135.291 123.259 135.321C123.094 135.351 122.931 135.377 122.77 135.4C122.608 135.423 122.468 135.443 122.349 135.459C122.082 135.496 121.843 135.555 121.632 135.637C121.422 135.72 121.255 135.835 121.133 135.983C121.011 136.129 120.95 136.316 120.95 136.547C120.95 136.877 121.07 137.126 121.311 137.294C121.552 137.462 121.858 137.546 122.231 137.546ZM129.436 128.581V138.708H127.646V128.581H129.436ZM138.662 131.113V132.497H134.296V131.113H138.662ZM135.374 129.293H137.164V136.424C137.164 136.664 137.2 136.849 137.273 136.977C137.348 137.103 137.447 137.188 137.569 137.234C137.691 137.281 137.826 137.304 137.975 137.304C138.087 137.304 138.189 137.295 138.281 137.279C138.377 137.263 138.449 137.248 138.499 137.234L138.801 138.634C138.705 138.667 138.568 138.703 138.39 138.743C138.215 138.782 138.001 138.805 137.747 138.812C137.299 138.825 136.895 138.757 136.536 138.609C136.177 138.457 135.891 138.223 135.68 137.907C135.473 137.591 135.371 137.195 135.374 136.72V129.293ZM140.229 138.708V131.113H141.964V132.379H142.043C142.182 131.94 142.419 131.602 142.755 131.365C143.095 131.124 143.482 131.004 143.917 131.004C144.016 131.004 144.127 131.009 144.249 131.019C144.374 131.026 144.478 131.037 144.56 131.054V132.7C144.484 132.674 144.364 132.651 144.199 132.631C144.038 132.608 143.881 132.596 143.73 132.596C143.403 132.596 143.11 132.667 142.849 132.809C142.592 132.947 142.39 133.14 142.241 133.387C142.093 133.635 142.019 133.92 142.019 134.243V138.708H140.229ZM147.869 138.861C147.387 138.861 146.954 138.776 146.568 138.604C146.186 138.429 145.883 138.172 145.658 137.833C145.438 137.493 145.327 137.075 145.327 136.577C145.327 136.148 145.406 135.794 145.564 135.514C145.723 135.234 145.939 135.009 146.212 134.841C146.486 134.673 146.794 134.546 147.137 134.46C147.483 134.371 147.841 134.307 148.21 134.268C148.655 134.222 149.016 134.18 149.293 134.144C149.57 134.104 149.771 134.045 149.896 133.966C150.025 133.884 150.089 133.757 150.089 133.585V133.556C150.089 133.183 149.978 132.895 149.758 132.69C149.537 132.486 149.219 132.384 148.803 132.384C148.365 132.384 148.017 132.479 147.76 132.671C147.506 132.862 147.335 133.088 147.246 133.348L145.574 133.111C145.706 132.649 145.924 132.263 146.227 131.954C146.53 131.64 146.901 131.406 147.34 131.251C147.778 131.093 148.263 131.014 148.793 131.014C149.159 131.014 149.524 131.057 149.886 131.143C150.249 131.228 150.58 131.37 150.88 131.568C151.18 131.762 151.421 132.028 151.602 132.364C151.787 132.7 151.879 133.12 151.879 133.625V138.708H150.158V137.665H150.099C149.99 137.876 149.837 138.073 149.639 138.258C149.444 138.439 149.199 138.586 148.902 138.698C148.609 138.807 148.264 138.861 147.869 138.861ZM148.333 137.546C148.693 137.546 149.004 137.475 149.268 137.333C149.532 137.188 149.734 136.997 149.876 136.76C150.021 136.522 150.094 136.264 150.094 135.983V135.088C150.038 135.135 149.942 135.177 149.807 135.217C149.675 135.257 149.527 135.291 149.362 135.321C149.197 135.351 149.034 135.377 148.872 135.4C148.711 135.423 148.571 135.443 148.452 135.459C148.185 135.496 147.946 135.555 147.735 135.637C147.524 135.72 147.358 135.835 147.236 135.983C147.114 136.129 147.053 136.316 147.053 136.547C147.053 136.877 147.173 137.126 147.414 137.294C147.654 137.462 147.961 137.546 148.333 137.546ZM155.538 134.258V138.708H153.748V131.113H155.459V132.403H155.548C155.723 131.978 156.001 131.64 156.384 131.39C156.77 131.139 157.246 131.014 157.813 131.014C158.337 131.014 158.794 131.126 159.183 131.35C159.575 131.574 159.878 131.899 160.092 132.324C160.31 132.75 160.417 133.266 160.414 133.872V138.708H158.624V134.149C158.624 133.641 158.492 133.244 158.228 132.957C157.968 132.671 157.607 132.527 157.145 132.527C156.832 132.527 156.554 132.596 156.31 132.735C156.069 132.87 155.88 133.066 155.741 133.323C155.606 133.58 155.538 133.892 155.538 134.258ZM168.306 133.12L166.674 133.298C166.628 133.134 166.547 132.979 166.432 132.834C166.32 132.689 166.168 132.572 165.977 132.483C165.786 132.394 165.552 132.349 165.275 132.349C164.902 132.349 164.589 132.43 164.335 132.591C164.085 132.753 163.961 132.962 163.965 133.219C163.961 133.44 164.042 133.62 164.207 133.758C164.375 133.897 164.652 134.011 165.038 134.1L166.333 134.376C167.052 134.531 167.586 134.777 167.935 135.113C168.288 135.449 168.466 135.89 168.469 136.433C168.466 136.911 168.326 137.333 168.049 137.699C167.775 138.062 167.395 138.345 166.907 138.55C166.419 138.754 165.858 138.856 165.225 138.856C164.296 138.856 163.548 138.662 162.981 138.273C162.414 137.881 162.076 137.335 161.967 136.636L163.712 136.468C163.791 136.811 163.96 137.07 164.217 137.244C164.474 137.419 164.808 137.506 165.22 137.506C165.646 137.506 165.987 137.419 166.244 137.244C166.504 137.07 166.635 136.854 166.635 136.597C166.635 136.379 166.551 136.199 166.382 136.058C166.218 135.916 165.961 135.807 165.611 135.731L164.316 135.459C163.587 135.308 163.048 135.052 162.699 134.693C162.349 134.33 162.176 133.872 162.179 133.318C162.176 132.85 162.303 132.445 162.56 132.102C162.821 131.756 163.182 131.489 163.643 131.301C164.108 131.11 164.644 131.014 165.25 131.014C166.14 131.014 166.841 131.204 167.352 131.583C167.866 131.962 168.184 132.474 168.306 133.12ZM173.862 131.113V132.497H169.372V131.113H173.862ZM170.494 138.708V130.396C170.494 129.885 170.6 129.46 170.811 129.12C171.025 128.781 171.312 128.527 171.671 128.359C172.031 128.191 172.429 128.107 172.868 128.107C173.178 128.107 173.453 128.131 173.694 128.181C173.934 128.23 174.112 128.275 174.228 128.314L173.872 129.699C173.796 129.676 173.7 129.653 173.585 129.63C173.469 129.603 173.341 129.59 173.199 129.59C172.866 129.59 172.631 129.671 172.492 129.832C172.357 129.99 172.289 130.218 172.289 130.515V138.708H170.494ZM178.41 138.856C177.649 138.856 176.991 138.698 176.437 138.382C175.887 138.062 175.463 137.61 175.166 137.027C174.87 136.44 174.721 135.749 174.721 134.955C174.721 134.174 174.87 133.488 175.166 132.898C175.466 132.305 175.885 131.843 176.422 131.513C176.96 131.18 177.591 131.014 178.316 131.014C178.784 131.014 179.226 131.09 179.641 131.241C180.06 131.39 180.429 131.621 180.749 131.934C181.072 132.247 181.326 132.646 181.51 133.13C181.695 133.612 181.787 134.185 181.787 134.851V135.4H175.562V134.193H180.071C180.068 133.851 179.994 133.546 179.849 133.279C179.704 133.008 179.501 132.796 179.241 132.641C178.984 132.486 178.684 132.408 178.341 132.408C177.975 132.408 177.654 132.497 177.377 132.675C177.1 132.85 176.884 133.081 176.729 133.368C176.577 133.651 176.5 133.963 176.496 134.302V135.355C176.496 135.797 176.577 136.176 176.739 136.493C176.9 136.806 177.126 137.047 177.416 137.215C177.706 137.38 178.046 137.462 178.435 137.462C178.695 137.462 178.931 137.426 179.142 137.353C179.353 137.277 179.536 137.167 179.691 137.022C179.846 136.877 179.963 136.697 180.042 136.483L181.713 136.671C181.608 137.113 181.407 137.498 181.11 137.828C180.816 138.154 180.441 138.408 179.982 138.589C179.524 138.767 179 138.856 178.41 138.856ZM183.371 138.708V131.113H185.107V132.379H185.186C185.324 131.94 185.562 131.602 185.898 131.365C186.238 131.124 186.625 131.004 187.06 131.004C187.159 131.004 187.269 131.009 187.391 131.019C187.517 131.026 187.62 131.037 187.703 131.054V132.7C187.627 132.674 187.507 132.651 187.342 132.631C187.18 132.608 187.024 132.596 186.872 132.596C186.546 132.596 186.252 132.667 185.992 132.809C185.735 132.947 185.532 133.14 185.384 133.387C185.235 133.635 185.161 133.92 185.161 134.243V138.708H183.371Z" fill="#66707A"/>
<rect x="107.913" y="39.1621" width="69.6216" height="69.6216" rx="34.8108" fill="#F6F6F6"/>
<path d="M125.319 76.2139C125.319 72.0164 128.587 68.5709 132.683 68.3774L133.047 68.3688H141.384V78.9942C141.384 79.7557 141.976 80.3578 142.724 80.3578C143.394 80.3578 143.962 79.8519 144.052 79.181L144.065 78.9942V68.3688H152.384C156.527 68.3688 159.93 71.6944 160.121 75.878L160.13 76.2493V84.8736C160.13 89.0884 156.861 92.5344 152.765 92.7278L152.402 92.7364H133.064C128.905 92.7364 125.518 89.3941 125.327 85.2258L125.319 84.8559V76.2139ZM136.72 63.9475C136.229 63.4728 136.185 62.7248 136.573 62.2004L136.702 62.0503L141.767 56.968C142.028 56.7069 142.359 56.5676 142.725 56.5676C143.003 56.5676 143.282 56.6567 143.507 56.8261L143.665 56.968L148.73 62.0503C148.991 62.3114 149.13 62.6595 149.13 62.9902C149.13 63.3383 148.991 63.6864 148.73 63.9475C148.255 64.4222 147.507 64.4654 146.982 64.077L146.832 63.9475L144.065 61.1627V68.3685H141.384V61.1627L138.617 63.9475C138.095 64.4697 137.242 64.4697 136.72 63.9475Z" fill="#1F2C37"/>
<path d="M28.4023 222.368V220.83H36.482V222.368H33.352V230.957H31.5323V222.368H28.4023ZM37.2414 230.957V223.362H38.977V224.628H39.0561C39.1946 224.189 39.4319 223.851 39.7681 223.614C40.1077 223.373 40.495 223.253 40.9302 223.253C41.0291 223.253 41.1395 223.258 41.2615 223.268C41.3867 223.274 41.4906 223.286 41.573 223.302V224.949C41.4972 224.923 41.3768 224.9 41.212 224.88C41.0505 224.857 40.8939 224.845 40.7423 224.845C40.4159 224.845 40.1225 224.916 39.8621 225.058C39.605 225.196 39.4022 225.389 39.2539 225.636C39.1056 225.884 39.0314 226.169 39.0314 226.492V230.957H37.2414ZM44.8814 231.11C44.4001 231.11 43.9666 231.024 43.5809 230.853C43.1985 230.678 42.8953 230.421 42.6711 230.082C42.4502 229.742 42.3398 229.323 42.3398 228.826C42.3398 228.397 42.4189 228.043 42.5771 227.762C42.7354 227.482 42.9513 227.258 43.2249 227.09C43.4985 226.922 43.8067 226.795 44.1496 226.709C44.4957 226.62 44.8534 226.556 45.2226 226.516C45.6676 226.47 46.0286 226.429 46.3055 226.393C46.5824 226.353 46.7834 226.294 46.9087 226.215C47.0373 226.132 47.1016 226.005 47.1016 225.834V225.804C47.1016 225.432 46.9911 225.143 46.7703 224.939C46.5494 224.735 46.2313 224.632 45.8159 224.632C45.3775 224.632 45.0297 224.728 44.7726 224.919C44.5188 225.11 44.3474 225.336 44.2583 225.597L42.587 225.359C42.7189 224.898 42.9365 224.512 43.2397 224.202C43.543 223.889 43.9139 223.655 44.3523 223.5C44.7907 223.342 45.2753 223.263 45.806 223.263C46.172 223.263 46.5362 223.306 46.8988 223.391C47.2614 223.477 47.5927 223.619 47.8927 223.817C48.1927 224.011 48.4333 224.276 48.6146 224.613C48.7992 224.949 48.8915 225.369 48.8915 225.874V230.957H47.1708V229.913H47.1114C47.0027 230.124 46.8494 230.322 46.6516 230.507C46.4571 230.688 46.2115 230.835 45.9148 230.947C45.6214 231.056 45.277 231.11 44.8814 231.11ZM45.3462 229.795C45.7055 229.795 46.017 229.724 46.2807 229.582C46.5445 229.437 46.7472 229.246 46.8889 229.009C47.034 228.771 47.1065 228.512 47.1065 228.232V227.337C47.0505 227.383 46.9549 227.426 46.8197 227.466C46.6879 227.505 46.5395 227.54 46.3747 227.57C46.2099 227.599 46.0467 227.626 45.8852 227.649C45.7236 227.672 45.5835 227.692 45.4649 227.708C45.1978 227.744 44.9588 227.804 44.7479 227.886C44.5369 227.969 44.3704 228.084 44.2485 228.232C44.1265 228.377 44.0655 228.565 44.0655 228.796C44.0655 229.126 44.1858 229.374 44.4265 229.543C44.6671 229.711 44.9737 229.795 45.3462 229.795ZM52.551 226.507V230.957H50.761V223.362H52.4719V224.652H52.5609C52.7356 224.227 53.0142 223.889 53.3966 223.639C53.7823 223.388 54.2586 223.263 54.8256 223.263C55.3497 223.263 55.8063 223.375 56.1953 223.599C56.5876 223.823 56.8908 224.148 57.1051 224.573C57.3227 224.998 57.4298 225.514 57.4265 226.121V230.957H55.6365V226.398C55.6365 225.89 55.5047 225.493 55.241 225.206C54.9805 224.919 54.6196 224.776 54.1581 224.776C53.8449 224.776 53.5663 224.845 53.3224 224.984C53.0818 225.119 52.8922 225.315 52.7538 225.572C52.6186 225.829 52.551 226.141 52.551 226.507ZM65.3187 225.369L63.6869 225.547C63.6408 225.382 63.56 225.228 63.4446 225.082C63.3326 224.937 63.1809 224.82 62.9897 224.731C62.7985 224.642 62.5645 224.598 62.2876 224.598C61.9151 224.598 61.6019 224.679 61.3481 224.84C61.0975 225.002 60.9739 225.211 60.9772 225.468C60.9739 225.689 61.0547 225.869 61.2195 226.007C61.3876 226.146 61.6645 226.259 62.0502 226.348L63.3457 226.625C64.0644 226.78 64.5984 227.026 64.9478 227.362C65.3006 227.698 65.4786 228.138 65.4819 228.682C65.4786 229.16 65.3385 229.582 65.0616 229.948C64.788 230.311 64.4072 230.594 63.9193 230.799C63.4315 231.003 62.8711 231.105 62.2381 231.105C61.3085 231.105 60.5602 230.911 59.9932 230.522C59.4262 230.129 59.0883 229.584 58.9796 228.885L60.725 228.717C60.8042 229.06 60.9723 229.318 61.2294 229.493C61.4865 229.668 61.8211 229.755 62.2332 229.755C62.6584 229.755 62.9996 229.668 63.2567 229.493C63.5172 229.318 63.6474 229.103 63.6474 228.845C63.6474 228.628 63.5633 228.448 63.3952 228.306C63.2304 228.165 62.9732 228.056 62.6238 227.98L61.3283 227.708C60.5998 227.556 60.0608 227.301 59.7114 226.942C59.362 226.579 59.1889 226.121 59.1922 225.567C59.1889 225.099 59.3158 224.693 59.5729 224.351C59.8333 224.005 60.1943 223.737 60.6558 223.55C61.1206 223.358 61.6563 223.263 62.2629 223.263C63.1529 223.263 63.8534 223.452 64.3644 223.831C64.8786 224.211 65.1967 224.723 65.3187 225.369ZM70.8745 223.362V224.746H66.3847V223.362H70.8745ZM67.5071 230.957V222.645C67.5071 222.134 67.6126 221.709 67.8236 221.369C68.0379 221.029 68.3246 220.776 68.684 220.607C69.0433 220.439 69.4422 220.355 69.8806 220.355C70.1905 220.355 70.4657 220.38 70.7064 220.429C70.947 220.479 71.125 220.523 71.2404 220.563L70.8844 221.948C70.8085 221.924 70.7129 221.901 70.5976 221.878C70.4822 221.852 70.3536 221.839 70.2119 221.839C69.8789 221.839 69.6432 221.919 69.5048 222.081C69.3696 222.239 69.3021 222.467 69.3021 222.763V230.957H67.5071ZM75.4228 231.105C74.6613 231.105 74.0036 230.947 73.4498 230.63C72.8993 230.311 72.4757 229.859 72.179 229.276C71.8824 228.689 71.734 227.998 71.734 227.204C71.734 226.422 71.8824 225.737 72.179 225.147C72.479 224.553 72.8977 224.092 73.435 223.762C73.9723 223.429 74.6036 223.263 75.3288 223.263C75.7969 223.263 76.2387 223.339 76.654 223.49C77.0727 223.639 77.4419 223.869 77.7616 224.183C78.0847 224.496 78.3385 224.895 78.5231 225.379C78.7077 225.86 78.8 226.434 78.8 227.1V227.649H72.5746V226.442H77.0842C77.0809 226.099 77.0067 225.795 76.8617 225.527C76.7166 225.257 76.5139 225.045 76.2535 224.89C75.9964 224.735 75.6964 224.657 75.3535 224.657C74.9876 224.657 74.6662 224.746 74.3893 224.924C74.1124 225.099 73.8965 225.33 73.7416 225.616C73.5899 225.9 73.5125 226.212 73.5092 226.551V227.604C73.5092 228.046 73.5899 228.425 73.7515 228.742C73.913 229.055 74.1388 229.295 74.4289 229.463C74.719 229.628 75.0585 229.711 75.4475 229.711C75.7079 229.711 75.9436 229.674 76.1546 229.602C76.3656 229.526 76.5485 229.416 76.7035 229.271C76.8584 229.126 76.9754 228.946 77.0545 228.732L78.7258 228.92C78.6204 229.361 78.4193 229.747 78.1226 230.077C77.8292 230.403 77.4534 230.657 76.9952 230.838C76.537 231.016 76.0128 231.105 75.4228 231.105ZM80.384 230.957V223.362H82.1196V224.628H82.1987C82.3371 224.189 82.5745 223.851 82.9107 223.614C83.2502 223.373 83.6376 223.253 84.0727 223.253C84.1716 223.253 84.282 223.258 84.404 223.268C84.5293 223.274 84.6331 223.286 84.7155 223.302V224.949C84.6397 224.923 84.5194 224.9 84.3546 224.88C84.193 224.857 84.0365 224.845 83.8848 224.845C83.5585 224.845 83.2651 224.916 83.0047 225.058C82.7475 225.196 82.5448 225.389 82.3965 225.636C82.2481 225.884 82.1739 226.169 82.1739 226.492V230.957H80.384ZM92.3164 231.09C91.7197 231.09 91.1857 230.937 90.7143 230.63C90.2429 230.324 89.8704 229.879 89.5968 229.295C89.3231 228.712 89.1863 228.003 89.1863 227.169C89.1863 226.325 89.3248 225.613 89.6017 225.033C89.8819 224.45 90.2593 224.009 90.734 223.713C91.2087 223.413 91.7378 223.263 92.3213 223.263C92.7663 223.263 93.1322 223.339 93.419 223.49C93.7058 223.639 93.9333 223.818 94.1014 224.029C94.2695 224.237 94.3997 224.433 94.492 224.618H94.5662V220.83H96.3611V230.957H94.6008V229.76H94.492C94.3997 229.945 94.2662 230.141 94.0915 230.349C93.9168 230.553 93.686 230.728 93.3992 230.873C93.1124 231.018 92.7515 231.09 92.3164 231.09ZM92.8158 229.622C93.1949 229.622 93.5179 229.52 93.7849 229.315C94.0519 229.107 94.2547 228.819 94.3931 228.45C94.5316 228.081 94.6008 227.65 94.6008 227.159C94.6008 226.668 94.5316 226.241 94.3931 225.879C94.258 225.516 94.0569 225.234 93.7899 225.033C93.5262 224.832 93.2015 224.731 92.8158 224.731C92.4169 224.731 92.0839 224.835 91.8169 225.043C91.5499 225.251 91.3488 225.537 91.2137 225.903C91.0785 226.269 91.0109 226.688 91.0109 227.159C91.0109 227.634 91.0785 228.058 91.2137 228.43C91.3521 228.799 91.5549 229.091 91.8219 229.305C92.0922 229.516 92.4235 229.622 92.8158 229.622ZM101.701 231.105C100.939 231.105 100.281 230.947 99.7276 230.63C99.1771 230.311 98.7535 229.859 98.4568 229.276C98.1602 228.689 98.0118 227.998 98.0118 227.204C98.0118 226.422 98.1602 225.737 98.4568 225.147C98.7568 224.553 99.1755 224.092 99.7128 223.762C100.25 223.429 100.881 223.263 101.607 223.263C102.075 223.263 102.516 223.339 102.932 223.49C103.35 223.639 103.72 223.869 104.039 224.183C104.362 224.496 104.616 224.895 104.801 225.379C104.986 225.86 105.078 226.434 105.078 227.1V227.649H98.8524V226.442H103.362C103.359 226.099 103.285 225.795 103.139 225.527C102.994 225.257 102.792 225.045 102.531 224.89C102.274 224.735 101.974 224.657 101.631 224.657C101.265 224.657 100.944 224.746 100.667 224.924C100.39 225.099 100.174 225.33 100.019 225.616C99.8677 225.9 99.7903 226.212 99.787 226.551V227.604C99.787 228.046 99.8677 228.425 100.029 228.742C100.191 229.055 100.417 229.295 100.707 229.463C100.997 229.628 101.336 229.711 101.725 229.711C101.986 229.711 102.221 229.674 102.432 229.602C102.643 229.526 102.826 229.416 102.981 229.271C103.136 229.126 103.253 228.946 103.332 228.732L105.004 228.92C104.898 229.361 104.697 229.747 104.4 230.077C104.107 230.403 103.731 230.657 103.273 230.838C102.815 231.016 102.291 231.105 101.701 231.105ZM110.454 223.362V224.746H106.088V223.362H110.454ZM107.166 221.542H108.956V228.672C108.956 228.913 108.992 229.098 109.065 229.226C109.141 229.351 109.24 229.437 109.362 229.483C109.484 229.529 109.619 229.552 109.767 229.552C109.879 229.552 109.981 229.544 110.074 229.528C110.169 229.511 110.242 229.496 110.291 229.483L110.593 230.883C110.497 230.916 110.36 230.952 110.182 230.991C110.008 231.031 109.793 231.054 109.54 231.061C109.091 231.074 108.687 231.006 108.328 230.858C107.969 230.706 107.684 230.472 107.473 230.156C107.265 229.839 107.163 229.444 107.166 228.969V221.542ZM114.207 231.11C113.725 231.11 113.292 231.024 112.906 230.853C112.524 230.678 112.22 230.421 111.996 230.082C111.775 229.742 111.665 229.323 111.665 228.826C111.665 228.397 111.744 228.043 111.902 227.762C112.061 227.482 112.276 227.258 112.55 227.09C112.824 226.922 113.132 226.795 113.475 226.709C113.821 226.62 114.179 226.556 114.548 226.516C114.993 226.47 115.354 226.429 115.631 226.393C115.908 226.353 116.109 226.294 116.234 226.215C116.362 226.132 116.427 226.005 116.427 225.834V225.804C116.427 225.432 116.316 225.143 116.095 224.939C115.875 224.735 115.556 224.632 115.141 224.632C114.703 224.632 114.355 224.728 114.098 224.919C113.844 225.11 113.673 225.336 113.584 225.597L111.912 225.359C112.044 224.898 112.262 224.512 112.565 224.202C112.868 223.889 113.239 223.655 113.677 223.5C114.116 223.342 114.6 223.263 115.131 223.263C115.497 223.263 115.861 223.306 116.224 223.391C116.587 223.477 116.918 223.619 117.218 223.817C117.518 224.011 117.759 224.276 117.94 224.613C118.124 224.949 118.217 225.369 118.217 225.874V230.957H116.496V229.913H116.437C116.328 230.124 116.175 230.322 115.977 230.507C115.782 230.688 115.537 230.835 115.24 230.947C114.947 231.056 114.602 231.11 114.207 231.11ZM114.671 229.795C115.031 229.795 115.342 229.724 115.606 229.582C115.87 229.437 116.072 229.246 116.214 229.009C116.359 228.771 116.432 228.512 116.432 228.232V227.337C116.376 227.383 116.28 227.426 116.145 227.466C116.013 227.505 115.865 227.54 115.7 227.57C115.535 227.599 115.372 227.626 115.21 227.649C115.049 227.672 114.909 227.692 114.79 227.708C114.523 227.744 114.284 227.804 114.073 227.886C113.862 227.969 113.696 228.084 113.574 228.232C113.452 228.377 113.391 228.565 113.391 228.796C113.391 229.126 113.511 229.374 113.752 229.543C113.992 229.711 114.299 229.795 114.671 229.795ZM120.086 230.957V223.362H121.876V230.957H120.086ZM120.986 222.284C120.703 222.284 120.459 222.19 120.254 222.002C120.05 221.811 119.948 221.582 119.948 221.315C119.948 221.044 120.05 220.815 120.254 220.627C120.459 220.436 120.703 220.34 120.986 220.34C121.273 220.34 121.517 220.436 121.718 220.627C121.922 220.815 122.025 221.044 122.025 221.315C122.025 221.582 121.922 221.811 121.718 222.002C121.517 222.19 121.273 222.284 120.986 222.284ZM125.576 220.83V230.957H123.787V220.83H125.576Z" fill="#1F2C37"/>
<path d="M28.8219 263.768V254.907H34.3167V256.058H30.1588V258.758H33.923V259.904H30.1588V263.768H28.8219ZM35.8346 263.768V257.122H37.085V258.178H37.1542C37.2754 257.82 37.4888 257.539 37.7946 257.334C38.1032 257.126 38.4522 257.023 38.8416 257.023C38.9224 257.023 39.0176 257.025 39.1272 257.031C39.2397 257.037 39.3276 257.044 39.3911 257.053V258.29C39.3392 258.276 39.2469 258.26 39.1142 258.243C38.9815 258.223 38.8488 258.212 38.7161 258.212C38.4104 258.212 38.1378 258.277 37.8984 258.407C37.6619 258.534 37.4744 258.711 37.3359 258.939C37.1975 259.164 37.1283 259.421 37.1283 259.709V263.768H35.8346ZM43.1329 263.902C42.5099 263.902 41.9661 263.759 41.5018 263.474C41.0374 263.188 40.6768 262.789 40.4201 262.275C40.1634 261.762 40.035 261.162 40.035 260.475C40.035 259.786 40.1634 259.183 40.4201 258.667C40.6768 258.15 41.0374 257.749 41.5018 257.464C41.9661 257.178 42.5099 257.036 43.1329 257.036C43.7559 257.036 44.2996 257.178 44.764 257.464C45.2284 257.749 45.589 258.15 45.8457 258.667C46.1024 259.183 46.2308 259.786 46.2308 260.475C46.2308 261.162 46.1024 261.762 45.8457 262.275C45.589 262.789 45.2284 263.188 44.764 263.474C44.2996 263.759 43.7559 263.902 43.1329 263.902ZM43.1372 262.816C43.541 262.816 43.8756 262.709 44.141 262.496C44.4064 262.282 44.6025 261.998 44.7294 261.643C44.8592 261.289 44.9241 260.898 44.9241 260.471C44.9241 260.047 44.8592 259.658 44.7294 259.303C44.6025 258.945 44.4064 258.658 44.141 258.442C43.8756 258.225 43.541 258.117 43.1372 258.117C42.7305 258.117 42.393 258.225 42.1248 258.442C41.8594 258.658 41.6618 258.945 41.532 259.303C41.4051 259.658 41.3417 260.047 41.3417 260.471C41.3417 260.898 41.4051 261.289 41.532 261.643C41.6618 261.998 41.8594 262.282 42.1248 262.496C42.393 262.709 42.7305 262.816 43.1372 262.816ZM47.7357 263.768V257.122H48.9774V258.204H49.0596C49.1981 257.837 49.4245 257.552 49.7389 257.347C50.0533 257.139 50.4297 257.036 50.8682 257.036C51.3124 257.036 51.6845 257.139 51.9844 257.347C52.2873 257.555 52.5108 257.84 52.6551 258.204H52.7243C52.8829 257.849 53.1353 257.566 53.4815 257.356C53.8276 257.142 54.2401 257.036 54.7189 257.036C55.3217 257.036 55.8135 257.225 56.1942 257.602C56.5779 257.98 56.7697 258.55 56.7697 259.311V263.768H55.476V259.433C55.476 258.983 55.3534 258.657 55.1083 258.455C54.8631 258.253 54.5703 258.152 54.23 258.152C53.8088 258.152 53.4815 258.282 53.2478 258.541C53.0142 258.798 52.8974 259.128 52.8974 259.532V263.768H51.608V259.35C51.608 258.99 51.4955 258.7 51.2705 258.481C51.0456 258.261 50.7528 258.152 50.3922 258.152C50.1471 258.152 49.9206 258.217 49.713 258.347C49.5082 258.473 49.3423 258.651 49.2154 258.879C49.0914 259.107 49.0294 259.371 49.0294 259.671V263.768H47.7357Z" fill="#9CA4AB"/>
<path d="M97.7227 263.902C97.0679 263.902 96.504 263.762 96.031 263.482C95.5608 263.2 95.1974 262.803 94.9407 262.292C94.6869 261.779 94.5599 261.178 94.5599 260.488C94.5599 259.808 94.6869 259.208 94.9407 258.688C95.1974 258.169 95.5551 257.764 96.0137 257.473C96.4752 257.181 97.0146 257.036 97.6319 257.036C98.0068 257.036 98.3703 257.098 98.7222 257.222C99.0741 257.346 99.3899 257.54 99.6697 257.806C99.9495 258.071 100.17 258.416 100.332 258.84C100.493 259.261 100.574 259.773 100.574 260.376V260.834H95.2911V259.865H99.3063C99.3063 259.525 99.237 259.223 99.0986 258.961C98.9601 258.696 98.7654 258.486 98.5145 258.334C98.2664 258.181 97.9751 258.104 97.6405 258.104C97.2771 258.104 96.9598 258.194 96.6886 258.373C96.4204 258.548 96.2127 258.779 96.0656 259.065C95.9214 259.347 95.8493 259.655 95.8493 259.986V260.744C95.8493 261.188 95.9272 261.566 96.0829 261.877C96.2416 262.189 96.4622 262.427 96.7449 262.591C97.0276 262.753 97.3578 262.833 97.7357 262.833C97.9809 262.833 98.2044 262.799 98.4063 262.729C98.6082 262.657 98.7827 262.551 98.9298 262.409C99.0769 262.268 99.1894 262.093 99.2673 261.886L100.492 262.106C100.394 262.467 100.218 262.783 99.9639 263.054C99.713 263.322 99.3971 263.531 99.0164 263.681C98.6385 263.828 98.2073 263.902 97.7227 263.902ZM105.986 259.463V260.583H102.057V259.463H105.986ZM109.11 263.768L106.652 254.907H108.059L109.785 261.769H109.867L111.663 254.907H113.056L114.851 261.773H114.934L116.656 254.907H118.066L115.604 263.768H114.259L112.394 257.131H112.325L110.46 263.768H109.11ZM120.522 263.915C120.101 263.915 119.72 263.837 119.38 263.681C119.039 263.523 118.77 263.293 118.571 262.993C118.374 262.693 118.276 262.326 118.276 261.89C118.276 261.515 118.348 261.206 118.493 260.964C118.637 260.722 118.832 260.53 119.077 260.389C119.322 260.247 119.596 260.141 119.899 260.069C120.202 259.996 120.51 259.942 120.825 259.904C121.223 259.858 121.546 259.82 121.794 259.792C122.042 259.76 122.222 259.709 122.335 259.64C122.447 259.571 122.503 259.459 122.503 259.303V259.272C122.503 258.895 122.397 258.602 122.183 258.394C121.973 258.186 121.658 258.083 121.24 258.083C120.805 258.083 120.461 258.179 120.21 258.373C119.962 258.563 119.791 258.775 119.695 259.009L118.48 258.732C118.624 258.328 118.834 258.002 119.111 257.754C119.391 257.503 119.713 257.321 120.076 257.209C120.44 257.093 120.822 257.036 121.223 257.036C121.488 257.036 121.769 257.067 122.066 257.131C122.366 257.191 122.646 257.304 122.906 257.468C123.168 257.633 123.383 257.868 123.55 258.173C123.718 258.476 123.801 258.87 123.801 259.355V263.768H122.538V262.859H122.486C122.402 263.027 122.277 263.191 122.11 263.352C121.942 263.514 121.728 263.648 121.465 263.755C121.203 263.862 120.888 263.915 120.522 263.915ZM120.803 262.877C121.161 262.877 121.466 262.806 121.72 262.665C121.977 262.523 122.172 262.339 122.304 262.111C122.44 261.88 122.508 261.633 122.508 261.371V260.514C122.462 260.56 122.372 260.604 122.24 260.644C122.11 260.681 121.961 260.715 121.794 260.744C121.627 260.769 121.464 260.794 121.305 260.817C121.146 260.837 121.014 260.855 120.907 260.869C120.656 260.901 120.427 260.954 120.219 261.029C120.014 261.104 119.85 261.212 119.726 261.354C119.605 261.492 119.544 261.677 119.544 261.907C119.544 262.228 119.662 262.47 119.899 262.634C120.135 262.796 120.437 262.877 120.803 262.877ZM126.879 254.907V263.768H125.585V254.907H126.879ZM129.974 254.907V263.768H128.68V254.907H129.974ZM134.64 263.902C133.985 263.902 133.421 263.762 132.948 263.482C132.478 263.2 132.114 262.803 131.858 262.292C131.604 261.779 131.477 261.178 131.477 260.488C131.477 259.808 131.604 259.208 131.858 258.688C132.114 258.169 132.472 257.764 132.931 257.473C133.392 257.181 133.931 257.036 134.549 257.036C134.924 257.036 135.287 257.098 135.639 257.222C135.991 257.346 136.307 257.54 136.587 257.806C136.866 258.071 137.087 258.416 137.249 258.84C137.41 259.261 137.491 259.773 137.491 260.376V260.834H132.208V259.865H136.223C136.223 259.525 136.154 259.223 136.015 258.961C135.877 258.696 135.682 258.486 135.431 258.334C135.183 258.181 134.892 258.104 134.557 258.104C134.194 258.104 133.877 258.194 133.606 258.373C133.337 258.548 133.13 258.779 132.982 259.065C132.838 259.347 132.766 259.655 132.766 259.986V260.744C132.766 261.188 132.844 261.566 133 261.877C133.158 262.189 133.379 262.427 133.662 262.591C133.944 262.753 134.275 262.833 134.653 262.833C134.898 262.833 135.121 262.799 135.323 262.729C135.525 262.657 135.7 262.551 135.847 262.409C135.994 262.268 136.106 262.093 136.184 261.886L137.409 262.106C137.311 262.467 137.135 262.783 136.881 263.054C136.63 263.322 136.314 263.531 135.933 263.681C135.555 263.828 135.124 263.902 134.64 263.902ZM142.089 257.122V258.161H138.459V257.122H142.089ZM139.433 255.53H140.726V261.817C140.726 262.067 140.764 262.256 140.839 262.383C140.914 262.507 141.011 262.592 141.129 262.639C141.25 262.682 141.381 262.703 141.523 262.703C141.626 262.703 141.717 262.696 141.795 262.682C141.873 262.667 141.934 262.656 141.977 262.647L142.21 263.716C142.135 263.745 142.029 263.774 141.89 263.802C141.752 263.834 141.579 263.851 141.371 263.854C141.031 263.86 140.713 263.8 140.419 263.673C140.125 263.546 139.887 263.35 139.705 263.084C139.524 262.819 139.433 262.486 139.433 262.085V255.53ZM149.225 261.241C148.876 261.241 148.557 261.156 148.268 260.986C147.98 260.813 147.749 260.582 147.576 260.294C147.406 260.005 147.321 259.686 147.321 259.337C147.321 258.985 147.406 258.667 147.576 258.381C147.749 258.093 147.98 257.863 148.268 257.693C148.557 257.52 148.876 257.434 149.225 257.434C149.576 257.434 149.895 257.52 150.181 257.693C150.469 257.863 150.699 258.093 150.869 258.381C151.042 258.667 151.128 258.985 151.128 259.337C151.128 259.686 151.042 260.005 150.869 260.294C150.699 260.582 150.469 260.813 150.181 260.986C149.895 261.156 149.576 261.241 149.225 261.241ZM159.729 263.889C159.135 263.889 158.604 263.787 158.137 263.582C157.673 263.377 157.305 263.093 157.034 262.729C156.766 262.363 156.621 261.939 156.601 261.457H157.96C157.977 261.72 158.065 261.948 158.224 262.141C158.385 262.331 158.596 262.478 158.855 262.582C159.115 262.686 159.403 262.738 159.721 262.738C160.07 262.738 160.378 262.678 160.647 262.556C160.918 262.435 161.13 262.266 161.283 262.05C161.435 261.831 161.512 261.579 161.512 261.293C161.512 260.996 161.435 260.735 161.283 260.51C161.133 260.282 160.912 260.103 160.621 259.973C160.332 259.844 159.983 259.779 159.573 259.779H158.825V258.688H159.573C159.902 258.688 160.191 258.629 160.439 258.511C160.69 258.393 160.886 258.228 161.027 258.018C161.169 257.804 161.239 257.555 161.239 257.269C161.239 256.995 161.177 256.757 161.053 256.555C160.932 256.351 160.759 256.19 160.534 256.075C160.312 255.96 160.049 255.902 159.747 255.902C159.458 255.902 159.188 255.955 158.937 256.062C158.689 256.166 158.488 256.316 158.332 256.512C158.176 256.705 158.092 256.938 158.081 257.209H156.787C156.802 256.73 156.943 256.309 157.211 255.945C157.482 255.582 157.84 255.298 158.284 255.093C158.728 254.888 159.222 254.786 159.764 254.786C160.332 254.786 160.822 254.897 161.235 255.119C161.65 255.338 161.97 255.631 162.195 255.997C162.423 256.364 162.536 256.764 162.533 257.2C162.536 257.696 162.397 258.117 162.118 258.463C161.841 258.81 161.471 259.042 161.01 259.16V259.229C161.598 259.319 162.054 259.552 162.377 259.93C162.703 260.308 162.865 260.777 162.862 261.336C162.865 261.824 162.729 262.261 162.455 262.647C162.184 263.034 161.813 263.338 161.343 263.56C160.873 263.779 160.335 263.889 159.729 263.889ZM164.372 262.037V260.956L168.201 254.907H169.053V256.499H168.513L165.774 260.834V260.904H171.022V262.037H164.372ZM168.573 263.768V261.708L168.582 261.215V254.907H169.85V263.768H168.573ZM172.405 262.037V260.956L176.234 254.907H177.086V256.499H176.545L173.807 260.834V260.904H179.055V262.037H172.405ZM176.606 263.768V261.708L176.615 261.215V254.907H177.882V263.768H176.606ZM183.717 263.889C183.322 263.883 182.933 263.811 182.549 263.673C182.168 263.534 181.822 263.303 181.511 262.98C181.199 262.657 180.95 262.223 180.762 261.678C180.577 261.133 180.485 260.452 180.485 259.636C180.485 258.863 180.562 258.176 180.714 257.576C180.87 256.976 181.094 256.47 181.385 256.058C181.676 255.642 182.028 255.327 182.441 255.11C182.853 254.894 183.316 254.786 183.83 254.786C184.357 254.786 184.826 254.89 185.236 255.097C185.645 255.305 185.977 255.592 186.231 255.958C186.488 256.325 186.651 256.741 186.72 257.209H185.4C185.311 256.839 185.133 256.538 184.868 256.304C184.603 256.071 184.257 255.954 183.83 255.954C183.181 255.954 182.674 256.237 182.311 256.802C181.95 257.367 181.769 258.153 181.766 259.16H181.831C181.984 258.909 182.171 258.696 182.393 258.52C182.618 258.341 182.869 258.204 183.146 258.109C183.426 258.011 183.72 257.961 184.029 257.961C184.542 257.961 185.006 258.087 185.422 258.338C185.84 258.586 186.173 258.929 186.421 259.368C186.669 259.806 186.793 260.308 186.793 260.873C186.793 261.439 186.665 261.951 186.408 262.409C186.154 262.868 185.797 263.231 185.335 263.5C184.874 263.765 184.334 263.895 183.717 263.889ZM183.713 262.764C184.053 262.764 184.357 262.68 184.626 262.513C184.894 262.346 185.106 262.121 185.262 261.838C185.417 261.555 185.495 261.24 185.495 260.891C185.495 260.55 185.419 260.24 185.266 259.96C185.116 259.681 184.908 259.459 184.643 259.294C184.381 259.13 184.081 259.047 183.743 259.047C183.486 259.047 183.248 259.097 183.029 259.195C182.813 259.293 182.622 259.428 182.458 259.601C182.294 259.774 182.164 259.973 182.069 260.198C181.976 260.42 181.93 260.656 181.93 260.904C181.93 261.235 182.007 261.542 182.16 261.825C182.315 262.108 182.527 262.336 182.796 262.509C183.067 262.679 183.372 262.764 183.713 262.764ZM191.53 262.037V260.956L195.359 254.907H196.211V256.499H195.67L192.931 260.834V260.904H198.18V262.037H191.53ZM195.731 263.768V261.708L195.739 261.215V254.907H197.007V263.768H195.731ZM202.842 263.889C202.447 263.883 202.057 263.811 201.674 263.673C201.293 263.534 200.947 263.303 200.635 262.98C200.324 262.657 200.074 262.223 199.887 261.678C199.702 261.133 199.61 260.452 199.61 259.636C199.61 258.863 199.686 258.176 199.839 257.576C199.995 256.976 200.218 256.47 200.51 256.058C200.801 255.642 201.153 255.327 201.565 255.11C201.978 254.894 202.441 254.786 202.954 254.786C203.482 254.786 203.951 254.89 204.36 255.097C204.77 255.305 205.102 255.592 205.356 255.958C205.612 256.325 205.775 256.741 205.845 257.209H204.525C204.435 256.839 204.258 256.538 203.993 256.304C203.727 256.071 203.381 255.954 202.954 255.954C202.305 255.954 201.799 256.237 201.436 256.802C201.075 257.367 200.893 258.153 200.891 259.16H200.955C201.108 258.909 201.296 258.696 201.518 258.52C201.743 258.341 201.994 258.204 202.271 258.109C202.551 258.011 202.845 257.961 203.153 257.961C203.667 257.961 204.131 258.087 204.547 258.338C204.965 258.586 205.298 258.929 205.546 259.368C205.794 259.806 205.918 260.308 205.918 260.873C205.918 261.439 205.79 261.951 205.533 262.409C205.279 262.868 204.922 263.231 204.46 263.5C203.999 263.765 203.459 263.895 202.842 263.889ZM202.838 262.764C203.178 262.764 203.482 262.68 203.75 262.513C204.019 262.346 204.231 262.121 204.386 261.838C204.542 261.555 204.62 261.24 204.62 260.891C204.62 260.55 204.544 260.24 204.391 259.96C204.241 259.681 204.033 259.459 203.768 259.294C203.505 259.13 203.205 259.047 202.868 259.047C202.611 259.047 202.373 259.097 202.154 259.195C201.938 259.293 201.747 259.428 201.583 259.601C201.418 259.774 201.289 259.973 201.193 260.198C201.101 260.42 201.055 260.656 201.055 260.904C201.055 261.235 201.131 261.542 201.284 261.825C201.44 262.108 201.652 262.336 201.92 262.509C202.191 262.679 202.497 262.764 202.838 262.764ZM210.48 263.889C209.938 263.889 209.45 263.785 209.017 263.577C208.588 263.367 208.244 263.078 207.988 262.712C207.731 262.346 207.594 261.928 207.577 261.457H208.875C208.906 261.838 209.075 262.151 209.381 262.396C209.687 262.641 210.053 262.764 210.48 262.764C210.82 262.764 211.122 262.686 211.384 262.53C211.649 262.372 211.857 262.154 212.007 261.877C212.16 261.6 212.236 261.284 212.236 260.93C212.236 260.569 212.159 260.247 212.003 259.965C211.847 259.682 211.632 259.46 211.358 259.298C211.087 259.137 210.775 259.055 210.424 259.052C210.155 259.052 209.886 259.098 209.614 259.19C209.343 259.283 209.124 259.404 208.957 259.554L207.732 259.372L208.23 254.907H213.102V256.053H209.342L209.061 258.533H209.113C209.286 258.365 209.515 258.225 209.8 258.113C210.089 258 210.398 257.944 210.726 257.944C211.266 257.944 211.746 258.073 212.167 258.329C212.591 258.586 212.924 258.936 213.167 259.381C213.412 259.822 213.533 260.33 213.53 260.904C213.533 261.478 213.403 261.99 213.141 262.44C212.881 262.89 212.521 263.244 212.059 263.504C211.6 263.761 211.074 263.889 210.48 263.889ZM218.096 263.889C217.554 263.889 217.066 263.785 216.634 263.577C216.204 263.367 215.861 263.078 215.604 262.712C215.347 262.346 215.21 261.928 215.193 261.457H216.491C216.523 261.838 216.691 262.151 216.997 262.396C217.303 262.641 217.669 262.764 218.096 262.764C218.436 262.764 218.738 262.686 219 262.53C219.266 262.372 219.473 262.154 219.623 261.877C219.776 261.6 219.853 261.284 219.853 260.93C219.853 260.569 219.775 260.247 219.619 259.965C219.463 259.682 219.248 259.46 218.974 259.298C218.703 259.137 218.392 259.055 218.04 259.052C217.772 259.052 217.502 259.098 217.231 259.19C216.96 259.283 216.74 259.404 216.573 259.554L215.349 259.372L215.846 254.907H220.718V256.053H216.958L216.677 258.533H216.729C216.902 258.365 217.131 258.225 217.417 258.113C217.705 258 218.014 257.944 218.343 257.944C218.882 257.944 219.362 258.073 219.783 258.329C220.207 258.586 220.541 258.936 220.783 259.381C221.028 259.822 221.149 260.33 221.146 260.904C221.149 261.478 221.019 261.99 220.757 262.44C220.497 262.89 220.137 263.244 219.675 263.504C219.217 263.761 218.69 263.889 218.096 263.889ZM228.998 263.889C228.455 263.889 227.968 263.785 227.535 263.577C227.106 263.367 226.762 263.078 226.506 262.712C226.249 262.346 226.112 261.928 226.095 261.457H227.393C227.424 261.838 227.593 262.151 227.899 262.396C228.204 262.641 228.571 262.764 228.998 262.764C229.338 262.764 229.639 262.686 229.902 262.53C230.167 262.372 230.375 262.154 230.525 261.877C230.678 261.6 230.754 261.284 230.754 260.93C230.754 260.569 230.676 260.247 230.521 259.965C230.365 259.682 230.15 259.46 229.876 259.298C229.605 259.137 229.293 259.055 228.941 259.052C228.673 259.052 228.404 259.098 228.132 259.19C227.861 259.283 227.642 259.404 227.475 259.554L226.25 259.372L226.748 254.907H231.62V256.053H227.86L227.579 258.533H227.63C227.804 258.365 228.033 258.225 228.318 258.113C228.607 258 228.915 257.944 229.244 257.944C229.784 257.944 230.264 258.073 230.685 258.329C231.109 258.586 231.442 258.936 231.685 259.381C231.93 259.822 232.051 260.33 232.048 260.904C232.051 261.478 231.921 261.99 231.659 262.44C231.399 262.89 231.038 263.244 230.577 263.504C230.118 263.761 229.592 263.889 228.998 263.889ZM233.503 262.037V260.956L237.332 254.907H238.185V256.499H237.644L234.905 260.834V260.904H240.153V262.037H233.503ZM237.704 263.768V261.708L237.713 261.215V254.907H238.981V263.768H237.704ZM241.536 262.037V260.956L245.365 254.907H246.217V256.499H245.676L242.938 260.834V260.904H248.186V262.037H241.536ZM245.737 263.768V261.708L245.746 261.215V254.907H247.013V263.768H245.737ZM252.679 263.889C252.137 263.889 251.65 263.785 251.217 263.577C250.787 263.367 250.444 263.078 250.187 262.712C249.931 262.346 249.794 261.928 249.776 261.457H251.074C251.106 261.838 251.275 262.151 251.58 262.396C251.886 262.641 252.253 262.764 252.679 262.764C253.02 262.764 253.321 262.686 253.584 262.53C253.849 262.372 254.057 262.154 254.207 261.877C254.36 261.6 254.436 261.284 254.436 260.93C254.436 260.569 254.358 260.247 254.202 259.965C254.047 259.682 253.832 259.46 253.558 259.298C253.287 259.137 252.975 259.055 252.623 259.052C252.355 259.052 252.085 259.098 251.814 259.19C251.543 259.283 251.324 259.404 251.156 259.554L249.932 259.372L250.43 254.907H255.301V256.053H251.542L251.26 258.533H251.312C251.485 258.365 251.715 258.225 252 258.113C252.289 258 252.597 257.944 252.926 257.944C253.465 257.944 253.946 258.073 254.367 258.329C254.791 258.586 255.124 258.936 255.366 259.381C255.611 259.822 255.733 260.33 255.73 260.904C255.733 261.478 255.603 261.99 255.34 262.44C255.081 262.89 254.72 263.244 254.259 263.504C253.8 263.761 253.274 263.889 252.679 263.889Z" fill="#1F2C37"/>
<path d="M28.3849 282.166V281.015H35.2426V282.166H32.4779V289.876H31.1453V282.166H28.3849ZM38.5506 290.01C37.9276 290.01 37.3839 289.867 36.9195 289.582C36.4551 289.296 36.0946 288.897 35.8379 288.383C35.5811 287.87 35.4528 287.27 35.4528 286.583C35.4528 285.894 35.5811 285.291 35.8379 284.775C36.0946 284.259 36.4551 283.858 36.9195 283.572C37.3839 283.287 37.9276 283.144 38.5506 283.144C39.1737 283.144 39.7174 283.287 40.1818 283.572C40.6462 283.858 41.0067 284.259 41.2634 284.775C41.5202 285.291 41.6485 285.894 41.6485 286.583C41.6485 287.27 41.5202 287.87 41.2634 288.383C41.0067 288.897 40.6462 289.296 40.1818 289.582C39.7174 289.867 39.1737 290.01 38.5506 290.01ZM38.555 288.924C38.9588 288.924 39.2934 288.817 39.5588 288.604C39.8241 288.391 40.0203 288.106 40.1472 287.752C40.277 287.397 40.3419 287.006 40.3419 286.579C40.3419 286.155 40.277 285.766 40.1472 285.411C40.0203 285.053 39.8241 284.766 39.5588 284.55C39.2934 284.334 38.9588 284.225 38.555 284.225C38.1483 284.225 37.8108 284.334 37.5425 284.55C37.2772 284.766 37.0796 285.053 36.9498 285.411C36.8229 285.766 36.7594 286.155 36.7594 286.579C36.7594 287.006 36.8229 287.397 36.9498 287.752C37.0796 288.106 37.2772 288.391 37.5425 288.604C37.8108 288.817 38.1483 288.924 38.555 288.924Z" fill="#9CA4AB"/>
<path d="M118.46 289.876V281.015H121.705C122.333 281.015 122.854 281.119 123.266 281.327C123.679 281.532 123.988 281.81 124.192 282.162C124.397 282.511 124.5 282.905 124.5 283.343C124.5 283.712 124.432 284.024 124.296 284.278C124.161 284.529 123.979 284.73 123.751 284.883C123.526 285.033 123.278 285.143 123.007 285.212V285.299C123.301 285.313 123.588 285.408 123.868 285.584C124.151 285.757 124.384 286.004 124.569 286.324C124.753 286.644 124.846 287.034 124.846 287.492C124.846 287.945 124.739 288.352 124.526 288.712C124.315 289.07 123.989 289.354 123.548 289.565C123.106 289.772 122.542 289.876 121.856 289.876H118.46ZM119.797 288.73H121.726C122.367 288.73 122.825 288.606 123.102 288.358C123.379 288.11 123.517 287.799 123.517 287.427C123.517 287.148 123.447 286.891 123.305 286.657C123.164 286.424 122.962 286.238 122.7 286.099C122.44 285.961 122.131 285.891 121.774 285.891H119.797V288.73ZM119.797 284.849H121.588C121.888 284.849 122.157 284.791 122.397 284.676C122.639 284.56 122.831 284.399 122.972 284.191C123.116 283.98 123.189 283.732 123.189 283.447C123.189 283.081 123.06 282.773 122.804 282.525C122.547 282.277 122.153 282.153 121.622 282.153H119.797V284.849ZM133.852 283.897H132.502C132.45 283.608 132.353 283.355 132.212 283.135C132.071 282.916 131.898 282.73 131.693 282.577C131.488 282.424 131.259 282.309 131.005 282.231C130.754 282.153 130.487 282.114 130.205 282.114C129.694 282.114 129.237 282.243 128.833 282.499C128.432 282.756 128.115 283.132 127.881 283.629C127.65 284.125 127.535 284.73 127.535 285.446C127.535 286.167 127.65 286.775 127.881 287.272C128.115 287.768 128.434 288.143 128.837 288.397C129.241 288.65 129.695 288.777 130.2 288.777C130.48 288.777 130.745 288.74 130.996 288.665C131.25 288.587 131.479 288.473 131.684 288.323C131.889 288.173 132.062 287.99 132.203 287.773C132.348 287.554 132.447 287.303 132.502 287.021L133.852 287.025C133.78 287.461 133.64 287.861 133.432 288.228C133.227 288.591 132.963 288.906 132.64 289.171C132.32 289.433 131.954 289.637 131.541 289.781C131.129 289.925 130.679 289.997 130.192 289.997C129.424 289.997 128.741 289.816 128.141 289.452C127.541 289.086 127.068 288.562 126.722 287.882C126.378 287.201 126.207 286.389 126.207 285.446C126.207 284.5 126.38 283.688 126.726 283.01C127.072 282.329 127.545 281.807 128.145 281.444C128.745 281.077 129.427 280.894 130.192 280.894C130.662 280.894 131.1 280.962 131.507 281.097C131.916 281.23 132.284 281.426 132.61 281.686C132.936 281.943 133.206 282.257 133.419 282.629C133.633 282.998 133.777 283.421 133.852 283.897ZM136.202 289.876H134.782L137.971 281.015H139.516L142.705 289.876H141.285L138.78 282.625H138.711L136.202 289.876ZM136.44 286.406H141.043V287.531H136.44V286.406ZM149.585 287.349C149.236 287.349 148.917 287.264 148.628 287.094C148.34 286.921 148.109 286.69 147.936 286.402C147.766 286.113 147.681 285.795 147.681 285.446C147.681 285.094 147.766 284.775 147.936 284.49C148.109 284.201 148.34 283.972 148.628 283.802C148.917 283.629 149.236 283.542 149.585 283.542C149.936 283.542 150.255 283.629 150.541 283.802C150.829 283.972 151.058 284.201 151.229 284.49C151.402 284.775 151.488 285.094 151.488 285.446C151.488 285.795 151.402 286.113 151.229 286.402C151.058 286.69 150.829 286.921 150.541 287.094C150.255 287.264 149.936 287.349 149.585 287.349ZM157.004 289.876V288.907L160.003 285.801C160.323 285.463 160.587 285.167 160.794 284.914C161.005 284.657 161.162 284.413 161.266 284.182C161.37 283.952 161.422 283.706 161.422 283.447C161.422 283.153 161.353 282.899 161.214 282.685C161.076 282.469 160.887 282.303 160.647 282.188C160.408 282.07 160.138 282.01 159.838 282.01C159.521 282.01 159.244 282.075 159.008 282.205C158.771 282.335 158.589 282.518 158.462 282.755C158.335 282.991 158.272 283.268 158.272 283.585H156.996C156.996 283.046 157.12 282.574 157.368 282.17C157.616 281.767 157.956 281.454 158.389 281.232C158.822 281.007 159.313 280.894 159.864 280.894C160.421 280.894 160.911 281.005 161.335 281.227C161.762 281.447 162.095 281.746 162.335 282.127C162.574 282.505 162.694 282.932 162.694 283.408C162.694 283.737 162.632 284.058 162.508 284.373C162.387 284.687 162.175 285.038 161.872 285.424C161.569 285.808 161.148 286.274 160.608 286.822L158.847 288.665V288.73H162.837V289.876H157.004ZM164.161 288.146V287.064L167.99 281.015H168.842V282.607H168.302L165.563 286.943V287.012H170.811V288.146H164.161ZM168.362 289.876V287.817L168.371 287.324V281.015H169.638V289.876H168.362ZM175.473 289.997C175.078 289.992 174.689 289.919 174.305 289.781C173.924 289.643 173.578 289.412 173.267 289.089C172.955 288.766 172.706 288.332 172.518 287.786C172.334 287.241 172.241 286.561 172.241 285.744C172.241 284.971 172.318 284.285 172.471 283.685C172.626 283.085 172.85 282.579 173.141 282.166C173.433 281.751 173.784 281.435 174.197 281.219C174.609 281.002 175.072 280.894 175.586 280.894C176.114 280.894 176.582 280.998 176.992 281.206C177.401 281.413 177.733 281.7 177.987 282.067C178.244 282.433 178.407 282.85 178.476 283.317H177.156C177.067 282.948 176.889 282.646 176.624 282.413C176.359 282.179 176.013 282.062 175.586 282.062C174.937 282.062 174.431 282.345 174.067 282.91C173.707 283.476 173.525 284.262 173.522 285.268H173.587C173.74 285.017 173.927 284.804 174.149 284.628C174.374 284.449 174.625 284.312 174.902 284.217C175.182 284.119 175.476 284.07 175.785 284.07C176.298 284.07 176.763 284.195 177.178 284.446C177.596 284.694 177.929 285.038 178.177 285.476C178.425 285.914 178.549 286.416 178.549 286.982C178.549 287.547 178.421 288.059 178.164 288.518C177.911 288.976 177.553 289.34 177.091 289.608C176.63 289.873 176.091 290.003 175.473 289.997ZM175.469 288.872C175.809 288.872 176.114 288.789 176.382 288.621C176.65 288.454 176.862 288.229 177.018 287.947C177.174 287.664 177.251 287.348 177.251 286.999C177.251 286.659 177.175 286.349 177.022 286.069C176.872 285.789 176.665 285.567 176.399 285.402C176.137 285.238 175.837 285.156 175.499 285.156C175.242 285.156 175.005 285.205 174.785 285.303C174.569 285.401 174.379 285.537 174.214 285.71C174.05 285.883 173.92 286.082 173.825 286.307C173.732 286.529 173.686 286.764 173.686 287.012C173.686 287.344 173.763 287.651 173.916 287.934C174.071 288.216 174.283 288.444 174.552 288.617C174.823 288.787 175.129 288.872 175.469 288.872ZM183.18 289.997C182.56 289.997 182.012 289.891 181.536 289.677C181.063 289.464 180.693 289.17 180.424 288.795C180.156 288.42 180.023 287.993 180.026 287.514C180.023 287.139 180.1 286.794 180.256 286.48C180.414 286.163 180.629 285.899 180.9 285.688C181.171 285.475 181.474 285.339 181.809 285.281V285.229C181.368 285.123 181.014 284.886 180.749 284.52C180.483 284.154 180.352 283.732 180.355 283.256C180.352 282.804 180.472 282.4 180.714 282.045C180.959 281.687 181.295 281.406 181.722 281.201C182.149 280.997 182.635 280.894 183.18 280.894C183.72 280.894 184.201 280.998 184.625 281.206C185.052 281.41 185.388 281.692 185.634 282.049C185.879 282.404 186.003 282.807 186.006 283.256C186.003 283.732 185.867 284.154 185.599 284.52C185.331 284.886 184.982 285.123 184.552 285.229V285.281C184.884 285.339 185.182 285.475 185.448 285.688C185.716 285.899 185.929 286.163 186.088 286.48C186.249 286.794 186.332 287.139 186.334 287.514C186.332 287.993 186.196 288.42 185.928 288.795C185.66 289.17 185.287 289.464 184.812 289.677C184.338 289.891 183.795 289.997 183.18 289.997ZM183.18 288.903C183.547 288.903 183.864 288.842 184.132 288.721C184.4 288.597 184.608 288.425 184.755 288.206C184.902 287.984 184.977 287.724 184.98 287.427C184.977 287.119 184.897 286.846 184.738 286.61C184.582 286.373 184.37 286.187 184.102 286.051C183.834 285.916 183.527 285.848 183.18 285.848C182.831 285.848 182.521 285.916 182.25 286.051C181.979 286.187 181.766 286.373 181.61 286.61C181.454 286.846 181.378 287.119 181.381 287.427C181.378 287.724 181.448 287.984 181.593 288.206C181.74 288.425 181.949 288.597 182.22 288.721C182.491 288.842 182.811 288.903 183.18 288.903ZM183.18 284.779C183.475 284.779 183.736 284.72 183.964 284.602C184.191 284.484 184.37 284.319 184.5 284.109C184.633 283.898 184.7 283.652 184.703 283.369C184.7 283.092 184.634 282.85 184.504 282.642C184.377 282.434 184.2 282.274 183.972 282.162C183.744 282.046 183.48 281.989 183.18 281.989C182.875 281.989 182.606 282.046 182.376 282.162C182.148 282.274 181.97 282.434 181.843 282.642C181.717 282.85 181.655 283.092 181.657 283.369C181.655 283.652 181.718 283.898 181.848 284.109C181.978 284.319 182.156 284.484 182.384 284.602C182.615 284.72 182.88 284.779 183.18 284.779ZM194.316 289.997C193.721 289.997 193.191 289.895 192.723 289.69C192.259 289.485 191.891 289.201 191.62 288.838C191.352 288.472 191.208 288.047 191.188 287.566H192.546C192.563 287.828 192.651 288.056 192.81 288.249C192.972 288.44 193.182 288.587 193.442 288.691C193.701 288.795 193.99 288.846 194.307 288.846C194.656 288.846 194.965 288.786 195.233 288.665C195.504 288.544 195.716 288.375 195.869 288.159C196.022 287.939 196.098 287.687 196.098 287.401C196.098 287.104 196.022 286.843 195.869 286.618C195.719 286.39 195.498 286.212 195.207 286.082C194.919 285.952 194.569 285.887 194.16 285.887H193.411V284.797H194.16C194.489 284.797 194.777 284.738 195.025 284.619C195.276 284.501 195.472 284.337 195.614 284.126C195.755 283.913 195.826 283.663 195.826 283.378C195.826 283.104 195.764 282.866 195.64 282.664C195.518 282.459 195.345 282.299 195.12 282.183C194.898 282.068 194.636 282.01 194.333 282.01C194.045 282.01 193.775 282.064 193.524 282.17C193.276 282.274 193.074 282.424 192.918 282.62C192.762 282.814 192.679 283.046 192.667 283.317H191.374C191.388 282.838 191.529 282.417 191.798 282.054C192.069 281.69 192.426 281.406 192.871 281.201C193.315 280.997 193.808 280.894 194.35 280.894C194.919 280.894 195.409 281.005 195.821 281.227C196.237 281.447 196.557 281.739 196.782 282.106C197.01 282.472 197.122 282.873 197.119 283.308C197.122 283.805 196.984 284.226 196.704 284.572C196.427 284.918 196.058 285.15 195.596 285.268V285.338C196.185 285.427 196.64 285.661 196.964 286.039C197.289 286.416 197.451 286.885 197.448 287.445C197.451 287.932 197.315 288.369 197.041 288.756C196.77 289.142 196.4 289.446 195.929 289.669C195.459 289.888 194.921 289.997 194.316 289.997ZM202.069 289.997C201.527 289.997 201.04 289.894 200.607 289.686C200.177 289.475 199.834 289.187 199.577 288.821C199.32 288.454 199.183 288.036 199.166 287.566H200.464C200.496 287.947 200.665 288.26 200.97 288.505C201.276 288.75 201.642 288.872 202.069 288.872C202.41 288.872 202.711 288.795 202.974 288.639C203.239 288.48 203.447 288.262 203.597 287.985C203.749 287.709 203.826 287.393 203.826 287.038C203.826 286.677 203.748 286.356 203.592 286.073C203.437 285.79 203.222 285.568 202.948 285.407C202.676 285.245 202.365 285.163 202.013 285.16C201.745 285.16 201.475 285.206 201.204 285.299C200.933 285.391 200.714 285.512 200.546 285.662L199.322 285.48L199.819 281.015H204.691V282.162H200.931L200.65 284.641H200.702C200.875 284.474 201.104 284.334 201.39 284.221C201.678 284.109 201.987 284.053 202.316 284.053C202.855 284.053 203.336 284.181 203.757 284.438C204.181 284.694 204.514 285.045 204.756 285.489C205.001 285.93 205.122 286.438 205.12 287.012C205.122 287.586 204.993 288.098 204.73 288.548C204.471 288.998 204.11 289.353 203.649 289.612C203.19 289.869 202.664 289.997 202.069 289.997ZM206.575 288.146V287.064L210.404 281.015H211.256V282.607H210.715L207.977 286.943V287.012H213.225V288.146H206.575ZM210.776 289.876V287.817L210.785 287.324V281.015H212.052V289.876H210.776ZM217.718 289.997C217.176 289.997 216.689 289.894 216.256 289.686C215.826 289.475 215.483 289.187 215.226 288.821C214.969 288.454 214.832 288.036 214.815 287.566H216.113C216.145 287.947 216.314 288.26 216.619 288.505C216.925 288.75 217.291 288.872 217.718 288.872C218.059 288.872 218.36 288.795 218.623 288.639C218.888 288.48 219.096 288.262 219.246 287.985C219.399 287.709 219.475 287.393 219.475 287.038C219.475 286.677 219.397 286.356 219.241 286.073C219.086 285.79 218.871 285.568 218.597 285.407C218.326 285.245 218.014 285.163 217.662 285.16C217.394 285.16 217.124 285.206 216.853 285.299C216.582 285.391 216.363 285.512 216.195 285.662L214.971 285.48L215.468 281.015H220.34V282.162H216.58L216.299 284.641H216.351C216.524 284.474 216.754 284.334 217.039 284.221C217.328 284.109 217.636 284.053 217.965 284.053C218.504 284.053 218.985 284.181 219.406 284.438C219.83 284.694 220.163 285.045 220.405 285.489C220.65 285.93 220.771 286.438 220.769 287.012C220.771 287.586 220.642 288.098 220.379 288.548C220.12 288.998 219.759 289.353 219.298 289.612C218.839 289.869 218.313 289.997 217.718 289.997ZM225.509 288.146V287.064L229.338 281.015H230.191V282.607H229.65L226.911 286.943V287.012H232.159V288.146H225.509ZM229.71 289.876V287.817L229.719 287.324V281.015H230.987V289.876H229.71ZM236.653 289.997C236.11 289.997 235.623 289.894 235.19 289.686C234.761 289.475 234.417 289.187 234.161 288.821C233.904 288.454 233.767 288.036 233.75 287.566H235.048C235.079 287.947 235.248 288.26 235.554 288.505C235.859 288.75 236.226 288.872 236.653 288.872C236.993 288.872 237.294 288.795 237.557 288.639C237.822 288.48 238.03 288.262 238.18 287.985C238.333 287.709 238.409 287.393 238.409 287.038C238.409 286.677 238.331 286.356 238.176 286.073C238.02 285.79 237.805 285.568 237.531 285.407C237.26 285.245 236.948 285.163 236.596 285.16C236.328 285.16 236.059 285.206 235.787 285.299C235.516 285.391 235.297 285.512 235.13 285.662L233.905 285.48L234.403 281.015H239.275V282.162H235.515L235.234 284.641H235.285C235.459 284.474 235.688 284.334 235.973 284.221C236.262 284.109 236.57 284.053 236.899 284.053C237.439 284.053 237.919 284.181 238.34 284.438C238.764 284.694 239.097 285.045 239.34 285.489C239.585 285.93 239.706 286.438 239.703 287.012C239.706 287.586 239.576 288.098 239.314 288.548C239.054 288.998 238.693 289.353 238.232 289.612C237.773 289.869 237.247 289.997 236.653 289.997ZM244.429 289.997C243.835 289.997 243.304 289.895 242.837 289.69C242.372 289.485 242.005 289.201 241.734 288.838C241.465 288.472 241.321 288.047 241.301 287.566H242.659C242.677 287.828 242.765 288.056 242.923 288.249C243.085 288.44 243.296 288.587 243.555 288.691C243.815 288.795 244.103 288.846 244.42 288.846C244.769 288.846 245.078 288.786 245.346 288.665C245.617 288.544 245.829 288.375 245.982 288.159C246.135 287.939 246.212 287.687 246.212 287.401C246.212 287.104 246.135 286.843 245.982 286.618C245.832 286.39 245.612 286.212 245.32 286.082C245.032 285.952 244.683 285.887 244.273 285.887H243.525V284.797H244.273C244.602 284.797 244.891 284.738 245.139 284.619C245.39 284.501 245.586 284.337 245.727 284.126C245.868 283.913 245.939 283.663 245.939 283.378C245.939 283.104 245.877 282.866 245.753 282.664C245.632 282.459 245.459 282.299 245.234 282.183C245.012 282.068 244.749 282.01 244.446 282.01C244.158 282.01 243.888 282.064 243.637 282.17C243.389 282.274 243.187 282.424 243.032 282.62C242.876 282.814 242.792 283.046 242.781 283.317H241.487C241.501 282.838 241.643 282.417 241.911 282.054C242.182 281.69 242.54 281.406 242.984 281.201C243.428 280.997 243.921 280.894 244.464 280.894C245.032 280.894 245.522 281.005 245.935 281.227C246.35 281.447 246.67 281.739 246.895 282.106C247.123 282.472 247.236 282.873 247.233 283.308C247.236 283.805 247.097 284.226 246.817 284.572C246.54 284.918 246.171 285.15 245.71 285.268V285.338C246.298 285.427 246.754 285.661 247.077 286.039C247.403 286.416 247.564 286.885 247.562 287.445C247.564 287.932 247.429 288.369 247.155 288.756C246.884 289.142 246.513 289.446 246.043 289.669C245.573 289.888 245.035 289.997 244.429 289.997ZM249.072 288.146V287.064L252.901 281.015H253.753V282.607H253.212L250.474 286.943V287.012H255.722V288.146H249.072ZM253.273 289.876V287.817L253.282 287.324V281.015H254.549V289.876H253.273Z" fill="#1F2C37"/>
<path d="M211.581 317.092V306.016H212.291V317.092H211.581ZM213.801 309.451C213.754 309.041 213.564 308.724 213.229 308.499C212.895 308.271 212.474 308.157 211.966 308.157C211.603 308.157 211.288 308.215 211.023 308.33C210.757 308.443 210.551 308.599 210.404 308.798C210.26 308.994 210.188 309.217 210.188 309.468C210.188 309.679 210.237 309.861 210.335 310.013C210.436 310.166 210.567 310.295 210.729 310.398C210.893 310.499 211.069 310.584 211.256 310.654C211.444 310.72 211.624 310.775 211.797 310.818L212.663 311.043C212.945 311.112 213.235 311.206 213.532 311.324C213.829 311.443 214.105 311.598 214.359 311.792C214.613 311.985 214.817 312.224 214.973 312.51C215.132 312.795 215.211 313.137 215.211 313.535C215.211 314.037 215.081 314.483 214.822 314.872C214.565 315.262 214.191 315.569 213.701 315.794C213.214 316.019 212.624 316.131 211.931 316.131C211.268 316.131 210.694 316.026 210.209 315.815C209.725 315.605 209.346 315.306 209.072 314.92C208.798 314.53 208.646 314.069 208.617 313.535H209.958C209.984 313.855 210.088 314.122 210.27 314.336C210.455 314.546 210.69 314.703 210.975 314.807C211.264 314.908 211.58 314.959 211.923 314.959C212.301 314.959 212.637 314.9 212.931 314.781C213.228 314.66 213.462 314.493 213.632 314.279C213.802 314.063 213.887 313.811 213.887 313.522C213.887 313.26 213.812 313.045 213.662 312.878C213.515 312.71 213.315 312.572 213.061 312.462C212.81 312.353 212.526 312.256 212.208 312.172L211.161 311.887C210.452 311.694 209.889 311.409 209.474 311.034C209.061 310.659 208.855 310.163 208.855 309.546C208.855 309.036 208.994 308.59 209.271 308.209C209.547 307.828 209.922 307.533 210.395 307.322C210.869 307.109 211.402 307.002 211.996 307.002C212.596 307.002 213.126 307.107 213.584 307.318C214.046 307.528 214.409 307.818 214.675 308.188C214.94 308.554 215.078 308.975 215.09 309.451H213.801ZM220.11 307.123V315.984H218.769V308.464H218.717L216.597 309.849V308.568L218.808 307.123H220.11ZM225.493 316.105C224.951 316.105 224.463 316.001 224.03 315.794C223.601 315.583 223.257 315.295 223.001 314.928C222.744 314.562 222.607 314.144 222.59 313.674H223.888C223.919 314.054 224.088 314.367 224.394 314.613C224.7 314.858 225.066 314.98 225.493 314.98C225.833 314.98 226.135 314.902 226.397 314.747C226.662 314.588 226.87 314.37 227.02 314.093C227.173 313.816 227.249 313.501 227.249 313.146C227.249 312.785 227.172 312.464 227.016 312.181C226.86 311.898 226.645 311.676 226.371 311.515C226.1 311.353 225.789 311.271 225.437 311.268C225.168 311.268 224.899 311.314 224.628 311.407C224.356 311.499 224.137 311.62 223.97 311.77L222.745 311.588L223.243 307.123H228.115V308.27H224.355L224.074 310.749H224.126C224.299 310.582 224.528 310.442 224.814 310.329C225.102 310.217 225.411 310.16 225.739 310.16C226.279 310.16 226.759 310.289 227.18 310.546C227.604 310.802 227.937 311.153 228.18 311.597C228.425 312.038 228.546 312.546 228.543 313.12C228.546 313.694 228.416 314.206 228.154 314.656C227.894 315.106 227.534 315.461 227.072 315.72C226.613 315.977 226.087 316.105 225.493 316.105ZM229.998 314.253V313.172L233.827 307.123H234.68V308.715H234.139L231.4 313.051V313.12H236.648V314.253H229.998ZM234.199 315.984V313.925L234.208 313.431V307.123H235.476V315.984H234.199ZM239.584 314.773L239.519 315.244C239.476 315.59 239.403 315.951 239.299 316.326C239.198 316.704 239.093 317.054 238.983 317.377C238.876 317.7 238.788 317.957 238.719 318.147H237.802C237.839 317.969 237.891 317.726 237.957 317.421C238.024 317.118 238.089 316.779 238.152 316.404C238.216 316.029 238.263 315.647 238.295 315.257L238.338 314.773H239.584ZM241.269 314.253V313.172L245.098 307.123H245.95V308.715H245.409L242.671 313.051V313.12H247.919V314.253H241.269ZM245.47 315.984V313.925L245.479 313.431V307.123H246.746V315.984H245.47ZM249.488 315.984V315.015L252.486 311.908C252.806 311.571 253.07 311.275 253.278 311.021C253.488 310.765 253.645 310.521 253.749 310.29C253.853 310.06 253.905 309.814 253.905 309.555C253.905 309.261 253.836 309.007 253.697 308.793C253.559 308.577 253.37 308.411 253.131 308.296C252.891 308.177 252.621 308.118 252.321 308.118C252.004 308.118 251.727 308.183 251.491 308.313C251.254 308.443 251.073 308.626 250.946 308.863C250.819 309.099 250.755 309.376 250.755 309.693H249.479C249.479 309.154 249.603 308.682 249.851 308.278C250.099 307.875 250.439 307.562 250.872 307.34C251.305 307.115 251.797 307.002 252.347 307.002C252.904 307.002 253.395 307.113 253.819 307.335C254.245 307.554 254.579 307.854 254.818 308.235C255.057 308.613 255.177 309.04 255.177 309.516C255.177 309.845 255.115 310.166 254.991 310.481C254.87 310.795 254.658 311.146 254.355 311.532C254.052 311.916 253.631 312.381 253.092 312.93L251.331 314.773V314.838H255.32V315.984H249.488Z" fill="#1F2C37"/>
<path d="M28.3849 308.274V307.123H35.2426V308.274H32.4779V315.984H31.1453V308.274H28.3849ZM36.025 315.984V309.338H37.2754V310.394H37.3446C37.4657 310.036 37.6792 309.755 37.9849 309.55C38.2936 309.343 38.6426 309.239 39.032 309.239C39.1127 309.239 39.2079 309.242 39.3175 309.248C39.43 309.253 39.518 309.261 39.5815 309.269V310.507C39.5295 310.492 39.4372 310.476 39.3046 310.459C39.1719 310.439 39.0392 310.429 38.9065 310.429C38.6008 310.429 38.3282 310.494 38.0888 310.623C37.8523 310.75 37.6648 310.928 37.5263 311.156C37.3879 311.381 37.3186 311.637 37.3186 311.926V315.984H36.025ZM42.6364 316.131C42.2153 316.131 41.8345 316.053 41.4942 315.898C41.1538 315.739 40.8841 315.51 40.6851 315.21C40.489 314.91 40.3909 314.542 40.3909 314.106C40.3909 313.731 40.463 313.423 40.6072 313.18C40.7514 312.938 40.9461 312.746 41.1913 312.605C41.4365 312.464 41.7105 312.357 42.0134 312.285C42.3162 312.213 42.6249 312.158 42.9393 312.12C43.3373 312.074 43.6604 312.037 43.9084 312.008C44.1565 311.976 44.3368 311.926 44.4493 311.857C44.5618 311.787 44.618 311.675 44.618 311.519V311.489C44.618 311.111 44.5113 310.818 44.2978 310.61C44.0873 310.403 43.7729 310.299 43.3546 310.299C42.9191 310.299 42.5758 310.396 42.3249 310.589C42.0768 310.779 41.9052 310.991 41.81 311.225L40.5942 310.948C40.7385 310.544 40.949 310.218 41.2259 309.97C41.5057 309.719 41.8273 309.537 42.1908 309.425C42.5542 309.31 42.9364 309.252 43.3373 309.252C43.6027 309.252 43.8839 309.284 44.181 309.347C44.481 309.408 44.7608 309.52 45.0204 309.685C45.2829 309.849 45.4978 310.084 45.6651 310.39C45.8323 310.693 45.916 311.086 45.916 311.571V315.984H44.6526V315.076H44.6007C44.5171 315.243 44.3916 315.407 44.2243 315.569C44.057 315.73 43.8421 315.864 43.5796 315.971C43.3171 316.078 43.0027 316.131 42.6364 316.131ZM42.9176 315.093C43.2753 315.093 43.5811 315.022 43.8349 314.881C44.0916 314.74 44.2863 314.555 44.419 314.327C44.5546 314.096 44.6223 313.85 44.6223 313.587V312.731C44.5762 312.777 44.4868 312.82 44.3541 312.86C44.2243 312.898 44.0757 312.931 43.9084 312.96C43.7411 312.986 43.5782 313.01 43.4195 313.033C43.2609 313.054 43.1282 313.071 43.0215 313.085C42.7705 313.117 42.5412 313.17 42.3335 313.245C42.1288 313.32 41.9643 313.429 41.8403 313.57C41.7192 313.708 41.6586 313.893 41.6586 314.124C41.6586 314.444 41.7769 314.686 42.0134 314.851C42.2499 315.012 42.5513 315.093 42.9176 315.093ZM48.9937 312.038V315.984H47.7V309.338H48.9417V310.42H49.0239C49.1768 310.068 49.4162 309.786 49.7422 309.572C50.071 309.359 50.4849 309.252 50.9839 309.252C51.4368 309.252 51.8334 309.347 52.1737 309.537C52.5141 309.725 52.778 310.005 52.9655 310.377C53.153 310.749 53.2467 311.209 53.2467 311.757V315.984H51.9531V311.913C51.9531 311.431 51.8276 311.055 51.5767 310.784C51.3257 310.51 50.981 310.372 50.5426 310.372C50.2426 310.372 49.9758 310.437 49.7422 310.567C49.5114 310.697 49.3282 310.887 49.1927 311.138C49.06 311.386 48.9937 311.686 48.9937 312.038ZM60.0226 310.961L58.8501 311.169C58.801 311.019 58.7231 310.876 58.6164 310.74C58.5126 310.605 58.3712 310.494 58.1924 310.407C58.0136 310.321 57.79 310.277 57.5218 310.277C57.1555 310.277 56.8497 310.36 56.6045 310.524C56.3594 310.685 56.2368 310.895 56.2368 311.151C56.2368 311.373 56.319 311.552 56.4834 311.688C56.6478 311.823 56.9132 311.934 57.2795 312.021L58.3352 312.263C58.9467 312.405 59.4024 312.622 59.7024 312.917C60.0024 313.211 60.1524 313.593 60.1524 314.063C60.1524 314.461 60.037 314.816 59.8062 315.127C59.5784 315.436 59.2596 315.678 58.8501 315.854C58.4434 316.03 57.9718 316.118 57.4353 316.118C56.6911 316.118 56.0839 315.96 55.6137 315.642C55.1436 315.322 54.8551 314.868 54.7484 314.279L55.9988 314.089C56.0767 314.415 56.2368 314.662 56.4791 314.829C56.7214 314.993 57.0372 315.076 57.4266 315.076C57.8506 315.076 58.1895 314.988 58.4434 314.812C58.6972 314.633 58.8241 314.415 58.8241 314.158C58.8241 313.951 58.7462 313.776 58.5905 313.635C58.4376 313.493 58.2025 313.387 57.8852 313.315L56.7603 313.068C56.1401 312.927 55.6815 312.702 55.3844 312.393C55.0902 312.084 54.9431 311.694 54.9431 311.221C54.9431 310.828 55.0527 310.485 55.2719 310.191C55.4912 309.897 55.794 309.667 56.1805 309.503C56.567 309.336 57.0098 309.252 57.5088 309.252C58.227 309.252 58.7924 309.408 59.2048 309.719C59.6173 310.028 59.8899 310.442 60.0226 310.961ZM64.7984 309.338V310.377H61.0429V309.338H64.7984ZM62.0727 315.984V308.568C62.0727 308.153 62.1635 307.808 62.3452 307.534C62.527 307.257 62.7678 307.051 63.0678 306.916C63.3678 306.777 63.6937 306.708 64.0456 306.708C64.3052 306.708 64.5273 306.729 64.7119 306.773C64.8965 306.813 65.0335 306.851 65.1229 306.885L64.8201 307.932C64.7595 307.915 64.6816 307.895 64.5864 307.872C64.4912 307.846 64.3759 307.833 64.2403 307.833C63.9259 307.833 63.7009 307.911 63.5653 308.066C63.4327 308.222 63.3663 308.447 63.3663 308.741V315.984H62.0727ZM68.7966 316.118C68.1418 316.118 67.5779 315.978 67.1049 315.699C66.6347 315.416 66.2713 315.019 66.0146 314.509C65.7607 313.995 65.6338 313.394 65.6338 312.705C65.6338 312.024 65.7607 311.424 66.0146 310.905C66.2713 310.385 66.6289 309.98 67.0876 309.689C67.5491 309.398 68.0885 309.252 68.7057 309.252C69.0807 309.252 69.4441 309.314 69.796 309.438C70.1479 309.562 70.4638 309.757 70.7436 310.022C71.0234 310.287 71.244 310.632 71.4055 311.056C71.5671 311.477 71.6478 311.989 71.6478 312.592V313.051H66.365V312.082H70.3801C70.3801 311.741 70.3109 311.44 70.1725 311.177C70.034 310.912 69.8393 310.703 69.5884 310.55C69.3403 310.397 69.049 310.321 68.7144 310.321C68.3509 310.321 68.0337 310.41 67.7625 310.589C67.4943 310.765 67.2866 310.996 67.1395 311.281C66.9953 311.564 66.9232 311.871 66.9232 312.203V312.96C66.9232 313.404 67.001 313.782 67.1568 314.093C67.3154 314.405 67.5361 314.643 67.8188 314.807C68.1014 314.969 68.4317 315.05 68.8096 315.05C69.0547 315.05 69.2783 315.015 69.4802 314.946C69.6821 314.874 69.8566 314.767 70.0037 314.626C70.1508 314.484 70.2633 314.31 70.3412 314.102L71.5656 314.323C71.4676 314.683 71.2916 314.999 71.0378 315.27C70.7868 315.538 70.471 315.748 70.0903 315.898C69.7124 316.045 69.2812 316.118 68.7966 316.118ZM73.1441 315.984V309.338H74.3945V310.394H74.4637C74.5849 310.036 74.7983 309.755 75.1041 309.55C75.4127 309.343 75.7617 309.239 76.1511 309.239C76.2319 309.239 76.3271 309.242 76.4367 309.248C76.5492 309.253 76.6371 309.261 76.7006 309.269V310.507C76.6487 310.492 76.5564 310.476 76.4237 310.459C76.291 310.439 76.1583 310.429 76.0256 310.429C75.7199 310.429 75.4473 310.494 75.2079 310.623C74.9714 310.75 74.7839 310.928 74.6455 311.156C74.507 311.381 74.4378 311.637 74.4378 311.926V315.984H73.1441Z" fill="#9CA4AB"/>
<path d="M29.5704 342.092H28.1513L31.34 333.231H32.8846L36.0733 342.092H34.6542L32.1491 334.841H32.0798L29.5704 342.092ZM29.8084 338.622H34.4119V339.747H29.8084V338.622ZM39.6907 342.222C39.1542 342.222 38.6754 342.085 38.2543 341.811C37.836 341.534 37.5072 341.14 37.2678 340.63C37.0313 340.116 36.913 339.5 36.913 338.782C36.913 338.064 37.0327 337.45 37.2721 336.939C37.5144 336.428 37.8461 336.038 38.2673 335.767C38.6884 335.495 39.1658 335.36 39.6994 335.36C40.1118 335.36 40.4435 335.429 40.6945 335.567C40.9483 335.703 41.1445 335.862 41.2829 336.043C41.4243 336.225 41.5339 336.385 41.6117 336.524H41.6896V333.231H42.9833V342.092H41.7199V341.058H41.6117C41.5339 341.199 41.4214 341.361 41.2743 341.543C41.13 341.724 40.931 341.883 40.6772 342.018C40.4234 342.154 40.0945 342.222 39.6907 342.222ZM39.9763 341.119C40.3484 341.119 40.6628 341.02 40.9195 340.824C41.1791 340.625 41.3752 340.35 41.5079 339.998C41.6435 339.646 41.7113 339.236 41.7113 338.769C41.7113 338.308 41.6449 337.904 41.5122 337.558C41.3795 337.212 41.1848 336.942 40.9281 336.749C40.6714 336.555 40.3541 336.459 39.9763 336.459C39.5869 336.459 39.2624 336.56 39.0028 336.762C38.7432 336.964 38.547 337.239 38.4144 337.588C38.2846 337.937 38.2197 338.331 38.2197 338.769C38.2197 339.213 38.286 339.613 38.4187 339.968C38.5514 340.322 38.7475 340.604 39.0071 340.811C39.2696 341.016 39.5926 341.119 39.9763 341.119ZM44.8906 342.092V335.446H46.1323V336.528H46.2145C46.353 336.162 46.5794 335.876 46.8938 335.671C47.2082 335.464 47.5846 335.36 48.0231 335.36C48.4673 335.36 48.8394 335.464 49.1393 335.671C49.4422 335.879 49.6657 336.165 49.81 336.528H49.8792C50.0378 336.173 50.2902 335.891 50.6363 335.68C50.9825 335.467 51.3949 335.36 51.8738 335.36C52.4766 335.36 52.9684 335.549 53.3491 335.927C53.7328 336.304 53.9246 336.874 53.9246 337.636V342.092H52.6309V337.757C52.6309 337.307 52.5083 336.981 52.2632 336.779C52.018 336.577 51.7252 336.476 51.3849 336.476C50.9637 336.476 50.6363 336.606 50.4027 336.865C50.1691 337.122 50.0523 337.452 50.0523 337.856V342.092H48.7629V337.675C48.7629 337.314 48.6504 337.024 48.4254 336.805C48.2005 336.586 47.9077 336.476 47.5471 336.476C47.302 336.476 47.0755 336.541 46.8679 336.671C46.6631 336.798 46.4972 336.975 46.3703 337.203C46.2463 337.431 46.1842 337.695 46.1842 337.995V342.092H44.8906ZM55.7194 342.092V335.446H57.0131V342.092H55.7194ZM56.3727 334.421C56.1477 334.421 55.9545 334.346 55.793 334.196C55.6343 334.043 55.555 333.861 55.555 333.651C55.555 333.437 55.6343 333.256 55.793 333.106C55.9545 332.953 56.1477 332.876 56.3727 332.876C56.5977 332.876 56.7895 332.953 56.9482 333.106C57.1097 333.256 57.1905 333.437 57.1905 333.651C57.1905 333.861 57.1097 334.043 56.9482 334.196C56.7895 334.346 56.5977 334.421 56.3727 334.421ZM60.108 338.146V342.092H58.8144V335.446H60.0561V336.528H60.1383C60.2912 336.176 60.5306 335.893 60.8565 335.68C61.1854 335.467 61.5993 335.36 62.0983 335.36C62.5511 335.36 62.9477 335.455 63.2881 335.645C63.6285 335.833 63.8924 336.113 64.0799 336.485C64.2674 336.857 64.3611 337.317 64.3611 337.865V342.092H63.0674V338.021C63.0674 337.539 62.942 337.163 62.691 336.891C62.4401 336.617 62.0954 336.48 61.657 336.48C61.357 336.48 61.0902 336.545 60.8565 336.675C60.6258 336.805 60.4426 336.995 60.3071 337.246C60.1744 337.494 60.108 337.794 60.108 338.146ZM72.6051 335.446V336.485H68.8496V335.446H72.6051ZM69.8793 342.092V334.676C69.8793 334.261 69.9702 333.916 70.1519 333.642C70.3336 333.365 70.5745 333.159 70.8745 333.023C71.1744 332.885 71.5004 332.816 71.8523 332.816C72.1119 332.816 72.334 332.837 72.5186 332.881C72.7032 332.921 72.8402 332.959 72.9296 332.993L72.6267 334.04C72.5662 334.023 72.4883 334.003 72.3931 333.98C72.2979 333.954 72.1825 333.941 72.047 333.941C71.7326 333.941 71.5076 334.019 71.372 334.174C71.2393 334.33 71.173 334.555 71.173 334.849V342.092H69.8793ZM76.6033 342.226C75.9485 342.226 75.3846 342.086 74.9115 341.806C74.4414 341.524 74.0779 341.127 73.8212 340.617C73.5674 340.103 73.4405 339.502 73.4405 338.812C73.4405 338.132 73.5674 337.532 73.8212 337.013C74.0779 336.493 74.4356 336.088 74.8942 335.797C75.3557 335.505 75.8951 335.36 76.5124 335.36C76.8874 335.36 77.2508 335.422 77.6027 335.546C77.9546 335.67 78.2704 335.865 78.5502 336.13C78.83 336.395 79.0507 336.74 79.2122 337.164C79.3737 337.585 79.4545 338.097 79.4545 338.7V339.159H74.1717V338.189H78.1868C78.1868 337.849 78.1176 337.548 77.9791 337.285C77.8407 337.02 77.646 336.811 77.395 336.658C77.147 336.505 76.8556 336.428 76.521 336.428C76.1576 336.428 75.8403 336.518 75.5692 336.697C75.3009 336.873 75.0933 337.103 74.9462 337.389C74.8019 337.672 74.7298 337.979 74.7298 338.311V339.068C74.7298 339.512 74.8077 339.89 74.9635 340.201C75.1221 340.513 75.3428 340.751 75.6254 340.915C75.9081 341.077 76.2384 341.157 76.6162 341.157C76.8614 341.157 77.085 341.123 77.2869 341.054C77.4888 340.982 77.6633 340.875 77.8104 340.733C77.9575 340.592 78.07 340.418 78.1479 340.21L79.3723 340.431C79.2742 340.791 79.0983 341.107 78.8444 341.378C78.5935 341.646 78.2777 341.856 77.8969 342.006C77.5191 342.153 77.0878 342.226 76.6033 342.226ZM83.815 342.226C83.1602 342.226 82.5963 342.086 82.1233 341.806C81.6531 341.524 81.2897 341.127 81.033 340.617C80.7792 340.103 80.6522 339.502 80.6522 338.812C80.6522 338.132 80.7792 337.532 81.033 337.013C81.2897 336.493 81.6474 336.088 82.106 335.797C82.5675 335.505 83.1069 335.36 83.7241 335.36C84.0991 335.36 84.4626 335.422 84.8145 335.546C85.1664 335.67 85.4822 335.865 85.762 336.13C86.0418 336.395 86.2624 336.74 86.424 337.164C86.5855 337.585 86.6663 338.097 86.6663 338.7V339.159H81.3834V338.189H85.3986C85.3986 337.849 85.3293 337.548 85.1909 337.285C85.0524 337.02 84.8577 336.811 84.6068 336.658C84.3587 336.505 84.0674 336.428 83.7328 336.428C83.3694 336.428 83.0521 336.518 82.7809 336.697C82.5127 336.873 82.305 337.103 82.1579 337.389C82.0137 337.672 81.9416 337.979 81.9416 338.311V339.068C81.9416 339.512 82.0195 339.89 82.1752 340.201C82.3339 340.513 82.5545 340.751 82.8372 340.915C83.1199 341.077 83.4501 341.157 83.828 341.157C84.0732 341.157 84.2967 341.123 84.4986 341.054C84.7005 340.982 84.875 340.875 85.0221 340.733C85.1692 340.592 85.2817 340.418 85.3596 340.21L86.584 340.431C86.486 340.791 86.31 341.107 86.0562 341.378C85.8053 341.646 85.4894 341.856 85.1087 342.006C84.7308 342.153 84.2996 342.226 83.815 342.226Z" fill="#9CA4AB"/>
<rect x="216.697" y="328.092" width="39.9243" height="20" rx="5.22162" fill="#2B7979"/>
<path d="M224.632 342.092V333.231H230.127V334.382H225.969V337.082H229.734V338.228H225.969V342.092H224.632ZM231.645 342.092V335.446H232.896V336.502H232.965C233.086 336.144 233.299 335.863 233.605 335.658C233.914 335.451 234.263 335.347 234.652 335.347C234.733 335.347 234.828 335.35 234.938 335.355C235.05 335.361 235.138 335.368 235.202 335.377V336.615C235.15 336.6 235.057 336.584 234.925 336.567C234.792 336.547 234.659 336.537 234.527 336.537C234.221 336.537 233.948 336.602 233.709 336.731C233.472 336.858 233.285 337.036 233.147 337.264C233.008 337.489 232.939 337.745 232.939 338.034V342.092H231.645ZM239.008 342.226C238.354 342.226 237.79 342.086 237.317 341.806C236.847 341.524 236.483 341.127 236.226 340.617C235.973 340.103 235.846 339.502 235.846 338.812C235.846 338.132 235.973 337.532 236.226 337.013C236.483 336.493 236.841 336.088 237.299 335.797C237.761 335.505 238.3 335.36 238.918 335.36C239.293 335.36 239.656 335.422 240.008 335.546C240.36 335.67 240.676 335.865 240.955 336.13C241.235 336.395 241.456 336.74 241.617 337.164C241.779 337.585 241.86 338.097 241.86 338.7V339.159H236.577V338.189H240.592C240.592 337.849 240.523 337.548 240.384 337.285C240.246 337.02 240.051 336.811 239.8 336.658C239.552 336.505 239.261 336.428 238.926 336.428C238.563 336.428 238.245 336.518 237.974 336.697C237.706 336.873 237.498 337.103 237.351 337.389C237.207 337.672 237.135 337.979 237.135 338.311V339.068C237.135 339.512 237.213 339.89 237.369 340.201C237.527 340.513 237.748 340.751 238.031 340.915C238.313 341.077 238.644 341.157 239.021 341.157C239.267 341.157 239.49 341.123 239.692 341.054C239.894 340.982 240.068 340.875 240.216 340.733C240.363 340.592 240.475 340.418 240.553 340.21L241.777 340.431C241.679 340.791 241.503 341.107 241.25 341.378C240.999 341.646 240.683 341.856 240.302 342.006C239.924 342.153 239.493 342.226 239.008 342.226ZM246.22 342.226C245.565 342.226 245.001 342.086 244.528 341.806C244.058 341.524 243.695 341.127 243.438 340.617C243.184 340.103 243.057 339.502 243.057 338.812C243.057 338.132 243.184 337.532 243.438 337.013C243.695 336.493 244.053 336.088 244.511 335.797C244.973 335.505 245.512 335.36 246.129 335.36C246.504 335.36 246.868 335.422 247.22 335.546C247.572 335.67 247.887 335.865 248.167 336.13C248.447 336.395 248.668 336.74 248.829 337.164C248.991 337.585 249.071 338.097 249.071 338.7V339.159H243.789V338.189H247.804C247.804 337.849 247.734 337.548 247.596 337.285C247.458 337.02 247.263 336.811 247.012 336.658C246.764 336.505 246.473 336.428 246.138 336.428C245.775 336.428 245.457 336.518 245.186 336.697C244.918 336.873 244.71 337.103 244.563 337.389C244.419 337.672 244.347 337.979 244.347 338.311V339.068C244.347 339.512 244.425 339.89 244.58 340.201C244.739 340.513 244.96 340.751 245.242 340.915C245.525 341.077 245.855 341.157 246.233 341.157C246.478 341.157 246.702 341.123 246.904 341.054C247.106 340.982 247.28 340.875 247.427 340.733C247.574 340.592 247.687 340.418 247.765 340.21L248.989 340.431C248.891 340.791 248.715 341.107 248.461 341.378C248.21 341.646 247.895 341.856 247.514 342.006C247.136 342.153 246.705 342.226 246.22 342.226Z" fill="#FDFDFD"/>
<path d="M27.8484 357.681L257.6 357.681" stroke="#E3E9ED" stroke-width="0.87027" stroke-linecap="round"/>
</svg>
