<svg width="1244" height="270" viewBox="0 0 1244 270" fill="none" xmlns="http://www.w3.org/2000/svg">
    <path d="M281.456 25.8718V63.1118H242.648V269.696H199.136V140.336L208.544 160.328C202.272 152.226 196.653 145.954 191.688 141.512C186.723 137.069 182.019 134.848 177.576 134.848C174.179 134.848 171.043 135.893 168.168 137.984C165.555 139.813 162.288 143.602 158.368 149.352C154.709 154.84 149.483 163.333 142.688 174.832C135.371 186.853 128.576 196.653 122.304 204.232C116.032 211.81 109.499 217.298 102.704 220.696C96.1707 224.093 88.3307 225.792 79.184 225.792C71.6053 225.792 64.288 224.485 57.232 221.872C50.4373 218.997 43.6427 214.293 36.848 207.76C30.0533 200.965 23.128 191.557 16.072 179.536L47.432 160.328C53.4427 170.258 58.408 177.053 62.328 180.712C66.5093 184.37 71.0827 186.2 76.048 186.2C79.968 186.2 83.6267 185.285 87.024 183.456C90.4214 181.365 94.2107 177.314 98.392 171.304C102.835 165.032 108.192 156.016 114.464 144.256L123.872 132.888C130.928 119.298 137.592 109.89 143.864 104.664C150.136 99.4371 157.584 96.8238 166.208 96.8238C173.787 96.8238 180.581 98.7838 186.592 102.704C192.864 106.624 199.92 112.504 207.76 120.344L200.704 121.52C200.181 116.293 199.789 111.066 199.528 105.84C199.267 100.352 199.136 94.8638 199.136 89.3758V63.1118H1.31503e-05V25.8718H281.456ZM103.096 169.736C100.744 152.749 98.1307 139.421 95.256 129.752C92.6427 119.821 88.2 112.112 81.928 106.624C75.656 100.874 67.032 96.5625 56.056 93.6878C45.3413 90.8131 31.8827 88.4611 15.68 86.6318L27.048 47.4318L52.136 59.1918C67.032 61.5438 79.184 64.5491 88.592 68.2078C98 71.8665 105.448 76.5705 110.936 82.3198C116.685 88.0691 120.867 95.2558 123.48 103.88C126.093 112.242 127.923 122.565 128.968 134.848L103.096 169.736ZM530.793 25.8718V63.1118H491.985V269.696H448.473V217.952L455.137 238.728C445.729 225.138 436.452 213.248 427.305 203.056C418.42 192.602 409.273 184.501 399.865 178.752C390.457 172.741 380.265 169.736 369.289 169.736C361.972 169.736 355.569 171.696 350.081 175.616C344.854 179.274 342.241 184.893 342.241 192.472C342.241 200.05 344.985 206.192 350.473 210.896C356.222 215.338 364.193 219.258 374.385 222.656L361.449 262.248C346.292 257.544 334.009 251.533 324.601 244.216C315.193 236.637 308.268 228.405 303.825 219.52C299.382 210.373 297.161 200.834 297.161 190.904C297.161 177.576 300.297 166.6 306.569 157.976C313.102 149.352 321.334 142.949 331.265 138.768C341.196 134.325 351.518 132.104 362.233 132.104C376.084 132.104 388.628 134.325 399.865 138.768C411.102 142.949 421.294 149.09 430.441 157.192C439.849 165.293 448.604 175.224 456.705 186.984L449.257 191.296C448.996 185.024 448.734 178.752 448.473 172.48C448.473 166.208 448.473 159.805 448.473 153.272V63.1118H273.641V25.8718H530.793ZM400.257 143.472C400.257 145.04 400.126 146.869 399.865 148.96C399.865 151.05 399.604 153.141 399.081 155.232L356.353 143.864C355.83 130.274 353.478 119.56 349.297 111.72C345.116 103.88 338.19 97.9998 328.521 94.0798C319.113 89.8985 305.785 87.0238 288.537 85.4558L296.769 50.1758L317.153 55.6638C331.788 57.2318 344.332 60.2371 354.785 64.6798C365.238 68.8611 373.732 74.4798 380.265 81.5358C387.06 88.5918 392.025 97.3465 395.161 107.8C398.558 117.992 400.257 129.882 400.257 143.472ZM644.302 25.8718V63.1118H605.102V269.696H561.59V92.1198C558.454 83.4958 553.881 76.5705 547.87 71.3438C542.121 65.8558 534.542 63.1118 525.134 63.1118H522.782V25.8718H529.838C535.849 25.8718 541.729 27.7011 547.478 31.3598C553.489 34.7571 558.715 41.1598 563.158 50.5678C562.897 49.2611 562.505 46.2558 561.982 41.5518C561.721 36.8478 561.59 32.7971 561.59 29.3998V-0.000208378H596.086L604.71 25.8718H644.302ZM886.111 25.8718V63.1118H846.911V269.696H803.399C794.514 255.061 783.146 241.994 769.295 230.496C755.706 218.736 740.287 208.936 723.039 201.096C706.053 192.994 687.629 187.376 667.767 184.24L649.735 141.12C674.039 127.269 700.173 114.202 728.135 101.92C756.098 89.3758 784.061 79.1838 812.023 71.3438L803.399 85.4558V25.8718H886.111ZM803.399 102.312L811.631 111.72C793.338 117.208 775.306 123.741 757.535 131.32C739.765 138.898 722.125 147.392 704.615 156.8C716.637 159.413 729.181 163.725 742.247 169.736C755.575 175.746 768.25 183.456 780.271 192.864C792.293 202.272 802.485 213.117 810.847 225.4L804.967 228.144C804.445 222.133 804.053 215.992 803.791 209.72C803.53 203.448 803.399 196.261 803.399 188.16V102.312ZM733.623 23.1278C737.543 23.1278 741.333 23.3891 744.991 23.9118C748.911 24.1731 752.831 24.5651 756.751 25.0878L753.615 60.3678C752.57 60.1065 751.002 59.9758 748.911 59.9758C747.082 59.7145 744.73 59.5838 741.855 59.5838C734.799 59.5838 729.442 61.1518 725.783 64.2878C722.386 67.1625 720.687 70.6905 720.687 74.8718C720.687 81.4051 723.693 86.8931 729.703 91.3358C735.714 95.7785 745.253 99.8291 758.319 103.488L730.879 128.968C719.903 123.48 710.495 117.861 702.655 112.112C694.815 106.362 688.805 99.9598 684.623 92.9038C680.442 85.5865 678.351 77.3545 678.351 68.2078C678.351 60.8905 680.05 53.8345 683.447 47.0398C687.106 39.9838 692.986 34.2345 701.087 29.7918C709.189 25.3491 720.034 23.1278 733.623 23.1278ZM999.795 25.8718V63.1118H960.595V269.696H917.083V92.1198C913.947 83.4958 909.373 76.5705 903.363 71.3438C897.613 65.8558 890.035 63.1118 880.627 63.1118H878.275V25.8718H885.331C891.341 25.8718 897.221 27.7011 902.971 31.3598C908.981 34.7571 914.208 41.1598 918.651 50.5678C918.389 49.2611 917.997 46.2558 917.475 41.5518C917.213 36.8478 917.083 32.7971 917.083 29.3998V-0.000208378H951.579L960.203 25.8718H999.795ZM1243.96 25.8718V63.1118H1204.76V269.696H1161.24V182.672L1168.69 203.448C1160.33 192.472 1151.31 182.541 1141.64 173.656C1131.97 164.509 1122.04 157.192 1111.85 151.704C1101.92 146.216 1092.25 143.472 1082.84 143.472C1075 143.472 1068.34 145.432 1062.85 149.352C1057.63 153.01 1055.01 158.76 1055.01 166.6C1055.01 173.133 1057.36 178.752 1062.07 183.456C1066.77 187.898 1074.09 192.08 1084.02 196L1064.03 233.632C1047.04 226.837 1033.71 217.429 1024.04 205.408C1014.37 193.125 1009.54 179.666 1009.54 165.032C1009.54 151.442 1012.68 140.205 1018.95 131.32C1025.48 122.434 1033.71 115.901 1043.64 111.72C1053.84 107.538 1064.29 105.448 1075 105.448C1087.55 105.448 1099.18 107.538 1109.89 111.72C1120.87 115.64 1131.19 121.258 1140.86 128.576C1150.79 135.632 1160.46 144.125 1169.87 154.056L1162.81 157.192C1162.03 151.181 1161.51 145.04 1161.24 138.768C1161.24 132.234 1161.24 125.962 1161.24 119.952V63.1118H991.9V25.8718H1243.96Z" fill="#132D89" fill-opacity="0.06"/>
</svg>
