<svg width="1440" height="918" viewBox="0 0 1440 918" fill="none" xmlns="http://www.w3.org/2000/svg">
<g clip-path="url(#clip0_29247_6628)">
<path d="M0 0H1440V886C1440 903.673 1425.67 918 1408 918H32C14.3269 918 0 903.673 0 886V0Z" fill="white" fill-opacity="0.1"/>
<g filter="url(#filter0_f_29247_6628)">
<ellipse cx="1495.02" cy="1219.62" rx="1195.47" ry="1155.5" transform="rotate(-26.0002 1495.02 1219.62)" fill="url(#paint0_radial_29247_6628)"/>
</g>
<g filter="url(#filter1_f_29247_6628)">
<ellipse cx="365.457" cy="-35.6115" rx="1034.45" ry="338.998" transform="rotate(-17.1558 365.457 -35.6115)" fill="url(#paint1_radial_29247_6628)"/>
</g>
</g>
<defs>
<filter id="filter0_f_29247_6628" x="178.256" y="-72.5125" width="2633.54" height="2584.26" filterUnits="userSpaceOnUse" color-interpolation-filters="sRGB">
<feFlood flood-opacity="0" result="BackgroundImageFix"/>
<feBlend mode="normal" in="SourceGraphic" in2="BackgroundImageFix" result="shape"/>
<feGaussianBlur stdDeviation="64.296" result="effect1_foregroundBlur_29247_6628"/>
</filter>
<filter id="filter1_f_29247_6628" x="-756.68" y="-609.207" width="2244.27" height="1147.19" filterUnits="userSpaceOnUse" color-interpolation-filters="sRGB">
<feFlood flood-opacity="0" result="BackgroundImageFix"/>
<feBlend mode="normal" in="SourceGraphic" in2="BackgroundImageFix" result="shape"/>
<feGaussianBlur stdDeviation="64.296" result="effect1_foregroundBlur_29247_6628"/>
</filter>
<radialGradient id="paint0_radial_29247_6628" cx="0" cy="0" r="1" gradientTransform="matrix(-647.14 -1547.95 1570.34 -594.65 1771.86 1426.93)" gradientUnits="userSpaceOnUse">
<stop offset="0.0238924" stop-color="#009688" stop-opacity="0.34"/>
<stop offset="0.437569" stop-color="#4EB5A9" stop-opacity="0.05"/>
<stop offset="0.587571" stop-color="#9CD3C7" stop-opacity="0.63"/>
<stop offset="0.855195" stop-color="#D4EFE8" stop-opacity="0.19"/>
</radialGradient>
<radialGradient id="paint1_radial_29247_6628" cx="0" cy="0" r="1" gradientTransform="matrix(-1110.7 -372.945 1138.04 -363.987 605.007 25.2102)" gradientUnits="userSpaceOnUse">
<stop offset="0.201374" stop-color="#009688" stop-opacity="0.3"/>
<stop offset="0.45436" stop-color="#4EB5A9" stop-opacity="0"/>
<stop offset="0.66136" stop-color="#9CD3C7" stop-opacity="0.28"/>
</radialGradient>
<clipPath id="clip0_29247_6628">
<path d="M0 0H1440V886C1440 903.673 1425.67 918 1408 918H32C14.3269 918 0 903.673 0 886V0Z" fill="white"/>
</clipPath>
</defs>
</svg>
