<svg width="24" height="24" viewBox="0 0 24 24" fill="none" xmlns="http://www.w3.org/2000/svg">
<rect x="0.5" y="0.5" width="23" height="23" fill="black"/>
<rect x="0.5" y="0.5" width="23" height="23" stroke="black"/>
<path d="M22.4999 11.9897C22.5006 12.2569 22.4298 12.5195 22.295 12.7502C22.1602 12.981 21.9661 13.1715 21.733 13.3022L5.99049 22.3031C5.76458 22.4311 5.50954 22.4989 5.24987 22.5C5.01061 22.4987 4.77513 22.4402 4.56308 22.3293C4.35104 22.2185 4.16859 22.0586 4.03095 21.8628C3.89332 21.6671 3.8045 21.4413 3.77191 21.2043C3.73932 20.9673 3.76391 20.7259 3.84362 20.5003L6.37487 13.005C6.3996 12.9317 6.4464 12.8679 6.50883 12.8222C6.57126 12.7765 6.64628 12.7513 6.72362 12.75H13.4999C13.6027 12.7502 13.7044 12.7293 13.7988 12.6885C13.8932 12.6478 13.9782 12.588 14.0486 12.513C14.1189 12.438 14.1731 12.3494 14.2077 12.2526C14.2423 12.1558 14.2567 12.0529 14.2499 11.9503C14.2329 11.7574 14.1436 11.5781 14 11.4482C13.8564 11.3184 13.6691 11.2476 13.4755 11.25H6.72549C6.64703 11.25 6.57055 11.2254 6.50681 11.1796C6.44307 11.1339 6.39528 11.0693 6.37018 10.995L3.83893 3.5006C3.73818 3.21334 3.72721 2.90223 3.80749 2.60859C3.88777 2.31495 4.05548 2.05269 4.28836 1.85664C4.52124 1.66059 4.80825 1.54004 5.11128 1.51099C5.4143 1.48195 5.71899 1.54579 5.98487 1.69403L21.7349 10.6837C21.9667 10.814 22.1597 11.0036 22.2941 11.2331C22.4286 11.4626 22.4996 11.7237 22.4999 11.9897Z" fill="#FAFAFA"/>
</svg>
