<svg width="122" height="164" viewBox="0 0 122 164" fill="none" xmlns="http://www.w3.org/2000/svg">
<g clip-path="url(#clip0_241_295)">
<path d="M4.37722e-06 138.838C4.37722e-06 137.241 0.468859 136.02 1.42611 135.212C2.38335 134.404 3.84852 133.99 5.86069 133.99C9.78735 133.99 11.7605 135.645 11.7605 138.936V146.759H6.48583V138.463C6.48583 137.872 6.27094 137.557 5.86069 137.557C5.45044 137.557 5.23555 137.852 5.23555 138.463V148.079C5.23555 148.453 5.43091 148.749 5.80209 148.946L9.33804 151.074C10.1195 151.547 10.7055 152.079 11.1158 152.67C11.526 153.261 11.7409 154.01 11.7409 154.916V159.015C11.7409 162.325 9.76782 163.98 5.84116 163.98C1.9145 163.98 -0.0195312 162.286 -0.0195312 158.897V156.552H5.23555V159.389C5.23555 160 5.45044 160.296 5.86069 160.296C6.31001 160.296 6.5249 160 6.5249 159.389V155.626C6.5249 155.251 6.32955 154.956 5.95837 154.759L2.42242 152.729C1.641 152.276 1.05493 151.764 0.64468 151.173C0.234432 150.581 0.01954 149.833 0.01954 148.926V138.818L4.37722e-06 138.838Z" fill="#424143"/>
<path d="M17.6406 134.325V149.478H19.0667V134.325H24.2632V163.665H19.0667V154.483H17.6406V163.665H12.405V134.325H17.6406Z" fill="#424143"/>
<path d="M28.8347 134.325H35.2228L39.3839 163.665H33.914L33.3865 158.995H30.632L30.0654 163.665H24.5955L28.7956 134.325H28.8347ZM32.8981 153.99L31.9995 140.315L31.1399 153.99H32.8981Z" fill="#424143"/>
<path d="M48.5462 134.325H54.0357V163.665H49.2104L49.6988 153.34L48.1164 163.665H45.6744L44.092 153.34L44.5609 163.665H39.7551V134.325H45.0102L46.9052 152.572L48.5657 134.325H48.5462Z" fill="#424143"/>
<path d="M58.6264 134.325H65.0146L69.1757 163.665H63.7057L63.1782 158.995H60.4237L59.8572 163.665H54.3872L58.5874 134.325H58.6264ZM62.6898 153.99L61.7912 140.315L60.9316 153.99H62.6898Z" fill="#424143"/>
<path d="M81.8542 158.522C81.8542 160.276 81.4245 161.576 80.5649 162.404C79.7053 163.232 78.4355 163.665 76.7554 163.665H69.8789V134.325H76.7554C78.3964 134.325 79.6467 134.778 80.5258 135.685C81.4049 136.591 81.8542 137.951 81.8542 139.764V158.522ZM76.6187 139.705C76.6187 138.956 76.5601 138.463 76.4624 138.266C76.3452 138.069 76.1108 137.971 75.7396 137.971H75.1145V159.724H75.7396C76.1108 159.724 76.3647 159.606 76.4624 159.37C76.5796 159.133 76.6187 158.601 76.6187 157.754V139.705Z" fill="#424143"/>
<path d="M87.7346 134.325V149.478H89.1607V134.325H94.3572V163.665H89.1607V154.483H87.7346V163.665H82.499V134.325H87.7346Z" fill="#424143"/>
<path d="M98.9284 134.325H105.317L109.478 163.665H104.008L103.48 158.995H100.726L100.159 163.665H94.6892L98.8894 134.325H98.9284ZM102.992 153.99L102.093 140.315L101.234 153.99H102.992Z" fill="#424143"/>
<path d="M114.85 134.325L116.999 151.35L116.764 134.325H122V163.665H116.96L114.811 153.143L115.084 163.665H109.849V134.325H114.85Z" fill="#424143"/>
<path d="M102.308 66.4829C102.308 71.1332 98.5769 74.9164 93.9665 74.9164C89.356 74.9164 85.6052 71.1529 85.6052 66.4829H66.7729V83.8031C62.1625 83.8031 58.4312 87.5864 58.4312 92.2366C58.4312 96.8868 62.1625 100.65 66.7729 100.67V121.36H112.33C117.214 121.36 121.16 117.36 121.16 112.434V66.4829H102.308Z" fill="#A1609D"/>
<path d="M55.2468 85.4779V66.4828H36.3949C36.3949 61.8129 32.6441 58.0493 28.0337 58.0493C23.4233 58.0493 19.6724 61.8326 19.6724 66.4828H0.840088V112.453C0.840088 117.379 4.80582 121.36 9.68973 121.36H55.2468V102.345C50.6364 102.345 46.9051 98.5616 46.9051 93.9114C46.9051 89.2611 50.6364 85.4779 55.2468 85.4779Z" fill="#6373AD"/>
<path d="M121.16 8.92611C121.16 4 117.214 0 112.33 0H66.7534V19.0345C71.1099 19.3103 74.5872 22.9557 74.5872 27.4286C74.5872 31.9015 71.1099 35.5665 66.7534 35.8424V54.8768H85.6053C85.6053 59.5271 89.3561 63.3103 93.9665 63.3103C98.577 63.3103 102.328 59.5468 102.328 54.8768H121.16V8.92611Z" fill="#EA9E51"/>
<path d="M63.0806 27.4483C63.0806 22.9754 59.6228 19.33 55.2663 19.0345V0H9.68973C4.80582 0 0.840088 4 0.840088 8.92611V54.8768H19.692C19.692 50.2069 23.4233 46.4433 28.0532 46.4433C32.6832 46.4433 36.4145 50.2069 36.4145 54.8768H55.2663V35.8424C59.6228 35.5665 63.0806 31.9015 63.0806 27.4286" fill="#44AA99"/>
</g>
<defs>
<clipPath id="clip0_241_295">
<rect width="122" height="164" fill="white"/>
</clipPath>
</defs>
</svg>
