<svg width="272" height="64" viewBox="0 0 272 64" fill="none" xmlns="http://www.w3.org/2000/svg">
<path d="M53.961 35.0569C53.961 37.5065 51.9732 39.4942 49.5237 39.4942C47.0741 39.4942 45.0763 37.5065 45.0763 35.0569H35.0572V44.1926C32.6076 44.1926 30.6299 46.1904 30.6299 48.6399C30.6299 51.0895 32.6176 53.0773 35.0572 53.0873V64H59.2818C61.8719 64 63.9801 61.8917 63.9801 59.3016V35.077H53.961V35.0569Z" fill="#A1609D"/>
<path d="M28.933 45.0661V35.047H18.9139C18.9139 32.5874 16.9261 30.5996 14.4665 30.5996C12.0069 30.5996 10.0191 32.5874 10.0191 35.047H0V59.2817C0 61.8718 2.10823 63.98 4.69835 63.98H28.933V53.9609C26.4834 53.9609 24.4957 51.9631 24.4957 49.5235C24.4957 47.084 26.4734 45.0862 28.933 45.0762V45.0661Z" fill="#6373AD"/>
<path d="M63.9901 4.69835C63.9901 2.10824 61.8919 0 59.3018 0H35.0671V10.0392C37.3862 10.1798 39.2334 12.1073 39.2334 14.4665C39.2334 16.8257 37.3862 18.7633 35.0671 18.9038V28.9431H45.0863C45.0863 31.3926 47.074 33.3904 49.5336 33.3904C51.9932 33.3904 53.981 31.4027 53.981 28.9431H64.0001V4.69835H63.9901Z" fill="#EA9E51"/>
<path d="M33.0993 14.4665C33.0993 12.1073 31.2621 10.1798 28.943 10.0392V0H4.69835C2.10823 0 0 2.10824 0 4.69835V28.933H10.0292C10.0292 26.4734 12.0169 24.4857 14.4665 24.4857C16.9161 24.4857 18.9139 26.4734 18.9139 28.933H28.933V18.8938C31.252 18.7432 33.0892 16.8257 33.0892 14.4665" fill="#44AA99"/>
<g clip-path="url(#clip0_222_1340)">
<path d="M72 15.7457C72 13.1748 72.7753 11.2509 74.3258 9.95715C75.8931 8.64686 78.32 8 81.6065 8C88.0445 8 91.2635 10.6372 91.2635 15.9115V28.4174H82.6345V15.1486C82.6345 14.1866 82.2975 13.7056 81.6065 13.7056C80.9155 13.7056 80.5784 14.1866 80.5784 15.1486V30.5238C80.5784 31.1375 80.8818 31.5853 81.5053 31.9171L87.3029 35.3338C88.5669 36.0802 89.5444 36.9426 90.2354 37.9046C90.9264 38.8666 91.2635 40.0608 91.2635 41.4872V48.0553C91.2635 53.3628 88.0445 56.0166 81.6065 56.0166C75.1684 56.0166 72 53.2965 72 47.8894V44.1576H80.5784V48.7021C80.5784 49.6641 80.9155 50.1451 81.6065 50.1451C82.3312 50.1451 82.6851 49.6641 82.6851 48.7021V42.6648C82.6851 42.0677 82.3817 41.6033 81.7582 41.2716L75.9606 38.0207C74.6966 37.3075 73.7191 36.4782 73.0281 35.5328C72.3371 34.5874 72 33.3932 72 31.9337V15.7457Z" fill="#424143"/>
<path d="M100.921 8.53076V32.763H103.246V8.53076H111.757V55.4693H103.246V40.7906H100.921V55.4693H92.3422V8.53076H100.921Z" fill="#424143"/>
<path d="M119.257 8.53076H129.723L136.566 55.4527H127.616L126.74 47.9724H122.24L121.313 55.4527H112.364L119.257 8.53076ZM125.931 39.9779L124.465 18.1009L123.049 39.9779H125.931Z" fill="#424143"/>
<path d="M151.599 8.53076H160.599V55.4693H152.678L153.487 38.9661L150.874 55.4693H146.863L144.251 38.9661L145.009 55.4693H137.139V8.53076H145.768L148.869 37.7388L151.599 8.53076Z" fill="#424143"/>
<path d="M168.098 8.53076H178.564L185.407 55.4527H176.458L175.581 47.9724H171.081L170.155 55.4527H161.205L168.098 8.53076ZM174.772 39.9779L173.306 18.1009L171.89 39.9779H174.772Z" fill="#424143"/>
<path d="M206.187 47.2426C206.187 50.0622 205.479 52.1355 204.064 53.4623C202.648 54.7892 200.575 55.4693 197.828 55.4693H186.536V8.53076H197.828C200.508 8.53076 202.564 9.26055 204.013 10.7201C205.463 12.1797 206.187 14.3525 206.187 17.2384V47.2426ZM197.609 17.1389C197.609 15.9281 197.525 15.1652 197.339 14.85C197.154 14.5349 196.766 14.369 196.143 14.369H195.115V49.1666H196.143C196.749 49.1666 197.154 48.9841 197.339 48.6026C197.525 48.2212 197.609 47.3587 197.609 46.0152V17.1389Z" fill="#424143"/>
<path d="M215.844 8.53076V32.763H218.17V8.53076H226.681V55.4693H218.17V40.7906H215.844V55.4693H207.266V8.53076H215.844Z" fill="#424143"/>
<path d="M234.181 8.53076H244.647L251.489 55.4527H242.54L241.664 47.9724H237.164L236.237 55.4527H227.288L234.181 8.53076ZM240.855 39.9779L239.389 18.1009L237.973 39.9779H240.855Z" fill="#424143"/>
<path d="M260.287 8.53076L263.809 35.7485L263.422 8.53076H272V55.4693H263.759L260.236 38.651L260.674 55.4693H252.096V8.53076H260.287Z" fill="#424143"/>
</g>
<defs>
<clipPath id="clip0_222_1340">
<rect width="200" height="48" fill="white" transform="translate(72 8)"/>
</clipPath>
</defs>
</svg>
